G04 MADE WITH FRITZING*
G04 WWW.FRITZING.ORG*
G04 DOUBLE SIDED*
G04 HOLES PLATED*
G04 CONTOUR ON CENTER OF CONTOUR VECTOR*
%ASAXBY*%
%FSLAX23Y23*%
%MOIN*%
%OFA0B0*%
%SFA1.0B1.0*%
%ADD10C,0.075000*%
%ADD11C,0.052000*%
%ADD12C,0.060000*%
%ADD13C,0.074000*%
%ADD14C,0.078000*%
%ADD15C,0.070000*%
%ADD16C,0.039370*%
%ADD17R,0.075000X0.075000*%
%ADD18R,0.078000X0.078000*%
%ADD19C,0.024000*%
%ADD20C,0.032000*%
%ADD21R,0.001000X0.001000*%
%LNCOPPER1*%
G90*
G70*
G54D10*
X1032Y1724D03*
X1332Y1724D03*
X1032Y1624D03*
X1332Y1624D03*
X1032Y1524D03*
X1332Y1524D03*
X1032Y1424D03*
X1332Y1424D03*
X1032Y1324D03*
X1332Y1324D03*
X1032Y1224D03*
X1332Y1224D03*
X1032Y1124D03*
X1332Y1124D03*
X1032Y1024D03*
X1332Y1024D03*
X1032Y924D03*
X1332Y924D03*
X1032Y824D03*
X1332Y824D03*
X1032Y724D03*
X1332Y724D03*
X1032Y624D03*
X1332Y624D03*
X1032Y524D03*
X1332Y524D03*
X1032Y424D03*
X1332Y424D03*
G54D11*
X632Y924D03*
X632Y734D03*
X632Y924D03*
X632Y734D03*
G54D12*
X1832Y2024D03*
X1832Y1924D03*
X1832Y1824D03*
X1832Y2024D03*
X1832Y1924D03*
X1832Y1824D03*
G54D13*
X2532Y2738D03*
X2532Y2631D03*
X2532Y2524D03*
X2532Y2738D03*
X2532Y2631D03*
X2532Y2524D03*
X2532Y2738D03*
X2532Y2631D03*
X2532Y2524D03*
G54D14*
X2332Y2724D03*
X2332Y2624D03*
X2332Y2724D03*
X2332Y2624D03*
G54D10*
X2532Y425D03*
X2276Y425D03*
X2532Y602D03*
X2276Y602D03*
X1932Y424D03*
X1676Y424D03*
X1932Y601D03*
X1676Y601D03*
X1332Y1824D03*
X1332Y2124D03*
X532Y1224D03*
X532Y1524D03*
X332Y1324D03*
X332Y1624D03*
X732Y1124D03*
X732Y1524D03*
X832Y1124D03*
X832Y1524D03*
X632Y1224D03*
X632Y1524D03*
X432Y1324D03*
X432Y1624D03*
X232Y1424D03*
X232Y1724D03*
G54D14*
X1632Y3124D03*
X1532Y3124D03*
X1432Y3124D03*
X1332Y3124D03*
X1232Y3124D03*
X1132Y3124D03*
X1132Y2224D03*
X1232Y2224D03*
X1332Y2224D03*
X1432Y2224D03*
X1532Y2224D03*
X1632Y2224D03*
X2332Y1424D03*
X2332Y1324D03*
X2332Y1224D03*
G54D15*
X2232Y2024D03*
X2232Y1924D03*
X2232Y2024D03*
X2232Y1924D03*
X432Y624D03*
X432Y724D03*
X432Y924D03*
X432Y1024D03*
X1732Y1824D03*
X1732Y1924D03*
X932Y1024D03*
X932Y1124D03*
X2132Y1624D03*
X2332Y1624D03*
G54D16*
X1632Y1124D03*
G54D17*
X1032Y1724D03*
G54D18*
X2332Y2724D03*
X2332Y2724D03*
X2332Y1424D03*
G54D19*
X1932Y2925D02*
X1932Y1123D01*
D02*
X1531Y2925D02*
X1932Y2925D01*
D02*
X1432Y726D02*
X1349Y724D01*
D02*
X1432Y825D02*
X1349Y824D01*
D02*
X1432Y3223D02*
X2031Y3223D01*
D02*
X2031Y3223D02*
X2031Y1123D01*
D02*
X1432Y3143D02*
X1432Y3223D01*
D02*
X1531Y3025D02*
X1531Y2925D01*
D02*
X1932Y1123D02*
X1432Y726D01*
D02*
X1532Y3105D02*
X1531Y3025D01*
D02*
X1432Y2026D02*
X1432Y825D01*
D02*
X1632Y2205D02*
X1631Y2125D01*
D02*
X1631Y2125D02*
X1432Y2026D01*
D02*
X632Y825D02*
X1014Y824D01*
D02*
X447Y924D02*
X616Y924D01*
G54D20*
D02*
X447Y1024D02*
X917Y1024D01*
G54D19*
D02*
X632Y750D02*
X632Y825D01*
D02*
X648Y924D02*
X1014Y924D01*
D02*
X1432Y623D02*
X1349Y624D01*
D02*
X2031Y1123D02*
X1432Y623D01*
D02*
X632Y726D02*
X632Y726D01*
D02*
X447Y724D02*
X632Y726D01*
D02*
X1032Y2026D02*
X1230Y2026D01*
D02*
X1032Y3124D02*
X1032Y2026D01*
D02*
X1113Y3124D02*
X1032Y3124D01*
D02*
X1230Y1625D02*
X1314Y1624D01*
D02*
X1230Y2026D02*
X1230Y1625D01*
G54D20*
D02*
X2431Y726D02*
X2431Y1424D01*
D02*
X2521Y615D02*
X2431Y726D01*
D02*
X2431Y1424D02*
X2351Y1424D01*
D02*
X1631Y1923D02*
X1717Y1924D01*
D02*
X1632Y1132D02*
X1631Y1923D01*
G54D21*
X1797Y2054D02*
X1866Y2054D01*
X1793Y2053D02*
X1870Y2053D01*
X1790Y2052D02*
X1873Y2052D01*
X1788Y2051D02*
X1875Y2051D01*
X1787Y2050D02*
X1877Y2050D01*
X1785Y2049D02*
X1878Y2049D01*
X1784Y2048D02*
X1880Y2048D01*
X1783Y2047D02*
X1881Y2047D01*
X1781Y2046D02*
X1882Y2046D01*
X1780Y2045D02*
X1883Y2045D01*
X1780Y2044D02*
X1827Y2044D01*
X1836Y2044D02*
X1884Y2044D01*
X1779Y2043D02*
X1824Y2043D01*
X1839Y2043D02*
X1885Y2043D01*
X1778Y2042D02*
X1822Y2042D01*
X1842Y2042D02*
X1885Y2042D01*
X1777Y2041D02*
X1820Y2041D01*
X1843Y2041D02*
X1886Y2041D01*
X1777Y2040D02*
X1819Y2040D01*
X1845Y2040D02*
X1887Y2040D01*
X1776Y2039D02*
X1818Y2039D01*
X1846Y2039D02*
X1887Y2039D01*
X1776Y2038D02*
X1817Y2038D01*
X1847Y2038D02*
X1888Y2038D01*
X1775Y2037D02*
X1816Y2037D01*
X1848Y2037D02*
X1888Y2037D01*
X1775Y2036D02*
X1815Y2036D01*
X1848Y2036D02*
X1889Y2036D01*
X1774Y2035D02*
X1814Y2035D01*
X1849Y2035D02*
X1889Y2035D01*
X1774Y2034D02*
X1814Y2034D01*
X1850Y2034D02*
X1890Y2034D01*
X1774Y2033D02*
X1813Y2033D01*
X1850Y2033D02*
X1890Y2033D01*
X1773Y2032D02*
X1813Y2032D01*
X1851Y2032D02*
X1890Y2032D01*
X1773Y2031D02*
X1812Y2031D01*
X1851Y2031D02*
X1890Y2031D01*
X1773Y2030D02*
X1812Y2030D01*
X1851Y2030D02*
X1891Y2030D01*
X1773Y2029D02*
X1812Y2029D01*
X1852Y2029D02*
X1891Y2029D01*
X1772Y2028D02*
X1812Y2028D01*
X1852Y2028D02*
X1891Y2028D01*
X1772Y2027D02*
X1811Y2027D01*
X1852Y2027D02*
X1891Y2027D01*
X1772Y2026D02*
X1811Y2026D01*
X1852Y2026D02*
X1891Y2026D01*
X1772Y2025D02*
X1811Y2025D01*
X1852Y2025D02*
X1891Y2025D01*
X1772Y2024D02*
X1811Y2024D01*
X1852Y2024D02*
X1891Y2024D01*
X1772Y2023D02*
X1811Y2023D01*
X1852Y2023D02*
X1891Y2023D01*
X1772Y2022D02*
X1811Y2022D01*
X1852Y2022D02*
X1891Y2022D01*
X1772Y2021D02*
X1812Y2021D01*
X1852Y2021D02*
X1891Y2021D01*
X1773Y2020D02*
X1812Y2020D01*
X1852Y2020D02*
X1891Y2020D01*
X1773Y2019D02*
X1812Y2019D01*
X1851Y2019D02*
X1891Y2019D01*
X1773Y2018D02*
X1812Y2018D01*
X1851Y2018D02*
X1890Y2018D01*
X1773Y2017D02*
X1813Y2017D01*
X1851Y2017D02*
X1890Y2017D01*
X1773Y2016D02*
X1813Y2016D01*
X1850Y2016D02*
X1890Y2016D01*
X1774Y2015D02*
X1814Y2015D01*
X1850Y2015D02*
X1890Y2015D01*
X1774Y2014D02*
X1814Y2014D01*
X1849Y2014D02*
X1889Y2014D01*
X1775Y2013D02*
X1815Y2013D01*
X1849Y2013D02*
X1889Y2013D01*
X1775Y2012D02*
X1816Y2012D01*
X1848Y2012D02*
X1888Y2012D01*
X1775Y2011D02*
X1816Y2011D01*
X1847Y2011D02*
X1888Y2011D01*
X1776Y2010D02*
X1817Y2010D01*
X1846Y2010D02*
X1887Y2010D01*
X1777Y2009D02*
X1819Y2009D01*
X1845Y2009D02*
X1887Y2009D01*
X1777Y2008D02*
X1820Y2008D01*
X1844Y2008D02*
X1886Y2008D01*
X1778Y2007D02*
X1822Y2007D01*
X1842Y2007D02*
X1886Y2007D01*
X1779Y2006D02*
X1824Y2006D01*
X1840Y2006D02*
X1885Y2006D01*
X1779Y2005D02*
X1827Y2005D01*
X1837Y2005D02*
X1884Y2005D01*
X1780Y2004D02*
X1883Y2004D01*
X1781Y2003D02*
X1882Y2003D01*
X1782Y2002D02*
X1881Y2002D01*
X1784Y2001D02*
X1880Y2001D01*
X1785Y2000D02*
X1879Y2000D01*
X1786Y1999D02*
X1877Y1999D01*
X1788Y1998D02*
X1875Y1998D01*
X1790Y1997D02*
X1873Y1997D01*
X1793Y1996D02*
X1871Y1996D01*
X1796Y1995D02*
X1867Y1995D01*
X1797Y1954D02*
X1866Y1954D01*
X1793Y1953D02*
X1870Y1953D01*
X1790Y1952D02*
X1873Y1952D01*
X1788Y1951D02*
X1875Y1951D01*
X1787Y1950D02*
X1877Y1950D01*
X1785Y1949D02*
X1878Y1949D01*
X1784Y1948D02*
X1880Y1948D01*
X1783Y1947D02*
X1881Y1947D01*
X1781Y1946D02*
X1882Y1946D01*
X1780Y1945D02*
X1883Y1945D01*
X1780Y1944D02*
X1827Y1944D01*
X1836Y1944D02*
X1884Y1944D01*
X1779Y1943D02*
X1824Y1943D01*
X1840Y1943D02*
X1885Y1943D01*
X1778Y1942D02*
X1822Y1942D01*
X1842Y1942D02*
X1885Y1942D01*
X1777Y1941D02*
X1820Y1941D01*
X1843Y1941D02*
X1886Y1941D01*
X1777Y1940D02*
X1819Y1940D01*
X1845Y1940D02*
X1887Y1940D01*
X1776Y1939D02*
X1818Y1939D01*
X1846Y1939D02*
X1887Y1939D01*
X1776Y1938D02*
X1817Y1938D01*
X1847Y1938D02*
X1888Y1938D01*
X1775Y1937D02*
X1816Y1937D01*
X1848Y1937D02*
X1888Y1937D01*
X1775Y1936D02*
X1815Y1936D01*
X1848Y1936D02*
X1889Y1936D01*
X1774Y1935D02*
X1814Y1935D01*
X1849Y1935D02*
X1889Y1935D01*
X1774Y1934D02*
X1814Y1934D01*
X1850Y1934D02*
X1890Y1934D01*
X1773Y1933D02*
X1813Y1933D01*
X1850Y1933D02*
X1890Y1933D01*
X1773Y1932D02*
X1813Y1932D01*
X1851Y1932D02*
X1890Y1932D01*
X1773Y1931D02*
X1812Y1931D01*
X1851Y1931D02*
X1890Y1931D01*
X1773Y1930D02*
X1812Y1930D01*
X1851Y1930D02*
X1891Y1930D01*
X1773Y1929D02*
X1812Y1929D01*
X1852Y1929D02*
X1891Y1929D01*
X1772Y1928D02*
X1812Y1928D01*
X1852Y1928D02*
X1891Y1928D01*
X1772Y1927D02*
X1811Y1927D01*
X1852Y1927D02*
X1891Y1927D01*
X1772Y1926D02*
X1811Y1926D01*
X1852Y1926D02*
X1891Y1926D01*
X1772Y1925D02*
X1811Y1925D01*
X1852Y1925D02*
X1891Y1925D01*
X1772Y1924D02*
X1811Y1924D01*
X1852Y1924D02*
X1891Y1924D01*
X1772Y1923D02*
X1811Y1923D01*
X1852Y1923D02*
X1891Y1923D01*
X1772Y1922D02*
X1811Y1922D01*
X1852Y1922D02*
X1891Y1922D01*
X1772Y1921D02*
X1812Y1921D01*
X1852Y1921D02*
X1891Y1921D01*
X1773Y1920D02*
X1812Y1920D01*
X1852Y1920D02*
X1891Y1920D01*
X1773Y1919D02*
X1812Y1919D01*
X1851Y1919D02*
X1891Y1919D01*
X1773Y1918D02*
X1812Y1918D01*
X1851Y1918D02*
X1890Y1918D01*
X1773Y1917D02*
X1813Y1917D01*
X1851Y1917D02*
X1890Y1917D01*
X1773Y1916D02*
X1813Y1916D01*
X1850Y1916D02*
X1890Y1916D01*
X1774Y1915D02*
X1814Y1915D01*
X1850Y1915D02*
X1890Y1915D01*
X1774Y1914D02*
X1814Y1914D01*
X1849Y1914D02*
X1889Y1914D01*
X1775Y1913D02*
X1815Y1913D01*
X1849Y1913D02*
X1889Y1913D01*
X1775Y1912D02*
X1816Y1912D01*
X1848Y1912D02*
X1888Y1912D01*
X1775Y1911D02*
X1817Y1911D01*
X1847Y1911D02*
X1888Y1911D01*
X1776Y1910D02*
X1817Y1910D01*
X1846Y1910D02*
X1887Y1910D01*
X1777Y1909D02*
X1819Y1909D01*
X1845Y1909D02*
X1887Y1909D01*
X1777Y1908D02*
X1820Y1908D01*
X1844Y1908D02*
X1886Y1908D01*
X1778Y1907D02*
X1822Y1907D01*
X1842Y1907D02*
X1886Y1907D01*
X1779Y1906D02*
X1824Y1906D01*
X1840Y1906D02*
X1885Y1906D01*
X1779Y1905D02*
X1827Y1905D01*
X1837Y1905D02*
X1884Y1905D01*
X1780Y1904D02*
X1883Y1904D01*
X1781Y1903D02*
X1882Y1903D01*
X1782Y1902D02*
X1881Y1902D01*
X1784Y1901D02*
X1880Y1901D01*
X1785Y1900D02*
X1879Y1900D01*
X1786Y1899D02*
X1877Y1899D01*
X1788Y1898D02*
X1875Y1898D01*
X1790Y1897D02*
X1873Y1897D01*
X1793Y1896D02*
X1871Y1896D01*
X1796Y1895D02*
X1867Y1895D01*
X1797Y1854D02*
X1866Y1854D01*
X1793Y1853D02*
X1870Y1853D01*
X1790Y1852D02*
X1873Y1852D01*
X1788Y1851D02*
X1875Y1851D01*
X1787Y1850D02*
X1877Y1850D01*
X1785Y1849D02*
X1878Y1849D01*
X1784Y1848D02*
X1880Y1848D01*
X1782Y1847D02*
X1881Y1847D01*
X1781Y1846D02*
X1882Y1846D01*
X1780Y1845D02*
X1883Y1845D01*
X1780Y1844D02*
X1827Y1844D01*
X1836Y1844D02*
X1884Y1844D01*
X1779Y1843D02*
X1824Y1843D01*
X1840Y1843D02*
X1885Y1843D01*
X1778Y1842D02*
X1822Y1842D01*
X1842Y1842D02*
X1885Y1842D01*
X1777Y1841D02*
X1820Y1841D01*
X1843Y1841D02*
X1886Y1841D01*
X1777Y1840D02*
X1819Y1840D01*
X1845Y1840D02*
X1887Y1840D01*
X1776Y1839D02*
X1818Y1839D01*
X1846Y1839D02*
X1887Y1839D01*
X1776Y1838D02*
X1817Y1838D01*
X1847Y1838D02*
X1888Y1838D01*
X1775Y1837D02*
X1816Y1837D01*
X1848Y1837D02*
X1888Y1837D01*
X1775Y1836D02*
X1815Y1836D01*
X1848Y1836D02*
X1889Y1836D01*
X1774Y1835D02*
X1814Y1835D01*
X1849Y1835D02*
X1889Y1835D01*
X1774Y1834D02*
X1814Y1834D01*
X1850Y1834D02*
X1890Y1834D01*
X1773Y1833D02*
X1813Y1833D01*
X1850Y1833D02*
X1890Y1833D01*
X1773Y1832D02*
X1813Y1832D01*
X1851Y1832D02*
X1890Y1832D01*
X1773Y1831D02*
X1812Y1831D01*
X1851Y1831D02*
X1890Y1831D01*
X1773Y1830D02*
X1812Y1830D01*
X1851Y1830D02*
X1891Y1830D01*
X1773Y1829D02*
X1812Y1829D01*
X1852Y1829D02*
X1891Y1829D01*
X1772Y1828D02*
X1812Y1828D01*
X1852Y1828D02*
X1891Y1828D01*
X1772Y1827D02*
X1811Y1827D01*
X1852Y1827D02*
X1891Y1827D01*
X1772Y1826D02*
X1811Y1826D01*
X1852Y1826D02*
X1891Y1826D01*
X1772Y1825D02*
X1811Y1825D01*
X1852Y1825D02*
X1891Y1825D01*
X1772Y1824D02*
X1811Y1824D01*
X1852Y1824D02*
X1891Y1824D01*
X1772Y1823D02*
X1811Y1823D01*
X1852Y1823D02*
X1891Y1823D01*
X1772Y1822D02*
X1811Y1822D01*
X1852Y1822D02*
X1891Y1822D01*
X1772Y1821D02*
X1812Y1821D01*
X1852Y1821D02*
X1891Y1821D01*
X1773Y1820D02*
X1812Y1820D01*
X1852Y1820D02*
X1891Y1820D01*
X1773Y1819D02*
X1812Y1819D01*
X1851Y1819D02*
X1891Y1819D01*
X1773Y1818D02*
X1812Y1818D01*
X1851Y1818D02*
X1890Y1818D01*
X1773Y1817D02*
X1813Y1817D01*
X1851Y1817D02*
X1890Y1817D01*
X1773Y1816D02*
X1813Y1816D01*
X1850Y1816D02*
X1890Y1816D01*
X1774Y1815D02*
X1814Y1815D01*
X1850Y1815D02*
X1890Y1815D01*
X1774Y1814D02*
X1814Y1814D01*
X1849Y1814D02*
X1889Y1814D01*
X1775Y1813D02*
X1815Y1813D01*
X1849Y1813D02*
X1889Y1813D01*
X1775Y1812D02*
X1816Y1812D01*
X1848Y1812D02*
X1888Y1812D01*
X1775Y1811D02*
X1817Y1811D01*
X1847Y1811D02*
X1888Y1811D01*
X1776Y1810D02*
X1817Y1810D01*
X1846Y1810D02*
X1887Y1810D01*
X1777Y1809D02*
X1819Y1809D01*
X1845Y1809D02*
X1887Y1809D01*
X1777Y1808D02*
X1820Y1808D01*
X1844Y1808D02*
X1886Y1808D01*
X1778Y1807D02*
X1822Y1807D01*
X1842Y1807D02*
X1886Y1807D01*
X1779Y1806D02*
X1824Y1806D01*
X1840Y1806D02*
X1885Y1806D01*
X1779Y1805D02*
X1827Y1805D01*
X1837Y1805D02*
X1884Y1805D01*
X1780Y1804D02*
X1883Y1804D01*
X1781Y1803D02*
X1882Y1803D01*
X1782Y1802D02*
X1881Y1802D01*
X1784Y1801D02*
X1880Y1801D01*
X1785Y1800D02*
X1879Y1800D01*
X1786Y1799D02*
X1877Y1799D01*
X1788Y1798D02*
X1875Y1798D01*
X1790Y1797D02*
X1873Y1797D01*
X1793Y1796D02*
X1871Y1796D01*
X1796Y1795D02*
X1867Y1795D01*
D02*
G04 End of Copper1*
M02*