; NON-PLATED HOLES START AT T1
; THROUGH (PLATED) HOLES START AT T100
M48
INCH
T1C0.130000
T2C0.086614
T100C0.038000
T101C0.032000
T102C0.015748
T103C0.040000
T104C0.030000
T105C0.035000
%
T1
X024218Y019241
T2
X000712Y000691
X026872Y000691
X000712Y034728
X026830Y034696
T100
X016318Y022241
X023318Y013241
X016318Y031240
X013318Y031240
X023318Y026240
X013318Y022241
X015318Y022241
X012318Y022241
X023318Y012241
X014318Y031240
X023318Y027240
X011318Y022241
X023318Y014241
X012318Y031240
X011318Y031240
X015318Y031240
X014318Y022241
T101
X008318Y007240
X008318Y009141
T102
X015318Y011241
T103
X018318Y019241
X018318Y018241
X018318Y020241
X025318Y027380
X025318Y026310
X025318Y025241
T104
X023318Y016241
X021318Y016241
X009318Y011242
X006318Y007240
X017318Y020242
X006318Y010240
X016318Y018239
X009318Y010241
X006318Y006239
X016318Y019240
X017318Y019241
X006318Y009239
T105
X013318Y004240
X010318Y012241
X010318Y011241
X013318Y021241
X010318Y005240
X007318Y015241
X013318Y015241
X004318Y013241
X011318Y018241
X005318Y012241
X008318Y011241
X010318Y014241
X006318Y015241
X016759Y004240
X010318Y015241
X008318Y015241
X013318Y017241
X003318Y013241
X010318Y017241
X010318Y009241
X010318Y013241
X010318Y006240
X003318Y016241
X019318Y004240
X002318Y014241
X025318Y006018
X013318Y009241
X013318Y007240
X013318Y006240
X013318Y016241
X021318Y012241
X025318Y004247
X007318Y011241
X013318Y012241
X013318Y013241
X005318Y015241
X022759Y006018
X013318Y005240
X010318Y008241
X022759Y004247
X002318Y017241
X016759Y006012
X013318Y014241
X010318Y018241
X010318Y007240
X019318Y006012
X013318Y018241
X013318Y010241
X013318Y011241
X021318Y009241
X013318Y008241
X010318Y016241
X004318Y016241
X010318Y010241
X006318Y012241
X010318Y004240
T00
M30
