G04 MADE WITH FRITZING*
G04 WWW.FRITZING.ORG*
G04 DOUBLE SIDED*
G04 HOLES PLATED*
G04 CONTOUR ON CENTER OF CONTOUR VECTOR*
%ASAXBY*%
%FSLAX23Y23*%
%MOIN*%
%OFA0B0*%
%SFA1.0B1.0*%
%ADD10C,0.049370*%
%ADD11C,0.085000*%
%ADD12C,0.062000*%
%ADD13C,0.070000*%
%ADD14C,0.140000*%
%ADD15C,0.084000*%
%ADD16C,0.088000*%
%ADD17C,0.080000*%
%ADD18C,0.096614*%
%ADD19R,0.085000X0.085000*%
%ADD20R,0.088000X0.088000*%
%ADD21R,0.001000X0.001000*%
%LNMASK1*%
G90*
G70*
G54D10*
X1532Y1124D03*
G54D11*
X1032Y1724D03*
X1332Y1724D03*
X1032Y1624D03*
X1332Y1624D03*
X1032Y1524D03*
X1332Y1524D03*
X1032Y1424D03*
X1332Y1424D03*
X1032Y1324D03*
X1332Y1324D03*
X1032Y1224D03*
X1332Y1224D03*
X1032Y1124D03*
X1332Y1124D03*
X1032Y1024D03*
X1332Y1024D03*
X1032Y924D03*
X1332Y924D03*
X1032Y824D03*
X1332Y824D03*
X1032Y724D03*
X1332Y724D03*
X1032Y624D03*
X1332Y624D03*
X1032Y524D03*
X1332Y524D03*
X1032Y424D03*
X1332Y424D03*
G54D12*
X832Y914D03*
X832Y724D03*
X832Y914D03*
X832Y724D03*
G54D13*
X1832Y2024D03*
X1832Y1924D03*
X1832Y1824D03*
G54D14*
X2422Y1924D03*
G54D13*
X1832Y2024D03*
X1832Y1924D03*
X1832Y1824D03*
G54D14*
X2422Y1924D03*
G54D15*
X2532Y2738D03*
X2532Y2631D03*
X2532Y2524D03*
X2532Y2738D03*
X2532Y2631D03*
X2532Y2524D03*
X2532Y2738D03*
X2532Y2631D03*
X2532Y2524D03*
G54D16*
X2332Y2724D03*
X2332Y2624D03*
X2332Y2724D03*
X2332Y2624D03*
G54D11*
X2532Y425D03*
X2276Y425D03*
X2532Y602D03*
X2276Y602D03*
X1932Y424D03*
X1676Y424D03*
X1932Y601D03*
X1676Y601D03*
X1332Y1824D03*
X1332Y2124D03*
X532Y1224D03*
X532Y1524D03*
X332Y1324D03*
X332Y1624D03*
X732Y1124D03*
X732Y1524D03*
X832Y1124D03*
X832Y1524D03*
X632Y1224D03*
X632Y1524D03*
X432Y1324D03*
X432Y1624D03*
X2132Y924D03*
X2132Y1224D03*
X232Y1424D03*
X232Y1724D03*
G54D16*
X1632Y3124D03*
X1532Y3124D03*
X1432Y3124D03*
X1332Y3124D03*
X1232Y3124D03*
X1132Y3124D03*
X1132Y2224D03*
X1232Y2224D03*
X1332Y2224D03*
X1432Y2224D03*
X1532Y2224D03*
X1632Y2224D03*
X2332Y1424D03*
X2332Y1324D03*
X2332Y1224D03*
G54D17*
X632Y624D03*
X632Y724D03*
X632Y924D03*
X632Y1024D03*
X1632Y1824D03*
X1632Y1924D03*
X932Y1024D03*
X932Y1124D03*
X2132Y1624D03*
X2332Y1624D03*
G54D18*
X2683Y3470D03*
X71Y3473D03*
X2687Y69D03*
X71Y69D03*
G54D11*
X1032Y1824D03*
X1132Y1824D03*
G54D17*
X1732Y2024D03*
X1732Y1924D03*
X1732Y2024D03*
X1732Y1924D03*
G54D19*
X1032Y1724D03*
G54D20*
X2332Y2724D03*
X2332Y2724D03*
X2332Y1424D03*
G54D21*
X1797Y2059D02*
X1866Y2059D01*
X1793Y2058D02*
X1871Y2058D01*
X1790Y2057D02*
X1874Y2057D01*
X1787Y2056D02*
X1876Y2056D01*
X1785Y2055D02*
X1878Y2055D01*
X1784Y2054D02*
X1880Y2054D01*
X1782Y2053D02*
X1881Y2053D01*
X1781Y2052D02*
X1883Y2052D01*
X1780Y2051D02*
X1884Y2051D01*
X1778Y2050D02*
X1885Y2050D01*
X1777Y2049D02*
X1886Y2049D01*
X1776Y2048D02*
X1887Y2048D01*
X1776Y2047D02*
X1888Y2047D01*
X1775Y2046D02*
X1889Y2046D01*
X1774Y2045D02*
X1889Y2045D01*
X1773Y2044D02*
X1890Y2044D01*
X1773Y2043D02*
X1891Y2043D01*
X1772Y2042D02*
X1891Y2042D01*
X1772Y2041D02*
X1892Y2041D01*
X1771Y2040D02*
X1892Y2040D01*
X1771Y2039D02*
X1828Y2039D01*
X1836Y2039D02*
X1893Y2039D01*
X1770Y2038D02*
X1825Y2038D01*
X1839Y2038D02*
X1893Y2038D01*
X1770Y2037D02*
X1823Y2037D01*
X1840Y2037D02*
X1894Y2037D01*
X1769Y2036D02*
X1822Y2036D01*
X1842Y2036D02*
X1894Y2036D01*
X1769Y2035D02*
X1821Y2035D01*
X1843Y2035D02*
X1894Y2035D01*
X1769Y2034D02*
X1820Y2034D01*
X1844Y2034D02*
X1895Y2034D01*
X1768Y2033D02*
X1819Y2033D01*
X1845Y2033D02*
X1895Y2033D01*
X1768Y2032D02*
X1818Y2032D01*
X1845Y2032D02*
X1895Y2032D01*
X1768Y2031D02*
X1818Y2031D01*
X1846Y2031D02*
X1896Y2031D01*
X1768Y2030D02*
X1817Y2030D01*
X1846Y2030D02*
X1896Y2030D01*
X1768Y2029D02*
X1817Y2029D01*
X1847Y2029D02*
X1896Y2029D01*
X1767Y2028D02*
X1817Y2028D01*
X1847Y2028D02*
X1896Y2028D01*
X1767Y2027D02*
X1816Y2027D01*
X1847Y2027D02*
X1896Y2027D01*
X1767Y2026D02*
X1816Y2026D01*
X1847Y2026D02*
X1896Y2026D01*
X1767Y2025D02*
X1816Y2025D01*
X1847Y2025D02*
X1896Y2025D01*
X1767Y2024D02*
X1816Y2024D01*
X1847Y2024D02*
X1896Y2024D01*
X1767Y2023D02*
X1816Y2023D01*
X1847Y2023D02*
X1896Y2023D01*
X1767Y2022D02*
X1816Y2022D01*
X1847Y2022D02*
X1896Y2022D01*
X1767Y2021D02*
X1817Y2021D01*
X1847Y2021D02*
X1896Y2021D01*
X1768Y2020D02*
X1817Y2020D01*
X1847Y2020D02*
X1896Y2020D01*
X1768Y2019D02*
X1817Y2019D01*
X1846Y2019D02*
X1896Y2019D01*
X1768Y2018D02*
X1818Y2018D01*
X1846Y2018D02*
X1896Y2018D01*
X1768Y2017D02*
X1818Y2017D01*
X1845Y2017D02*
X1895Y2017D01*
X1768Y2016D02*
X1819Y2016D01*
X1845Y2016D02*
X1895Y2016D01*
X1769Y2015D02*
X1820Y2015D01*
X1844Y2015D02*
X1895Y2015D01*
X1769Y2014D02*
X1820Y2014D01*
X1843Y2014D02*
X1895Y2014D01*
X1769Y2013D02*
X1822Y2013D01*
X1842Y2013D02*
X1894Y2013D01*
X1770Y2012D02*
X1823Y2012D01*
X1841Y2012D02*
X1894Y2012D01*
X1770Y2011D02*
X1824Y2011D01*
X1839Y2011D02*
X1893Y2011D01*
X1770Y2010D02*
X1827Y2010D01*
X1836Y2010D02*
X1893Y2010D01*
X1771Y2009D02*
X1892Y2009D01*
X1771Y2008D02*
X1892Y2008D01*
X1772Y2007D02*
X1891Y2007D01*
X1773Y2006D02*
X1891Y2006D01*
X1773Y2005D02*
X1890Y2005D01*
X1774Y2004D02*
X1890Y2004D01*
X1775Y2003D02*
X1889Y2003D01*
X1775Y2002D02*
X1888Y2002D01*
X1776Y2001D02*
X1887Y2001D01*
X1777Y2000D02*
X1886Y2000D01*
X1778Y1999D02*
X1885Y1999D01*
X1779Y1998D02*
X1884Y1998D01*
X1781Y1997D02*
X1883Y1997D01*
X1782Y1996D02*
X1882Y1996D01*
X1783Y1995D02*
X1880Y1995D01*
X1785Y1994D02*
X1878Y1994D01*
X1787Y1993D02*
X1876Y1993D01*
X1789Y1992D02*
X1874Y1992D01*
X1792Y1991D02*
X1871Y1991D01*
X1796Y1990D02*
X1867Y1990D01*
X1797Y1959D02*
X1866Y1959D01*
X1793Y1958D02*
X1871Y1958D01*
X1790Y1957D02*
X1874Y1957D01*
X1787Y1956D02*
X1876Y1956D01*
X1785Y1955D02*
X1878Y1955D01*
X1784Y1954D02*
X1880Y1954D01*
X1782Y1953D02*
X1881Y1953D01*
X1781Y1952D02*
X1883Y1952D01*
X1780Y1951D02*
X1884Y1951D01*
X1778Y1950D02*
X1885Y1950D01*
X1777Y1949D02*
X1886Y1949D01*
X1776Y1948D02*
X1887Y1948D01*
X1776Y1947D02*
X1888Y1947D01*
X1775Y1946D02*
X1889Y1946D01*
X1774Y1945D02*
X1889Y1945D01*
X1773Y1944D02*
X1890Y1944D01*
X1773Y1943D02*
X1891Y1943D01*
X1772Y1942D02*
X1891Y1942D01*
X1772Y1941D02*
X1892Y1941D01*
X1771Y1940D02*
X1892Y1940D01*
X1771Y1939D02*
X1828Y1939D01*
X1836Y1939D02*
X1893Y1939D01*
X1770Y1938D02*
X1825Y1938D01*
X1839Y1938D02*
X1893Y1938D01*
X1770Y1937D02*
X1823Y1937D01*
X1840Y1937D02*
X1894Y1937D01*
X1769Y1936D02*
X1822Y1936D01*
X1842Y1936D02*
X1894Y1936D01*
X1769Y1935D02*
X1821Y1935D01*
X1843Y1935D02*
X1894Y1935D01*
X1769Y1934D02*
X1820Y1934D01*
X1844Y1934D02*
X1895Y1934D01*
X1768Y1933D02*
X1819Y1933D01*
X1845Y1933D02*
X1895Y1933D01*
X1768Y1932D02*
X1818Y1932D01*
X1845Y1932D02*
X1895Y1932D01*
X1768Y1931D02*
X1818Y1931D01*
X1846Y1931D02*
X1896Y1931D01*
X1768Y1930D02*
X1817Y1930D01*
X1846Y1930D02*
X1896Y1930D01*
X1768Y1929D02*
X1817Y1929D01*
X1847Y1929D02*
X1896Y1929D01*
X1767Y1928D02*
X1817Y1928D01*
X1847Y1928D02*
X1896Y1928D01*
X1767Y1927D02*
X1816Y1927D01*
X1847Y1927D02*
X1896Y1927D01*
X1767Y1926D02*
X1816Y1926D01*
X1847Y1926D02*
X1896Y1926D01*
X1767Y1925D02*
X1816Y1925D01*
X1847Y1925D02*
X1896Y1925D01*
X1767Y1924D02*
X1816Y1924D01*
X1847Y1924D02*
X1896Y1924D01*
X1767Y1923D02*
X1816Y1923D01*
X1847Y1923D02*
X1896Y1923D01*
X1767Y1922D02*
X1816Y1922D01*
X1847Y1922D02*
X1896Y1922D01*
X1767Y1921D02*
X1817Y1921D01*
X1847Y1921D02*
X1896Y1921D01*
X1768Y1920D02*
X1817Y1920D01*
X1847Y1920D02*
X1896Y1920D01*
X1768Y1919D02*
X1817Y1919D01*
X1846Y1919D02*
X1896Y1919D01*
X1768Y1918D02*
X1818Y1918D01*
X1846Y1918D02*
X1896Y1918D01*
X1768Y1917D02*
X1818Y1917D01*
X1845Y1917D02*
X1895Y1917D01*
X1768Y1916D02*
X1819Y1916D01*
X1845Y1916D02*
X1895Y1916D01*
X1769Y1915D02*
X1820Y1915D01*
X1844Y1915D02*
X1895Y1915D01*
X1769Y1914D02*
X1820Y1914D01*
X1843Y1914D02*
X1895Y1914D01*
X1769Y1913D02*
X1822Y1913D01*
X1842Y1913D02*
X1894Y1913D01*
X1770Y1912D02*
X1823Y1912D01*
X1841Y1912D02*
X1894Y1912D01*
X1770Y1911D02*
X1825Y1911D01*
X1839Y1911D02*
X1893Y1911D01*
X1770Y1910D02*
X1827Y1910D01*
X1836Y1910D02*
X1893Y1910D01*
X1771Y1909D02*
X1892Y1909D01*
X1771Y1908D02*
X1892Y1908D01*
X1772Y1907D02*
X1891Y1907D01*
X1773Y1906D02*
X1891Y1906D01*
X1773Y1905D02*
X1890Y1905D01*
X1774Y1904D02*
X1890Y1904D01*
X1775Y1903D02*
X1889Y1903D01*
X1775Y1902D02*
X1888Y1902D01*
X1776Y1901D02*
X1887Y1901D01*
X1777Y1900D02*
X1886Y1900D01*
X1778Y1899D02*
X1885Y1899D01*
X1779Y1898D02*
X1884Y1898D01*
X1781Y1897D02*
X1883Y1897D01*
X1782Y1896D02*
X1882Y1896D01*
X1783Y1895D02*
X1880Y1895D01*
X1785Y1894D02*
X1878Y1894D01*
X1787Y1893D02*
X1876Y1893D01*
X1789Y1892D02*
X1874Y1892D01*
X1792Y1891D02*
X1871Y1891D01*
X1796Y1890D02*
X1867Y1890D01*
X1797Y1859D02*
X1866Y1859D01*
X1793Y1858D02*
X1871Y1858D01*
X1790Y1857D02*
X1874Y1857D01*
X1787Y1856D02*
X1876Y1856D01*
X1785Y1855D02*
X1878Y1855D01*
X1784Y1854D02*
X1880Y1854D01*
X1782Y1853D02*
X1881Y1853D01*
X1781Y1852D02*
X1883Y1852D01*
X1780Y1851D02*
X1884Y1851D01*
X1778Y1850D02*
X1885Y1850D01*
X1777Y1849D02*
X1886Y1849D01*
X1776Y1848D02*
X1887Y1848D01*
X1776Y1847D02*
X1888Y1847D01*
X1775Y1846D02*
X1889Y1846D01*
X1774Y1845D02*
X1889Y1845D01*
X1773Y1844D02*
X1890Y1844D01*
X1773Y1843D02*
X1891Y1843D01*
X1772Y1842D02*
X1891Y1842D01*
X1772Y1841D02*
X1892Y1841D01*
X1771Y1840D02*
X1892Y1840D01*
X1771Y1839D02*
X1828Y1839D01*
X1836Y1839D02*
X1893Y1839D01*
X1770Y1838D02*
X1825Y1838D01*
X1839Y1838D02*
X1893Y1838D01*
X1770Y1837D02*
X1823Y1837D01*
X1840Y1837D02*
X1894Y1837D01*
X1769Y1836D02*
X1822Y1836D01*
X1842Y1836D02*
X1894Y1836D01*
X1769Y1835D02*
X1821Y1835D01*
X1843Y1835D02*
X1894Y1835D01*
X1769Y1834D02*
X1820Y1834D01*
X1844Y1834D02*
X1895Y1834D01*
X1768Y1833D02*
X1819Y1833D01*
X1845Y1833D02*
X1895Y1833D01*
X1768Y1832D02*
X1818Y1832D01*
X1845Y1832D02*
X1895Y1832D01*
X1768Y1831D02*
X1818Y1831D01*
X1846Y1831D02*
X1896Y1831D01*
X1768Y1830D02*
X1817Y1830D01*
X1846Y1830D02*
X1896Y1830D01*
X1768Y1829D02*
X1817Y1829D01*
X1847Y1829D02*
X1896Y1829D01*
X1767Y1828D02*
X1817Y1828D01*
X1847Y1828D02*
X1896Y1828D01*
X1767Y1827D02*
X1816Y1827D01*
X1847Y1827D02*
X1896Y1827D01*
X1767Y1826D02*
X1816Y1826D01*
X1847Y1826D02*
X1896Y1826D01*
X1767Y1825D02*
X1816Y1825D01*
X1847Y1825D02*
X1896Y1825D01*
X1767Y1824D02*
X1816Y1824D01*
X1847Y1824D02*
X1896Y1824D01*
X1767Y1823D02*
X1816Y1823D01*
X1847Y1823D02*
X1896Y1823D01*
X1767Y1822D02*
X1816Y1822D01*
X1847Y1822D02*
X1896Y1822D01*
X1767Y1821D02*
X1817Y1821D01*
X1847Y1821D02*
X1896Y1821D01*
X1768Y1820D02*
X1817Y1820D01*
X1847Y1820D02*
X1896Y1820D01*
X1768Y1819D02*
X1817Y1819D01*
X1846Y1819D02*
X1896Y1819D01*
X1768Y1818D02*
X1818Y1818D01*
X1846Y1818D02*
X1896Y1818D01*
X1768Y1817D02*
X1818Y1817D01*
X1845Y1817D02*
X1895Y1817D01*
X1768Y1816D02*
X1819Y1816D01*
X1845Y1816D02*
X1895Y1816D01*
X1769Y1815D02*
X1820Y1815D01*
X1844Y1815D02*
X1895Y1815D01*
X1769Y1814D02*
X1821Y1814D01*
X1843Y1814D02*
X1895Y1814D01*
X1769Y1813D02*
X1822Y1813D01*
X1842Y1813D02*
X1894Y1813D01*
X1770Y1812D02*
X1823Y1812D01*
X1841Y1812D02*
X1894Y1812D01*
X1770Y1811D02*
X1825Y1811D01*
X1839Y1811D02*
X1893Y1811D01*
X1770Y1810D02*
X1827Y1810D01*
X1836Y1810D02*
X1893Y1810D01*
X1771Y1809D02*
X1892Y1809D01*
X1771Y1808D02*
X1892Y1808D01*
X1772Y1807D02*
X1891Y1807D01*
X1773Y1806D02*
X1891Y1806D01*
X1773Y1805D02*
X1890Y1805D01*
X1774Y1804D02*
X1890Y1804D01*
X1775Y1803D02*
X1889Y1803D01*
X1775Y1802D02*
X1888Y1802D01*
X1776Y1801D02*
X1887Y1801D01*
X1777Y1800D02*
X1886Y1800D01*
X1778Y1799D02*
X1885Y1799D01*
X1779Y1798D02*
X1884Y1798D01*
X1781Y1797D02*
X1883Y1797D01*
X1782Y1796D02*
X1881Y1796D01*
X1783Y1795D02*
X1880Y1795D01*
X1785Y1794D02*
X1878Y1794D01*
X1787Y1793D02*
X1876Y1793D01*
X1789Y1792D02*
X1874Y1792D01*
X1792Y1791D02*
X1871Y1791D01*
X1796Y1790D02*
X1867Y1790D01*
D02*
G04 End of Mask1*
M02*