; NON-PLATED HOLES START AT T1
; THROUGH (PLATED) HOLES START AT T100
M48
INCH
T1C0.086614
T2C0.130000
T100C0.015748
T101C0.038000
T102C0.040000
T103C0.030000
T104C0.032000
T105C0.035000
%
T1
X000712Y000691
X000712Y034728
X026872Y000691
X026830Y034696
T2
X024218Y019241
T100
X016318Y011241
T101
X023318Y026240
X023318Y013241
X023318Y027240
X013318Y031240
X011318Y022241
X023318Y012241
X015318Y022241
X015318Y031240
X014318Y022241
X014318Y031240
X011318Y031240
X016318Y022241
X013318Y022241
X012318Y031240
X016318Y031240
X023318Y014241
X012318Y022241
T102
X018318Y020241
X025318Y026310
X025318Y027380
X025318Y025241
X018318Y018241
X018318Y019241
T103
X022318Y019239
X004318Y006240
X009318Y010241
X017318Y019242
X004318Y009241
X004318Y010242
X021318Y016241
X009318Y011242
X004318Y007242
X023318Y016241
X017318Y018241
X022318Y020241
T104
X006318Y009241
X006318Y007340
T105
X010318Y011241
X016759Y004240
X013318Y010241
X004318Y016241
X006318Y012241
X013318Y018241
X007318Y015241
X010318Y009241
X013318Y011241
X013318Y009241
X013318Y008241
X021318Y012241
X013318Y017241
X013318Y015241
X025318Y004247
X010318Y016241
X008318Y015241
X022759Y004247
X010318Y013241
X013318Y021241
X010318Y012241
X010318Y006240
X005318Y012241
X010318Y010241
X013318Y006240
X010318Y014241
X003318Y016241
X013318Y007240
X010318Y017241
X013318Y016241
X004318Y013241
X002318Y017241
X013318Y012241
X019318Y004240
X005318Y015241
X025318Y006018
X002318Y014241
X013318Y005240
X013318Y013241
X013318Y004240
X008318Y011241
X019318Y006012
X021318Y009241
X006318Y015241
X010318Y007240
X003318Y013241
X022759Y006018
X010318Y015241
X007318Y011241
X016759Y006012
X010318Y004240
X013318Y014241
X010318Y008241
X010318Y005240
T00
M30
