G04 MADE WITH FRITZING*
G04 WWW.FRITZING.ORG*
G04 DOUBLE SIDED*
G04 HOLES PLATED*
G04 CONTOUR ON CENTER OF CONTOUR VECTOR*
%ASAXBY*%
%FSLAX23Y23*%
%MOIN*%
%OFA0B0*%
%SFA1.0B1.0*%
%ADD10C,0.075000*%
%ADD11C,0.039370*%
%ADD12C,0.052000*%
%ADD13C,0.060000*%
%ADD14C,0.074000*%
%ADD15C,0.078000*%
%ADD16C,0.070000*%
%ADD17R,0.075000X0.075000*%
%ADD18R,0.078000X0.078000*%
%ADD19C,0.032000*%
%ADD20C,0.024000*%
%ADD21C,0.000100*%
%ADD22R,0.001000X0.001000*%
%LNCOPPER0*%
G90*
G70*
G54D10*
X1427Y2991D03*
X634Y2434D03*
X1216Y1791D03*
X326Y1195D03*
X616Y1101D03*
X916Y908D03*
X123Y3337D03*
G54D11*
X1632Y1124D03*
G54D10*
X1032Y1724D03*
X1332Y1724D03*
X1032Y1624D03*
X1332Y1624D03*
X1032Y1524D03*
X1332Y1524D03*
X1032Y1424D03*
X1332Y1424D03*
X1032Y1324D03*
X1332Y1324D03*
X1032Y1224D03*
X1332Y1224D03*
X1032Y1124D03*
X1332Y1124D03*
X1032Y1024D03*
X1332Y1024D03*
X1032Y924D03*
X1332Y924D03*
X1032Y824D03*
X1332Y824D03*
X1032Y724D03*
X1332Y724D03*
X1032Y624D03*
X1332Y624D03*
X1032Y524D03*
X1332Y524D03*
X1032Y424D03*
X1332Y424D03*
G54D12*
X632Y924D03*
X632Y734D03*
G54D13*
X1832Y2024D03*
X1832Y1924D03*
X1832Y1824D03*
G54D14*
X2532Y2738D03*
X2532Y2631D03*
X2532Y2524D03*
X2532Y2738D03*
X2532Y2631D03*
X2532Y2524D03*
X2532Y2738D03*
X2532Y2631D03*
X2532Y2524D03*
G54D15*
X2332Y2724D03*
X2332Y2624D03*
X2332Y2724D03*
X2332Y2624D03*
G54D10*
X2532Y425D03*
X2276Y425D03*
X2532Y602D03*
X2276Y602D03*
X1932Y424D03*
X1676Y424D03*
X1932Y601D03*
X1676Y601D03*
X1332Y1824D03*
X1332Y2124D03*
X532Y1224D03*
X532Y1524D03*
X332Y1324D03*
X332Y1624D03*
X732Y1124D03*
X732Y1524D03*
X832Y1124D03*
X832Y1524D03*
X632Y1224D03*
X632Y1524D03*
X432Y1324D03*
X432Y1624D03*
X2132Y924D03*
X2132Y1224D03*
X232Y1424D03*
X232Y1724D03*
G54D15*
X1632Y3124D03*
X1532Y3124D03*
X1432Y3124D03*
X1332Y3124D03*
X1232Y3124D03*
X1132Y3124D03*
X1132Y2224D03*
X1232Y2224D03*
X1332Y2224D03*
X1432Y2224D03*
X1532Y2224D03*
X1632Y2224D03*
X2332Y1424D03*
X2332Y1324D03*
X2332Y1224D03*
G54D16*
X2232Y2024D03*
X2232Y1924D03*
X2232Y2024D03*
X2232Y1924D03*
X432Y624D03*
X432Y724D03*
X432Y924D03*
X432Y1024D03*
X1732Y1824D03*
X1732Y1924D03*
X932Y1024D03*
X932Y1124D03*
X2132Y1624D03*
X2332Y1624D03*
G54D17*
X1032Y1724D03*
G54D18*
X2332Y2724D03*
X2332Y2724D03*
X2332Y1424D03*
G54D19*
X2530Y924D02*
X2530Y1426D01*
D02*
X2149Y924D02*
X2530Y924D01*
D02*
X2530Y1426D02*
X2351Y1424D01*
G54D20*
D02*
X2149Y1224D02*
X2313Y1224D01*
G54D19*
D02*
X2530Y924D02*
X2532Y619D01*
G54D20*
D02*
X2133Y1824D02*
X1852Y1824D01*
D02*
X2132Y1639D02*
X2133Y1824D01*
D02*
X1014Y1224D02*
X649Y1224D01*
D02*
X1014Y1324D02*
X449Y1324D01*
D02*
X231Y1225D02*
X319Y1312D01*
D02*
X1131Y325D02*
X231Y325D01*
D02*
X1131Y524D02*
X1131Y325D01*
D02*
X231Y325D02*
X231Y1225D01*
D02*
X1049Y524D02*
X1131Y524D01*
D02*
X1014Y1424D02*
X249Y1424D01*
D02*
X731Y623D02*
X732Y1107D01*
D02*
X1014Y624D02*
X731Y623D01*
D02*
X833Y726D02*
X832Y1107D01*
D02*
X1014Y724D02*
X833Y726D01*
D02*
X532Y425D02*
X532Y1207D01*
D02*
X1014Y424D02*
X532Y425D01*
G54D19*
D02*
X331Y623D02*
X331Y1023D01*
D02*
X331Y1023D02*
X417Y1024D01*
D02*
X417Y624D02*
X331Y623D01*
G54D20*
D02*
X1332Y942D02*
X1332Y1007D01*
D02*
X2114Y1224D02*
X1349Y1224D01*
D02*
X1531Y1824D02*
X1432Y1923D01*
D02*
X1717Y1824D02*
X1531Y1824D01*
G54D19*
D02*
X1014Y1024D02*
X947Y1024D01*
G54D20*
D02*
X1014Y1124D02*
X947Y1124D01*
D02*
X1747Y1924D02*
X1812Y1924D01*
D02*
X1747Y1824D02*
X1812Y1824D01*
D02*
X1131Y1123D02*
X1049Y1124D01*
D02*
X1332Y1742D02*
X1332Y1807D01*
D02*
X1131Y1923D02*
X1131Y1123D01*
D02*
X1432Y1923D02*
X1131Y1923D01*
D02*
X1230Y1023D02*
X1314Y1024D01*
D02*
X1131Y1123D02*
X1230Y1023D01*
G54D19*
D02*
X2512Y2630D02*
X2351Y2625D01*
D02*
X2233Y2525D02*
X2512Y2524D01*
D02*
X2232Y2039D02*
X2233Y2525D01*
D02*
X2233Y2724D02*
X2313Y2724D01*
D02*
X1733Y2125D02*
X2233Y2724D01*
D02*
X1732Y1939D02*
X1733Y2125D01*
D02*
X2217Y2024D02*
X1852Y2024D01*
D02*
X2217Y1924D02*
X1852Y1924D01*
D02*
X2332Y1609D02*
X2332Y1443D01*
G54D20*
D02*
X2514Y425D02*
X2293Y425D01*
G54D19*
D02*
X1624Y1124D02*
X1349Y1124D01*
D02*
X1632Y601D02*
X1632Y1116D01*
D02*
X1658Y601D02*
X1632Y601D01*
D02*
X1949Y601D02*
X2258Y602D01*
G54D20*
D02*
X2276Y524D02*
X1349Y524D01*
D02*
X2276Y442D02*
X2276Y524D01*
D02*
X1658Y424D02*
X1349Y424D01*
G54D19*
D02*
X2237Y1910D02*
X2327Y1638D01*
D02*
X1914Y601D02*
X1693Y601D01*
G54D20*
D02*
X1914Y424D02*
X1693Y424D01*
G54D19*
D02*
X2514Y602D02*
X2293Y602D01*
G54D20*
D02*
X2133Y1324D02*
X2132Y1609D01*
D02*
X2313Y1324D02*
X2133Y1324D01*
D02*
X1531Y2525D02*
X532Y2525D01*
D02*
X532Y2525D02*
X532Y1542D01*
D02*
X1532Y2243D02*
X1531Y2525D01*
D02*
X1332Y2205D02*
X1332Y2142D01*
D02*
X731Y2224D02*
X732Y1542D01*
D02*
X1113Y2224D02*
X731Y2224D01*
D02*
X833Y2125D02*
X832Y1542D01*
D02*
X1230Y2125D02*
X833Y2125D01*
D02*
X1232Y2205D02*
X1230Y2125D01*
D02*
X1432Y2323D02*
X632Y2323D01*
D02*
X632Y2323D02*
X632Y1542D01*
D02*
X1432Y2243D02*
X1432Y2323D01*
D02*
X433Y2823D02*
X432Y1642D01*
D02*
X1631Y2823D02*
X433Y2823D01*
D02*
X1632Y3105D02*
X1631Y2823D01*
D02*
X231Y3025D02*
X232Y1742D01*
D02*
X1230Y3025D02*
X231Y3025D01*
D02*
X1232Y3105D02*
X1230Y3025D01*
D02*
X1333Y2925D02*
X331Y2925D01*
D02*
X331Y2925D02*
X332Y1642D01*
D02*
X1332Y3105D02*
X1333Y2925D01*
G54D21*
G36*
X56Y3503D02*
X56Y3501D01*
X52Y3501D01*
X52Y3499D01*
X50Y3499D01*
X50Y3497D01*
X48Y3497D01*
X48Y3495D01*
X46Y3495D01*
X46Y3493D01*
X44Y3493D01*
X44Y3491D01*
X42Y3491D01*
X42Y3487D01*
X40Y3487D01*
X40Y3459D01*
X42Y3459D01*
X42Y3455D01*
X44Y3455D01*
X44Y3453D01*
X46Y3453D01*
X46Y3449D01*
X48Y3449D01*
X48Y3447D01*
X52Y3447D01*
X52Y3445D01*
X54Y3445D01*
X54Y3443D01*
X58Y3443D01*
X58Y3441D01*
X84Y3441D01*
X84Y3443D01*
X88Y3443D01*
X88Y3445D01*
X92Y3445D01*
X92Y3447D01*
X94Y3447D01*
X94Y3449D01*
X96Y3449D01*
X96Y3451D01*
X98Y3451D01*
X98Y3455D01*
X100Y3455D01*
X100Y3457D01*
X102Y3457D01*
X102Y3463D01*
X104Y3463D01*
X104Y3483D01*
X102Y3483D01*
X102Y3487D01*
X100Y3487D01*
X100Y3491D01*
X98Y3491D01*
X98Y3493D01*
X96Y3493D01*
X96Y3495D01*
X94Y3495D01*
X94Y3497D01*
X92Y3497D01*
X92Y3499D01*
X90Y3499D01*
X90Y3501D01*
X86Y3501D01*
X86Y3503D01*
X56Y3503D01*
G37*
D02*
G36*
X2670Y3501D02*
X2670Y3499D01*
X2666Y3499D01*
X2666Y3497D01*
X2664Y3497D01*
X2664Y3495D01*
X2660Y3495D01*
X2660Y3493D01*
X2658Y3493D01*
X2658Y3489D01*
X2656Y3489D01*
X2656Y3487D01*
X2654Y3487D01*
X2654Y3483D01*
X2652Y3483D01*
X2652Y3455D01*
X2654Y3455D01*
X2654Y3451D01*
X2656Y3451D01*
X2656Y3449D01*
X2658Y3449D01*
X2658Y3447D01*
X2660Y3447D01*
X2660Y3445D01*
X2662Y3445D01*
X2662Y3443D01*
X2664Y3443D01*
X2664Y3441D01*
X2668Y3441D01*
X2668Y3439D01*
X2672Y3439D01*
X2672Y3437D01*
X2694Y3437D01*
X2694Y3439D01*
X2698Y3439D01*
X2698Y3441D01*
X2702Y3441D01*
X2702Y3443D01*
X2704Y3443D01*
X2704Y3445D01*
X2706Y3445D01*
X2706Y3447D01*
X2708Y3447D01*
X2708Y3449D01*
X2710Y3449D01*
X2710Y3451D01*
X2712Y3451D01*
X2712Y3455D01*
X2714Y3455D01*
X2714Y3485D01*
X2712Y3485D01*
X2712Y3487D01*
X2710Y3487D01*
X2710Y3491D01*
X2708Y3491D01*
X2708Y3493D01*
X2706Y3493D01*
X2706Y3495D01*
X2702Y3495D01*
X2702Y3497D01*
X2700Y3497D01*
X2700Y3499D01*
X2696Y3499D01*
X2696Y3501D01*
X2670Y3501D01*
G37*
D02*
G36*
X1372Y3097D02*
X1372Y3095D01*
X1370Y3095D01*
X1370Y3093D01*
X1368Y3093D01*
X1368Y3089D01*
X1366Y3089D01*
X1366Y3087D01*
X1362Y3087D01*
X1362Y3085D01*
X1360Y3085D01*
X1360Y3083D01*
X1356Y3083D01*
X1356Y3081D01*
X1354Y3081D01*
X1354Y3075D01*
X1422Y3075D01*
X1422Y3077D01*
X1414Y3077D01*
X1414Y3079D01*
X1410Y3079D01*
X1410Y3081D01*
X1406Y3081D01*
X1406Y3083D01*
X1404Y3083D01*
X1404Y3085D01*
X1402Y3085D01*
X1402Y3087D01*
X1398Y3087D01*
X1398Y3089D01*
X1396Y3089D01*
X1396Y3091D01*
X1394Y3091D01*
X1394Y3095D01*
X1392Y3095D01*
X1392Y3097D01*
X1372Y3097D01*
G37*
D02*
G36*
X1472Y3097D02*
X1472Y3095D01*
X1470Y3095D01*
X1470Y3093D01*
X1468Y3093D01*
X1468Y3089D01*
X1466Y3089D01*
X1466Y3087D01*
X1462Y3087D01*
X1462Y3085D01*
X1460Y3085D01*
X1460Y3083D01*
X1456Y3083D01*
X1456Y3081D01*
X1454Y3081D01*
X1454Y3079D01*
X1448Y3079D01*
X1448Y3077D01*
X1442Y3077D01*
X1442Y3075D01*
X1522Y3075D01*
X1522Y3077D01*
X1514Y3077D01*
X1514Y3079D01*
X1510Y3079D01*
X1510Y3081D01*
X1506Y3081D01*
X1506Y3083D01*
X1504Y3083D01*
X1504Y3085D01*
X1502Y3085D01*
X1502Y3087D01*
X1498Y3087D01*
X1498Y3089D01*
X1496Y3089D01*
X1496Y3091D01*
X1494Y3091D01*
X1494Y3095D01*
X1492Y3095D01*
X1492Y3097D01*
X1472Y3097D01*
G37*
D02*
G36*
X1572Y3097D02*
X1572Y3095D01*
X1570Y3095D01*
X1570Y3093D01*
X1568Y3093D01*
X1568Y3089D01*
X1566Y3089D01*
X1566Y3087D01*
X1562Y3087D01*
X1562Y3085D01*
X1560Y3085D01*
X1560Y3083D01*
X1556Y3083D01*
X1556Y3081D01*
X1554Y3081D01*
X1554Y3079D01*
X1548Y3079D01*
X1548Y3077D01*
X1542Y3077D01*
X1542Y3075D01*
X1610Y3075D01*
X1610Y3081D01*
X1606Y3081D01*
X1606Y3083D01*
X1604Y3083D01*
X1604Y3085D01*
X1602Y3085D01*
X1602Y3087D01*
X1598Y3087D01*
X1598Y3089D01*
X1596Y3089D01*
X1596Y3091D01*
X1594Y3091D01*
X1594Y3095D01*
X1592Y3095D01*
X1592Y3097D01*
X1572Y3097D01*
G37*
D02*
G36*
X1354Y3075D02*
X1354Y3073D01*
X1610Y3073D01*
X1610Y3075D01*
X1354Y3075D01*
G37*
D02*
G36*
X1354Y3075D02*
X1354Y3073D01*
X1610Y3073D01*
X1610Y3075D01*
X1354Y3075D01*
G37*
D02*
G36*
X1354Y3075D02*
X1354Y3073D01*
X1610Y3073D01*
X1610Y3075D01*
X1354Y3075D01*
G37*
D02*
G36*
X1354Y3073D02*
X1354Y2917D01*
X1352Y2917D01*
X1352Y2913D01*
X1350Y2913D01*
X1350Y2911D01*
X1348Y2911D01*
X1348Y2909D01*
X1346Y2909D01*
X1346Y2907D01*
X1344Y2907D01*
X1344Y2905D01*
X1338Y2905D01*
X1338Y2903D01*
X352Y2903D01*
X352Y2499D01*
X354Y2499D01*
X354Y1665D01*
X356Y1665D01*
X356Y1663D01*
X360Y1663D01*
X360Y1661D01*
X362Y1661D01*
X362Y1659D01*
X364Y1659D01*
X364Y1657D01*
X366Y1657D01*
X366Y1655D01*
X368Y1655D01*
X368Y1653D01*
X370Y1653D01*
X370Y1651D01*
X372Y1651D01*
X372Y1647D01*
X392Y1647D01*
X392Y1651D01*
X394Y1651D01*
X394Y1653D01*
X396Y1653D01*
X396Y1655D01*
X398Y1655D01*
X398Y1657D01*
X400Y1657D01*
X400Y1659D01*
X402Y1659D01*
X402Y1661D01*
X404Y1661D01*
X404Y1663D01*
X406Y1663D01*
X406Y1665D01*
X410Y1665D01*
X410Y2771D01*
X412Y2771D01*
X412Y2831D01*
X414Y2831D01*
X414Y2835D01*
X416Y2835D01*
X416Y2837D01*
X418Y2837D01*
X418Y2839D01*
X420Y2839D01*
X420Y2841D01*
X422Y2841D01*
X422Y2843D01*
X428Y2843D01*
X428Y2845D01*
X1608Y2845D01*
X1608Y2925D01*
X1610Y2925D01*
X1610Y3073D01*
X1354Y3073D01*
G37*
D02*
G36*
X554Y2503D02*
X554Y2345D01*
X1438Y2345D01*
X1438Y2343D01*
X1444Y2343D01*
X1444Y2341D01*
X1446Y2341D01*
X1446Y2339D01*
X1448Y2339D01*
X1448Y2337D01*
X1450Y2337D01*
X1450Y2335D01*
X1452Y2335D01*
X1452Y2329D01*
X1454Y2329D01*
X1454Y2267D01*
X1456Y2267D01*
X1456Y2265D01*
X1460Y2265D01*
X1460Y2263D01*
X1462Y2263D01*
X1462Y2261D01*
X1464Y2261D01*
X1464Y2259D01*
X1466Y2259D01*
X1466Y2257D01*
X1468Y2257D01*
X1468Y2255D01*
X1470Y2255D01*
X1470Y2253D01*
X1472Y2253D01*
X1472Y2251D01*
X1492Y2251D01*
X1492Y2253D01*
X1494Y2253D01*
X1494Y2255D01*
X1496Y2255D01*
X1496Y2259D01*
X1500Y2259D01*
X1500Y2261D01*
X1502Y2261D01*
X1502Y2263D01*
X1504Y2263D01*
X1504Y2265D01*
X1508Y2265D01*
X1508Y2267D01*
X1510Y2267D01*
X1510Y2503D01*
X554Y2503D01*
G37*
D02*
G36*
X554Y2345D02*
X554Y1565D01*
X556Y1565D01*
X556Y1563D01*
X560Y1563D01*
X560Y1561D01*
X562Y1561D01*
X562Y1559D01*
X564Y1559D01*
X564Y1557D01*
X566Y1557D01*
X566Y1555D01*
X568Y1555D01*
X568Y1553D01*
X570Y1553D01*
X570Y1551D01*
X572Y1551D01*
X572Y1547D01*
X592Y1547D01*
X592Y1551D01*
X594Y1551D01*
X594Y1553D01*
X596Y1553D01*
X596Y1555D01*
X598Y1555D01*
X598Y1557D01*
X600Y1557D01*
X600Y1559D01*
X602Y1559D01*
X602Y1561D01*
X604Y1561D01*
X604Y1563D01*
X606Y1563D01*
X606Y1565D01*
X610Y1565D01*
X610Y2331D01*
X612Y2331D01*
X612Y2335D01*
X614Y2335D01*
X614Y2337D01*
X616Y2337D01*
X616Y2339D01*
X618Y2339D01*
X618Y2341D01*
X620Y2341D01*
X620Y2343D01*
X626Y2343D01*
X626Y2345D01*
X554Y2345D01*
G37*
D02*
G36*
X654Y2301D02*
X654Y2273D01*
X1340Y2273D01*
X1340Y2271D01*
X1348Y2271D01*
X1348Y2269D01*
X1352Y2269D01*
X1352Y2267D01*
X1356Y2267D01*
X1356Y2265D01*
X1360Y2265D01*
X1360Y2263D01*
X1362Y2263D01*
X1362Y2261D01*
X1364Y2261D01*
X1364Y2259D01*
X1366Y2259D01*
X1366Y2257D01*
X1368Y2257D01*
X1368Y2255D01*
X1370Y2255D01*
X1370Y2253D01*
X1372Y2253D01*
X1372Y2251D01*
X1392Y2251D01*
X1392Y2253D01*
X1394Y2253D01*
X1394Y2255D01*
X1396Y2255D01*
X1396Y2259D01*
X1400Y2259D01*
X1400Y2261D01*
X1402Y2261D01*
X1402Y2263D01*
X1404Y2263D01*
X1404Y2265D01*
X1408Y2265D01*
X1408Y2267D01*
X1410Y2267D01*
X1410Y2301D01*
X654Y2301D01*
G37*
D02*
G36*
X654Y2273D02*
X654Y1565D01*
X656Y1565D01*
X656Y1563D01*
X660Y1563D01*
X660Y1561D01*
X662Y1561D01*
X662Y1559D01*
X664Y1559D01*
X664Y1557D01*
X666Y1557D01*
X666Y1555D01*
X668Y1555D01*
X668Y1553D01*
X670Y1553D01*
X670Y1551D01*
X672Y1551D01*
X672Y1547D01*
X692Y1547D01*
X692Y1551D01*
X694Y1551D01*
X694Y1553D01*
X696Y1553D01*
X696Y1555D01*
X698Y1555D01*
X698Y1557D01*
X700Y1557D01*
X700Y1559D01*
X702Y1559D01*
X702Y1561D01*
X704Y1561D01*
X704Y1563D01*
X706Y1563D01*
X706Y1565D01*
X710Y1565D01*
X710Y2107D01*
X708Y2107D01*
X708Y2225D01*
X710Y2225D01*
X710Y2233D01*
X712Y2233D01*
X712Y2237D01*
X714Y2237D01*
X714Y2239D01*
X716Y2239D01*
X716Y2241D01*
X718Y2241D01*
X718Y2243D01*
X722Y2243D01*
X722Y2245D01*
X1088Y2245D01*
X1088Y2247D01*
X1090Y2247D01*
X1090Y2251D01*
X1092Y2251D01*
X1092Y2253D01*
X1094Y2253D01*
X1094Y2255D01*
X1096Y2255D01*
X1096Y2259D01*
X1100Y2259D01*
X1100Y2261D01*
X1102Y2261D01*
X1102Y2263D01*
X1104Y2263D01*
X1104Y2265D01*
X1108Y2265D01*
X1108Y2267D01*
X1112Y2267D01*
X1112Y2269D01*
X1116Y2269D01*
X1116Y2271D01*
X1124Y2271D01*
X1124Y2273D01*
X654Y2273D01*
G37*
D02*
G36*
X1140Y2273D02*
X1140Y2271D01*
X1148Y2271D01*
X1148Y2269D01*
X1152Y2269D01*
X1152Y2267D01*
X1156Y2267D01*
X1156Y2265D01*
X1160Y2265D01*
X1160Y2263D01*
X1162Y2263D01*
X1162Y2261D01*
X1164Y2261D01*
X1164Y2259D01*
X1166Y2259D01*
X1166Y2257D01*
X1168Y2257D01*
X1168Y2255D01*
X1170Y2255D01*
X1170Y2253D01*
X1172Y2253D01*
X1172Y2251D01*
X1192Y2251D01*
X1192Y2253D01*
X1194Y2253D01*
X1194Y2255D01*
X1196Y2255D01*
X1196Y2259D01*
X1200Y2259D01*
X1200Y2261D01*
X1202Y2261D01*
X1202Y2263D01*
X1204Y2263D01*
X1204Y2265D01*
X1208Y2265D01*
X1208Y2267D01*
X1212Y2267D01*
X1212Y2269D01*
X1216Y2269D01*
X1216Y2271D01*
X1224Y2271D01*
X1224Y2273D01*
X1140Y2273D01*
G37*
D02*
G36*
X1240Y2273D02*
X1240Y2271D01*
X1248Y2271D01*
X1248Y2269D01*
X1252Y2269D01*
X1252Y2267D01*
X1256Y2267D01*
X1256Y2265D01*
X1260Y2265D01*
X1260Y2263D01*
X1262Y2263D01*
X1262Y2261D01*
X1264Y2261D01*
X1264Y2259D01*
X1266Y2259D01*
X1266Y2257D01*
X1268Y2257D01*
X1268Y2255D01*
X1270Y2255D01*
X1270Y2253D01*
X1272Y2253D01*
X1272Y2251D01*
X1292Y2251D01*
X1292Y2253D01*
X1294Y2253D01*
X1294Y2255D01*
X1296Y2255D01*
X1296Y2259D01*
X1300Y2259D01*
X1300Y2261D01*
X1302Y2261D01*
X1302Y2263D01*
X1304Y2263D01*
X1304Y2265D01*
X1308Y2265D01*
X1308Y2267D01*
X1312Y2267D01*
X1312Y2269D01*
X1316Y2269D01*
X1316Y2271D01*
X1324Y2271D01*
X1324Y2273D01*
X1240Y2273D01*
G37*
D02*
G36*
X752Y2201D02*
X752Y2175D01*
X1122Y2175D01*
X1122Y2177D01*
X1114Y2177D01*
X1114Y2179D01*
X1110Y2179D01*
X1110Y2181D01*
X1106Y2181D01*
X1106Y2183D01*
X1104Y2183D01*
X1104Y2185D01*
X1102Y2185D01*
X1102Y2187D01*
X1098Y2187D01*
X1098Y2189D01*
X1096Y2189D01*
X1096Y2191D01*
X1094Y2191D01*
X1094Y2195D01*
X1092Y2195D01*
X1092Y2197D01*
X1090Y2197D01*
X1090Y2201D01*
X752Y2201D01*
G37*
D02*
G36*
X1172Y2197D02*
X1172Y2195D01*
X1170Y2195D01*
X1170Y2193D01*
X1168Y2193D01*
X1168Y2189D01*
X1166Y2189D01*
X1166Y2187D01*
X1162Y2187D01*
X1162Y2185D01*
X1160Y2185D01*
X1160Y2183D01*
X1156Y2183D01*
X1156Y2181D01*
X1154Y2181D01*
X1154Y2179D01*
X1148Y2179D01*
X1148Y2177D01*
X1142Y2177D01*
X1142Y2175D01*
X1208Y2175D01*
X1208Y2181D01*
X1206Y2181D01*
X1206Y2183D01*
X1204Y2183D01*
X1204Y2185D01*
X1202Y2185D01*
X1202Y2187D01*
X1198Y2187D01*
X1198Y2189D01*
X1196Y2189D01*
X1196Y2191D01*
X1194Y2191D01*
X1194Y2195D01*
X1192Y2195D01*
X1192Y2197D01*
X1172Y2197D01*
G37*
D02*
G36*
X752Y2175D02*
X752Y2173D01*
X1208Y2173D01*
X1208Y2175D01*
X752Y2175D01*
G37*
D02*
G36*
X752Y2175D02*
X752Y2173D01*
X1208Y2173D01*
X1208Y2175D01*
X752Y2175D01*
G37*
D02*
G36*
X752Y2173D02*
X752Y2115D01*
X754Y2115D01*
X754Y1565D01*
X756Y1565D01*
X756Y1563D01*
X760Y1563D01*
X760Y1561D01*
X762Y1561D01*
X762Y1559D01*
X764Y1559D01*
X764Y1557D01*
X766Y1557D01*
X766Y1555D01*
X768Y1555D01*
X768Y1553D01*
X770Y1553D01*
X770Y1551D01*
X772Y1551D01*
X772Y1547D01*
X792Y1547D01*
X792Y1551D01*
X794Y1551D01*
X794Y1553D01*
X796Y1553D01*
X796Y1555D01*
X798Y1555D01*
X798Y1557D01*
X800Y1557D01*
X800Y1559D01*
X802Y1559D01*
X802Y1561D01*
X804Y1561D01*
X804Y1563D01*
X806Y1563D01*
X806Y1565D01*
X810Y1565D01*
X810Y2001D01*
X812Y2001D01*
X812Y2133D01*
X814Y2133D01*
X814Y2137D01*
X816Y2137D01*
X816Y2139D01*
X818Y2139D01*
X818Y2141D01*
X820Y2141D01*
X820Y2143D01*
X824Y2143D01*
X824Y2145D01*
X828Y2145D01*
X828Y2147D01*
X1208Y2147D01*
X1208Y2173D01*
X752Y2173D01*
G37*
D02*
G36*
X1154Y1901D02*
X1154Y1871D01*
X1342Y1871D01*
X1342Y1869D01*
X1348Y1869D01*
X1348Y1867D01*
X1354Y1867D01*
X1354Y1865D01*
X1356Y1865D01*
X1356Y1863D01*
X1360Y1863D01*
X1360Y1861D01*
X1362Y1861D01*
X1362Y1859D01*
X1364Y1859D01*
X1364Y1857D01*
X1366Y1857D01*
X1366Y1855D01*
X1368Y1855D01*
X1368Y1853D01*
X1370Y1853D01*
X1370Y1851D01*
X1372Y1851D01*
X1372Y1847D01*
X1374Y1847D01*
X1374Y1843D01*
X1376Y1843D01*
X1376Y1837D01*
X1378Y1837D01*
X1378Y1829D01*
X1380Y1829D01*
X1380Y1819D01*
X1378Y1819D01*
X1378Y1811D01*
X1376Y1811D01*
X1376Y1805D01*
X1374Y1805D01*
X1374Y1801D01*
X1372Y1801D01*
X1372Y1797D01*
X1370Y1797D01*
X1370Y1795D01*
X1368Y1795D01*
X1368Y1793D01*
X1366Y1793D01*
X1366Y1789D01*
X1362Y1789D01*
X1362Y1787D01*
X1360Y1787D01*
X1360Y1785D01*
X1358Y1785D01*
X1358Y1783D01*
X1356Y1783D01*
X1356Y1779D01*
X1722Y1779D01*
X1722Y1781D01*
X1716Y1781D01*
X1716Y1783D01*
X1712Y1783D01*
X1712Y1785D01*
X1708Y1785D01*
X1708Y1787D01*
X1704Y1787D01*
X1704Y1789D01*
X1702Y1789D01*
X1702Y1791D01*
X1700Y1791D01*
X1700Y1793D01*
X1698Y1793D01*
X1698Y1795D01*
X1696Y1795D01*
X1696Y1799D01*
X1694Y1799D01*
X1694Y1801D01*
X1528Y1801D01*
X1528Y1803D01*
X1522Y1803D01*
X1522Y1805D01*
X1518Y1805D01*
X1518Y1807D01*
X1516Y1807D01*
X1516Y1809D01*
X1514Y1809D01*
X1514Y1811D01*
X1512Y1811D01*
X1512Y1813D01*
X1510Y1813D01*
X1510Y1815D01*
X1508Y1815D01*
X1508Y1817D01*
X1506Y1817D01*
X1506Y1819D01*
X1504Y1819D01*
X1504Y1821D01*
X1502Y1821D01*
X1502Y1823D01*
X1500Y1823D01*
X1500Y1825D01*
X1498Y1825D01*
X1498Y1827D01*
X1496Y1827D01*
X1496Y1829D01*
X1494Y1829D01*
X1494Y1831D01*
X1492Y1831D01*
X1492Y1833D01*
X1490Y1833D01*
X1490Y1835D01*
X1488Y1835D01*
X1488Y1837D01*
X1486Y1837D01*
X1486Y1839D01*
X1484Y1839D01*
X1484Y1841D01*
X1482Y1841D01*
X1482Y1843D01*
X1480Y1843D01*
X1480Y1845D01*
X1478Y1845D01*
X1478Y1847D01*
X1476Y1847D01*
X1476Y1849D01*
X1474Y1849D01*
X1474Y1851D01*
X1472Y1851D01*
X1472Y1853D01*
X1470Y1853D01*
X1470Y1855D01*
X1468Y1855D01*
X1468Y1857D01*
X1466Y1857D01*
X1466Y1859D01*
X1464Y1859D01*
X1464Y1861D01*
X1462Y1861D01*
X1462Y1863D01*
X1460Y1863D01*
X1460Y1865D01*
X1458Y1865D01*
X1458Y1867D01*
X1456Y1867D01*
X1456Y1869D01*
X1454Y1869D01*
X1454Y1871D01*
X1452Y1871D01*
X1452Y1873D01*
X1450Y1873D01*
X1450Y1875D01*
X1448Y1875D01*
X1448Y1877D01*
X1446Y1877D01*
X1446Y1879D01*
X1444Y1879D01*
X1444Y1881D01*
X1442Y1881D01*
X1442Y1883D01*
X1440Y1883D01*
X1440Y1885D01*
X1438Y1885D01*
X1438Y1887D01*
X1436Y1887D01*
X1436Y1889D01*
X1434Y1889D01*
X1434Y1891D01*
X1432Y1891D01*
X1432Y1893D01*
X1430Y1893D01*
X1430Y1895D01*
X1428Y1895D01*
X1428Y1897D01*
X1426Y1897D01*
X1426Y1899D01*
X1424Y1899D01*
X1424Y1901D01*
X1154Y1901D01*
G37*
D02*
G36*
X1154Y1871D02*
X1154Y1129D01*
X1156Y1129D01*
X1156Y1127D01*
X1158Y1127D01*
X1158Y1125D01*
X1160Y1125D01*
X1160Y1123D01*
X1162Y1123D01*
X1162Y1121D01*
X1164Y1121D01*
X1164Y1119D01*
X1166Y1119D01*
X1166Y1117D01*
X1168Y1117D01*
X1168Y1115D01*
X1170Y1115D01*
X1170Y1113D01*
X1172Y1113D01*
X1172Y1111D01*
X1174Y1111D01*
X1174Y1109D01*
X1176Y1109D01*
X1176Y1107D01*
X1178Y1107D01*
X1178Y1105D01*
X1180Y1105D01*
X1180Y1103D01*
X1182Y1103D01*
X1182Y1101D01*
X1184Y1101D01*
X1184Y1099D01*
X1186Y1099D01*
X1186Y1097D01*
X1188Y1097D01*
X1188Y1095D01*
X1190Y1095D01*
X1190Y1093D01*
X1192Y1093D01*
X1192Y1091D01*
X1194Y1091D01*
X1194Y1089D01*
X1196Y1089D01*
X1196Y1087D01*
X1198Y1087D01*
X1198Y1085D01*
X1200Y1085D01*
X1200Y1083D01*
X1202Y1083D01*
X1202Y1081D01*
X1204Y1081D01*
X1204Y1079D01*
X1206Y1079D01*
X1206Y1077D01*
X1208Y1077D01*
X1208Y1075D01*
X1210Y1075D01*
X1210Y1073D01*
X1212Y1073D01*
X1212Y1071D01*
X1214Y1071D01*
X1214Y1069D01*
X1216Y1069D01*
X1216Y1067D01*
X1218Y1067D01*
X1218Y1065D01*
X1220Y1065D01*
X1220Y1063D01*
X1222Y1063D01*
X1222Y1061D01*
X1224Y1061D01*
X1224Y1059D01*
X1226Y1059D01*
X1226Y1057D01*
X1228Y1057D01*
X1228Y1055D01*
X1230Y1055D01*
X1230Y1053D01*
X1232Y1053D01*
X1232Y1051D01*
X1234Y1051D01*
X1234Y1049D01*
X1236Y1049D01*
X1236Y1047D01*
X1238Y1047D01*
X1238Y1045D01*
X1290Y1045D01*
X1290Y1047D01*
X1292Y1047D01*
X1292Y1051D01*
X1294Y1051D01*
X1294Y1053D01*
X1296Y1053D01*
X1296Y1055D01*
X1298Y1055D01*
X1298Y1057D01*
X1300Y1057D01*
X1300Y1059D01*
X1302Y1059D01*
X1302Y1061D01*
X1304Y1061D01*
X1304Y1063D01*
X1306Y1063D01*
X1306Y1085D01*
X1304Y1085D01*
X1304Y1087D01*
X1300Y1087D01*
X1300Y1089D01*
X1298Y1089D01*
X1298Y1091D01*
X1296Y1091D01*
X1296Y1095D01*
X1294Y1095D01*
X1294Y1097D01*
X1292Y1097D01*
X1292Y1101D01*
X1290Y1101D01*
X1290Y1103D01*
X1288Y1103D01*
X1288Y1109D01*
X1286Y1109D01*
X1286Y1117D01*
X1284Y1117D01*
X1284Y1131D01*
X1286Y1131D01*
X1286Y1139D01*
X1288Y1139D01*
X1288Y1143D01*
X1290Y1143D01*
X1290Y1147D01*
X1292Y1147D01*
X1292Y1151D01*
X1294Y1151D01*
X1294Y1153D01*
X1296Y1153D01*
X1296Y1155D01*
X1298Y1155D01*
X1298Y1157D01*
X1300Y1157D01*
X1300Y1159D01*
X1302Y1159D01*
X1302Y1161D01*
X1304Y1161D01*
X1304Y1163D01*
X1306Y1163D01*
X1306Y1185D01*
X1304Y1185D01*
X1304Y1187D01*
X1300Y1187D01*
X1300Y1189D01*
X1298Y1189D01*
X1298Y1191D01*
X1296Y1191D01*
X1296Y1195D01*
X1294Y1195D01*
X1294Y1197D01*
X1292Y1197D01*
X1292Y1201D01*
X1290Y1201D01*
X1290Y1203D01*
X1288Y1203D01*
X1288Y1209D01*
X1286Y1209D01*
X1286Y1217D01*
X1284Y1217D01*
X1284Y1231D01*
X1286Y1231D01*
X1286Y1239D01*
X1288Y1239D01*
X1288Y1243D01*
X1290Y1243D01*
X1290Y1247D01*
X1292Y1247D01*
X1292Y1251D01*
X1294Y1251D01*
X1294Y1253D01*
X1296Y1253D01*
X1296Y1255D01*
X1298Y1255D01*
X1298Y1257D01*
X1300Y1257D01*
X1300Y1259D01*
X1302Y1259D01*
X1302Y1261D01*
X1304Y1261D01*
X1304Y1263D01*
X1306Y1263D01*
X1306Y1285D01*
X1304Y1285D01*
X1304Y1287D01*
X1300Y1287D01*
X1300Y1289D01*
X1298Y1289D01*
X1298Y1291D01*
X1296Y1291D01*
X1296Y1295D01*
X1294Y1295D01*
X1294Y1297D01*
X1292Y1297D01*
X1292Y1301D01*
X1290Y1301D01*
X1290Y1303D01*
X1288Y1303D01*
X1288Y1309D01*
X1286Y1309D01*
X1286Y1317D01*
X1284Y1317D01*
X1284Y1331D01*
X1286Y1331D01*
X1286Y1339D01*
X1288Y1339D01*
X1288Y1343D01*
X1290Y1343D01*
X1290Y1347D01*
X1292Y1347D01*
X1292Y1351D01*
X1294Y1351D01*
X1294Y1353D01*
X1296Y1353D01*
X1296Y1355D01*
X1298Y1355D01*
X1298Y1357D01*
X1300Y1357D01*
X1300Y1359D01*
X1302Y1359D01*
X1302Y1361D01*
X1304Y1361D01*
X1304Y1363D01*
X1306Y1363D01*
X1306Y1385D01*
X1304Y1385D01*
X1304Y1387D01*
X1300Y1387D01*
X1300Y1389D01*
X1298Y1389D01*
X1298Y1391D01*
X1296Y1391D01*
X1296Y1395D01*
X1294Y1395D01*
X1294Y1397D01*
X1292Y1397D01*
X1292Y1401D01*
X1290Y1401D01*
X1290Y1403D01*
X1288Y1403D01*
X1288Y1409D01*
X1286Y1409D01*
X1286Y1417D01*
X1284Y1417D01*
X1284Y1431D01*
X1286Y1431D01*
X1286Y1439D01*
X1288Y1439D01*
X1288Y1443D01*
X1290Y1443D01*
X1290Y1447D01*
X1292Y1447D01*
X1292Y1451D01*
X1294Y1451D01*
X1294Y1453D01*
X1296Y1453D01*
X1296Y1455D01*
X1298Y1455D01*
X1298Y1457D01*
X1300Y1457D01*
X1300Y1459D01*
X1302Y1459D01*
X1302Y1461D01*
X1304Y1461D01*
X1304Y1463D01*
X1306Y1463D01*
X1306Y1485D01*
X1304Y1485D01*
X1304Y1487D01*
X1300Y1487D01*
X1300Y1489D01*
X1298Y1489D01*
X1298Y1491D01*
X1296Y1491D01*
X1296Y1495D01*
X1294Y1495D01*
X1294Y1497D01*
X1292Y1497D01*
X1292Y1501D01*
X1290Y1501D01*
X1290Y1503D01*
X1288Y1503D01*
X1288Y1509D01*
X1286Y1509D01*
X1286Y1517D01*
X1284Y1517D01*
X1284Y1531D01*
X1286Y1531D01*
X1286Y1539D01*
X1288Y1539D01*
X1288Y1543D01*
X1290Y1543D01*
X1290Y1547D01*
X1292Y1547D01*
X1292Y1551D01*
X1294Y1551D01*
X1294Y1553D01*
X1296Y1553D01*
X1296Y1555D01*
X1298Y1555D01*
X1298Y1557D01*
X1300Y1557D01*
X1300Y1559D01*
X1302Y1559D01*
X1302Y1561D01*
X1304Y1561D01*
X1304Y1563D01*
X1306Y1563D01*
X1306Y1585D01*
X1304Y1585D01*
X1304Y1587D01*
X1300Y1587D01*
X1300Y1589D01*
X1298Y1589D01*
X1298Y1591D01*
X1296Y1591D01*
X1296Y1595D01*
X1294Y1595D01*
X1294Y1597D01*
X1292Y1597D01*
X1292Y1601D01*
X1290Y1601D01*
X1290Y1603D01*
X1288Y1603D01*
X1288Y1609D01*
X1286Y1609D01*
X1286Y1617D01*
X1284Y1617D01*
X1284Y1631D01*
X1286Y1631D01*
X1286Y1639D01*
X1288Y1639D01*
X1288Y1643D01*
X1290Y1643D01*
X1290Y1647D01*
X1292Y1647D01*
X1292Y1651D01*
X1294Y1651D01*
X1294Y1653D01*
X1296Y1653D01*
X1296Y1655D01*
X1298Y1655D01*
X1298Y1657D01*
X1300Y1657D01*
X1300Y1659D01*
X1302Y1659D01*
X1302Y1661D01*
X1304Y1661D01*
X1304Y1663D01*
X1306Y1663D01*
X1306Y1685D01*
X1304Y1685D01*
X1304Y1687D01*
X1300Y1687D01*
X1300Y1689D01*
X1298Y1689D01*
X1298Y1691D01*
X1296Y1691D01*
X1296Y1695D01*
X1294Y1695D01*
X1294Y1697D01*
X1292Y1697D01*
X1292Y1701D01*
X1290Y1701D01*
X1290Y1703D01*
X1288Y1703D01*
X1288Y1709D01*
X1286Y1709D01*
X1286Y1717D01*
X1284Y1717D01*
X1284Y1731D01*
X1286Y1731D01*
X1286Y1739D01*
X1288Y1739D01*
X1288Y1743D01*
X1290Y1743D01*
X1290Y1747D01*
X1292Y1747D01*
X1292Y1751D01*
X1294Y1751D01*
X1294Y1753D01*
X1296Y1753D01*
X1296Y1755D01*
X1298Y1755D01*
X1298Y1757D01*
X1300Y1757D01*
X1300Y1759D01*
X1302Y1759D01*
X1302Y1761D01*
X1304Y1761D01*
X1304Y1763D01*
X1306Y1763D01*
X1306Y1785D01*
X1304Y1785D01*
X1304Y1787D01*
X1300Y1787D01*
X1300Y1789D01*
X1298Y1789D01*
X1298Y1791D01*
X1296Y1791D01*
X1296Y1795D01*
X1294Y1795D01*
X1294Y1797D01*
X1292Y1797D01*
X1292Y1801D01*
X1290Y1801D01*
X1290Y1803D01*
X1288Y1803D01*
X1288Y1809D01*
X1286Y1809D01*
X1286Y1817D01*
X1284Y1817D01*
X1284Y1831D01*
X1286Y1831D01*
X1286Y1839D01*
X1288Y1839D01*
X1288Y1843D01*
X1290Y1843D01*
X1290Y1847D01*
X1292Y1847D01*
X1292Y1851D01*
X1294Y1851D01*
X1294Y1853D01*
X1296Y1853D01*
X1296Y1855D01*
X1298Y1855D01*
X1298Y1857D01*
X1300Y1857D01*
X1300Y1859D01*
X1302Y1859D01*
X1302Y1861D01*
X1304Y1861D01*
X1304Y1863D01*
X1306Y1863D01*
X1306Y1865D01*
X1310Y1865D01*
X1310Y1867D01*
X1314Y1867D01*
X1314Y1869D01*
X1322Y1869D01*
X1322Y1871D01*
X1154Y1871D01*
G37*
D02*
G36*
X1894Y1801D02*
X1894Y1799D01*
X1892Y1799D01*
X1892Y1797D01*
X1890Y1797D01*
X1890Y1795D01*
X1888Y1795D01*
X1888Y1793D01*
X1886Y1793D01*
X1886Y1791D01*
X1882Y1791D01*
X1882Y1789D01*
X1878Y1789D01*
X1878Y1787D01*
X1874Y1787D01*
X1874Y1785D01*
X1866Y1785D01*
X1866Y1783D01*
X2110Y1783D01*
X2110Y1801D01*
X1894Y1801D01*
G37*
D02*
G36*
X1758Y1789D02*
X1758Y1787D01*
X1756Y1787D01*
X1756Y1785D01*
X1752Y1785D01*
X1752Y1783D01*
X1798Y1783D01*
X1798Y1785D01*
X1790Y1785D01*
X1790Y1787D01*
X1784Y1787D01*
X1784Y1789D01*
X1758Y1789D01*
G37*
D02*
G36*
X1748Y1783D02*
X1748Y1781D01*
X2110Y1781D01*
X2110Y1783D01*
X1748Y1783D01*
G37*
D02*
G36*
X1748Y1783D02*
X1748Y1781D01*
X2110Y1781D01*
X2110Y1783D01*
X1748Y1783D01*
G37*
D02*
G36*
X1742Y1781D02*
X1742Y1779D01*
X2110Y1779D01*
X2110Y1781D01*
X1742Y1781D01*
G37*
D02*
G36*
X1356Y1779D02*
X1356Y1777D01*
X2110Y1777D01*
X2110Y1779D01*
X1356Y1779D01*
G37*
D02*
G36*
X1356Y1779D02*
X1356Y1777D01*
X2110Y1777D01*
X2110Y1779D01*
X1356Y1779D01*
G37*
D02*
G36*
X1356Y1777D02*
X1356Y1763D01*
X1360Y1763D01*
X1360Y1761D01*
X1362Y1761D01*
X1362Y1759D01*
X1364Y1759D01*
X1364Y1757D01*
X1366Y1757D01*
X1366Y1755D01*
X1368Y1755D01*
X1368Y1753D01*
X1370Y1753D01*
X1370Y1751D01*
X1372Y1751D01*
X1372Y1747D01*
X1374Y1747D01*
X1374Y1743D01*
X1376Y1743D01*
X1376Y1737D01*
X1378Y1737D01*
X1378Y1729D01*
X1380Y1729D01*
X1380Y1719D01*
X1378Y1719D01*
X1378Y1711D01*
X1376Y1711D01*
X1376Y1705D01*
X1374Y1705D01*
X1374Y1701D01*
X1372Y1701D01*
X1372Y1697D01*
X1370Y1697D01*
X1370Y1695D01*
X1368Y1695D01*
X1368Y1693D01*
X1366Y1693D01*
X1366Y1689D01*
X1362Y1689D01*
X1362Y1687D01*
X1360Y1687D01*
X1360Y1685D01*
X1358Y1685D01*
X1358Y1683D01*
X1356Y1683D01*
X1356Y1663D01*
X1360Y1663D01*
X1360Y1661D01*
X1362Y1661D01*
X1362Y1659D01*
X1364Y1659D01*
X1364Y1657D01*
X1366Y1657D01*
X1366Y1655D01*
X1368Y1655D01*
X1368Y1653D01*
X1370Y1653D01*
X1370Y1651D01*
X1372Y1651D01*
X1372Y1647D01*
X1374Y1647D01*
X1374Y1643D01*
X1376Y1643D01*
X1376Y1637D01*
X1378Y1637D01*
X1378Y1629D01*
X1380Y1629D01*
X1380Y1619D01*
X1378Y1619D01*
X1378Y1611D01*
X1376Y1611D01*
X1376Y1605D01*
X1374Y1605D01*
X1374Y1601D01*
X1372Y1601D01*
X1372Y1597D01*
X1370Y1597D01*
X1370Y1595D01*
X1368Y1595D01*
X1368Y1593D01*
X1366Y1593D01*
X1366Y1589D01*
X1362Y1589D01*
X1362Y1587D01*
X1360Y1587D01*
X1360Y1585D01*
X1358Y1585D01*
X1358Y1583D01*
X1356Y1583D01*
X1356Y1563D01*
X1360Y1563D01*
X1360Y1561D01*
X1362Y1561D01*
X1362Y1559D01*
X1364Y1559D01*
X1364Y1557D01*
X1366Y1557D01*
X1366Y1555D01*
X1368Y1555D01*
X1368Y1553D01*
X1370Y1553D01*
X1370Y1551D01*
X1372Y1551D01*
X1372Y1547D01*
X1374Y1547D01*
X1374Y1543D01*
X1376Y1543D01*
X1376Y1537D01*
X1378Y1537D01*
X1378Y1529D01*
X1380Y1529D01*
X1380Y1519D01*
X1378Y1519D01*
X1378Y1511D01*
X1376Y1511D01*
X1376Y1505D01*
X1374Y1505D01*
X1374Y1501D01*
X1372Y1501D01*
X1372Y1497D01*
X1370Y1497D01*
X1370Y1495D01*
X1368Y1495D01*
X1368Y1493D01*
X1366Y1493D01*
X1366Y1489D01*
X1362Y1489D01*
X1362Y1487D01*
X1360Y1487D01*
X1360Y1485D01*
X1358Y1485D01*
X1358Y1483D01*
X1356Y1483D01*
X1356Y1463D01*
X1360Y1463D01*
X1360Y1461D01*
X1362Y1461D01*
X1362Y1459D01*
X1364Y1459D01*
X1364Y1457D01*
X1366Y1457D01*
X1366Y1455D01*
X1368Y1455D01*
X1368Y1453D01*
X1370Y1453D01*
X1370Y1451D01*
X1372Y1451D01*
X1372Y1447D01*
X1374Y1447D01*
X1374Y1443D01*
X1376Y1443D01*
X1376Y1437D01*
X1378Y1437D01*
X1378Y1429D01*
X1380Y1429D01*
X1380Y1419D01*
X1378Y1419D01*
X1378Y1411D01*
X1376Y1411D01*
X1376Y1405D01*
X1374Y1405D01*
X1374Y1401D01*
X1372Y1401D01*
X1372Y1397D01*
X1370Y1397D01*
X1370Y1395D01*
X1368Y1395D01*
X1368Y1393D01*
X1366Y1393D01*
X1366Y1389D01*
X1362Y1389D01*
X1362Y1387D01*
X1360Y1387D01*
X1360Y1385D01*
X1358Y1385D01*
X1358Y1383D01*
X1356Y1383D01*
X1356Y1363D01*
X1360Y1363D01*
X1360Y1361D01*
X1362Y1361D01*
X1362Y1359D01*
X1364Y1359D01*
X1364Y1357D01*
X1366Y1357D01*
X1366Y1355D01*
X1368Y1355D01*
X1368Y1353D01*
X1370Y1353D01*
X1370Y1351D01*
X1372Y1351D01*
X1372Y1347D01*
X1374Y1347D01*
X1374Y1343D01*
X1376Y1343D01*
X1376Y1337D01*
X1378Y1337D01*
X1378Y1329D01*
X1380Y1329D01*
X1380Y1319D01*
X1378Y1319D01*
X1378Y1311D01*
X1376Y1311D01*
X1376Y1305D01*
X1374Y1305D01*
X1374Y1301D01*
X1372Y1301D01*
X1372Y1297D01*
X1370Y1297D01*
X1370Y1295D01*
X1368Y1295D01*
X1368Y1293D01*
X1366Y1293D01*
X1366Y1289D01*
X1362Y1289D01*
X1362Y1287D01*
X1360Y1287D01*
X1360Y1285D01*
X1358Y1285D01*
X1358Y1283D01*
X1356Y1283D01*
X1356Y1271D01*
X2142Y1271D01*
X2142Y1269D01*
X2148Y1269D01*
X2148Y1267D01*
X2154Y1267D01*
X2154Y1265D01*
X2156Y1265D01*
X2156Y1263D01*
X2160Y1263D01*
X2160Y1261D01*
X2162Y1261D01*
X2162Y1259D01*
X2164Y1259D01*
X2164Y1257D01*
X2166Y1257D01*
X2166Y1255D01*
X2168Y1255D01*
X2168Y1253D01*
X2170Y1253D01*
X2170Y1251D01*
X2172Y1251D01*
X2172Y1247D01*
X2174Y1247D01*
X2174Y1245D01*
X2288Y1245D01*
X2288Y1247D01*
X2290Y1247D01*
X2290Y1251D01*
X2292Y1251D01*
X2292Y1253D01*
X2294Y1253D01*
X2294Y1255D01*
X2296Y1255D01*
X2296Y1259D01*
X2300Y1259D01*
X2300Y1261D01*
X2302Y1261D01*
X2302Y1263D01*
X2304Y1263D01*
X2304Y1285D01*
X2302Y1285D01*
X2302Y1287D01*
X2298Y1287D01*
X2298Y1289D01*
X2296Y1289D01*
X2296Y1291D01*
X2294Y1291D01*
X2294Y1295D01*
X2292Y1295D01*
X2292Y1297D01*
X2290Y1297D01*
X2290Y1301D01*
X2158Y1301D01*
X2158Y1303D01*
X2124Y1303D01*
X2124Y1305D01*
X2120Y1305D01*
X2120Y1307D01*
X2118Y1307D01*
X2118Y1309D01*
X2116Y1309D01*
X2116Y1311D01*
X2114Y1311D01*
X2114Y1315D01*
X2112Y1315D01*
X2112Y1379D01*
X2110Y1379D01*
X2110Y1585D01*
X2108Y1585D01*
X2108Y1587D01*
X2104Y1587D01*
X2104Y1589D01*
X2102Y1589D01*
X2102Y1591D01*
X2100Y1591D01*
X2100Y1593D01*
X2098Y1593D01*
X2098Y1595D01*
X2096Y1595D01*
X2096Y1599D01*
X2094Y1599D01*
X2094Y1601D01*
X2092Y1601D01*
X2092Y1605D01*
X2090Y1605D01*
X2090Y1611D01*
X2088Y1611D01*
X2088Y1621D01*
X2086Y1621D01*
X2086Y1627D01*
X2088Y1627D01*
X2088Y1637D01*
X2090Y1637D01*
X2090Y1643D01*
X2092Y1643D01*
X2092Y1647D01*
X2094Y1647D01*
X2094Y1649D01*
X2096Y1649D01*
X2096Y1651D01*
X2098Y1651D01*
X2098Y1655D01*
X2100Y1655D01*
X2100Y1657D01*
X2102Y1657D01*
X2102Y1659D01*
X2106Y1659D01*
X2106Y1661D01*
X2108Y1661D01*
X2108Y1663D01*
X2110Y1663D01*
X2110Y1777D01*
X1356Y1777D01*
G37*
D02*
G36*
X1356Y1271D02*
X1356Y1263D01*
X1360Y1263D01*
X1360Y1261D01*
X1362Y1261D01*
X1362Y1259D01*
X1364Y1259D01*
X1364Y1257D01*
X1366Y1257D01*
X1366Y1255D01*
X1368Y1255D01*
X1368Y1253D01*
X1370Y1253D01*
X1370Y1251D01*
X1372Y1251D01*
X1372Y1247D01*
X1374Y1247D01*
X1374Y1245D01*
X2090Y1245D01*
X2090Y1247D01*
X2092Y1247D01*
X2092Y1251D01*
X2094Y1251D01*
X2094Y1253D01*
X2096Y1253D01*
X2096Y1255D01*
X2098Y1255D01*
X2098Y1257D01*
X2100Y1257D01*
X2100Y1259D01*
X2102Y1259D01*
X2102Y1261D01*
X2104Y1261D01*
X2104Y1263D01*
X2106Y1263D01*
X2106Y1265D01*
X2110Y1265D01*
X2110Y1267D01*
X2114Y1267D01*
X2114Y1269D01*
X2122Y1269D01*
X2122Y1271D01*
X1356Y1271D01*
G37*
D02*
G36*
X372Y1301D02*
X372Y1297D01*
X370Y1297D01*
X370Y1295D01*
X368Y1295D01*
X368Y1293D01*
X366Y1293D01*
X366Y1289D01*
X362Y1289D01*
X362Y1287D01*
X360Y1287D01*
X360Y1285D01*
X358Y1285D01*
X358Y1283D01*
X354Y1283D01*
X354Y1281D01*
X350Y1281D01*
X350Y1279D01*
X344Y1279D01*
X344Y1277D01*
X420Y1277D01*
X420Y1279D01*
X414Y1279D01*
X414Y1281D01*
X410Y1281D01*
X410Y1283D01*
X406Y1283D01*
X406Y1285D01*
X404Y1285D01*
X404Y1287D01*
X400Y1287D01*
X400Y1289D01*
X398Y1289D01*
X398Y1291D01*
X396Y1291D01*
X396Y1295D01*
X394Y1295D01*
X394Y1297D01*
X392Y1297D01*
X392Y1301D01*
X372Y1301D01*
G37*
D02*
G36*
X472Y1301D02*
X472Y1297D01*
X470Y1297D01*
X470Y1295D01*
X468Y1295D01*
X468Y1293D01*
X466Y1293D01*
X466Y1289D01*
X462Y1289D01*
X462Y1287D01*
X460Y1287D01*
X460Y1285D01*
X458Y1285D01*
X458Y1283D01*
X454Y1283D01*
X454Y1281D01*
X450Y1281D01*
X450Y1279D01*
X444Y1279D01*
X444Y1277D01*
X1006Y1277D01*
X1006Y1285D01*
X1004Y1285D01*
X1004Y1287D01*
X1000Y1287D01*
X1000Y1289D01*
X998Y1289D01*
X998Y1291D01*
X996Y1291D01*
X996Y1295D01*
X994Y1295D01*
X994Y1297D01*
X992Y1297D01*
X992Y1301D01*
X472Y1301D01*
G37*
D02*
G36*
X314Y1277D02*
X314Y1275D01*
X1006Y1275D01*
X1006Y1277D01*
X314Y1277D01*
G37*
D02*
G36*
X314Y1277D02*
X314Y1275D01*
X1006Y1275D01*
X1006Y1277D01*
X314Y1277D01*
G37*
D02*
G36*
X312Y1275D02*
X312Y1273D01*
X310Y1273D01*
X310Y1271D01*
X642Y1271D01*
X642Y1269D01*
X648Y1269D01*
X648Y1267D01*
X654Y1267D01*
X654Y1265D01*
X656Y1265D01*
X656Y1263D01*
X660Y1263D01*
X660Y1261D01*
X662Y1261D01*
X662Y1259D01*
X664Y1259D01*
X664Y1257D01*
X666Y1257D01*
X666Y1255D01*
X668Y1255D01*
X668Y1253D01*
X670Y1253D01*
X670Y1251D01*
X672Y1251D01*
X672Y1247D01*
X674Y1247D01*
X674Y1245D01*
X990Y1245D01*
X990Y1247D01*
X992Y1247D01*
X992Y1251D01*
X994Y1251D01*
X994Y1253D01*
X996Y1253D01*
X996Y1255D01*
X998Y1255D01*
X998Y1257D01*
X1000Y1257D01*
X1000Y1259D01*
X1002Y1259D01*
X1002Y1261D01*
X1004Y1261D01*
X1004Y1263D01*
X1006Y1263D01*
X1006Y1275D01*
X312Y1275D01*
G37*
D02*
G36*
X308Y1271D02*
X308Y1269D01*
X306Y1269D01*
X306Y1267D01*
X304Y1267D01*
X304Y1265D01*
X302Y1265D01*
X302Y1263D01*
X300Y1263D01*
X300Y1261D01*
X298Y1261D01*
X298Y1259D01*
X296Y1259D01*
X296Y1257D01*
X294Y1257D01*
X294Y1255D01*
X292Y1255D01*
X292Y1253D01*
X290Y1253D01*
X290Y1251D01*
X288Y1251D01*
X288Y1249D01*
X286Y1249D01*
X286Y1247D01*
X284Y1247D01*
X284Y1245D01*
X282Y1245D01*
X282Y1243D01*
X280Y1243D01*
X280Y1241D01*
X278Y1241D01*
X278Y1239D01*
X276Y1239D01*
X276Y1237D01*
X274Y1237D01*
X274Y1235D01*
X272Y1235D01*
X272Y1233D01*
X270Y1233D01*
X270Y1231D01*
X268Y1231D01*
X268Y1229D01*
X266Y1229D01*
X266Y1227D01*
X264Y1227D01*
X264Y1225D01*
X262Y1225D01*
X262Y1223D01*
X260Y1223D01*
X260Y1221D01*
X258Y1221D01*
X258Y1219D01*
X256Y1219D01*
X256Y1217D01*
X254Y1217D01*
X254Y1069D01*
X440Y1069D01*
X440Y1067D01*
X448Y1067D01*
X448Y1065D01*
X452Y1065D01*
X452Y1063D01*
X456Y1063D01*
X456Y1061D01*
X458Y1061D01*
X458Y1059D01*
X460Y1059D01*
X460Y1057D01*
X464Y1057D01*
X464Y1055D01*
X466Y1055D01*
X466Y1051D01*
X468Y1051D01*
X468Y1049D01*
X470Y1049D01*
X470Y1045D01*
X472Y1045D01*
X472Y1041D01*
X474Y1041D01*
X474Y1035D01*
X476Y1035D01*
X476Y1013D01*
X474Y1013D01*
X474Y1005D01*
X472Y1005D01*
X472Y1003D01*
X470Y1003D01*
X470Y999D01*
X468Y999D01*
X468Y997D01*
X466Y997D01*
X466Y993D01*
X464Y993D01*
X464Y991D01*
X460Y991D01*
X460Y989D01*
X458Y989D01*
X458Y987D01*
X456Y987D01*
X456Y985D01*
X452Y985D01*
X452Y963D01*
X456Y963D01*
X456Y961D01*
X458Y961D01*
X458Y959D01*
X460Y959D01*
X460Y957D01*
X464Y957D01*
X464Y953D01*
X466Y953D01*
X466Y951D01*
X468Y951D01*
X468Y949D01*
X470Y949D01*
X470Y945D01*
X472Y945D01*
X472Y941D01*
X474Y941D01*
X474Y935D01*
X476Y935D01*
X476Y911D01*
X474Y911D01*
X474Y905D01*
X472Y905D01*
X472Y903D01*
X470Y903D01*
X470Y899D01*
X468Y899D01*
X468Y897D01*
X466Y897D01*
X466Y893D01*
X464Y893D01*
X464Y891D01*
X462Y891D01*
X462Y889D01*
X458Y889D01*
X458Y887D01*
X456Y887D01*
X456Y885D01*
X452Y885D01*
X452Y883D01*
X448Y883D01*
X448Y881D01*
X442Y881D01*
X442Y879D01*
X510Y879D01*
X510Y1183D01*
X506Y1183D01*
X506Y1185D01*
X504Y1185D01*
X504Y1187D01*
X500Y1187D01*
X500Y1189D01*
X498Y1189D01*
X498Y1191D01*
X496Y1191D01*
X496Y1195D01*
X494Y1195D01*
X494Y1197D01*
X492Y1197D01*
X492Y1201D01*
X490Y1201D01*
X490Y1203D01*
X488Y1203D01*
X488Y1209D01*
X486Y1209D01*
X486Y1217D01*
X484Y1217D01*
X484Y1231D01*
X486Y1231D01*
X486Y1239D01*
X488Y1239D01*
X488Y1243D01*
X490Y1243D01*
X490Y1247D01*
X492Y1247D01*
X492Y1251D01*
X494Y1251D01*
X494Y1253D01*
X496Y1253D01*
X496Y1255D01*
X498Y1255D01*
X498Y1257D01*
X500Y1257D01*
X500Y1259D01*
X502Y1259D01*
X502Y1261D01*
X504Y1261D01*
X504Y1263D01*
X506Y1263D01*
X506Y1265D01*
X510Y1265D01*
X510Y1267D01*
X514Y1267D01*
X514Y1269D01*
X522Y1269D01*
X522Y1271D01*
X308Y1271D01*
G37*
D02*
G36*
X542Y1271D02*
X542Y1269D01*
X548Y1269D01*
X548Y1267D01*
X554Y1267D01*
X554Y1265D01*
X556Y1265D01*
X556Y1263D01*
X560Y1263D01*
X560Y1261D01*
X562Y1261D01*
X562Y1259D01*
X564Y1259D01*
X564Y1257D01*
X566Y1257D01*
X566Y1255D01*
X568Y1255D01*
X568Y1253D01*
X570Y1253D01*
X570Y1251D01*
X572Y1251D01*
X572Y1247D01*
X592Y1247D01*
X592Y1251D01*
X594Y1251D01*
X594Y1253D01*
X596Y1253D01*
X596Y1255D01*
X598Y1255D01*
X598Y1257D01*
X600Y1257D01*
X600Y1259D01*
X602Y1259D01*
X602Y1261D01*
X604Y1261D01*
X604Y1263D01*
X606Y1263D01*
X606Y1265D01*
X610Y1265D01*
X610Y1267D01*
X614Y1267D01*
X614Y1269D01*
X622Y1269D01*
X622Y1271D01*
X542Y1271D01*
G37*
D02*
G36*
X254Y1069D02*
X254Y879D01*
X422Y879D01*
X422Y881D01*
X416Y881D01*
X416Y883D01*
X412Y883D01*
X412Y885D01*
X408Y885D01*
X408Y887D01*
X404Y887D01*
X404Y889D01*
X402Y889D01*
X402Y891D01*
X400Y891D01*
X400Y893D01*
X398Y893D01*
X398Y895D01*
X396Y895D01*
X396Y899D01*
X394Y899D01*
X394Y901D01*
X392Y901D01*
X392Y905D01*
X390Y905D01*
X390Y911D01*
X388Y911D01*
X388Y921D01*
X386Y921D01*
X386Y927D01*
X388Y927D01*
X388Y937D01*
X390Y937D01*
X390Y943D01*
X392Y943D01*
X392Y947D01*
X394Y947D01*
X394Y949D01*
X396Y949D01*
X396Y951D01*
X398Y951D01*
X398Y955D01*
X400Y955D01*
X400Y957D01*
X402Y957D01*
X402Y959D01*
X406Y959D01*
X406Y961D01*
X408Y961D01*
X408Y963D01*
X412Y963D01*
X412Y985D01*
X408Y985D01*
X408Y987D01*
X406Y987D01*
X406Y989D01*
X402Y989D01*
X402Y991D01*
X400Y991D01*
X400Y993D01*
X398Y993D01*
X398Y995D01*
X396Y995D01*
X396Y999D01*
X394Y999D01*
X394Y1001D01*
X392Y1001D01*
X392Y1005D01*
X390Y1005D01*
X390Y1011D01*
X388Y1011D01*
X388Y1021D01*
X386Y1021D01*
X386Y1027D01*
X388Y1027D01*
X388Y1037D01*
X390Y1037D01*
X390Y1043D01*
X392Y1043D01*
X392Y1047D01*
X394Y1047D01*
X394Y1049D01*
X396Y1049D01*
X396Y1053D01*
X398Y1053D01*
X398Y1055D01*
X400Y1055D01*
X400Y1057D01*
X402Y1057D01*
X402Y1059D01*
X406Y1059D01*
X406Y1061D01*
X408Y1061D01*
X408Y1063D01*
X412Y1063D01*
X412Y1065D01*
X416Y1065D01*
X416Y1067D01*
X424Y1067D01*
X424Y1069D01*
X254Y1069D01*
G37*
D02*
G36*
X254Y879D02*
X254Y877D01*
X510Y877D01*
X510Y879D01*
X254Y879D01*
G37*
D02*
G36*
X254Y879D02*
X254Y877D01*
X510Y877D01*
X510Y879D01*
X254Y879D01*
G37*
D02*
G36*
X254Y877D02*
X254Y769D01*
X440Y769D01*
X440Y767D01*
X448Y767D01*
X448Y765D01*
X452Y765D01*
X452Y763D01*
X456Y763D01*
X456Y761D01*
X458Y761D01*
X458Y759D01*
X460Y759D01*
X460Y757D01*
X464Y757D01*
X464Y755D01*
X466Y755D01*
X466Y751D01*
X468Y751D01*
X468Y749D01*
X470Y749D01*
X470Y745D01*
X472Y745D01*
X472Y741D01*
X474Y741D01*
X474Y735D01*
X476Y735D01*
X476Y713D01*
X474Y713D01*
X474Y705D01*
X472Y705D01*
X472Y703D01*
X470Y703D01*
X470Y699D01*
X468Y699D01*
X468Y697D01*
X466Y697D01*
X466Y693D01*
X464Y693D01*
X464Y691D01*
X460Y691D01*
X460Y689D01*
X458Y689D01*
X458Y687D01*
X456Y687D01*
X456Y685D01*
X452Y685D01*
X452Y663D01*
X456Y663D01*
X456Y661D01*
X458Y661D01*
X458Y659D01*
X460Y659D01*
X460Y657D01*
X464Y657D01*
X464Y653D01*
X466Y653D01*
X466Y651D01*
X468Y651D01*
X468Y649D01*
X470Y649D01*
X470Y645D01*
X472Y645D01*
X472Y641D01*
X474Y641D01*
X474Y635D01*
X476Y635D01*
X476Y611D01*
X474Y611D01*
X474Y605D01*
X472Y605D01*
X472Y603D01*
X470Y603D01*
X470Y599D01*
X468Y599D01*
X468Y597D01*
X466Y597D01*
X466Y593D01*
X464Y593D01*
X464Y591D01*
X462Y591D01*
X462Y589D01*
X458Y589D01*
X458Y587D01*
X456Y587D01*
X456Y585D01*
X452Y585D01*
X452Y583D01*
X448Y583D01*
X448Y581D01*
X442Y581D01*
X442Y579D01*
X510Y579D01*
X510Y877D01*
X254Y877D01*
G37*
D02*
G36*
X254Y769D02*
X254Y579D01*
X422Y579D01*
X422Y581D01*
X416Y581D01*
X416Y583D01*
X412Y583D01*
X412Y585D01*
X408Y585D01*
X408Y587D01*
X404Y587D01*
X404Y589D01*
X402Y589D01*
X402Y591D01*
X400Y591D01*
X400Y593D01*
X398Y593D01*
X398Y595D01*
X396Y595D01*
X396Y599D01*
X394Y599D01*
X394Y601D01*
X392Y601D01*
X392Y605D01*
X390Y605D01*
X390Y611D01*
X388Y611D01*
X388Y621D01*
X386Y621D01*
X386Y627D01*
X388Y627D01*
X388Y637D01*
X390Y637D01*
X390Y643D01*
X392Y643D01*
X392Y647D01*
X394Y647D01*
X394Y649D01*
X396Y649D01*
X396Y651D01*
X398Y651D01*
X398Y655D01*
X400Y655D01*
X400Y657D01*
X402Y657D01*
X402Y659D01*
X406Y659D01*
X406Y661D01*
X408Y661D01*
X408Y663D01*
X412Y663D01*
X412Y685D01*
X408Y685D01*
X408Y687D01*
X406Y687D01*
X406Y689D01*
X402Y689D01*
X402Y691D01*
X400Y691D01*
X400Y693D01*
X398Y693D01*
X398Y695D01*
X396Y695D01*
X396Y699D01*
X394Y699D01*
X394Y701D01*
X392Y701D01*
X392Y705D01*
X390Y705D01*
X390Y711D01*
X388Y711D01*
X388Y721D01*
X386Y721D01*
X386Y727D01*
X388Y727D01*
X388Y737D01*
X390Y737D01*
X390Y743D01*
X392Y743D01*
X392Y747D01*
X394Y747D01*
X394Y749D01*
X396Y749D01*
X396Y753D01*
X398Y753D01*
X398Y755D01*
X400Y755D01*
X400Y757D01*
X402Y757D01*
X402Y759D01*
X406Y759D01*
X406Y761D01*
X408Y761D01*
X408Y763D01*
X412Y763D01*
X412Y765D01*
X416Y765D01*
X416Y767D01*
X424Y767D01*
X424Y769D01*
X254Y769D01*
G37*
D02*
G36*
X254Y579D02*
X254Y577D01*
X510Y577D01*
X510Y579D01*
X254Y579D01*
G37*
D02*
G36*
X254Y579D02*
X254Y577D01*
X510Y577D01*
X510Y579D01*
X254Y579D01*
G37*
D02*
G36*
X254Y577D02*
X254Y377D01*
X1020Y377D01*
X1020Y379D01*
X1014Y379D01*
X1014Y381D01*
X1010Y381D01*
X1010Y383D01*
X1006Y383D01*
X1006Y385D01*
X1004Y385D01*
X1004Y387D01*
X1000Y387D01*
X1000Y389D01*
X998Y389D01*
X998Y391D01*
X996Y391D01*
X996Y395D01*
X994Y395D01*
X994Y397D01*
X992Y397D01*
X992Y401D01*
X820Y401D01*
X820Y403D01*
X524Y403D01*
X524Y405D01*
X520Y405D01*
X520Y407D01*
X518Y407D01*
X518Y409D01*
X516Y409D01*
X516Y411D01*
X514Y411D01*
X514Y413D01*
X512Y413D01*
X512Y419D01*
X510Y419D01*
X510Y577D01*
X254Y577D01*
G37*
D02*
G36*
X1072Y501D02*
X1072Y497D01*
X1070Y497D01*
X1070Y495D01*
X1068Y495D01*
X1068Y493D01*
X1066Y493D01*
X1066Y489D01*
X1062Y489D01*
X1062Y487D01*
X1060Y487D01*
X1060Y485D01*
X1058Y485D01*
X1058Y483D01*
X1056Y483D01*
X1056Y463D01*
X1060Y463D01*
X1060Y461D01*
X1062Y461D01*
X1062Y459D01*
X1064Y459D01*
X1064Y457D01*
X1066Y457D01*
X1066Y455D01*
X1068Y455D01*
X1068Y453D01*
X1070Y453D01*
X1070Y451D01*
X1072Y451D01*
X1072Y447D01*
X1074Y447D01*
X1074Y443D01*
X1076Y443D01*
X1076Y437D01*
X1078Y437D01*
X1078Y429D01*
X1080Y429D01*
X1080Y419D01*
X1078Y419D01*
X1078Y411D01*
X1076Y411D01*
X1076Y405D01*
X1074Y405D01*
X1074Y401D01*
X1072Y401D01*
X1072Y397D01*
X1070Y397D01*
X1070Y395D01*
X1068Y395D01*
X1068Y393D01*
X1066Y393D01*
X1066Y389D01*
X1062Y389D01*
X1062Y387D01*
X1060Y387D01*
X1060Y385D01*
X1058Y385D01*
X1058Y383D01*
X1054Y383D01*
X1054Y381D01*
X1050Y381D01*
X1050Y379D01*
X1044Y379D01*
X1044Y377D01*
X1110Y377D01*
X1110Y501D01*
X1072Y501D01*
G37*
D02*
G36*
X254Y377D02*
X254Y375D01*
X1110Y375D01*
X1110Y377D01*
X254Y377D01*
G37*
D02*
G36*
X254Y377D02*
X254Y375D01*
X1110Y375D01*
X1110Y377D01*
X254Y377D01*
G37*
D02*
G36*
X254Y375D02*
X254Y347D01*
X1110Y347D01*
X1110Y375D01*
X254Y375D01*
G37*
D02*
G36*
X572Y1201D02*
X572Y1197D01*
X570Y1197D01*
X570Y1195D01*
X568Y1195D01*
X568Y1193D01*
X566Y1193D01*
X566Y1189D01*
X562Y1189D01*
X562Y1187D01*
X560Y1187D01*
X560Y1185D01*
X558Y1185D01*
X558Y1183D01*
X554Y1183D01*
X554Y1177D01*
X620Y1177D01*
X620Y1179D01*
X614Y1179D01*
X614Y1181D01*
X610Y1181D01*
X610Y1183D01*
X606Y1183D01*
X606Y1185D01*
X604Y1185D01*
X604Y1187D01*
X600Y1187D01*
X600Y1189D01*
X598Y1189D01*
X598Y1191D01*
X596Y1191D01*
X596Y1195D01*
X594Y1195D01*
X594Y1197D01*
X592Y1197D01*
X592Y1201D01*
X572Y1201D01*
G37*
D02*
G36*
X672Y1201D02*
X672Y1197D01*
X670Y1197D01*
X670Y1195D01*
X668Y1195D01*
X668Y1193D01*
X666Y1193D01*
X666Y1189D01*
X662Y1189D01*
X662Y1187D01*
X660Y1187D01*
X660Y1185D01*
X658Y1185D01*
X658Y1183D01*
X654Y1183D01*
X654Y1181D01*
X650Y1181D01*
X650Y1179D01*
X644Y1179D01*
X644Y1177D01*
X1006Y1177D01*
X1006Y1185D01*
X1004Y1185D01*
X1004Y1187D01*
X1000Y1187D01*
X1000Y1189D01*
X998Y1189D01*
X998Y1191D01*
X996Y1191D01*
X996Y1195D01*
X994Y1195D01*
X994Y1197D01*
X992Y1197D01*
X992Y1201D01*
X672Y1201D01*
G37*
D02*
G36*
X554Y1177D02*
X554Y1175D01*
X1006Y1175D01*
X1006Y1177D01*
X554Y1177D01*
G37*
D02*
G36*
X554Y1177D02*
X554Y1175D01*
X1006Y1175D01*
X1006Y1177D01*
X554Y1177D01*
G37*
D02*
G36*
X554Y1175D02*
X554Y1171D01*
X842Y1171D01*
X842Y1169D01*
X940Y1169D01*
X940Y1167D01*
X948Y1167D01*
X948Y1165D01*
X952Y1165D01*
X952Y1163D01*
X956Y1163D01*
X956Y1161D01*
X958Y1161D01*
X958Y1159D01*
X960Y1159D01*
X960Y1157D01*
X964Y1157D01*
X964Y1155D01*
X966Y1155D01*
X966Y1151D01*
X968Y1151D01*
X968Y1149D01*
X970Y1149D01*
X970Y1145D01*
X990Y1145D01*
X990Y1147D01*
X992Y1147D01*
X992Y1151D01*
X994Y1151D01*
X994Y1153D01*
X996Y1153D01*
X996Y1155D01*
X998Y1155D01*
X998Y1157D01*
X1000Y1157D01*
X1000Y1159D01*
X1002Y1159D01*
X1002Y1161D01*
X1004Y1161D01*
X1004Y1163D01*
X1006Y1163D01*
X1006Y1175D01*
X554Y1175D01*
G37*
D02*
G36*
X554Y1171D02*
X554Y959D01*
X642Y959D01*
X642Y957D01*
X648Y957D01*
X648Y955D01*
X652Y955D01*
X652Y953D01*
X654Y953D01*
X654Y951D01*
X656Y951D01*
X656Y949D01*
X658Y949D01*
X658Y947D01*
X660Y947D01*
X660Y945D01*
X662Y945D01*
X662Y941D01*
X664Y941D01*
X664Y937D01*
X666Y937D01*
X666Y931D01*
X668Y931D01*
X668Y917D01*
X666Y917D01*
X666Y909D01*
X664Y909D01*
X664Y907D01*
X662Y907D01*
X662Y903D01*
X660Y903D01*
X660Y901D01*
X658Y901D01*
X658Y899D01*
X656Y899D01*
X656Y897D01*
X654Y897D01*
X654Y895D01*
X652Y895D01*
X652Y893D01*
X648Y893D01*
X648Y891D01*
X644Y891D01*
X644Y889D01*
X634Y889D01*
X634Y887D01*
X710Y887D01*
X710Y1083D01*
X706Y1083D01*
X706Y1085D01*
X704Y1085D01*
X704Y1087D01*
X700Y1087D01*
X700Y1089D01*
X698Y1089D01*
X698Y1091D01*
X696Y1091D01*
X696Y1095D01*
X694Y1095D01*
X694Y1097D01*
X692Y1097D01*
X692Y1101D01*
X690Y1101D01*
X690Y1103D01*
X688Y1103D01*
X688Y1109D01*
X686Y1109D01*
X686Y1117D01*
X684Y1117D01*
X684Y1131D01*
X686Y1131D01*
X686Y1139D01*
X688Y1139D01*
X688Y1143D01*
X690Y1143D01*
X690Y1147D01*
X692Y1147D01*
X692Y1151D01*
X694Y1151D01*
X694Y1153D01*
X696Y1153D01*
X696Y1155D01*
X698Y1155D01*
X698Y1157D01*
X700Y1157D01*
X700Y1159D01*
X702Y1159D01*
X702Y1161D01*
X704Y1161D01*
X704Y1163D01*
X706Y1163D01*
X706Y1165D01*
X710Y1165D01*
X710Y1167D01*
X714Y1167D01*
X714Y1169D01*
X722Y1169D01*
X722Y1171D01*
X554Y1171D01*
G37*
D02*
G36*
X742Y1171D02*
X742Y1169D01*
X748Y1169D01*
X748Y1167D01*
X754Y1167D01*
X754Y1165D01*
X756Y1165D01*
X756Y1163D01*
X760Y1163D01*
X760Y1161D01*
X762Y1161D01*
X762Y1159D01*
X764Y1159D01*
X764Y1157D01*
X766Y1157D01*
X766Y1155D01*
X768Y1155D01*
X768Y1153D01*
X770Y1153D01*
X770Y1151D01*
X772Y1151D01*
X772Y1147D01*
X792Y1147D01*
X792Y1151D01*
X794Y1151D01*
X794Y1153D01*
X796Y1153D01*
X796Y1155D01*
X798Y1155D01*
X798Y1157D01*
X800Y1157D01*
X800Y1159D01*
X802Y1159D01*
X802Y1161D01*
X804Y1161D01*
X804Y1163D01*
X806Y1163D01*
X806Y1165D01*
X810Y1165D01*
X810Y1167D01*
X814Y1167D01*
X814Y1169D01*
X822Y1169D01*
X822Y1171D01*
X742Y1171D01*
G37*
D02*
G36*
X848Y1169D02*
X848Y1167D01*
X854Y1167D01*
X854Y1165D01*
X856Y1165D01*
X856Y1163D01*
X860Y1163D01*
X860Y1161D01*
X862Y1161D01*
X862Y1159D01*
X864Y1159D01*
X864Y1157D01*
X866Y1157D01*
X866Y1155D01*
X868Y1155D01*
X868Y1153D01*
X870Y1153D01*
X870Y1151D01*
X872Y1151D01*
X872Y1147D01*
X894Y1147D01*
X894Y1149D01*
X896Y1149D01*
X896Y1153D01*
X898Y1153D01*
X898Y1155D01*
X900Y1155D01*
X900Y1157D01*
X902Y1157D01*
X902Y1159D01*
X906Y1159D01*
X906Y1161D01*
X908Y1161D01*
X908Y1163D01*
X912Y1163D01*
X912Y1165D01*
X916Y1165D01*
X916Y1167D01*
X924Y1167D01*
X924Y1169D01*
X848Y1169D01*
G37*
D02*
G36*
X554Y959D02*
X554Y887D01*
X630Y887D01*
X630Y889D01*
X620Y889D01*
X620Y891D01*
X616Y891D01*
X616Y893D01*
X612Y893D01*
X612Y895D01*
X610Y895D01*
X610Y897D01*
X606Y897D01*
X606Y901D01*
X604Y901D01*
X604Y903D01*
X602Y903D01*
X602Y905D01*
X600Y905D01*
X600Y909D01*
X598Y909D01*
X598Y915D01*
X596Y915D01*
X596Y933D01*
X598Y933D01*
X598Y939D01*
X600Y939D01*
X600Y943D01*
X602Y943D01*
X602Y945D01*
X604Y945D01*
X604Y947D01*
X606Y947D01*
X606Y949D01*
X608Y949D01*
X608Y951D01*
X610Y951D01*
X610Y953D01*
X612Y953D01*
X612Y955D01*
X616Y955D01*
X616Y957D01*
X622Y957D01*
X622Y959D01*
X554Y959D01*
G37*
D02*
G36*
X554Y887D02*
X554Y885D01*
X710Y885D01*
X710Y887D01*
X554Y887D01*
G37*
D02*
G36*
X554Y887D02*
X554Y885D01*
X710Y885D01*
X710Y887D01*
X554Y887D01*
G37*
D02*
G36*
X554Y885D02*
X554Y769D01*
X642Y769D01*
X642Y767D01*
X648Y767D01*
X648Y765D01*
X652Y765D01*
X652Y763D01*
X654Y763D01*
X654Y761D01*
X656Y761D01*
X656Y759D01*
X658Y759D01*
X658Y757D01*
X660Y757D01*
X660Y755D01*
X662Y755D01*
X662Y751D01*
X664Y751D01*
X664Y747D01*
X666Y747D01*
X666Y741D01*
X668Y741D01*
X668Y727D01*
X666Y727D01*
X666Y719D01*
X664Y719D01*
X664Y717D01*
X662Y717D01*
X662Y713D01*
X660Y713D01*
X660Y711D01*
X658Y711D01*
X658Y709D01*
X656Y709D01*
X656Y707D01*
X654Y707D01*
X654Y705D01*
X652Y705D01*
X652Y703D01*
X648Y703D01*
X648Y701D01*
X644Y701D01*
X644Y699D01*
X634Y699D01*
X634Y697D01*
X708Y697D01*
X708Y705D01*
X710Y705D01*
X710Y885D01*
X554Y885D01*
G37*
D02*
G36*
X554Y769D02*
X554Y697D01*
X630Y697D01*
X630Y699D01*
X620Y699D01*
X620Y701D01*
X616Y701D01*
X616Y703D01*
X612Y703D01*
X612Y705D01*
X610Y705D01*
X610Y707D01*
X606Y707D01*
X606Y711D01*
X604Y711D01*
X604Y713D01*
X602Y713D01*
X602Y715D01*
X600Y715D01*
X600Y719D01*
X598Y719D01*
X598Y725D01*
X596Y725D01*
X596Y743D01*
X598Y743D01*
X598Y749D01*
X600Y749D01*
X600Y753D01*
X602Y753D01*
X602Y755D01*
X604Y755D01*
X604Y757D01*
X606Y757D01*
X606Y759D01*
X608Y759D01*
X608Y761D01*
X610Y761D01*
X610Y763D01*
X612Y763D01*
X612Y765D01*
X616Y765D01*
X616Y767D01*
X622Y767D01*
X622Y769D01*
X554Y769D01*
G37*
D02*
G36*
X554Y697D02*
X554Y695D01*
X708Y695D01*
X708Y697D01*
X554Y697D01*
G37*
D02*
G36*
X554Y697D02*
X554Y695D01*
X708Y695D01*
X708Y697D01*
X554Y697D01*
G37*
D02*
G36*
X554Y695D02*
X554Y447D01*
X830Y447D01*
X830Y445D01*
X990Y445D01*
X990Y447D01*
X992Y447D01*
X992Y451D01*
X994Y451D01*
X994Y453D01*
X996Y453D01*
X996Y455D01*
X998Y455D01*
X998Y457D01*
X1000Y457D01*
X1000Y459D01*
X1002Y459D01*
X1002Y461D01*
X1004Y461D01*
X1004Y463D01*
X1006Y463D01*
X1006Y485D01*
X1004Y485D01*
X1004Y487D01*
X1000Y487D01*
X1000Y489D01*
X998Y489D01*
X998Y491D01*
X996Y491D01*
X996Y495D01*
X994Y495D01*
X994Y497D01*
X992Y497D01*
X992Y501D01*
X990Y501D01*
X990Y503D01*
X988Y503D01*
X988Y509D01*
X986Y509D01*
X986Y517D01*
X984Y517D01*
X984Y531D01*
X986Y531D01*
X986Y539D01*
X988Y539D01*
X988Y543D01*
X990Y543D01*
X990Y547D01*
X992Y547D01*
X992Y551D01*
X994Y551D01*
X994Y553D01*
X996Y553D01*
X996Y555D01*
X998Y555D01*
X998Y557D01*
X1000Y557D01*
X1000Y559D01*
X1002Y559D01*
X1002Y561D01*
X1004Y561D01*
X1004Y563D01*
X1006Y563D01*
X1006Y585D01*
X1004Y585D01*
X1004Y587D01*
X1000Y587D01*
X1000Y589D01*
X998Y589D01*
X998Y591D01*
X996Y591D01*
X996Y595D01*
X994Y595D01*
X994Y597D01*
X992Y597D01*
X992Y601D01*
X724Y601D01*
X724Y603D01*
X720Y603D01*
X720Y605D01*
X716Y605D01*
X716Y607D01*
X714Y607D01*
X714Y611D01*
X712Y611D01*
X712Y613D01*
X710Y613D01*
X710Y621D01*
X708Y621D01*
X708Y695D01*
X554Y695D01*
G37*
D02*
G36*
X772Y1101D02*
X772Y1097D01*
X770Y1097D01*
X770Y1095D01*
X768Y1095D01*
X768Y1093D01*
X766Y1093D01*
X766Y1089D01*
X762Y1089D01*
X762Y1087D01*
X760Y1087D01*
X760Y1085D01*
X758Y1085D01*
X758Y1083D01*
X754Y1083D01*
X754Y699D01*
X752Y699D01*
X752Y645D01*
X990Y645D01*
X990Y647D01*
X992Y647D01*
X992Y651D01*
X996Y651D01*
X996Y655D01*
X998Y655D01*
X998Y657D01*
X1000Y657D01*
X1000Y659D01*
X1002Y659D01*
X1002Y661D01*
X1004Y661D01*
X1004Y663D01*
X1006Y663D01*
X1006Y685D01*
X1004Y685D01*
X1004Y687D01*
X1000Y687D01*
X1000Y689D01*
X998Y689D01*
X998Y691D01*
X996Y691D01*
X996Y695D01*
X994Y695D01*
X994Y697D01*
X992Y697D01*
X992Y701D01*
X990Y701D01*
X990Y703D01*
X828Y703D01*
X828Y705D01*
X822Y705D01*
X822Y707D01*
X820Y707D01*
X820Y709D01*
X818Y709D01*
X818Y711D01*
X816Y711D01*
X816Y713D01*
X814Y713D01*
X814Y717D01*
X812Y717D01*
X812Y807D01*
X810Y807D01*
X810Y1083D01*
X806Y1083D01*
X806Y1085D01*
X804Y1085D01*
X804Y1087D01*
X800Y1087D01*
X800Y1089D01*
X798Y1089D01*
X798Y1091D01*
X796Y1091D01*
X796Y1095D01*
X794Y1095D01*
X794Y1097D01*
X792Y1097D01*
X792Y1101D01*
X772Y1101D01*
G37*
D02*
G36*
X872Y1101D02*
X872Y1097D01*
X870Y1097D01*
X870Y1095D01*
X868Y1095D01*
X868Y1093D01*
X866Y1093D01*
X866Y1089D01*
X862Y1089D01*
X862Y1087D01*
X860Y1087D01*
X860Y1085D01*
X858Y1085D01*
X858Y1083D01*
X854Y1083D01*
X854Y979D01*
X922Y979D01*
X922Y981D01*
X916Y981D01*
X916Y983D01*
X912Y983D01*
X912Y985D01*
X908Y985D01*
X908Y987D01*
X904Y987D01*
X904Y989D01*
X902Y989D01*
X902Y991D01*
X900Y991D01*
X900Y993D01*
X898Y993D01*
X898Y995D01*
X896Y995D01*
X896Y999D01*
X894Y999D01*
X894Y1001D01*
X892Y1001D01*
X892Y1005D01*
X890Y1005D01*
X890Y1011D01*
X888Y1011D01*
X888Y1021D01*
X886Y1021D01*
X886Y1027D01*
X888Y1027D01*
X888Y1037D01*
X890Y1037D01*
X890Y1043D01*
X892Y1043D01*
X892Y1047D01*
X894Y1047D01*
X894Y1049D01*
X896Y1049D01*
X896Y1051D01*
X898Y1051D01*
X898Y1055D01*
X900Y1055D01*
X900Y1057D01*
X902Y1057D01*
X902Y1059D01*
X906Y1059D01*
X906Y1061D01*
X908Y1061D01*
X908Y1063D01*
X912Y1063D01*
X912Y1085D01*
X908Y1085D01*
X908Y1087D01*
X906Y1087D01*
X906Y1089D01*
X902Y1089D01*
X902Y1091D01*
X900Y1091D01*
X900Y1093D01*
X898Y1093D01*
X898Y1095D01*
X896Y1095D01*
X896Y1099D01*
X894Y1099D01*
X894Y1101D01*
X872Y1101D01*
G37*
D02*
G36*
X970Y1003D02*
X970Y999D01*
X968Y999D01*
X968Y997D01*
X966Y997D01*
X966Y993D01*
X964Y993D01*
X964Y991D01*
X962Y991D01*
X962Y989D01*
X958Y989D01*
X958Y987D01*
X956Y987D01*
X956Y985D01*
X952Y985D01*
X952Y983D01*
X948Y983D01*
X948Y981D01*
X942Y981D01*
X942Y979D01*
X1006Y979D01*
X1006Y985D01*
X1004Y985D01*
X1004Y987D01*
X1000Y987D01*
X1000Y989D01*
X998Y989D01*
X998Y991D01*
X996Y991D01*
X996Y995D01*
X994Y995D01*
X994Y997D01*
X992Y997D01*
X992Y1001D01*
X990Y1001D01*
X990Y1003D01*
X970Y1003D01*
G37*
D02*
G36*
X854Y979D02*
X854Y977D01*
X1006Y977D01*
X1006Y979D01*
X854Y979D01*
G37*
D02*
G36*
X854Y979D02*
X854Y977D01*
X1006Y977D01*
X1006Y979D01*
X854Y979D01*
G37*
D02*
G36*
X854Y977D02*
X854Y811D01*
X856Y811D01*
X856Y747D01*
X992Y747D01*
X992Y751D01*
X994Y751D01*
X994Y753D01*
X996Y753D01*
X996Y755D01*
X998Y755D01*
X998Y757D01*
X1000Y757D01*
X1000Y759D01*
X1002Y759D01*
X1002Y761D01*
X1004Y761D01*
X1004Y763D01*
X1006Y763D01*
X1006Y785D01*
X1004Y785D01*
X1004Y787D01*
X1000Y787D01*
X1000Y789D01*
X998Y789D01*
X998Y791D01*
X996Y791D01*
X996Y795D01*
X994Y795D01*
X994Y797D01*
X992Y797D01*
X992Y801D01*
X990Y801D01*
X990Y803D01*
X988Y803D01*
X988Y809D01*
X986Y809D01*
X986Y817D01*
X984Y817D01*
X984Y831D01*
X986Y831D01*
X986Y839D01*
X988Y839D01*
X988Y843D01*
X990Y843D01*
X990Y847D01*
X992Y847D01*
X992Y851D01*
X994Y851D01*
X994Y853D01*
X996Y853D01*
X996Y855D01*
X998Y855D01*
X998Y857D01*
X1000Y857D01*
X1000Y859D01*
X1002Y859D01*
X1002Y861D01*
X1004Y861D01*
X1004Y863D01*
X1006Y863D01*
X1006Y885D01*
X1004Y885D01*
X1004Y887D01*
X1000Y887D01*
X1000Y889D01*
X998Y889D01*
X998Y891D01*
X996Y891D01*
X996Y895D01*
X994Y895D01*
X994Y897D01*
X992Y897D01*
X992Y901D01*
X990Y901D01*
X990Y903D01*
X988Y903D01*
X988Y909D01*
X986Y909D01*
X986Y917D01*
X984Y917D01*
X984Y931D01*
X986Y931D01*
X986Y939D01*
X988Y939D01*
X988Y943D01*
X990Y943D01*
X990Y947D01*
X992Y947D01*
X992Y951D01*
X994Y951D01*
X994Y953D01*
X996Y953D01*
X996Y955D01*
X998Y955D01*
X998Y957D01*
X1000Y957D01*
X1000Y959D01*
X1002Y959D01*
X1002Y961D01*
X1004Y961D01*
X1004Y963D01*
X1006Y963D01*
X1006Y977D01*
X854Y977D01*
G37*
D02*
G36*
X970Y1101D02*
X970Y1099D01*
X968Y1099D01*
X968Y1097D01*
X966Y1097D01*
X966Y1093D01*
X964Y1093D01*
X964Y1091D01*
X960Y1091D01*
X960Y1089D01*
X958Y1089D01*
X958Y1087D01*
X956Y1087D01*
X956Y1085D01*
X952Y1085D01*
X952Y1063D01*
X956Y1063D01*
X956Y1061D01*
X958Y1061D01*
X958Y1059D01*
X960Y1059D01*
X960Y1057D01*
X964Y1057D01*
X964Y1053D01*
X966Y1053D01*
X966Y1051D01*
X968Y1051D01*
X968Y1049D01*
X970Y1049D01*
X970Y1045D01*
X990Y1045D01*
X990Y1047D01*
X992Y1047D01*
X992Y1051D01*
X994Y1051D01*
X994Y1053D01*
X996Y1053D01*
X996Y1055D01*
X998Y1055D01*
X998Y1057D01*
X1000Y1057D01*
X1000Y1059D01*
X1002Y1059D01*
X1002Y1061D01*
X1004Y1061D01*
X1004Y1063D01*
X1006Y1063D01*
X1006Y1085D01*
X1004Y1085D01*
X1004Y1087D01*
X1000Y1087D01*
X1000Y1089D01*
X998Y1089D01*
X998Y1091D01*
X996Y1091D01*
X996Y1095D01*
X994Y1095D01*
X994Y1097D01*
X992Y1097D01*
X992Y1101D01*
X970Y1101D01*
G37*
D02*
G36*
X124Y3503D02*
X124Y3461D01*
X122Y3461D01*
X122Y3455D01*
X120Y3455D01*
X120Y3449D01*
X118Y3449D01*
X118Y3445D01*
X116Y3445D01*
X116Y3443D01*
X114Y3443D01*
X114Y3439D01*
X112Y3439D01*
X112Y3437D01*
X110Y3437D01*
X110Y3435D01*
X108Y3435D01*
X108Y3433D01*
X106Y3433D01*
X106Y3431D01*
X102Y3431D01*
X102Y3429D01*
X100Y3429D01*
X100Y3427D01*
X96Y3427D01*
X96Y3425D01*
X92Y3425D01*
X92Y3423D01*
X88Y3423D01*
X88Y3421D01*
X80Y3421D01*
X80Y3419D01*
X2664Y3419D01*
X2664Y3421D01*
X2660Y3421D01*
X2660Y3423D01*
X2656Y3423D01*
X2656Y3425D01*
X2652Y3425D01*
X2652Y3427D01*
X2650Y3427D01*
X2650Y3429D01*
X2648Y3429D01*
X2648Y3431D01*
X2646Y3431D01*
X2646Y3433D01*
X2644Y3433D01*
X2644Y3435D01*
X2642Y3435D01*
X2642Y3437D01*
X2640Y3437D01*
X2640Y3439D01*
X2638Y3439D01*
X2638Y3443D01*
X2636Y3443D01*
X2636Y3447D01*
X2634Y3447D01*
X2634Y3451D01*
X2632Y3451D01*
X2632Y3459D01*
X2630Y3459D01*
X2630Y3481D01*
X2632Y3481D01*
X2632Y3503D01*
X124Y3503D01*
G37*
D02*
G36*
X40Y3421D02*
X40Y3419D01*
X64Y3419D01*
X64Y3421D01*
X40Y3421D01*
G37*
D02*
G36*
X40Y3419D02*
X40Y3417D01*
X2670Y3417D01*
X2670Y3419D01*
X40Y3419D01*
G37*
D02*
G36*
X40Y3419D02*
X40Y3417D01*
X2670Y3417D01*
X2670Y3419D01*
X40Y3419D01*
G37*
D02*
G36*
X40Y3417D02*
X40Y3173D01*
X1640Y3173D01*
X1640Y3171D01*
X1648Y3171D01*
X1648Y3169D01*
X1652Y3169D01*
X1652Y3167D01*
X1656Y3167D01*
X1656Y3165D01*
X1660Y3165D01*
X1660Y3163D01*
X1662Y3163D01*
X1662Y3161D01*
X1664Y3161D01*
X1664Y3159D01*
X1666Y3159D01*
X1666Y3157D01*
X1668Y3157D01*
X1668Y3155D01*
X1670Y3155D01*
X1670Y3153D01*
X1672Y3153D01*
X1672Y3151D01*
X1674Y3151D01*
X1674Y3147D01*
X1676Y3147D01*
X1676Y3143D01*
X1678Y3143D01*
X1678Y3137D01*
X1680Y3137D01*
X1680Y3111D01*
X1678Y3111D01*
X1678Y3105D01*
X1676Y3105D01*
X1676Y3101D01*
X1674Y3101D01*
X1674Y3097D01*
X1672Y3097D01*
X1672Y3095D01*
X1670Y3095D01*
X1670Y3093D01*
X1668Y3093D01*
X1668Y3089D01*
X1666Y3089D01*
X1666Y3087D01*
X1662Y3087D01*
X1662Y3085D01*
X1660Y3085D01*
X1660Y3083D01*
X1656Y3083D01*
X1656Y3081D01*
X1654Y3081D01*
X1654Y2921D01*
X1652Y2921D01*
X1652Y2815D01*
X1650Y2815D01*
X1650Y2811D01*
X1648Y2811D01*
X1648Y2809D01*
X1646Y2809D01*
X1646Y2807D01*
X1644Y2807D01*
X1644Y2805D01*
X1642Y2805D01*
X1642Y2803D01*
X1638Y2803D01*
X1638Y2801D01*
X456Y2801D01*
X456Y2785D01*
X2540Y2785D01*
X2540Y2783D01*
X2548Y2783D01*
X2548Y2781D01*
X2552Y2781D01*
X2552Y2779D01*
X2556Y2779D01*
X2556Y2777D01*
X2558Y2777D01*
X2558Y2775D01*
X2562Y2775D01*
X2562Y2773D01*
X2564Y2773D01*
X2564Y2771D01*
X2566Y2771D01*
X2566Y2769D01*
X2568Y2769D01*
X2568Y2767D01*
X2570Y2767D01*
X2570Y2763D01*
X2572Y2763D01*
X2572Y2759D01*
X2574Y2759D01*
X2574Y2757D01*
X2576Y2757D01*
X2576Y2749D01*
X2578Y2749D01*
X2578Y2725D01*
X2576Y2725D01*
X2576Y2719D01*
X2574Y2719D01*
X2574Y2715D01*
X2572Y2715D01*
X2572Y2713D01*
X2570Y2713D01*
X2570Y2709D01*
X2568Y2709D01*
X2568Y2707D01*
X2566Y2707D01*
X2566Y2705D01*
X2564Y2705D01*
X2564Y2703D01*
X2562Y2703D01*
X2562Y2701D01*
X2560Y2701D01*
X2560Y2699D01*
X2556Y2699D01*
X2556Y2697D01*
X2552Y2697D01*
X2552Y2695D01*
X2548Y2695D01*
X2548Y2675D01*
X2550Y2675D01*
X2550Y2673D01*
X2554Y2673D01*
X2554Y2671D01*
X2558Y2671D01*
X2558Y2669D01*
X2560Y2669D01*
X2560Y2667D01*
X2562Y2667D01*
X2562Y2665D01*
X2564Y2665D01*
X2564Y2663D01*
X2566Y2663D01*
X2566Y2661D01*
X2568Y2661D01*
X2568Y2659D01*
X2570Y2659D01*
X2570Y2657D01*
X2572Y2657D01*
X2572Y2653D01*
X2574Y2653D01*
X2574Y2649D01*
X2576Y2649D01*
X2576Y2643D01*
X2578Y2643D01*
X2578Y2619D01*
X2576Y2619D01*
X2576Y2613D01*
X2574Y2613D01*
X2574Y2609D01*
X2572Y2609D01*
X2572Y2605D01*
X2570Y2605D01*
X2570Y2603D01*
X2568Y2603D01*
X2568Y2599D01*
X2566Y2599D01*
X2566Y2597D01*
X2564Y2597D01*
X2564Y2595D01*
X2560Y2595D01*
X2560Y2593D01*
X2558Y2593D01*
X2558Y2591D01*
X2554Y2591D01*
X2554Y2589D01*
X2552Y2589D01*
X2552Y2587D01*
X2548Y2587D01*
X2548Y2567D01*
X2552Y2567D01*
X2552Y2565D01*
X2556Y2565D01*
X2556Y2563D01*
X2558Y2563D01*
X2558Y2561D01*
X2562Y2561D01*
X2562Y2559D01*
X2564Y2559D01*
X2564Y2557D01*
X2566Y2557D01*
X2566Y2555D01*
X2568Y2555D01*
X2568Y2553D01*
X2570Y2553D01*
X2570Y2549D01*
X2572Y2549D01*
X2572Y2545D01*
X2574Y2545D01*
X2574Y2543D01*
X2576Y2543D01*
X2576Y2535D01*
X2578Y2535D01*
X2578Y2511D01*
X2576Y2511D01*
X2576Y2505D01*
X2574Y2505D01*
X2574Y2501D01*
X2572Y2501D01*
X2572Y2499D01*
X2570Y2499D01*
X2570Y2495D01*
X2568Y2495D01*
X2568Y2493D01*
X2566Y2493D01*
X2566Y2491D01*
X2564Y2491D01*
X2564Y2489D01*
X2562Y2489D01*
X2562Y2487D01*
X2560Y2487D01*
X2560Y2485D01*
X2556Y2485D01*
X2556Y2483D01*
X2552Y2483D01*
X2552Y2481D01*
X2548Y2481D01*
X2548Y2479D01*
X2542Y2479D01*
X2542Y2477D01*
X2714Y2477D01*
X2714Y3417D01*
X40Y3417D01*
G37*
D02*
G36*
X40Y3173D02*
X40Y3075D01*
X1122Y3075D01*
X1122Y3077D01*
X1114Y3077D01*
X1114Y3079D01*
X1110Y3079D01*
X1110Y3081D01*
X1106Y3081D01*
X1106Y3083D01*
X1104Y3083D01*
X1104Y3085D01*
X1102Y3085D01*
X1102Y3087D01*
X1098Y3087D01*
X1098Y3089D01*
X1096Y3089D01*
X1096Y3091D01*
X1094Y3091D01*
X1094Y3095D01*
X1092Y3095D01*
X1092Y3097D01*
X1090Y3097D01*
X1090Y3101D01*
X1088Y3101D01*
X1088Y3105D01*
X1086Y3105D01*
X1086Y3111D01*
X1084Y3111D01*
X1084Y3121D01*
X1082Y3121D01*
X1082Y3127D01*
X1084Y3127D01*
X1084Y3137D01*
X1086Y3137D01*
X1086Y3143D01*
X1088Y3143D01*
X1088Y3147D01*
X1090Y3147D01*
X1090Y3151D01*
X1092Y3151D01*
X1092Y3153D01*
X1094Y3153D01*
X1094Y3155D01*
X1096Y3155D01*
X1096Y3159D01*
X1100Y3159D01*
X1100Y3161D01*
X1102Y3161D01*
X1102Y3163D01*
X1104Y3163D01*
X1104Y3165D01*
X1108Y3165D01*
X1108Y3167D01*
X1112Y3167D01*
X1112Y3169D01*
X1116Y3169D01*
X1116Y3171D01*
X1124Y3171D01*
X1124Y3173D01*
X40Y3173D01*
G37*
D02*
G36*
X1140Y3173D02*
X1140Y3171D01*
X1148Y3171D01*
X1148Y3169D01*
X1152Y3169D01*
X1152Y3167D01*
X1156Y3167D01*
X1156Y3165D01*
X1160Y3165D01*
X1160Y3163D01*
X1162Y3163D01*
X1162Y3161D01*
X1164Y3161D01*
X1164Y3159D01*
X1166Y3159D01*
X1166Y3157D01*
X1168Y3157D01*
X1168Y3155D01*
X1170Y3155D01*
X1170Y3153D01*
X1172Y3153D01*
X1172Y3151D01*
X1192Y3151D01*
X1192Y3153D01*
X1194Y3153D01*
X1194Y3155D01*
X1196Y3155D01*
X1196Y3159D01*
X1200Y3159D01*
X1200Y3161D01*
X1202Y3161D01*
X1202Y3163D01*
X1204Y3163D01*
X1204Y3165D01*
X1208Y3165D01*
X1208Y3167D01*
X1212Y3167D01*
X1212Y3169D01*
X1216Y3169D01*
X1216Y3171D01*
X1224Y3171D01*
X1224Y3173D01*
X1140Y3173D01*
G37*
D02*
G36*
X1240Y3173D02*
X1240Y3171D01*
X1248Y3171D01*
X1248Y3169D01*
X1252Y3169D01*
X1252Y3167D01*
X1256Y3167D01*
X1256Y3165D01*
X1260Y3165D01*
X1260Y3163D01*
X1262Y3163D01*
X1262Y3161D01*
X1264Y3161D01*
X1264Y3159D01*
X1266Y3159D01*
X1266Y3157D01*
X1268Y3157D01*
X1268Y3155D01*
X1270Y3155D01*
X1270Y3153D01*
X1272Y3153D01*
X1272Y3151D01*
X1292Y3151D01*
X1292Y3153D01*
X1294Y3153D01*
X1294Y3155D01*
X1296Y3155D01*
X1296Y3159D01*
X1300Y3159D01*
X1300Y3161D01*
X1302Y3161D01*
X1302Y3163D01*
X1304Y3163D01*
X1304Y3165D01*
X1308Y3165D01*
X1308Y3167D01*
X1312Y3167D01*
X1312Y3169D01*
X1316Y3169D01*
X1316Y3171D01*
X1324Y3171D01*
X1324Y3173D01*
X1240Y3173D01*
G37*
D02*
G36*
X1340Y3173D02*
X1340Y3171D01*
X1348Y3171D01*
X1348Y3169D01*
X1352Y3169D01*
X1352Y3167D01*
X1356Y3167D01*
X1356Y3165D01*
X1360Y3165D01*
X1360Y3163D01*
X1362Y3163D01*
X1362Y3161D01*
X1364Y3161D01*
X1364Y3159D01*
X1366Y3159D01*
X1366Y3157D01*
X1368Y3157D01*
X1368Y3155D01*
X1370Y3155D01*
X1370Y3153D01*
X1372Y3153D01*
X1372Y3151D01*
X1392Y3151D01*
X1392Y3153D01*
X1394Y3153D01*
X1394Y3155D01*
X1396Y3155D01*
X1396Y3159D01*
X1400Y3159D01*
X1400Y3161D01*
X1402Y3161D01*
X1402Y3163D01*
X1404Y3163D01*
X1404Y3165D01*
X1408Y3165D01*
X1408Y3167D01*
X1412Y3167D01*
X1412Y3169D01*
X1416Y3169D01*
X1416Y3171D01*
X1424Y3171D01*
X1424Y3173D01*
X1340Y3173D01*
G37*
D02*
G36*
X1440Y3173D02*
X1440Y3171D01*
X1448Y3171D01*
X1448Y3169D01*
X1452Y3169D01*
X1452Y3167D01*
X1456Y3167D01*
X1456Y3165D01*
X1460Y3165D01*
X1460Y3163D01*
X1462Y3163D01*
X1462Y3161D01*
X1464Y3161D01*
X1464Y3159D01*
X1466Y3159D01*
X1466Y3157D01*
X1468Y3157D01*
X1468Y3155D01*
X1470Y3155D01*
X1470Y3153D01*
X1472Y3153D01*
X1472Y3151D01*
X1492Y3151D01*
X1492Y3153D01*
X1494Y3153D01*
X1494Y3155D01*
X1496Y3155D01*
X1496Y3159D01*
X1500Y3159D01*
X1500Y3161D01*
X1502Y3161D01*
X1502Y3163D01*
X1504Y3163D01*
X1504Y3165D01*
X1508Y3165D01*
X1508Y3167D01*
X1512Y3167D01*
X1512Y3169D01*
X1516Y3169D01*
X1516Y3171D01*
X1524Y3171D01*
X1524Y3173D01*
X1440Y3173D01*
G37*
D02*
G36*
X1540Y3173D02*
X1540Y3171D01*
X1548Y3171D01*
X1548Y3169D01*
X1552Y3169D01*
X1552Y3167D01*
X1556Y3167D01*
X1556Y3165D01*
X1560Y3165D01*
X1560Y3163D01*
X1562Y3163D01*
X1562Y3161D01*
X1564Y3161D01*
X1564Y3159D01*
X1566Y3159D01*
X1566Y3157D01*
X1568Y3157D01*
X1568Y3155D01*
X1570Y3155D01*
X1570Y3153D01*
X1572Y3153D01*
X1572Y3151D01*
X1592Y3151D01*
X1592Y3153D01*
X1594Y3153D01*
X1594Y3155D01*
X1596Y3155D01*
X1596Y3159D01*
X1600Y3159D01*
X1600Y3161D01*
X1602Y3161D01*
X1602Y3163D01*
X1604Y3163D01*
X1604Y3165D01*
X1608Y3165D01*
X1608Y3167D01*
X1612Y3167D01*
X1612Y3169D01*
X1616Y3169D01*
X1616Y3171D01*
X1624Y3171D01*
X1624Y3173D01*
X1540Y3173D01*
G37*
D02*
G36*
X1172Y3097D02*
X1172Y3095D01*
X1170Y3095D01*
X1170Y3093D01*
X1168Y3093D01*
X1168Y3089D01*
X1166Y3089D01*
X1166Y3087D01*
X1162Y3087D01*
X1162Y3085D01*
X1160Y3085D01*
X1160Y3083D01*
X1156Y3083D01*
X1156Y3081D01*
X1154Y3081D01*
X1154Y3079D01*
X1148Y3079D01*
X1148Y3077D01*
X1142Y3077D01*
X1142Y3075D01*
X1208Y3075D01*
X1208Y3081D01*
X1206Y3081D01*
X1206Y3083D01*
X1204Y3083D01*
X1204Y3085D01*
X1202Y3085D01*
X1202Y3087D01*
X1198Y3087D01*
X1198Y3089D01*
X1196Y3089D01*
X1196Y3091D01*
X1194Y3091D01*
X1194Y3095D01*
X1192Y3095D01*
X1192Y3097D01*
X1172Y3097D01*
G37*
D02*
G36*
X1272Y3097D02*
X1272Y3095D01*
X1270Y3095D01*
X1270Y3093D01*
X1268Y3093D01*
X1268Y3089D01*
X1266Y3089D01*
X1266Y3087D01*
X1262Y3087D01*
X1262Y3085D01*
X1260Y3085D01*
X1260Y3083D01*
X1256Y3083D01*
X1256Y3081D01*
X1254Y3081D01*
X1254Y3069D01*
X1252Y3069D01*
X1252Y3017D01*
X1250Y3017D01*
X1250Y3013D01*
X1248Y3013D01*
X1248Y3011D01*
X1246Y3011D01*
X1246Y3007D01*
X1242Y3007D01*
X1242Y3005D01*
X1238Y3005D01*
X1238Y3003D01*
X254Y3003D01*
X254Y1765D01*
X256Y1765D01*
X256Y1763D01*
X260Y1763D01*
X260Y1761D01*
X262Y1761D01*
X262Y1759D01*
X264Y1759D01*
X264Y1757D01*
X266Y1757D01*
X266Y1755D01*
X268Y1755D01*
X268Y1753D01*
X270Y1753D01*
X270Y1751D01*
X272Y1751D01*
X272Y1747D01*
X274Y1747D01*
X274Y1743D01*
X276Y1743D01*
X276Y1737D01*
X278Y1737D01*
X278Y1729D01*
X280Y1729D01*
X280Y1719D01*
X278Y1719D01*
X278Y1711D01*
X276Y1711D01*
X276Y1705D01*
X274Y1705D01*
X274Y1701D01*
X272Y1701D01*
X272Y1697D01*
X270Y1697D01*
X270Y1695D01*
X268Y1695D01*
X268Y1693D01*
X266Y1693D01*
X266Y1689D01*
X262Y1689D01*
X262Y1687D01*
X260Y1687D01*
X260Y1685D01*
X258Y1685D01*
X258Y1683D01*
X254Y1683D01*
X254Y1681D01*
X250Y1681D01*
X250Y1679D01*
X244Y1679D01*
X244Y1677D01*
X310Y1677D01*
X310Y2487D01*
X308Y2487D01*
X308Y2929D01*
X310Y2929D01*
X310Y2935D01*
X312Y2935D01*
X312Y2939D01*
X314Y2939D01*
X314Y2941D01*
X316Y2941D01*
X316Y2943D01*
X320Y2943D01*
X320Y2945D01*
X324Y2945D01*
X324Y2947D01*
X1310Y2947D01*
X1310Y3081D01*
X1306Y3081D01*
X1306Y3083D01*
X1304Y3083D01*
X1304Y3085D01*
X1302Y3085D01*
X1302Y3087D01*
X1298Y3087D01*
X1298Y3089D01*
X1296Y3089D01*
X1296Y3091D01*
X1294Y3091D01*
X1294Y3095D01*
X1292Y3095D01*
X1292Y3097D01*
X1272Y3097D01*
G37*
D02*
G36*
X40Y3075D02*
X40Y3073D01*
X1208Y3073D01*
X1208Y3075D01*
X40Y3075D01*
G37*
D02*
G36*
X40Y3075D02*
X40Y3073D01*
X1208Y3073D01*
X1208Y3075D01*
X40Y3075D01*
G37*
D02*
G36*
X40Y3073D02*
X40Y1677D01*
X220Y1677D01*
X220Y1679D01*
X214Y1679D01*
X214Y1681D01*
X210Y1681D01*
X210Y1683D01*
X206Y1683D01*
X206Y1685D01*
X204Y1685D01*
X204Y1687D01*
X200Y1687D01*
X200Y1689D01*
X198Y1689D01*
X198Y1691D01*
X196Y1691D01*
X196Y1695D01*
X194Y1695D01*
X194Y1697D01*
X192Y1697D01*
X192Y1701D01*
X190Y1701D01*
X190Y1703D01*
X188Y1703D01*
X188Y1709D01*
X186Y1709D01*
X186Y1717D01*
X184Y1717D01*
X184Y1731D01*
X186Y1731D01*
X186Y1739D01*
X188Y1739D01*
X188Y1743D01*
X190Y1743D01*
X190Y1747D01*
X192Y1747D01*
X192Y1751D01*
X194Y1751D01*
X194Y1753D01*
X196Y1753D01*
X196Y1755D01*
X198Y1755D01*
X198Y1757D01*
X200Y1757D01*
X200Y1759D01*
X202Y1759D01*
X202Y1761D01*
X204Y1761D01*
X204Y1763D01*
X206Y1763D01*
X206Y1765D01*
X210Y1765D01*
X210Y3033D01*
X212Y3033D01*
X212Y3037D01*
X214Y3037D01*
X214Y3039D01*
X216Y3039D01*
X216Y3041D01*
X218Y3041D01*
X218Y3043D01*
X222Y3043D01*
X222Y3045D01*
X228Y3045D01*
X228Y3047D01*
X1208Y3047D01*
X1208Y3073D01*
X40Y3073D01*
G37*
D02*
G36*
X456Y2785D02*
X456Y2773D01*
X2380Y2773D01*
X2380Y2675D01*
X2368Y2675D01*
X2368Y2655D01*
X2370Y2655D01*
X2370Y2653D01*
X2372Y2653D01*
X2372Y2651D01*
X2394Y2651D01*
X2394Y2653D01*
X2452Y2653D01*
X2452Y2655D01*
X2492Y2655D01*
X2492Y2657D01*
X2494Y2657D01*
X2494Y2659D01*
X2496Y2659D01*
X2496Y2663D01*
X2498Y2663D01*
X2498Y2665D01*
X2502Y2665D01*
X2502Y2667D01*
X2504Y2667D01*
X2504Y2669D01*
X2506Y2669D01*
X2506Y2671D01*
X2510Y2671D01*
X2510Y2673D01*
X2514Y2673D01*
X2514Y2675D01*
X2516Y2675D01*
X2516Y2695D01*
X2510Y2695D01*
X2510Y2697D01*
X2508Y2697D01*
X2508Y2699D01*
X2504Y2699D01*
X2504Y2701D01*
X2502Y2701D01*
X2502Y2703D01*
X2500Y2703D01*
X2500Y2705D01*
X2498Y2705D01*
X2498Y2707D01*
X2496Y2707D01*
X2496Y2709D01*
X2494Y2709D01*
X2494Y2711D01*
X2492Y2711D01*
X2492Y2715D01*
X2490Y2715D01*
X2490Y2719D01*
X2488Y2719D01*
X2488Y2725D01*
X2486Y2725D01*
X2486Y2735D01*
X2484Y2735D01*
X2484Y2741D01*
X2486Y2741D01*
X2486Y2751D01*
X2488Y2751D01*
X2488Y2757D01*
X2490Y2757D01*
X2490Y2761D01*
X2492Y2761D01*
X2492Y2765D01*
X2494Y2765D01*
X2494Y2767D01*
X2496Y2767D01*
X2496Y2769D01*
X2498Y2769D01*
X2498Y2771D01*
X2500Y2771D01*
X2500Y2773D01*
X2502Y2773D01*
X2502Y2775D01*
X2504Y2775D01*
X2504Y2777D01*
X2508Y2777D01*
X2508Y2779D01*
X2512Y2779D01*
X2512Y2781D01*
X2516Y2781D01*
X2516Y2783D01*
X2524Y2783D01*
X2524Y2785D01*
X456Y2785D01*
G37*
D02*
G36*
X456Y2773D02*
X456Y2761D01*
X454Y2761D01*
X454Y2575D01*
X2322Y2575D01*
X2322Y2577D01*
X2314Y2577D01*
X2314Y2579D01*
X2310Y2579D01*
X2310Y2581D01*
X2306Y2581D01*
X2306Y2583D01*
X2304Y2583D01*
X2304Y2585D01*
X2302Y2585D01*
X2302Y2587D01*
X2298Y2587D01*
X2298Y2589D01*
X2296Y2589D01*
X2296Y2591D01*
X2294Y2591D01*
X2294Y2595D01*
X2292Y2595D01*
X2292Y2597D01*
X2290Y2597D01*
X2290Y2601D01*
X2288Y2601D01*
X2288Y2605D01*
X2286Y2605D01*
X2286Y2611D01*
X2284Y2611D01*
X2284Y2621D01*
X2282Y2621D01*
X2282Y2627D01*
X2284Y2627D01*
X2284Y2637D01*
X2286Y2637D01*
X2286Y2643D01*
X2288Y2643D01*
X2288Y2647D01*
X2290Y2647D01*
X2290Y2651D01*
X2292Y2651D01*
X2292Y2653D01*
X2294Y2653D01*
X2294Y2655D01*
X2296Y2655D01*
X2296Y2675D01*
X2282Y2675D01*
X2282Y2773D01*
X456Y2773D01*
G37*
D02*
G36*
X2452Y2603D02*
X2452Y2601D01*
X2396Y2601D01*
X2396Y2599D01*
X2374Y2599D01*
X2374Y2597D01*
X2372Y2597D01*
X2372Y2595D01*
X2370Y2595D01*
X2370Y2593D01*
X2368Y2593D01*
X2368Y2589D01*
X2366Y2589D01*
X2366Y2587D01*
X2362Y2587D01*
X2362Y2585D01*
X2360Y2585D01*
X2360Y2583D01*
X2356Y2583D01*
X2356Y2581D01*
X2354Y2581D01*
X2354Y2579D01*
X2348Y2579D01*
X2348Y2577D01*
X2342Y2577D01*
X2342Y2575D01*
X2516Y2575D01*
X2516Y2587D01*
X2512Y2587D01*
X2512Y2589D01*
X2510Y2589D01*
X2510Y2591D01*
X2506Y2591D01*
X2506Y2593D01*
X2502Y2593D01*
X2502Y2595D01*
X2500Y2595D01*
X2500Y2597D01*
X2498Y2597D01*
X2498Y2599D01*
X2496Y2599D01*
X2496Y2601D01*
X2494Y2601D01*
X2494Y2603D01*
X2452Y2603D01*
G37*
D02*
G36*
X454Y2575D02*
X454Y2573D01*
X2516Y2573D01*
X2516Y2575D01*
X454Y2575D01*
G37*
D02*
G36*
X454Y2575D02*
X454Y2573D01*
X2516Y2573D01*
X2516Y2575D01*
X454Y2575D01*
G37*
D02*
G36*
X454Y2573D02*
X454Y2551D01*
X2468Y2551D01*
X2468Y2549D01*
X2492Y2549D01*
X2492Y2551D01*
X2494Y2551D01*
X2494Y2553D01*
X2496Y2553D01*
X2496Y2555D01*
X2498Y2555D01*
X2498Y2557D01*
X2500Y2557D01*
X2500Y2559D01*
X2502Y2559D01*
X2502Y2561D01*
X2504Y2561D01*
X2504Y2563D01*
X2508Y2563D01*
X2508Y2565D01*
X2512Y2565D01*
X2512Y2567D01*
X2516Y2567D01*
X2516Y2573D01*
X454Y2573D01*
G37*
D02*
G36*
X454Y2551D02*
X454Y2547D01*
X1536Y2547D01*
X1536Y2545D01*
X1542Y2545D01*
X1542Y2543D01*
X1544Y2543D01*
X1544Y2541D01*
X1548Y2541D01*
X1548Y2537D01*
X1550Y2537D01*
X1550Y2535D01*
X1552Y2535D01*
X1552Y2529D01*
X1554Y2529D01*
X1554Y2273D01*
X1640Y2273D01*
X1640Y2271D01*
X1648Y2271D01*
X1648Y2269D01*
X1652Y2269D01*
X1652Y2267D01*
X1656Y2267D01*
X1656Y2265D01*
X1660Y2265D01*
X1660Y2263D01*
X1662Y2263D01*
X1662Y2261D01*
X1664Y2261D01*
X1664Y2259D01*
X1666Y2259D01*
X1666Y2257D01*
X1668Y2257D01*
X1668Y2255D01*
X1670Y2255D01*
X1670Y2253D01*
X1672Y2253D01*
X1672Y2251D01*
X1674Y2251D01*
X1674Y2247D01*
X1676Y2247D01*
X1676Y2243D01*
X1678Y2243D01*
X1678Y2237D01*
X1680Y2237D01*
X1680Y2211D01*
X1678Y2211D01*
X1678Y2205D01*
X1676Y2205D01*
X1676Y2201D01*
X1674Y2201D01*
X1674Y2197D01*
X1672Y2197D01*
X1672Y2195D01*
X1670Y2195D01*
X1670Y2193D01*
X1668Y2193D01*
X1668Y2189D01*
X1666Y2189D01*
X1666Y2187D01*
X1662Y2187D01*
X1662Y2185D01*
X1660Y2185D01*
X1660Y2183D01*
X1656Y2183D01*
X1656Y2181D01*
X1654Y2181D01*
X1654Y2179D01*
X1648Y2179D01*
X1648Y2177D01*
X1642Y2177D01*
X1642Y2175D01*
X2206Y2175D01*
X2206Y2529D01*
X2208Y2529D01*
X2208Y2535D01*
X2210Y2535D01*
X2210Y2539D01*
X2212Y2539D01*
X2212Y2541D01*
X2214Y2541D01*
X2214Y2543D01*
X2216Y2543D01*
X2216Y2545D01*
X2218Y2545D01*
X2218Y2547D01*
X2222Y2547D01*
X2222Y2549D01*
X2226Y2549D01*
X2226Y2551D01*
X454Y2551D01*
G37*
D02*
G36*
X454Y2547D02*
X454Y1665D01*
X456Y1665D01*
X456Y1663D01*
X460Y1663D01*
X460Y1661D01*
X462Y1661D01*
X462Y1659D01*
X464Y1659D01*
X464Y1657D01*
X466Y1657D01*
X466Y1655D01*
X468Y1655D01*
X468Y1653D01*
X470Y1653D01*
X470Y1651D01*
X472Y1651D01*
X472Y1647D01*
X474Y1647D01*
X474Y1643D01*
X476Y1643D01*
X476Y1637D01*
X478Y1637D01*
X478Y1629D01*
X480Y1629D01*
X480Y1619D01*
X478Y1619D01*
X478Y1611D01*
X476Y1611D01*
X476Y1605D01*
X474Y1605D01*
X474Y1601D01*
X472Y1601D01*
X472Y1597D01*
X470Y1597D01*
X470Y1595D01*
X468Y1595D01*
X468Y1593D01*
X466Y1593D01*
X466Y1589D01*
X462Y1589D01*
X462Y1587D01*
X460Y1587D01*
X460Y1585D01*
X458Y1585D01*
X458Y1583D01*
X454Y1583D01*
X454Y1581D01*
X450Y1581D01*
X450Y1579D01*
X444Y1579D01*
X444Y1577D01*
X510Y1577D01*
X510Y2529D01*
X512Y2529D01*
X512Y2535D01*
X514Y2535D01*
X514Y2539D01*
X516Y2539D01*
X516Y2541D01*
X518Y2541D01*
X518Y2543D01*
X522Y2543D01*
X522Y2545D01*
X526Y2545D01*
X526Y2547D01*
X454Y2547D01*
G37*
D02*
G36*
X2258Y2499D02*
X2258Y2477D01*
X2522Y2477D01*
X2522Y2479D01*
X2516Y2479D01*
X2516Y2481D01*
X2510Y2481D01*
X2510Y2483D01*
X2508Y2483D01*
X2508Y2485D01*
X2504Y2485D01*
X2504Y2487D01*
X2502Y2487D01*
X2502Y2489D01*
X2500Y2489D01*
X2500Y2491D01*
X2498Y2491D01*
X2498Y2493D01*
X2496Y2493D01*
X2496Y2495D01*
X2494Y2495D01*
X2494Y2497D01*
X2464Y2497D01*
X2464Y2499D01*
X2258Y2499D01*
G37*
D02*
G36*
X2258Y2477D02*
X2258Y2475D01*
X2714Y2475D01*
X2714Y2477D01*
X2258Y2477D01*
G37*
D02*
G36*
X2258Y2477D02*
X2258Y2475D01*
X2714Y2475D01*
X2714Y2477D01*
X2258Y2477D01*
G37*
D02*
G36*
X2258Y2475D02*
X2258Y2059D01*
X2260Y2059D01*
X2260Y2057D01*
X2264Y2057D01*
X2264Y2053D01*
X2266Y2053D01*
X2266Y2051D01*
X2268Y2051D01*
X2268Y2049D01*
X2270Y2049D01*
X2270Y2045D01*
X2272Y2045D01*
X2272Y2041D01*
X2274Y2041D01*
X2274Y2035D01*
X2276Y2035D01*
X2276Y2013D01*
X2274Y2013D01*
X2274Y2005D01*
X2272Y2005D01*
X2272Y2003D01*
X2270Y2003D01*
X2270Y1999D01*
X2432Y1999D01*
X2432Y1997D01*
X2442Y1997D01*
X2442Y1995D01*
X2448Y1995D01*
X2448Y1993D01*
X2452Y1993D01*
X2452Y1991D01*
X2456Y1991D01*
X2456Y1989D01*
X2460Y1989D01*
X2460Y1987D01*
X2464Y1987D01*
X2464Y1985D01*
X2466Y1985D01*
X2466Y1983D01*
X2470Y1983D01*
X2470Y1981D01*
X2472Y1981D01*
X2472Y1979D01*
X2474Y1979D01*
X2474Y1977D01*
X2476Y1977D01*
X2476Y1975D01*
X2478Y1975D01*
X2478Y1973D01*
X2480Y1973D01*
X2480Y1969D01*
X2482Y1969D01*
X2482Y1967D01*
X2484Y1967D01*
X2484Y1963D01*
X2486Y1963D01*
X2486Y1961D01*
X2488Y1961D01*
X2488Y1957D01*
X2490Y1957D01*
X2490Y1953D01*
X2492Y1953D01*
X2492Y1947D01*
X2494Y1947D01*
X2494Y1939D01*
X2496Y1939D01*
X2496Y1909D01*
X2494Y1909D01*
X2494Y1901D01*
X2492Y1901D01*
X2492Y1895D01*
X2490Y1895D01*
X2490Y1891D01*
X2488Y1891D01*
X2488Y1887D01*
X2486Y1887D01*
X2486Y1883D01*
X2484Y1883D01*
X2484Y1881D01*
X2482Y1881D01*
X2482Y1877D01*
X2480Y1877D01*
X2480Y1875D01*
X2478Y1875D01*
X2478Y1873D01*
X2476Y1873D01*
X2476Y1871D01*
X2474Y1871D01*
X2474Y1869D01*
X2472Y1869D01*
X2472Y1867D01*
X2470Y1867D01*
X2470Y1865D01*
X2466Y1865D01*
X2466Y1863D01*
X2464Y1863D01*
X2464Y1861D01*
X2460Y1861D01*
X2460Y1859D01*
X2458Y1859D01*
X2458Y1857D01*
X2454Y1857D01*
X2454Y1855D01*
X2448Y1855D01*
X2448Y1853D01*
X2442Y1853D01*
X2442Y1851D01*
X2434Y1851D01*
X2434Y1849D01*
X2714Y1849D01*
X2714Y2475D01*
X2258Y2475D01*
G37*
D02*
G36*
X1554Y2273D02*
X1554Y2267D01*
X1556Y2267D01*
X1556Y2265D01*
X1560Y2265D01*
X1560Y2263D01*
X1562Y2263D01*
X1562Y2261D01*
X1564Y2261D01*
X1564Y2259D01*
X1566Y2259D01*
X1566Y2257D01*
X1568Y2257D01*
X1568Y2255D01*
X1570Y2255D01*
X1570Y2253D01*
X1572Y2253D01*
X1572Y2251D01*
X1592Y2251D01*
X1592Y2253D01*
X1594Y2253D01*
X1594Y2255D01*
X1596Y2255D01*
X1596Y2259D01*
X1600Y2259D01*
X1600Y2261D01*
X1602Y2261D01*
X1602Y2263D01*
X1604Y2263D01*
X1604Y2265D01*
X1608Y2265D01*
X1608Y2267D01*
X1612Y2267D01*
X1612Y2269D01*
X1616Y2269D01*
X1616Y2271D01*
X1624Y2271D01*
X1624Y2273D01*
X1554Y2273D01*
G37*
D02*
G36*
X1272Y2197D02*
X1272Y2195D01*
X1270Y2195D01*
X1270Y2193D01*
X1268Y2193D01*
X1268Y2189D01*
X1266Y2189D01*
X1266Y2187D01*
X1262Y2187D01*
X1262Y2185D01*
X1260Y2185D01*
X1260Y2183D01*
X1256Y2183D01*
X1256Y2181D01*
X1254Y2181D01*
X1254Y2169D01*
X1252Y2169D01*
X1252Y2117D01*
X1250Y2117D01*
X1250Y2113D01*
X1248Y2113D01*
X1248Y2111D01*
X1246Y2111D01*
X1246Y2109D01*
X1244Y2109D01*
X1244Y2107D01*
X1242Y2107D01*
X1242Y2105D01*
X1238Y2105D01*
X1238Y2103D01*
X856Y2103D01*
X856Y2077D01*
X1320Y2077D01*
X1320Y2079D01*
X1314Y2079D01*
X1314Y2081D01*
X1310Y2081D01*
X1310Y2083D01*
X1306Y2083D01*
X1306Y2085D01*
X1304Y2085D01*
X1304Y2087D01*
X1300Y2087D01*
X1300Y2089D01*
X1298Y2089D01*
X1298Y2091D01*
X1296Y2091D01*
X1296Y2095D01*
X1294Y2095D01*
X1294Y2097D01*
X1292Y2097D01*
X1292Y2101D01*
X1290Y2101D01*
X1290Y2103D01*
X1288Y2103D01*
X1288Y2109D01*
X1286Y2109D01*
X1286Y2117D01*
X1284Y2117D01*
X1284Y2131D01*
X1286Y2131D01*
X1286Y2139D01*
X1288Y2139D01*
X1288Y2143D01*
X1290Y2143D01*
X1290Y2147D01*
X1292Y2147D01*
X1292Y2151D01*
X1294Y2151D01*
X1294Y2153D01*
X1296Y2153D01*
X1296Y2155D01*
X1298Y2155D01*
X1298Y2157D01*
X1300Y2157D01*
X1300Y2159D01*
X1302Y2159D01*
X1302Y2161D01*
X1304Y2161D01*
X1304Y2163D01*
X1306Y2163D01*
X1306Y2183D01*
X1304Y2183D01*
X1304Y2185D01*
X1302Y2185D01*
X1302Y2187D01*
X1298Y2187D01*
X1298Y2189D01*
X1296Y2189D01*
X1296Y2191D01*
X1294Y2191D01*
X1294Y2195D01*
X1292Y2195D01*
X1292Y2197D01*
X1272Y2197D01*
G37*
D02*
G36*
X1372Y2197D02*
X1372Y2195D01*
X1370Y2195D01*
X1370Y2193D01*
X1368Y2193D01*
X1368Y2189D01*
X1366Y2189D01*
X1366Y2187D01*
X1362Y2187D01*
X1362Y2185D01*
X1360Y2185D01*
X1360Y2183D01*
X1356Y2183D01*
X1356Y2175D01*
X1422Y2175D01*
X1422Y2177D01*
X1414Y2177D01*
X1414Y2179D01*
X1410Y2179D01*
X1410Y2181D01*
X1406Y2181D01*
X1406Y2183D01*
X1404Y2183D01*
X1404Y2185D01*
X1402Y2185D01*
X1402Y2187D01*
X1398Y2187D01*
X1398Y2189D01*
X1396Y2189D01*
X1396Y2191D01*
X1394Y2191D01*
X1394Y2195D01*
X1392Y2195D01*
X1392Y2197D01*
X1372Y2197D01*
G37*
D02*
G36*
X1472Y2197D02*
X1472Y2195D01*
X1470Y2195D01*
X1470Y2193D01*
X1468Y2193D01*
X1468Y2189D01*
X1466Y2189D01*
X1466Y2187D01*
X1462Y2187D01*
X1462Y2185D01*
X1460Y2185D01*
X1460Y2183D01*
X1456Y2183D01*
X1456Y2181D01*
X1454Y2181D01*
X1454Y2179D01*
X1448Y2179D01*
X1448Y2177D01*
X1442Y2177D01*
X1442Y2175D01*
X1522Y2175D01*
X1522Y2177D01*
X1514Y2177D01*
X1514Y2179D01*
X1510Y2179D01*
X1510Y2181D01*
X1506Y2181D01*
X1506Y2183D01*
X1504Y2183D01*
X1504Y2185D01*
X1502Y2185D01*
X1502Y2187D01*
X1498Y2187D01*
X1498Y2189D01*
X1496Y2189D01*
X1496Y2191D01*
X1494Y2191D01*
X1494Y2195D01*
X1492Y2195D01*
X1492Y2197D01*
X1472Y2197D01*
G37*
D02*
G36*
X1572Y2197D02*
X1572Y2195D01*
X1570Y2195D01*
X1570Y2193D01*
X1568Y2193D01*
X1568Y2189D01*
X1566Y2189D01*
X1566Y2187D01*
X1562Y2187D01*
X1562Y2185D01*
X1560Y2185D01*
X1560Y2183D01*
X1556Y2183D01*
X1556Y2181D01*
X1554Y2181D01*
X1554Y2179D01*
X1548Y2179D01*
X1548Y2177D01*
X1542Y2177D01*
X1542Y2175D01*
X1622Y2175D01*
X1622Y2177D01*
X1614Y2177D01*
X1614Y2179D01*
X1610Y2179D01*
X1610Y2181D01*
X1606Y2181D01*
X1606Y2183D01*
X1604Y2183D01*
X1604Y2185D01*
X1602Y2185D01*
X1602Y2187D01*
X1598Y2187D01*
X1598Y2189D01*
X1596Y2189D01*
X1596Y2191D01*
X1594Y2191D01*
X1594Y2195D01*
X1592Y2195D01*
X1592Y2197D01*
X1572Y2197D01*
G37*
D02*
G36*
X1356Y2175D02*
X1356Y2173D01*
X2206Y2173D01*
X2206Y2175D01*
X1356Y2175D01*
G37*
D02*
G36*
X1356Y2175D02*
X1356Y2173D01*
X2206Y2173D01*
X2206Y2175D01*
X1356Y2175D01*
G37*
D02*
G36*
X1356Y2175D02*
X1356Y2173D01*
X2206Y2173D01*
X2206Y2175D01*
X1356Y2175D01*
G37*
D02*
G36*
X1356Y2175D02*
X1356Y2173D01*
X2206Y2173D01*
X2206Y2175D01*
X1356Y2175D01*
G37*
D02*
G36*
X1356Y2173D02*
X1356Y2163D01*
X1360Y2163D01*
X1360Y2161D01*
X1362Y2161D01*
X1362Y2159D01*
X1364Y2159D01*
X1364Y2157D01*
X1366Y2157D01*
X1366Y2155D01*
X1368Y2155D01*
X1368Y2153D01*
X1370Y2153D01*
X1370Y2151D01*
X1372Y2151D01*
X1372Y2147D01*
X1374Y2147D01*
X1374Y2143D01*
X1376Y2143D01*
X1376Y2137D01*
X1378Y2137D01*
X1378Y2129D01*
X1380Y2129D01*
X1380Y2119D01*
X1378Y2119D01*
X1378Y2111D01*
X1376Y2111D01*
X1376Y2105D01*
X1374Y2105D01*
X1374Y2101D01*
X1372Y2101D01*
X1372Y2097D01*
X1370Y2097D01*
X1370Y2095D01*
X1368Y2095D01*
X1368Y2093D01*
X1366Y2093D01*
X1366Y2089D01*
X1362Y2089D01*
X1362Y2087D01*
X1360Y2087D01*
X1360Y2085D01*
X1358Y2085D01*
X1358Y2083D01*
X1354Y2083D01*
X1354Y2081D01*
X1350Y2081D01*
X1350Y2079D01*
X1344Y2079D01*
X1344Y2077D01*
X2206Y2077D01*
X2206Y2173D01*
X1356Y2173D01*
G37*
D02*
G36*
X856Y2077D02*
X856Y2075D01*
X2206Y2075D01*
X2206Y2077D01*
X856Y2077D01*
G37*
D02*
G36*
X856Y2077D02*
X856Y2075D01*
X2206Y2075D01*
X2206Y2077D01*
X856Y2077D01*
G37*
D02*
G36*
X856Y2075D02*
X856Y2063D01*
X1872Y2063D01*
X1872Y2061D01*
X1878Y2061D01*
X1878Y2059D01*
X1882Y2059D01*
X1882Y2057D01*
X1886Y2057D01*
X1886Y2055D01*
X1888Y2055D01*
X1888Y2053D01*
X1890Y2053D01*
X1890Y2051D01*
X1892Y2051D01*
X1892Y2049D01*
X2196Y2049D01*
X2196Y2051D01*
X2198Y2051D01*
X2198Y2055D01*
X2200Y2055D01*
X2200Y2057D01*
X2202Y2057D01*
X2202Y2059D01*
X2206Y2059D01*
X2206Y2075D01*
X856Y2075D01*
G37*
D02*
G36*
X856Y2063D02*
X856Y1997D01*
X854Y1997D01*
X854Y1983D01*
X1798Y1983D01*
X1798Y1985D01*
X1790Y1985D01*
X1790Y1987D01*
X1784Y1987D01*
X1784Y1989D01*
X1780Y1989D01*
X1780Y1991D01*
X1778Y1991D01*
X1778Y1993D01*
X1776Y1993D01*
X1776Y1995D01*
X1774Y1995D01*
X1774Y1997D01*
X1772Y1997D01*
X1772Y1999D01*
X1770Y1999D01*
X1770Y2001D01*
X1768Y2001D01*
X1768Y2005D01*
X1766Y2005D01*
X1766Y2009D01*
X1764Y2009D01*
X1764Y2015D01*
X1762Y2015D01*
X1762Y2033D01*
X1764Y2033D01*
X1764Y2039D01*
X1766Y2039D01*
X1766Y2043D01*
X1768Y2043D01*
X1768Y2047D01*
X1770Y2047D01*
X1770Y2049D01*
X1772Y2049D01*
X1772Y2051D01*
X1774Y2051D01*
X1774Y2053D01*
X1776Y2053D01*
X1776Y2055D01*
X1778Y2055D01*
X1778Y2057D01*
X1782Y2057D01*
X1782Y2059D01*
X1786Y2059D01*
X1786Y2061D01*
X1792Y2061D01*
X1792Y2063D01*
X856Y2063D01*
G37*
D02*
G36*
X2268Y1999D02*
X2268Y1997D01*
X2266Y1997D01*
X2266Y1993D01*
X2264Y1993D01*
X2264Y1991D01*
X2262Y1991D01*
X2262Y1989D01*
X2258Y1989D01*
X2258Y1987D01*
X2256Y1987D01*
X2256Y1985D01*
X2252Y1985D01*
X2252Y1963D01*
X2254Y1963D01*
X2254Y1961D01*
X2258Y1961D01*
X2258Y1959D01*
X2260Y1959D01*
X2260Y1957D01*
X2262Y1957D01*
X2262Y1955D01*
X2264Y1955D01*
X2264Y1953D01*
X2266Y1953D01*
X2266Y1951D01*
X2268Y1951D01*
X2268Y1949D01*
X2270Y1949D01*
X2270Y1945D01*
X2272Y1945D01*
X2272Y1941D01*
X2274Y1941D01*
X2274Y1935D01*
X2276Y1935D01*
X2276Y1911D01*
X2274Y1911D01*
X2274Y1905D01*
X2272Y1905D01*
X2272Y1901D01*
X2270Y1901D01*
X2270Y1899D01*
X2268Y1899D01*
X2268Y1895D01*
X2266Y1895D01*
X2266Y1893D01*
X2264Y1893D01*
X2264Y1891D01*
X2262Y1891D01*
X2262Y1889D01*
X2258Y1889D01*
X2258Y1887D01*
X2256Y1887D01*
X2256Y1885D01*
X2252Y1885D01*
X2252Y1883D01*
X2248Y1883D01*
X2248Y1881D01*
X2242Y1881D01*
X2242Y1879D01*
X2362Y1879D01*
X2362Y1881D01*
X2360Y1881D01*
X2360Y1883D01*
X2358Y1883D01*
X2358Y1887D01*
X2356Y1887D01*
X2356Y1891D01*
X2354Y1891D01*
X2354Y1895D01*
X2352Y1895D01*
X2352Y1899D01*
X2350Y1899D01*
X2350Y1907D01*
X2348Y1907D01*
X2348Y1921D01*
X2346Y1921D01*
X2346Y1927D01*
X2348Y1927D01*
X2348Y1941D01*
X2350Y1941D01*
X2350Y1947D01*
X2352Y1947D01*
X2352Y1953D01*
X2354Y1953D01*
X2354Y1957D01*
X2356Y1957D01*
X2356Y1961D01*
X2358Y1961D01*
X2358Y1965D01*
X2360Y1965D01*
X2360Y1967D01*
X2362Y1967D01*
X2362Y1971D01*
X2364Y1971D01*
X2364Y1973D01*
X2366Y1973D01*
X2366Y1975D01*
X2368Y1975D01*
X2368Y1977D01*
X2370Y1977D01*
X2370Y1979D01*
X2372Y1979D01*
X2372Y1981D01*
X2374Y1981D01*
X2374Y1983D01*
X2378Y1983D01*
X2378Y1985D01*
X2380Y1985D01*
X2380Y1987D01*
X2384Y1987D01*
X2384Y1989D01*
X2386Y1989D01*
X2386Y1991D01*
X2392Y1991D01*
X2392Y1993D01*
X2396Y1993D01*
X2396Y1995D01*
X2402Y1995D01*
X2402Y1997D01*
X2412Y1997D01*
X2412Y1999D01*
X2268Y1999D01*
G37*
D02*
G36*
X1890Y1997D02*
X1890Y1995D01*
X1888Y1995D01*
X1888Y1993D01*
X1886Y1993D01*
X1886Y1991D01*
X1882Y1991D01*
X1882Y1989D01*
X1878Y1989D01*
X1878Y1987D01*
X1874Y1987D01*
X1874Y1985D01*
X1866Y1985D01*
X1866Y1983D01*
X2212Y1983D01*
X2212Y1985D01*
X2208Y1985D01*
X2208Y1987D01*
X2204Y1987D01*
X2204Y1989D01*
X2202Y1989D01*
X2202Y1991D01*
X2200Y1991D01*
X2200Y1993D01*
X2198Y1993D01*
X2198Y1995D01*
X2196Y1995D01*
X2196Y1997D01*
X1890Y1997D01*
G37*
D02*
G36*
X854Y1983D02*
X854Y1981D01*
X2212Y1981D01*
X2212Y1983D01*
X854Y1983D01*
G37*
D02*
G36*
X854Y1983D02*
X854Y1981D01*
X2212Y1981D01*
X2212Y1983D01*
X854Y1983D01*
G37*
D02*
G36*
X854Y1981D02*
X854Y1969D01*
X1740Y1969D01*
X1740Y1967D01*
X1748Y1967D01*
X1748Y1965D01*
X1752Y1965D01*
X1752Y1963D01*
X1872Y1963D01*
X1872Y1961D01*
X1878Y1961D01*
X1878Y1959D01*
X1882Y1959D01*
X1882Y1957D01*
X1886Y1957D01*
X1886Y1955D01*
X1888Y1955D01*
X1888Y1953D01*
X1890Y1953D01*
X1890Y1951D01*
X1892Y1951D01*
X1892Y1949D01*
X1894Y1949D01*
X1894Y1945D01*
X1896Y1945D01*
X1896Y1943D01*
X1898Y1943D01*
X1898Y1937D01*
X1900Y1937D01*
X1900Y1931D01*
X1902Y1931D01*
X1902Y1917D01*
X1900Y1917D01*
X1900Y1909D01*
X1898Y1909D01*
X1898Y1905D01*
X1896Y1905D01*
X1896Y1901D01*
X1894Y1901D01*
X1894Y1899D01*
X1892Y1899D01*
X1892Y1897D01*
X1890Y1897D01*
X1890Y1895D01*
X1888Y1895D01*
X1888Y1893D01*
X1886Y1893D01*
X1886Y1891D01*
X1882Y1891D01*
X1882Y1889D01*
X1878Y1889D01*
X1878Y1887D01*
X1874Y1887D01*
X1874Y1885D01*
X1866Y1885D01*
X1866Y1883D01*
X2210Y1883D01*
X2210Y1885D01*
X2208Y1885D01*
X2208Y1887D01*
X2204Y1887D01*
X2204Y1889D01*
X2202Y1889D01*
X2202Y1891D01*
X2200Y1891D01*
X2200Y1893D01*
X2198Y1893D01*
X2198Y1895D01*
X2196Y1895D01*
X2196Y1897D01*
X2194Y1897D01*
X2194Y1901D01*
X2192Y1901D01*
X2192Y1905D01*
X2190Y1905D01*
X2190Y1911D01*
X2188Y1911D01*
X2188Y1921D01*
X2186Y1921D01*
X2186Y1927D01*
X2188Y1927D01*
X2188Y1937D01*
X2190Y1937D01*
X2190Y1943D01*
X2192Y1943D01*
X2192Y1945D01*
X2194Y1945D01*
X2194Y1949D01*
X2196Y1949D01*
X2196Y1951D01*
X2198Y1951D01*
X2198Y1955D01*
X2200Y1955D01*
X2200Y1957D01*
X2204Y1957D01*
X2204Y1959D01*
X2206Y1959D01*
X2206Y1961D01*
X2208Y1961D01*
X2208Y1963D01*
X2212Y1963D01*
X2212Y1981D01*
X854Y1981D01*
G37*
D02*
G36*
X854Y1969D02*
X854Y1945D01*
X1438Y1945D01*
X1438Y1943D01*
X1442Y1943D01*
X1442Y1941D01*
X1446Y1941D01*
X1446Y1939D01*
X1448Y1939D01*
X1448Y1937D01*
X1450Y1937D01*
X1450Y1935D01*
X1452Y1935D01*
X1452Y1933D01*
X1454Y1933D01*
X1454Y1931D01*
X1456Y1931D01*
X1456Y1929D01*
X1458Y1929D01*
X1458Y1927D01*
X1460Y1927D01*
X1460Y1925D01*
X1462Y1925D01*
X1462Y1923D01*
X1464Y1923D01*
X1464Y1921D01*
X1466Y1921D01*
X1466Y1919D01*
X1468Y1919D01*
X1468Y1917D01*
X1470Y1917D01*
X1470Y1915D01*
X1472Y1915D01*
X1472Y1913D01*
X1474Y1913D01*
X1474Y1911D01*
X1476Y1911D01*
X1476Y1909D01*
X1478Y1909D01*
X1478Y1907D01*
X1480Y1907D01*
X1480Y1905D01*
X1482Y1905D01*
X1482Y1903D01*
X1484Y1903D01*
X1484Y1901D01*
X1486Y1901D01*
X1486Y1899D01*
X1488Y1899D01*
X1488Y1897D01*
X1490Y1897D01*
X1490Y1895D01*
X1492Y1895D01*
X1492Y1893D01*
X1494Y1893D01*
X1494Y1891D01*
X1496Y1891D01*
X1496Y1889D01*
X1498Y1889D01*
X1498Y1887D01*
X1500Y1887D01*
X1500Y1885D01*
X1502Y1885D01*
X1502Y1883D01*
X1504Y1883D01*
X1504Y1881D01*
X1506Y1881D01*
X1506Y1879D01*
X1508Y1879D01*
X1508Y1877D01*
X1510Y1877D01*
X1510Y1875D01*
X1512Y1875D01*
X1512Y1873D01*
X1514Y1873D01*
X1514Y1871D01*
X1516Y1871D01*
X1516Y1869D01*
X1518Y1869D01*
X1518Y1867D01*
X1520Y1867D01*
X1520Y1865D01*
X1522Y1865D01*
X1522Y1863D01*
X1524Y1863D01*
X1524Y1861D01*
X1526Y1861D01*
X1526Y1859D01*
X1528Y1859D01*
X1528Y1857D01*
X1530Y1857D01*
X1530Y1855D01*
X1532Y1855D01*
X1532Y1853D01*
X1534Y1853D01*
X1534Y1851D01*
X1536Y1851D01*
X1536Y1849D01*
X1538Y1849D01*
X1538Y1847D01*
X1540Y1847D01*
X1540Y1845D01*
X1692Y1845D01*
X1692Y1847D01*
X1694Y1847D01*
X1694Y1849D01*
X1696Y1849D01*
X1696Y1851D01*
X1698Y1851D01*
X1698Y1855D01*
X1700Y1855D01*
X1700Y1857D01*
X1702Y1857D01*
X1702Y1859D01*
X1706Y1859D01*
X1706Y1861D01*
X1708Y1861D01*
X1708Y1863D01*
X1712Y1863D01*
X1712Y1885D01*
X1708Y1885D01*
X1708Y1887D01*
X1706Y1887D01*
X1706Y1889D01*
X1702Y1889D01*
X1702Y1891D01*
X1700Y1891D01*
X1700Y1893D01*
X1698Y1893D01*
X1698Y1895D01*
X1696Y1895D01*
X1696Y1899D01*
X1694Y1899D01*
X1694Y1901D01*
X1692Y1901D01*
X1692Y1905D01*
X1690Y1905D01*
X1690Y1911D01*
X1688Y1911D01*
X1688Y1921D01*
X1686Y1921D01*
X1686Y1927D01*
X1688Y1927D01*
X1688Y1937D01*
X1690Y1937D01*
X1690Y1943D01*
X1692Y1943D01*
X1692Y1947D01*
X1694Y1947D01*
X1694Y1949D01*
X1696Y1949D01*
X1696Y1953D01*
X1698Y1953D01*
X1698Y1955D01*
X1700Y1955D01*
X1700Y1957D01*
X1702Y1957D01*
X1702Y1959D01*
X1706Y1959D01*
X1706Y1961D01*
X1708Y1961D01*
X1708Y1963D01*
X1712Y1963D01*
X1712Y1965D01*
X1716Y1965D01*
X1716Y1967D01*
X1724Y1967D01*
X1724Y1969D01*
X854Y1969D01*
G37*
D02*
G36*
X1756Y1963D02*
X1756Y1961D01*
X1758Y1961D01*
X1758Y1959D01*
X1760Y1959D01*
X1760Y1957D01*
X1782Y1957D01*
X1782Y1959D01*
X1786Y1959D01*
X1786Y1961D01*
X1792Y1961D01*
X1792Y1963D01*
X1756Y1963D01*
G37*
D02*
G36*
X854Y1945D02*
X854Y1771D01*
X1080Y1771D01*
X1080Y1677D01*
X1064Y1677D01*
X1064Y1657D01*
X1066Y1657D01*
X1066Y1655D01*
X1068Y1655D01*
X1068Y1653D01*
X1070Y1653D01*
X1070Y1651D01*
X1072Y1651D01*
X1072Y1647D01*
X1074Y1647D01*
X1074Y1643D01*
X1076Y1643D01*
X1076Y1637D01*
X1078Y1637D01*
X1078Y1629D01*
X1080Y1629D01*
X1080Y1619D01*
X1078Y1619D01*
X1078Y1611D01*
X1076Y1611D01*
X1076Y1605D01*
X1074Y1605D01*
X1074Y1601D01*
X1072Y1601D01*
X1072Y1597D01*
X1070Y1597D01*
X1070Y1595D01*
X1068Y1595D01*
X1068Y1593D01*
X1066Y1593D01*
X1066Y1589D01*
X1062Y1589D01*
X1062Y1587D01*
X1060Y1587D01*
X1060Y1585D01*
X1058Y1585D01*
X1058Y1583D01*
X1056Y1583D01*
X1056Y1563D01*
X1060Y1563D01*
X1060Y1561D01*
X1062Y1561D01*
X1062Y1559D01*
X1064Y1559D01*
X1064Y1557D01*
X1066Y1557D01*
X1066Y1555D01*
X1068Y1555D01*
X1068Y1553D01*
X1070Y1553D01*
X1070Y1551D01*
X1072Y1551D01*
X1072Y1547D01*
X1074Y1547D01*
X1074Y1543D01*
X1076Y1543D01*
X1076Y1537D01*
X1078Y1537D01*
X1078Y1529D01*
X1080Y1529D01*
X1080Y1519D01*
X1078Y1519D01*
X1078Y1511D01*
X1076Y1511D01*
X1076Y1505D01*
X1074Y1505D01*
X1074Y1501D01*
X1072Y1501D01*
X1072Y1497D01*
X1070Y1497D01*
X1070Y1495D01*
X1068Y1495D01*
X1068Y1493D01*
X1066Y1493D01*
X1066Y1489D01*
X1062Y1489D01*
X1062Y1487D01*
X1060Y1487D01*
X1060Y1485D01*
X1058Y1485D01*
X1058Y1483D01*
X1056Y1483D01*
X1056Y1463D01*
X1060Y1463D01*
X1060Y1461D01*
X1062Y1461D01*
X1062Y1459D01*
X1064Y1459D01*
X1064Y1457D01*
X1066Y1457D01*
X1066Y1455D01*
X1068Y1455D01*
X1068Y1453D01*
X1070Y1453D01*
X1070Y1451D01*
X1072Y1451D01*
X1072Y1447D01*
X1074Y1447D01*
X1074Y1443D01*
X1076Y1443D01*
X1076Y1437D01*
X1078Y1437D01*
X1078Y1429D01*
X1080Y1429D01*
X1080Y1419D01*
X1078Y1419D01*
X1078Y1411D01*
X1076Y1411D01*
X1076Y1405D01*
X1074Y1405D01*
X1074Y1401D01*
X1072Y1401D01*
X1072Y1397D01*
X1070Y1397D01*
X1070Y1395D01*
X1068Y1395D01*
X1068Y1393D01*
X1066Y1393D01*
X1066Y1389D01*
X1062Y1389D01*
X1062Y1387D01*
X1060Y1387D01*
X1060Y1385D01*
X1058Y1385D01*
X1058Y1383D01*
X1056Y1383D01*
X1056Y1363D01*
X1060Y1363D01*
X1060Y1361D01*
X1062Y1361D01*
X1062Y1359D01*
X1064Y1359D01*
X1064Y1357D01*
X1066Y1357D01*
X1066Y1355D01*
X1068Y1355D01*
X1068Y1353D01*
X1070Y1353D01*
X1070Y1351D01*
X1072Y1351D01*
X1072Y1347D01*
X1074Y1347D01*
X1074Y1343D01*
X1076Y1343D01*
X1076Y1337D01*
X1078Y1337D01*
X1078Y1329D01*
X1080Y1329D01*
X1080Y1319D01*
X1078Y1319D01*
X1078Y1311D01*
X1076Y1311D01*
X1076Y1305D01*
X1074Y1305D01*
X1074Y1301D01*
X1072Y1301D01*
X1072Y1297D01*
X1070Y1297D01*
X1070Y1295D01*
X1068Y1295D01*
X1068Y1293D01*
X1066Y1293D01*
X1066Y1289D01*
X1062Y1289D01*
X1062Y1287D01*
X1060Y1287D01*
X1060Y1285D01*
X1058Y1285D01*
X1058Y1283D01*
X1056Y1283D01*
X1056Y1263D01*
X1060Y1263D01*
X1060Y1261D01*
X1062Y1261D01*
X1062Y1259D01*
X1064Y1259D01*
X1064Y1257D01*
X1066Y1257D01*
X1066Y1255D01*
X1068Y1255D01*
X1068Y1253D01*
X1070Y1253D01*
X1070Y1251D01*
X1072Y1251D01*
X1072Y1247D01*
X1074Y1247D01*
X1074Y1243D01*
X1076Y1243D01*
X1076Y1237D01*
X1078Y1237D01*
X1078Y1229D01*
X1080Y1229D01*
X1080Y1219D01*
X1078Y1219D01*
X1078Y1211D01*
X1076Y1211D01*
X1076Y1205D01*
X1074Y1205D01*
X1074Y1201D01*
X1072Y1201D01*
X1072Y1197D01*
X1070Y1197D01*
X1070Y1195D01*
X1068Y1195D01*
X1068Y1193D01*
X1066Y1193D01*
X1066Y1189D01*
X1062Y1189D01*
X1062Y1187D01*
X1060Y1187D01*
X1060Y1185D01*
X1058Y1185D01*
X1058Y1183D01*
X1056Y1183D01*
X1056Y1163D01*
X1060Y1163D01*
X1060Y1161D01*
X1062Y1161D01*
X1062Y1159D01*
X1064Y1159D01*
X1064Y1157D01*
X1066Y1157D01*
X1066Y1155D01*
X1068Y1155D01*
X1068Y1153D01*
X1070Y1153D01*
X1070Y1151D01*
X1072Y1151D01*
X1072Y1147D01*
X1074Y1147D01*
X1074Y1145D01*
X1110Y1145D01*
X1110Y1931D01*
X1112Y1931D01*
X1112Y1935D01*
X1114Y1935D01*
X1114Y1937D01*
X1116Y1937D01*
X1116Y1939D01*
X1118Y1939D01*
X1118Y1941D01*
X1120Y1941D01*
X1120Y1943D01*
X1126Y1943D01*
X1126Y1945D01*
X854Y1945D01*
G37*
D02*
G36*
X1760Y1891D02*
X1760Y1889D01*
X1758Y1889D01*
X1758Y1887D01*
X1756Y1887D01*
X1756Y1885D01*
X1752Y1885D01*
X1752Y1883D01*
X1798Y1883D01*
X1798Y1885D01*
X1790Y1885D01*
X1790Y1887D01*
X1784Y1887D01*
X1784Y1889D01*
X1780Y1889D01*
X1780Y1891D01*
X1760Y1891D01*
G37*
D02*
G36*
X1752Y1883D02*
X1752Y1881D01*
X2214Y1881D01*
X2214Y1883D01*
X1752Y1883D01*
G37*
D02*
G36*
X1752Y1883D02*
X1752Y1881D01*
X2214Y1881D01*
X2214Y1883D01*
X1752Y1883D01*
G37*
D02*
G36*
X1752Y1881D02*
X1752Y1879D01*
X2222Y1879D01*
X2222Y1881D01*
X1752Y1881D01*
G37*
D02*
G36*
X1752Y1879D02*
X1752Y1877D01*
X2362Y1877D01*
X2362Y1879D01*
X1752Y1879D01*
G37*
D02*
G36*
X1752Y1879D02*
X1752Y1877D01*
X2362Y1877D01*
X2362Y1879D01*
X1752Y1879D01*
G37*
D02*
G36*
X1752Y1877D02*
X1752Y1863D01*
X1872Y1863D01*
X1872Y1861D01*
X1878Y1861D01*
X1878Y1859D01*
X1882Y1859D01*
X1882Y1857D01*
X1886Y1857D01*
X1886Y1855D01*
X1888Y1855D01*
X1888Y1853D01*
X1890Y1853D01*
X1890Y1851D01*
X1892Y1851D01*
X1892Y1849D01*
X2410Y1849D01*
X2410Y1851D01*
X2400Y1851D01*
X2400Y1853D01*
X2396Y1853D01*
X2396Y1855D01*
X2390Y1855D01*
X2390Y1857D01*
X2386Y1857D01*
X2386Y1859D01*
X2382Y1859D01*
X2382Y1861D01*
X2380Y1861D01*
X2380Y1863D01*
X2376Y1863D01*
X2376Y1865D01*
X2374Y1865D01*
X2374Y1867D01*
X2372Y1867D01*
X2372Y1869D01*
X2370Y1869D01*
X2370Y1871D01*
X2368Y1871D01*
X2368Y1873D01*
X2366Y1873D01*
X2366Y1875D01*
X2364Y1875D01*
X2364Y1877D01*
X1752Y1877D01*
G37*
D02*
G36*
X1756Y1863D02*
X1756Y1861D01*
X1758Y1861D01*
X1758Y1859D01*
X1760Y1859D01*
X1760Y1857D01*
X1782Y1857D01*
X1782Y1859D01*
X1786Y1859D01*
X1786Y1861D01*
X1792Y1861D01*
X1792Y1863D01*
X1756Y1863D01*
G37*
D02*
G36*
X1894Y1849D02*
X1894Y1847D01*
X2714Y1847D01*
X2714Y1849D01*
X1894Y1849D01*
G37*
D02*
G36*
X1894Y1849D02*
X1894Y1847D01*
X2714Y1847D01*
X2714Y1849D01*
X1894Y1849D01*
G37*
D02*
G36*
X1894Y1847D02*
X1894Y1845D01*
X2142Y1845D01*
X2142Y1843D01*
X2146Y1843D01*
X2146Y1841D01*
X2148Y1841D01*
X2148Y1839D01*
X2150Y1839D01*
X2150Y1837D01*
X2152Y1837D01*
X2152Y1833D01*
X2154Y1833D01*
X2154Y1827D01*
X2156Y1827D01*
X2156Y1781D01*
X2154Y1781D01*
X2154Y1669D01*
X2340Y1669D01*
X2340Y1667D01*
X2346Y1667D01*
X2346Y1665D01*
X2352Y1665D01*
X2352Y1663D01*
X2356Y1663D01*
X2356Y1661D01*
X2358Y1661D01*
X2358Y1659D01*
X2360Y1659D01*
X2360Y1657D01*
X2364Y1657D01*
X2364Y1653D01*
X2366Y1653D01*
X2366Y1651D01*
X2368Y1651D01*
X2368Y1649D01*
X2370Y1649D01*
X2370Y1645D01*
X2372Y1645D01*
X2372Y1641D01*
X2374Y1641D01*
X2374Y1635D01*
X2376Y1635D01*
X2376Y1611D01*
X2374Y1611D01*
X2374Y1605D01*
X2372Y1605D01*
X2372Y1603D01*
X2370Y1603D01*
X2370Y1599D01*
X2368Y1599D01*
X2368Y1597D01*
X2366Y1597D01*
X2366Y1593D01*
X2364Y1593D01*
X2364Y1591D01*
X2362Y1591D01*
X2362Y1589D01*
X2358Y1589D01*
X2358Y1587D01*
X2356Y1587D01*
X2356Y1585D01*
X2352Y1585D01*
X2352Y1583D01*
X2348Y1583D01*
X2348Y1581D01*
X2342Y1581D01*
X2342Y1579D01*
X2714Y1579D01*
X2714Y1847D01*
X1894Y1847D01*
G37*
D02*
G36*
X854Y1771D02*
X854Y1565D01*
X856Y1565D01*
X856Y1563D01*
X860Y1563D01*
X860Y1561D01*
X862Y1561D01*
X862Y1559D01*
X864Y1559D01*
X864Y1557D01*
X866Y1557D01*
X866Y1555D01*
X868Y1555D01*
X868Y1553D01*
X870Y1553D01*
X870Y1551D01*
X872Y1551D01*
X872Y1547D01*
X874Y1547D01*
X874Y1543D01*
X876Y1543D01*
X876Y1537D01*
X878Y1537D01*
X878Y1529D01*
X880Y1529D01*
X880Y1519D01*
X878Y1519D01*
X878Y1511D01*
X876Y1511D01*
X876Y1505D01*
X874Y1505D01*
X874Y1501D01*
X872Y1501D01*
X872Y1497D01*
X870Y1497D01*
X870Y1495D01*
X868Y1495D01*
X868Y1493D01*
X866Y1493D01*
X866Y1489D01*
X862Y1489D01*
X862Y1487D01*
X860Y1487D01*
X860Y1485D01*
X858Y1485D01*
X858Y1483D01*
X854Y1483D01*
X854Y1481D01*
X850Y1481D01*
X850Y1479D01*
X844Y1479D01*
X844Y1477D01*
X1006Y1477D01*
X1006Y1485D01*
X1004Y1485D01*
X1004Y1487D01*
X1000Y1487D01*
X1000Y1489D01*
X998Y1489D01*
X998Y1491D01*
X996Y1491D01*
X996Y1495D01*
X994Y1495D01*
X994Y1497D01*
X992Y1497D01*
X992Y1501D01*
X990Y1501D01*
X990Y1503D01*
X988Y1503D01*
X988Y1509D01*
X986Y1509D01*
X986Y1517D01*
X984Y1517D01*
X984Y1531D01*
X986Y1531D01*
X986Y1539D01*
X988Y1539D01*
X988Y1543D01*
X990Y1543D01*
X990Y1547D01*
X992Y1547D01*
X992Y1551D01*
X994Y1551D01*
X994Y1553D01*
X996Y1553D01*
X996Y1555D01*
X998Y1555D01*
X998Y1557D01*
X1000Y1557D01*
X1000Y1559D01*
X1002Y1559D01*
X1002Y1561D01*
X1004Y1561D01*
X1004Y1563D01*
X1006Y1563D01*
X1006Y1585D01*
X1004Y1585D01*
X1004Y1587D01*
X1000Y1587D01*
X1000Y1589D01*
X998Y1589D01*
X998Y1591D01*
X996Y1591D01*
X996Y1595D01*
X994Y1595D01*
X994Y1597D01*
X992Y1597D01*
X992Y1601D01*
X990Y1601D01*
X990Y1603D01*
X988Y1603D01*
X988Y1609D01*
X986Y1609D01*
X986Y1617D01*
X984Y1617D01*
X984Y1631D01*
X986Y1631D01*
X986Y1639D01*
X988Y1639D01*
X988Y1643D01*
X990Y1643D01*
X990Y1647D01*
X992Y1647D01*
X992Y1651D01*
X994Y1651D01*
X994Y1653D01*
X996Y1653D01*
X996Y1655D01*
X998Y1655D01*
X998Y1657D01*
X1000Y1657D01*
X1000Y1677D01*
X984Y1677D01*
X984Y1771D01*
X854Y1771D01*
G37*
D02*
G36*
X40Y1677D02*
X40Y1675D01*
X310Y1675D01*
X310Y1677D01*
X40Y1677D01*
G37*
D02*
G36*
X40Y1677D02*
X40Y1675D01*
X310Y1675D01*
X310Y1677D01*
X40Y1677D01*
G37*
D02*
G36*
X40Y1675D02*
X40Y1577D01*
X320Y1577D01*
X320Y1579D01*
X314Y1579D01*
X314Y1581D01*
X310Y1581D01*
X310Y1583D01*
X306Y1583D01*
X306Y1585D01*
X304Y1585D01*
X304Y1587D01*
X300Y1587D01*
X300Y1589D01*
X298Y1589D01*
X298Y1591D01*
X296Y1591D01*
X296Y1595D01*
X294Y1595D01*
X294Y1597D01*
X292Y1597D01*
X292Y1601D01*
X290Y1601D01*
X290Y1603D01*
X288Y1603D01*
X288Y1609D01*
X286Y1609D01*
X286Y1617D01*
X284Y1617D01*
X284Y1631D01*
X286Y1631D01*
X286Y1639D01*
X288Y1639D01*
X288Y1643D01*
X290Y1643D01*
X290Y1647D01*
X292Y1647D01*
X292Y1651D01*
X294Y1651D01*
X294Y1653D01*
X296Y1653D01*
X296Y1655D01*
X298Y1655D01*
X298Y1657D01*
X300Y1657D01*
X300Y1659D01*
X302Y1659D01*
X302Y1661D01*
X304Y1661D01*
X304Y1663D01*
X306Y1663D01*
X306Y1665D01*
X310Y1665D01*
X310Y1675D01*
X40Y1675D01*
G37*
D02*
G36*
X2154Y1669D02*
X2154Y1663D01*
X2156Y1663D01*
X2156Y1661D01*
X2158Y1661D01*
X2158Y1659D01*
X2160Y1659D01*
X2160Y1657D01*
X2164Y1657D01*
X2164Y1653D01*
X2166Y1653D01*
X2166Y1651D01*
X2168Y1651D01*
X2168Y1649D01*
X2170Y1649D01*
X2170Y1645D01*
X2172Y1645D01*
X2172Y1641D01*
X2174Y1641D01*
X2174Y1635D01*
X2176Y1635D01*
X2176Y1611D01*
X2174Y1611D01*
X2174Y1605D01*
X2172Y1605D01*
X2172Y1603D01*
X2170Y1603D01*
X2170Y1599D01*
X2168Y1599D01*
X2168Y1597D01*
X2166Y1597D01*
X2166Y1593D01*
X2164Y1593D01*
X2164Y1591D01*
X2162Y1591D01*
X2162Y1589D01*
X2158Y1589D01*
X2158Y1587D01*
X2156Y1587D01*
X2156Y1585D01*
X2154Y1585D01*
X2154Y1579D01*
X2322Y1579D01*
X2322Y1581D01*
X2316Y1581D01*
X2316Y1583D01*
X2312Y1583D01*
X2312Y1585D01*
X2308Y1585D01*
X2308Y1587D01*
X2304Y1587D01*
X2304Y1589D01*
X2302Y1589D01*
X2302Y1591D01*
X2300Y1591D01*
X2300Y1593D01*
X2298Y1593D01*
X2298Y1595D01*
X2296Y1595D01*
X2296Y1599D01*
X2294Y1599D01*
X2294Y1601D01*
X2292Y1601D01*
X2292Y1605D01*
X2290Y1605D01*
X2290Y1611D01*
X2288Y1611D01*
X2288Y1621D01*
X2286Y1621D01*
X2286Y1627D01*
X2288Y1627D01*
X2288Y1637D01*
X2290Y1637D01*
X2290Y1643D01*
X2292Y1643D01*
X2292Y1647D01*
X2294Y1647D01*
X2294Y1649D01*
X2296Y1649D01*
X2296Y1651D01*
X2298Y1651D01*
X2298Y1655D01*
X2300Y1655D01*
X2300Y1657D01*
X2302Y1657D01*
X2302Y1659D01*
X2306Y1659D01*
X2306Y1661D01*
X2308Y1661D01*
X2308Y1663D01*
X2312Y1663D01*
X2312Y1665D01*
X2316Y1665D01*
X2316Y1667D01*
X2324Y1667D01*
X2324Y1669D01*
X2154Y1669D01*
G37*
D02*
G36*
X372Y1601D02*
X372Y1597D01*
X370Y1597D01*
X370Y1595D01*
X368Y1595D01*
X368Y1593D01*
X366Y1593D01*
X366Y1589D01*
X362Y1589D01*
X362Y1587D01*
X360Y1587D01*
X360Y1585D01*
X358Y1585D01*
X358Y1583D01*
X354Y1583D01*
X354Y1581D01*
X350Y1581D01*
X350Y1579D01*
X344Y1579D01*
X344Y1577D01*
X420Y1577D01*
X420Y1579D01*
X414Y1579D01*
X414Y1581D01*
X410Y1581D01*
X410Y1583D01*
X406Y1583D01*
X406Y1585D01*
X404Y1585D01*
X404Y1587D01*
X400Y1587D01*
X400Y1589D01*
X398Y1589D01*
X398Y1591D01*
X396Y1591D01*
X396Y1595D01*
X394Y1595D01*
X394Y1597D01*
X392Y1597D01*
X392Y1601D01*
X372Y1601D01*
G37*
D02*
G36*
X2154Y1579D02*
X2154Y1577D01*
X2714Y1577D01*
X2714Y1579D01*
X2154Y1579D01*
G37*
D02*
G36*
X2154Y1579D02*
X2154Y1577D01*
X2714Y1577D01*
X2714Y1579D01*
X2154Y1579D01*
G37*
D02*
G36*
X40Y1577D02*
X40Y1575D01*
X510Y1575D01*
X510Y1577D01*
X40Y1577D01*
G37*
D02*
G36*
X40Y1577D02*
X40Y1575D01*
X510Y1575D01*
X510Y1577D01*
X40Y1577D01*
G37*
D02*
G36*
X40Y1577D02*
X40Y1575D01*
X510Y1575D01*
X510Y1577D01*
X40Y1577D01*
G37*
D02*
G36*
X2154Y1577D02*
X2154Y1473D01*
X2380Y1473D01*
X2380Y1375D01*
X2368Y1375D01*
X2368Y1355D01*
X2370Y1355D01*
X2370Y1353D01*
X2372Y1353D01*
X2372Y1351D01*
X2374Y1351D01*
X2374Y1347D01*
X2376Y1347D01*
X2376Y1343D01*
X2378Y1343D01*
X2378Y1337D01*
X2380Y1337D01*
X2380Y1311D01*
X2378Y1311D01*
X2378Y1305D01*
X2376Y1305D01*
X2376Y1301D01*
X2374Y1301D01*
X2374Y1297D01*
X2372Y1297D01*
X2372Y1295D01*
X2370Y1295D01*
X2370Y1293D01*
X2368Y1293D01*
X2368Y1289D01*
X2366Y1289D01*
X2366Y1287D01*
X2362Y1287D01*
X2362Y1285D01*
X2360Y1285D01*
X2360Y1263D01*
X2362Y1263D01*
X2362Y1261D01*
X2364Y1261D01*
X2364Y1259D01*
X2366Y1259D01*
X2366Y1257D01*
X2368Y1257D01*
X2368Y1255D01*
X2370Y1255D01*
X2370Y1253D01*
X2372Y1253D01*
X2372Y1251D01*
X2374Y1251D01*
X2374Y1247D01*
X2376Y1247D01*
X2376Y1243D01*
X2378Y1243D01*
X2378Y1237D01*
X2380Y1237D01*
X2380Y1211D01*
X2378Y1211D01*
X2378Y1205D01*
X2376Y1205D01*
X2376Y1201D01*
X2374Y1201D01*
X2374Y1197D01*
X2372Y1197D01*
X2372Y1195D01*
X2370Y1195D01*
X2370Y1193D01*
X2368Y1193D01*
X2368Y1189D01*
X2366Y1189D01*
X2366Y1187D01*
X2362Y1187D01*
X2362Y1185D01*
X2360Y1185D01*
X2360Y1183D01*
X2356Y1183D01*
X2356Y1181D01*
X2354Y1181D01*
X2354Y1179D01*
X2348Y1179D01*
X2348Y1177D01*
X2342Y1177D01*
X2342Y1175D01*
X2714Y1175D01*
X2714Y1577D01*
X2154Y1577D01*
G37*
D02*
G36*
X40Y1575D02*
X40Y1477D01*
X520Y1477D01*
X520Y1479D01*
X514Y1479D01*
X514Y1481D01*
X510Y1481D01*
X510Y1483D01*
X506Y1483D01*
X506Y1485D01*
X504Y1485D01*
X504Y1487D01*
X500Y1487D01*
X500Y1489D01*
X498Y1489D01*
X498Y1491D01*
X496Y1491D01*
X496Y1495D01*
X494Y1495D01*
X494Y1497D01*
X492Y1497D01*
X492Y1501D01*
X490Y1501D01*
X490Y1503D01*
X488Y1503D01*
X488Y1509D01*
X486Y1509D01*
X486Y1517D01*
X484Y1517D01*
X484Y1531D01*
X486Y1531D01*
X486Y1539D01*
X488Y1539D01*
X488Y1543D01*
X490Y1543D01*
X490Y1547D01*
X492Y1547D01*
X492Y1551D01*
X494Y1551D01*
X494Y1553D01*
X496Y1553D01*
X496Y1555D01*
X498Y1555D01*
X498Y1557D01*
X500Y1557D01*
X500Y1559D01*
X502Y1559D01*
X502Y1561D01*
X504Y1561D01*
X504Y1563D01*
X506Y1563D01*
X506Y1565D01*
X510Y1565D01*
X510Y1575D01*
X40Y1575D01*
G37*
D02*
G36*
X572Y1501D02*
X572Y1497D01*
X570Y1497D01*
X570Y1495D01*
X568Y1495D01*
X568Y1493D01*
X566Y1493D01*
X566Y1489D01*
X562Y1489D01*
X562Y1487D01*
X560Y1487D01*
X560Y1485D01*
X558Y1485D01*
X558Y1483D01*
X554Y1483D01*
X554Y1481D01*
X550Y1481D01*
X550Y1479D01*
X544Y1479D01*
X544Y1477D01*
X620Y1477D01*
X620Y1479D01*
X614Y1479D01*
X614Y1481D01*
X610Y1481D01*
X610Y1483D01*
X606Y1483D01*
X606Y1485D01*
X604Y1485D01*
X604Y1487D01*
X600Y1487D01*
X600Y1489D01*
X598Y1489D01*
X598Y1491D01*
X596Y1491D01*
X596Y1495D01*
X594Y1495D01*
X594Y1497D01*
X592Y1497D01*
X592Y1501D01*
X572Y1501D01*
G37*
D02*
G36*
X672Y1501D02*
X672Y1497D01*
X670Y1497D01*
X670Y1495D01*
X668Y1495D01*
X668Y1493D01*
X666Y1493D01*
X666Y1489D01*
X662Y1489D01*
X662Y1487D01*
X660Y1487D01*
X660Y1485D01*
X658Y1485D01*
X658Y1483D01*
X654Y1483D01*
X654Y1481D01*
X650Y1481D01*
X650Y1479D01*
X644Y1479D01*
X644Y1477D01*
X720Y1477D01*
X720Y1479D01*
X714Y1479D01*
X714Y1481D01*
X710Y1481D01*
X710Y1483D01*
X706Y1483D01*
X706Y1485D01*
X704Y1485D01*
X704Y1487D01*
X700Y1487D01*
X700Y1489D01*
X698Y1489D01*
X698Y1491D01*
X696Y1491D01*
X696Y1495D01*
X694Y1495D01*
X694Y1497D01*
X692Y1497D01*
X692Y1501D01*
X672Y1501D01*
G37*
D02*
G36*
X772Y1501D02*
X772Y1497D01*
X770Y1497D01*
X770Y1495D01*
X768Y1495D01*
X768Y1493D01*
X766Y1493D01*
X766Y1489D01*
X762Y1489D01*
X762Y1487D01*
X760Y1487D01*
X760Y1485D01*
X758Y1485D01*
X758Y1483D01*
X754Y1483D01*
X754Y1481D01*
X750Y1481D01*
X750Y1479D01*
X744Y1479D01*
X744Y1477D01*
X820Y1477D01*
X820Y1479D01*
X814Y1479D01*
X814Y1481D01*
X810Y1481D01*
X810Y1483D01*
X806Y1483D01*
X806Y1485D01*
X804Y1485D01*
X804Y1487D01*
X800Y1487D01*
X800Y1489D01*
X798Y1489D01*
X798Y1491D01*
X796Y1491D01*
X796Y1495D01*
X794Y1495D01*
X794Y1497D01*
X792Y1497D01*
X792Y1501D01*
X772Y1501D01*
G37*
D02*
G36*
X40Y1477D02*
X40Y1475D01*
X1006Y1475D01*
X1006Y1477D01*
X40Y1477D01*
G37*
D02*
G36*
X40Y1477D02*
X40Y1475D01*
X1006Y1475D01*
X1006Y1477D01*
X40Y1477D01*
G37*
D02*
G36*
X40Y1477D02*
X40Y1475D01*
X1006Y1475D01*
X1006Y1477D01*
X40Y1477D01*
G37*
D02*
G36*
X40Y1477D02*
X40Y1475D01*
X1006Y1475D01*
X1006Y1477D01*
X40Y1477D01*
G37*
D02*
G36*
X40Y1477D02*
X40Y1475D01*
X1006Y1475D01*
X1006Y1477D01*
X40Y1477D01*
G37*
D02*
G36*
X40Y1475D02*
X40Y1471D01*
X242Y1471D01*
X242Y1469D01*
X248Y1469D01*
X248Y1467D01*
X254Y1467D01*
X254Y1465D01*
X256Y1465D01*
X256Y1463D01*
X260Y1463D01*
X260Y1461D01*
X262Y1461D01*
X262Y1459D01*
X264Y1459D01*
X264Y1457D01*
X266Y1457D01*
X266Y1455D01*
X268Y1455D01*
X268Y1453D01*
X270Y1453D01*
X270Y1451D01*
X272Y1451D01*
X272Y1447D01*
X274Y1447D01*
X274Y1445D01*
X990Y1445D01*
X990Y1447D01*
X992Y1447D01*
X992Y1451D01*
X994Y1451D01*
X994Y1453D01*
X996Y1453D01*
X996Y1455D01*
X998Y1455D01*
X998Y1457D01*
X1000Y1457D01*
X1000Y1459D01*
X1002Y1459D01*
X1002Y1461D01*
X1004Y1461D01*
X1004Y1463D01*
X1006Y1463D01*
X1006Y1475D01*
X40Y1475D01*
G37*
D02*
G36*
X2154Y1473D02*
X2154Y1383D01*
X2156Y1383D01*
X2156Y1347D01*
X2166Y1347D01*
X2166Y1345D01*
X2288Y1345D01*
X2288Y1347D01*
X2290Y1347D01*
X2290Y1351D01*
X2292Y1351D01*
X2292Y1353D01*
X2294Y1353D01*
X2294Y1355D01*
X2296Y1355D01*
X2296Y1375D01*
X2282Y1375D01*
X2282Y1473D01*
X2154Y1473D01*
G37*
D02*
G36*
X40Y1471D02*
X40Y1377D01*
X220Y1377D01*
X220Y1379D01*
X214Y1379D01*
X214Y1381D01*
X210Y1381D01*
X210Y1383D01*
X206Y1383D01*
X206Y1385D01*
X204Y1385D01*
X204Y1387D01*
X200Y1387D01*
X200Y1389D01*
X198Y1389D01*
X198Y1391D01*
X196Y1391D01*
X196Y1395D01*
X194Y1395D01*
X194Y1397D01*
X192Y1397D01*
X192Y1401D01*
X190Y1401D01*
X190Y1403D01*
X188Y1403D01*
X188Y1409D01*
X186Y1409D01*
X186Y1417D01*
X184Y1417D01*
X184Y1431D01*
X186Y1431D01*
X186Y1439D01*
X188Y1439D01*
X188Y1443D01*
X190Y1443D01*
X190Y1447D01*
X192Y1447D01*
X192Y1451D01*
X194Y1451D01*
X194Y1453D01*
X196Y1453D01*
X196Y1455D01*
X198Y1455D01*
X198Y1457D01*
X200Y1457D01*
X200Y1459D01*
X202Y1459D01*
X202Y1461D01*
X204Y1461D01*
X204Y1463D01*
X206Y1463D01*
X206Y1465D01*
X210Y1465D01*
X210Y1467D01*
X214Y1467D01*
X214Y1469D01*
X222Y1469D01*
X222Y1471D01*
X40Y1471D01*
G37*
D02*
G36*
X272Y1401D02*
X272Y1397D01*
X270Y1397D01*
X270Y1395D01*
X268Y1395D01*
X268Y1393D01*
X266Y1393D01*
X266Y1389D01*
X262Y1389D01*
X262Y1387D01*
X260Y1387D01*
X260Y1385D01*
X258Y1385D01*
X258Y1383D01*
X254Y1383D01*
X254Y1381D01*
X250Y1381D01*
X250Y1379D01*
X244Y1379D01*
X244Y1377D01*
X1006Y1377D01*
X1006Y1385D01*
X1004Y1385D01*
X1004Y1387D01*
X1000Y1387D01*
X1000Y1389D01*
X998Y1389D01*
X998Y1391D01*
X996Y1391D01*
X996Y1395D01*
X994Y1395D01*
X994Y1397D01*
X992Y1397D01*
X992Y1401D01*
X272Y1401D01*
G37*
D02*
G36*
X40Y1377D02*
X40Y1375D01*
X1006Y1375D01*
X1006Y1377D01*
X40Y1377D01*
G37*
D02*
G36*
X40Y1377D02*
X40Y1375D01*
X1006Y1375D01*
X1006Y1377D01*
X40Y1377D01*
G37*
D02*
G36*
X40Y1375D02*
X40Y1371D01*
X442Y1371D01*
X442Y1369D01*
X448Y1369D01*
X448Y1367D01*
X454Y1367D01*
X454Y1365D01*
X456Y1365D01*
X456Y1363D01*
X460Y1363D01*
X460Y1361D01*
X462Y1361D01*
X462Y1359D01*
X464Y1359D01*
X464Y1357D01*
X466Y1357D01*
X466Y1355D01*
X468Y1355D01*
X468Y1353D01*
X470Y1353D01*
X470Y1351D01*
X472Y1351D01*
X472Y1347D01*
X474Y1347D01*
X474Y1345D01*
X990Y1345D01*
X990Y1347D01*
X992Y1347D01*
X992Y1351D01*
X994Y1351D01*
X994Y1353D01*
X996Y1353D01*
X996Y1355D01*
X998Y1355D01*
X998Y1357D01*
X1000Y1357D01*
X1000Y1359D01*
X1002Y1359D01*
X1002Y1361D01*
X1004Y1361D01*
X1004Y1363D01*
X1006Y1363D01*
X1006Y1375D01*
X40Y1375D01*
G37*
D02*
G36*
X40Y1371D02*
X40Y303D01*
X226Y303D01*
X226Y305D01*
X220Y305D01*
X220Y307D01*
X218Y307D01*
X218Y309D01*
X216Y309D01*
X216Y311D01*
X214Y311D01*
X214Y313D01*
X212Y313D01*
X212Y317D01*
X210Y317D01*
X210Y1233D01*
X212Y1233D01*
X212Y1237D01*
X214Y1237D01*
X214Y1239D01*
X216Y1239D01*
X216Y1241D01*
X218Y1241D01*
X218Y1243D01*
X220Y1243D01*
X220Y1245D01*
X222Y1245D01*
X222Y1247D01*
X224Y1247D01*
X224Y1249D01*
X226Y1249D01*
X226Y1251D01*
X228Y1251D01*
X228Y1253D01*
X230Y1253D01*
X230Y1255D01*
X232Y1255D01*
X232Y1257D01*
X234Y1257D01*
X234Y1259D01*
X236Y1259D01*
X236Y1261D01*
X238Y1261D01*
X238Y1263D01*
X240Y1263D01*
X240Y1265D01*
X242Y1265D01*
X242Y1267D01*
X244Y1267D01*
X244Y1269D01*
X246Y1269D01*
X246Y1271D01*
X248Y1271D01*
X248Y1273D01*
X250Y1273D01*
X250Y1275D01*
X252Y1275D01*
X252Y1277D01*
X254Y1277D01*
X254Y1279D01*
X256Y1279D01*
X256Y1281D01*
X258Y1281D01*
X258Y1283D01*
X260Y1283D01*
X260Y1285D01*
X262Y1285D01*
X262Y1287D01*
X264Y1287D01*
X264Y1289D01*
X266Y1289D01*
X266Y1291D01*
X268Y1291D01*
X268Y1293D01*
X270Y1293D01*
X270Y1295D01*
X272Y1295D01*
X272Y1297D01*
X274Y1297D01*
X274Y1299D01*
X276Y1299D01*
X276Y1301D01*
X278Y1301D01*
X278Y1303D01*
X280Y1303D01*
X280Y1305D01*
X282Y1305D01*
X282Y1307D01*
X284Y1307D01*
X284Y1331D01*
X286Y1331D01*
X286Y1339D01*
X288Y1339D01*
X288Y1343D01*
X290Y1343D01*
X290Y1347D01*
X292Y1347D01*
X292Y1351D01*
X294Y1351D01*
X294Y1353D01*
X296Y1353D01*
X296Y1355D01*
X298Y1355D01*
X298Y1357D01*
X300Y1357D01*
X300Y1359D01*
X302Y1359D01*
X302Y1361D01*
X304Y1361D01*
X304Y1363D01*
X306Y1363D01*
X306Y1365D01*
X310Y1365D01*
X310Y1367D01*
X314Y1367D01*
X314Y1369D01*
X322Y1369D01*
X322Y1371D01*
X40Y1371D01*
G37*
D02*
G36*
X342Y1371D02*
X342Y1369D01*
X348Y1369D01*
X348Y1367D01*
X354Y1367D01*
X354Y1365D01*
X356Y1365D01*
X356Y1363D01*
X360Y1363D01*
X360Y1361D01*
X362Y1361D01*
X362Y1359D01*
X364Y1359D01*
X364Y1357D01*
X366Y1357D01*
X366Y1355D01*
X368Y1355D01*
X368Y1353D01*
X370Y1353D01*
X370Y1351D01*
X372Y1351D01*
X372Y1347D01*
X392Y1347D01*
X392Y1351D01*
X394Y1351D01*
X394Y1353D01*
X396Y1353D01*
X396Y1355D01*
X398Y1355D01*
X398Y1357D01*
X400Y1357D01*
X400Y1359D01*
X402Y1359D01*
X402Y1361D01*
X404Y1361D01*
X404Y1363D01*
X406Y1363D01*
X406Y1365D01*
X410Y1365D01*
X410Y1367D01*
X414Y1367D01*
X414Y1369D01*
X422Y1369D01*
X422Y1371D01*
X342Y1371D01*
G37*
D02*
G36*
X1372Y1201D02*
X1372Y1197D01*
X1370Y1197D01*
X1370Y1195D01*
X1368Y1195D01*
X1368Y1193D01*
X1366Y1193D01*
X1366Y1189D01*
X1362Y1189D01*
X1362Y1187D01*
X1360Y1187D01*
X1360Y1185D01*
X1358Y1185D01*
X1358Y1183D01*
X1356Y1183D01*
X1356Y1177D01*
X2120Y1177D01*
X2120Y1179D01*
X2114Y1179D01*
X2114Y1181D01*
X2110Y1181D01*
X2110Y1183D01*
X2106Y1183D01*
X2106Y1185D01*
X2104Y1185D01*
X2104Y1187D01*
X2100Y1187D01*
X2100Y1189D01*
X2098Y1189D01*
X2098Y1191D01*
X2096Y1191D01*
X2096Y1195D01*
X2094Y1195D01*
X2094Y1197D01*
X2092Y1197D01*
X2092Y1201D01*
X1372Y1201D01*
G37*
D02*
G36*
X2172Y1201D02*
X2172Y1197D01*
X2170Y1197D01*
X2170Y1195D01*
X2168Y1195D01*
X2168Y1193D01*
X2166Y1193D01*
X2166Y1189D01*
X2162Y1189D01*
X2162Y1187D01*
X2160Y1187D01*
X2160Y1185D01*
X2158Y1185D01*
X2158Y1183D01*
X2154Y1183D01*
X2154Y1181D01*
X2150Y1181D01*
X2150Y1179D01*
X2144Y1179D01*
X2144Y1177D01*
X2314Y1177D01*
X2314Y1179D01*
X2310Y1179D01*
X2310Y1181D01*
X2306Y1181D01*
X2306Y1183D01*
X2304Y1183D01*
X2304Y1185D01*
X2302Y1185D01*
X2302Y1187D01*
X2298Y1187D01*
X2298Y1189D01*
X2296Y1189D01*
X2296Y1191D01*
X2294Y1191D01*
X2294Y1195D01*
X2292Y1195D01*
X2292Y1197D01*
X2290Y1197D01*
X2290Y1201D01*
X2172Y1201D01*
G37*
D02*
G36*
X1356Y1177D02*
X1356Y1175D01*
X2322Y1175D01*
X2322Y1177D01*
X1356Y1177D01*
G37*
D02*
G36*
X1356Y1177D02*
X1356Y1175D01*
X2322Y1175D01*
X2322Y1177D01*
X1356Y1177D01*
G37*
D02*
G36*
X1356Y1175D02*
X1356Y1173D01*
X2714Y1173D01*
X2714Y1175D01*
X1356Y1175D01*
G37*
D02*
G36*
X1356Y1175D02*
X1356Y1173D01*
X2714Y1173D01*
X2714Y1175D01*
X1356Y1175D01*
G37*
D02*
G36*
X1356Y1173D02*
X1356Y1163D01*
X1360Y1163D01*
X1360Y1161D01*
X1362Y1161D01*
X1362Y1159D01*
X1364Y1159D01*
X1364Y1157D01*
X1366Y1157D01*
X1366Y1155D01*
X1368Y1155D01*
X1368Y1153D01*
X1640Y1153D01*
X1640Y1151D01*
X1646Y1151D01*
X1646Y1149D01*
X1648Y1149D01*
X1648Y1147D01*
X1652Y1147D01*
X1652Y1145D01*
X1654Y1145D01*
X1654Y1143D01*
X1656Y1143D01*
X1656Y1139D01*
X1658Y1139D01*
X1658Y1135D01*
X1660Y1135D01*
X1660Y1129D01*
X1662Y1129D01*
X1662Y1119D01*
X1660Y1119D01*
X1660Y1113D01*
X1658Y1113D01*
X1658Y1109D01*
X1656Y1109D01*
X1656Y1105D01*
X1654Y1105D01*
X1654Y1103D01*
X1652Y1103D01*
X1652Y1101D01*
X1650Y1101D01*
X1650Y1099D01*
X1646Y1099D01*
X1646Y1097D01*
X1642Y1097D01*
X1642Y1095D01*
X2714Y1095D01*
X2714Y1173D01*
X1356Y1173D01*
G37*
D02*
G36*
X1370Y1153D02*
X1370Y1151D01*
X1372Y1151D01*
X1372Y1147D01*
X1374Y1147D01*
X1374Y1143D01*
X1376Y1143D01*
X1376Y1137D01*
X1378Y1137D01*
X1378Y1129D01*
X1380Y1129D01*
X1380Y1119D01*
X1378Y1119D01*
X1378Y1111D01*
X1376Y1111D01*
X1376Y1105D01*
X1374Y1105D01*
X1374Y1101D01*
X1372Y1101D01*
X1372Y1097D01*
X1370Y1097D01*
X1370Y1095D01*
X1622Y1095D01*
X1622Y1097D01*
X1618Y1097D01*
X1618Y1099D01*
X1614Y1099D01*
X1614Y1101D01*
X1612Y1101D01*
X1612Y1103D01*
X1610Y1103D01*
X1610Y1105D01*
X1608Y1105D01*
X1608Y1107D01*
X1606Y1107D01*
X1606Y1111D01*
X1604Y1111D01*
X1604Y1117D01*
X1602Y1117D01*
X1602Y1131D01*
X1604Y1131D01*
X1604Y1137D01*
X1606Y1137D01*
X1606Y1139D01*
X1608Y1139D01*
X1608Y1143D01*
X1610Y1143D01*
X1610Y1145D01*
X1612Y1145D01*
X1612Y1147D01*
X1614Y1147D01*
X1614Y1149D01*
X1618Y1149D01*
X1618Y1151D01*
X1624Y1151D01*
X1624Y1153D01*
X1370Y1153D01*
G37*
D02*
G36*
X1072Y1101D02*
X1072Y1097D01*
X1070Y1097D01*
X1070Y1095D01*
X1068Y1095D01*
X1068Y1093D01*
X1066Y1093D01*
X1066Y1089D01*
X1062Y1089D01*
X1062Y1087D01*
X1060Y1087D01*
X1060Y1085D01*
X1058Y1085D01*
X1058Y1083D01*
X1056Y1083D01*
X1056Y1063D01*
X1060Y1063D01*
X1060Y1061D01*
X1062Y1061D01*
X1062Y1059D01*
X1064Y1059D01*
X1064Y1057D01*
X1066Y1057D01*
X1066Y1055D01*
X1068Y1055D01*
X1068Y1053D01*
X1070Y1053D01*
X1070Y1051D01*
X1072Y1051D01*
X1072Y1047D01*
X1074Y1047D01*
X1074Y1043D01*
X1076Y1043D01*
X1076Y1037D01*
X1078Y1037D01*
X1078Y1029D01*
X1080Y1029D01*
X1080Y1019D01*
X1078Y1019D01*
X1078Y1011D01*
X1076Y1011D01*
X1076Y1005D01*
X1074Y1005D01*
X1074Y1001D01*
X1072Y1001D01*
X1072Y997D01*
X1070Y997D01*
X1070Y995D01*
X1068Y995D01*
X1068Y993D01*
X1066Y993D01*
X1066Y989D01*
X1062Y989D01*
X1062Y987D01*
X1060Y987D01*
X1060Y985D01*
X1058Y985D01*
X1058Y983D01*
X1056Y983D01*
X1056Y963D01*
X1060Y963D01*
X1060Y961D01*
X1062Y961D01*
X1062Y959D01*
X1064Y959D01*
X1064Y957D01*
X1066Y957D01*
X1066Y955D01*
X1068Y955D01*
X1068Y953D01*
X1070Y953D01*
X1070Y951D01*
X1072Y951D01*
X1072Y947D01*
X1074Y947D01*
X1074Y943D01*
X1076Y943D01*
X1076Y937D01*
X1078Y937D01*
X1078Y929D01*
X1080Y929D01*
X1080Y919D01*
X1078Y919D01*
X1078Y911D01*
X1076Y911D01*
X1076Y905D01*
X1074Y905D01*
X1074Y901D01*
X1072Y901D01*
X1072Y897D01*
X1070Y897D01*
X1070Y895D01*
X1068Y895D01*
X1068Y893D01*
X1066Y893D01*
X1066Y889D01*
X1062Y889D01*
X1062Y887D01*
X1060Y887D01*
X1060Y885D01*
X1058Y885D01*
X1058Y883D01*
X1056Y883D01*
X1056Y863D01*
X1060Y863D01*
X1060Y861D01*
X1062Y861D01*
X1062Y859D01*
X1064Y859D01*
X1064Y857D01*
X1066Y857D01*
X1066Y855D01*
X1068Y855D01*
X1068Y853D01*
X1070Y853D01*
X1070Y851D01*
X1072Y851D01*
X1072Y847D01*
X1074Y847D01*
X1074Y843D01*
X1076Y843D01*
X1076Y837D01*
X1078Y837D01*
X1078Y829D01*
X1080Y829D01*
X1080Y819D01*
X1078Y819D01*
X1078Y811D01*
X1076Y811D01*
X1076Y805D01*
X1074Y805D01*
X1074Y801D01*
X1072Y801D01*
X1072Y797D01*
X1070Y797D01*
X1070Y795D01*
X1068Y795D01*
X1068Y793D01*
X1066Y793D01*
X1066Y789D01*
X1062Y789D01*
X1062Y787D01*
X1060Y787D01*
X1060Y785D01*
X1058Y785D01*
X1058Y783D01*
X1056Y783D01*
X1056Y763D01*
X1060Y763D01*
X1060Y761D01*
X1062Y761D01*
X1062Y759D01*
X1064Y759D01*
X1064Y757D01*
X1066Y757D01*
X1066Y755D01*
X1068Y755D01*
X1068Y753D01*
X1070Y753D01*
X1070Y751D01*
X1072Y751D01*
X1072Y747D01*
X1074Y747D01*
X1074Y743D01*
X1076Y743D01*
X1076Y737D01*
X1078Y737D01*
X1078Y729D01*
X1080Y729D01*
X1080Y719D01*
X1078Y719D01*
X1078Y711D01*
X1076Y711D01*
X1076Y705D01*
X1074Y705D01*
X1074Y701D01*
X1072Y701D01*
X1072Y697D01*
X1070Y697D01*
X1070Y695D01*
X1068Y695D01*
X1068Y693D01*
X1066Y693D01*
X1066Y689D01*
X1062Y689D01*
X1062Y687D01*
X1060Y687D01*
X1060Y685D01*
X1058Y685D01*
X1058Y683D01*
X1056Y683D01*
X1056Y663D01*
X1060Y663D01*
X1060Y661D01*
X1062Y661D01*
X1062Y659D01*
X1064Y659D01*
X1064Y657D01*
X1066Y657D01*
X1066Y655D01*
X1068Y655D01*
X1068Y653D01*
X1070Y653D01*
X1070Y651D01*
X1072Y651D01*
X1072Y647D01*
X1074Y647D01*
X1074Y643D01*
X1076Y643D01*
X1076Y637D01*
X1078Y637D01*
X1078Y629D01*
X1080Y629D01*
X1080Y619D01*
X1078Y619D01*
X1078Y611D01*
X1076Y611D01*
X1076Y605D01*
X1074Y605D01*
X1074Y601D01*
X1072Y601D01*
X1072Y597D01*
X1070Y597D01*
X1070Y595D01*
X1068Y595D01*
X1068Y593D01*
X1066Y593D01*
X1066Y589D01*
X1062Y589D01*
X1062Y587D01*
X1060Y587D01*
X1060Y585D01*
X1058Y585D01*
X1058Y583D01*
X1056Y583D01*
X1056Y563D01*
X1060Y563D01*
X1060Y561D01*
X1062Y561D01*
X1062Y559D01*
X1064Y559D01*
X1064Y557D01*
X1066Y557D01*
X1066Y555D01*
X1068Y555D01*
X1068Y553D01*
X1070Y553D01*
X1070Y551D01*
X1072Y551D01*
X1072Y547D01*
X1074Y547D01*
X1074Y545D01*
X1140Y545D01*
X1140Y543D01*
X1142Y543D01*
X1142Y541D01*
X1146Y541D01*
X1146Y539D01*
X1148Y539D01*
X1148Y537D01*
X1150Y537D01*
X1150Y533D01*
X1152Y533D01*
X1152Y525D01*
X1154Y525D01*
X1154Y377D01*
X1320Y377D01*
X1320Y379D01*
X1314Y379D01*
X1314Y381D01*
X1310Y381D01*
X1310Y383D01*
X1306Y383D01*
X1306Y385D01*
X1304Y385D01*
X1304Y387D01*
X1300Y387D01*
X1300Y389D01*
X1298Y389D01*
X1298Y391D01*
X1296Y391D01*
X1296Y395D01*
X1294Y395D01*
X1294Y397D01*
X1292Y397D01*
X1292Y401D01*
X1290Y401D01*
X1290Y403D01*
X1288Y403D01*
X1288Y409D01*
X1286Y409D01*
X1286Y417D01*
X1284Y417D01*
X1284Y431D01*
X1286Y431D01*
X1286Y439D01*
X1288Y439D01*
X1288Y443D01*
X1290Y443D01*
X1290Y447D01*
X1292Y447D01*
X1292Y451D01*
X1294Y451D01*
X1294Y453D01*
X1296Y453D01*
X1296Y455D01*
X1298Y455D01*
X1298Y457D01*
X1300Y457D01*
X1300Y459D01*
X1302Y459D01*
X1302Y461D01*
X1304Y461D01*
X1304Y463D01*
X1306Y463D01*
X1306Y485D01*
X1304Y485D01*
X1304Y487D01*
X1300Y487D01*
X1300Y489D01*
X1298Y489D01*
X1298Y491D01*
X1296Y491D01*
X1296Y495D01*
X1294Y495D01*
X1294Y497D01*
X1292Y497D01*
X1292Y501D01*
X1290Y501D01*
X1290Y503D01*
X1288Y503D01*
X1288Y509D01*
X1286Y509D01*
X1286Y517D01*
X1284Y517D01*
X1284Y531D01*
X1286Y531D01*
X1286Y539D01*
X1288Y539D01*
X1288Y543D01*
X1290Y543D01*
X1290Y547D01*
X1292Y547D01*
X1292Y551D01*
X1294Y551D01*
X1294Y553D01*
X1296Y553D01*
X1296Y555D01*
X1298Y555D01*
X1298Y557D01*
X1300Y557D01*
X1300Y559D01*
X1302Y559D01*
X1302Y561D01*
X1304Y561D01*
X1304Y563D01*
X1306Y563D01*
X1306Y585D01*
X1304Y585D01*
X1304Y587D01*
X1300Y587D01*
X1300Y589D01*
X1298Y589D01*
X1298Y591D01*
X1296Y591D01*
X1296Y595D01*
X1294Y595D01*
X1294Y597D01*
X1292Y597D01*
X1292Y601D01*
X1290Y601D01*
X1290Y603D01*
X1288Y603D01*
X1288Y609D01*
X1286Y609D01*
X1286Y617D01*
X1284Y617D01*
X1284Y631D01*
X1286Y631D01*
X1286Y639D01*
X1288Y639D01*
X1288Y643D01*
X1290Y643D01*
X1290Y647D01*
X1292Y647D01*
X1292Y651D01*
X1294Y651D01*
X1294Y653D01*
X1296Y653D01*
X1296Y655D01*
X1298Y655D01*
X1298Y657D01*
X1300Y657D01*
X1300Y659D01*
X1302Y659D01*
X1302Y661D01*
X1304Y661D01*
X1304Y663D01*
X1306Y663D01*
X1306Y685D01*
X1304Y685D01*
X1304Y687D01*
X1300Y687D01*
X1300Y689D01*
X1298Y689D01*
X1298Y691D01*
X1296Y691D01*
X1296Y695D01*
X1294Y695D01*
X1294Y697D01*
X1292Y697D01*
X1292Y701D01*
X1290Y701D01*
X1290Y703D01*
X1288Y703D01*
X1288Y709D01*
X1286Y709D01*
X1286Y717D01*
X1284Y717D01*
X1284Y731D01*
X1286Y731D01*
X1286Y739D01*
X1288Y739D01*
X1288Y743D01*
X1290Y743D01*
X1290Y747D01*
X1292Y747D01*
X1292Y751D01*
X1294Y751D01*
X1294Y753D01*
X1296Y753D01*
X1296Y755D01*
X1298Y755D01*
X1298Y757D01*
X1300Y757D01*
X1300Y759D01*
X1302Y759D01*
X1302Y761D01*
X1304Y761D01*
X1304Y763D01*
X1306Y763D01*
X1306Y785D01*
X1304Y785D01*
X1304Y787D01*
X1300Y787D01*
X1300Y789D01*
X1298Y789D01*
X1298Y791D01*
X1296Y791D01*
X1296Y795D01*
X1294Y795D01*
X1294Y797D01*
X1292Y797D01*
X1292Y801D01*
X1290Y801D01*
X1290Y803D01*
X1288Y803D01*
X1288Y809D01*
X1286Y809D01*
X1286Y817D01*
X1284Y817D01*
X1284Y831D01*
X1286Y831D01*
X1286Y839D01*
X1288Y839D01*
X1288Y843D01*
X1290Y843D01*
X1290Y847D01*
X1292Y847D01*
X1292Y851D01*
X1294Y851D01*
X1294Y853D01*
X1296Y853D01*
X1296Y855D01*
X1298Y855D01*
X1298Y857D01*
X1300Y857D01*
X1300Y859D01*
X1302Y859D01*
X1302Y861D01*
X1304Y861D01*
X1304Y863D01*
X1306Y863D01*
X1306Y885D01*
X1304Y885D01*
X1304Y887D01*
X1300Y887D01*
X1300Y889D01*
X1298Y889D01*
X1298Y891D01*
X1296Y891D01*
X1296Y895D01*
X1294Y895D01*
X1294Y897D01*
X1292Y897D01*
X1292Y901D01*
X1290Y901D01*
X1290Y903D01*
X1288Y903D01*
X1288Y909D01*
X1286Y909D01*
X1286Y917D01*
X1284Y917D01*
X1284Y931D01*
X1286Y931D01*
X1286Y939D01*
X1288Y939D01*
X1288Y943D01*
X1290Y943D01*
X1290Y947D01*
X1292Y947D01*
X1292Y951D01*
X1294Y951D01*
X1294Y953D01*
X1296Y953D01*
X1296Y955D01*
X1298Y955D01*
X1298Y957D01*
X1300Y957D01*
X1300Y959D01*
X1302Y959D01*
X1302Y961D01*
X1304Y961D01*
X1304Y963D01*
X1306Y963D01*
X1306Y985D01*
X1304Y985D01*
X1304Y987D01*
X1300Y987D01*
X1300Y989D01*
X1298Y989D01*
X1298Y991D01*
X1296Y991D01*
X1296Y995D01*
X1294Y995D01*
X1294Y997D01*
X1292Y997D01*
X1292Y1001D01*
X1224Y1001D01*
X1224Y1003D01*
X1220Y1003D01*
X1220Y1005D01*
X1216Y1005D01*
X1216Y1007D01*
X1214Y1007D01*
X1214Y1009D01*
X1212Y1009D01*
X1212Y1011D01*
X1210Y1011D01*
X1210Y1013D01*
X1208Y1013D01*
X1208Y1015D01*
X1206Y1015D01*
X1206Y1017D01*
X1204Y1017D01*
X1204Y1019D01*
X1202Y1019D01*
X1202Y1021D01*
X1200Y1021D01*
X1200Y1023D01*
X1198Y1023D01*
X1198Y1025D01*
X1196Y1025D01*
X1196Y1027D01*
X1194Y1027D01*
X1194Y1029D01*
X1192Y1029D01*
X1192Y1031D01*
X1190Y1031D01*
X1190Y1033D01*
X1188Y1033D01*
X1188Y1035D01*
X1186Y1035D01*
X1186Y1037D01*
X1184Y1037D01*
X1184Y1039D01*
X1182Y1039D01*
X1182Y1041D01*
X1180Y1041D01*
X1180Y1043D01*
X1178Y1043D01*
X1178Y1045D01*
X1176Y1045D01*
X1176Y1047D01*
X1174Y1047D01*
X1174Y1049D01*
X1172Y1049D01*
X1172Y1051D01*
X1170Y1051D01*
X1170Y1053D01*
X1168Y1053D01*
X1168Y1055D01*
X1166Y1055D01*
X1166Y1057D01*
X1164Y1057D01*
X1164Y1059D01*
X1162Y1059D01*
X1162Y1061D01*
X1160Y1061D01*
X1160Y1063D01*
X1158Y1063D01*
X1158Y1065D01*
X1156Y1065D01*
X1156Y1067D01*
X1154Y1067D01*
X1154Y1069D01*
X1152Y1069D01*
X1152Y1071D01*
X1150Y1071D01*
X1150Y1073D01*
X1148Y1073D01*
X1148Y1075D01*
X1146Y1075D01*
X1146Y1077D01*
X1144Y1077D01*
X1144Y1079D01*
X1142Y1079D01*
X1142Y1081D01*
X1140Y1081D01*
X1140Y1083D01*
X1138Y1083D01*
X1138Y1085D01*
X1136Y1085D01*
X1136Y1087D01*
X1134Y1087D01*
X1134Y1089D01*
X1132Y1089D01*
X1132Y1091D01*
X1130Y1091D01*
X1130Y1093D01*
X1128Y1093D01*
X1128Y1095D01*
X1126Y1095D01*
X1126Y1097D01*
X1124Y1097D01*
X1124Y1099D01*
X1122Y1099D01*
X1122Y1101D01*
X1072Y1101D01*
G37*
D02*
G36*
X1368Y1095D02*
X1368Y1093D01*
X2714Y1093D01*
X2714Y1095D01*
X1368Y1095D01*
G37*
D02*
G36*
X1368Y1095D02*
X1368Y1093D01*
X2714Y1093D01*
X2714Y1095D01*
X1368Y1095D01*
G37*
D02*
G36*
X1366Y1093D02*
X1366Y1089D01*
X1362Y1089D01*
X1362Y1087D01*
X1360Y1087D01*
X1360Y1085D01*
X1358Y1085D01*
X1358Y1083D01*
X1356Y1083D01*
X1356Y1063D01*
X1360Y1063D01*
X1360Y1061D01*
X1362Y1061D01*
X1362Y1059D01*
X1364Y1059D01*
X1364Y1057D01*
X1366Y1057D01*
X1366Y1055D01*
X1368Y1055D01*
X1368Y1053D01*
X1370Y1053D01*
X1370Y1051D01*
X1372Y1051D01*
X1372Y1047D01*
X1374Y1047D01*
X1374Y1043D01*
X1376Y1043D01*
X1376Y1037D01*
X1378Y1037D01*
X1378Y1029D01*
X1380Y1029D01*
X1380Y1019D01*
X1378Y1019D01*
X1378Y1011D01*
X1376Y1011D01*
X1376Y1005D01*
X1374Y1005D01*
X1374Y1001D01*
X1372Y1001D01*
X1372Y997D01*
X1370Y997D01*
X1370Y995D01*
X1368Y995D01*
X1368Y993D01*
X1366Y993D01*
X1366Y989D01*
X1362Y989D01*
X1362Y987D01*
X1360Y987D01*
X1360Y985D01*
X1358Y985D01*
X1358Y983D01*
X1356Y983D01*
X1356Y971D01*
X2142Y971D01*
X2142Y969D01*
X2148Y969D01*
X2148Y967D01*
X2154Y967D01*
X2154Y965D01*
X2156Y965D01*
X2156Y963D01*
X2160Y963D01*
X2160Y961D01*
X2162Y961D01*
X2162Y959D01*
X2164Y959D01*
X2164Y957D01*
X2166Y957D01*
X2166Y955D01*
X2168Y955D01*
X2168Y953D01*
X2170Y953D01*
X2170Y951D01*
X2172Y951D01*
X2172Y947D01*
X2174Y947D01*
X2174Y943D01*
X2176Y943D01*
X2176Y937D01*
X2178Y937D01*
X2178Y929D01*
X2180Y929D01*
X2180Y919D01*
X2178Y919D01*
X2178Y911D01*
X2176Y911D01*
X2176Y905D01*
X2174Y905D01*
X2174Y901D01*
X2172Y901D01*
X2172Y897D01*
X2170Y897D01*
X2170Y895D01*
X2168Y895D01*
X2168Y893D01*
X2166Y893D01*
X2166Y889D01*
X2162Y889D01*
X2162Y887D01*
X2160Y887D01*
X2160Y885D01*
X2158Y885D01*
X2158Y883D01*
X2154Y883D01*
X2154Y881D01*
X2150Y881D01*
X2150Y879D01*
X2144Y879D01*
X2144Y877D01*
X2714Y877D01*
X2714Y1093D01*
X1366Y1093D01*
G37*
D02*
G36*
X1356Y971D02*
X1356Y963D01*
X1360Y963D01*
X1360Y961D01*
X1362Y961D01*
X1362Y959D01*
X1364Y959D01*
X1364Y957D01*
X1366Y957D01*
X1366Y955D01*
X1368Y955D01*
X1368Y953D01*
X1370Y953D01*
X1370Y951D01*
X1372Y951D01*
X1372Y947D01*
X1374Y947D01*
X1374Y943D01*
X1376Y943D01*
X1376Y937D01*
X1378Y937D01*
X1378Y929D01*
X1380Y929D01*
X1380Y919D01*
X1378Y919D01*
X1378Y911D01*
X1376Y911D01*
X1376Y905D01*
X1374Y905D01*
X1374Y901D01*
X1372Y901D01*
X1372Y897D01*
X1370Y897D01*
X1370Y895D01*
X1368Y895D01*
X1368Y893D01*
X1366Y893D01*
X1366Y889D01*
X1362Y889D01*
X1362Y887D01*
X1360Y887D01*
X1360Y885D01*
X1358Y885D01*
X1358Y883D01*
X1356Y883D01*
X1356Y877D01*
X2120Y877D01*
X2120Y879D01*
X2114Y879D01*
X2114Y881D01*
X2110Y881D01*
X2110Y883D01*
X2106Y883D01*
X2106Y885D01*
X2104Y885D01*
X2104Y887D01*
X2100Y887D01*
X2100Y889D01*
X2098Y889D01*
X2098Y891D01*
X2096Y891D01*
X2096Y895D01*
X2094Y895D01*
X2094Y897D01*
X2092Y897D01*
X2092Y901D01*
X2090Y901D01*
X2090Y903D01*
X2088Y903D01*
X2088Y909D01*
X2086Y909D01*
X2086Y917D01*
X2084Y917D01*
X2084Y931D01*
X2086Y931D01*
X2086Y939D01*
X2088Y939D01*
X2088Y943D01*
X2090Y943D01*
X2090Y947D01*
X2092Y947D01*
X2092Y951D01*
X2094Y951D01*
X2094Y953D01*
X2096Y953D01*
X2096Y955D01*
X2098Y955D01*
X2098Y957D01*
X2100Y957D01*
X2100Y959D01*
X2102Y959D01*
X2102Y961D01*
X2104Y961D01*
X2104Y963D01*
X2106Y963D01*
X2106Y965D01*
X2110Y965D01*
X2110Y967D01*
X2114Y967D01*
X2114Y969D01*
X2122Y969D01*
X2122Y971D01*
X1356Y971D01*
G37*
D02*
G36*
X1356Y877D02*
X1356Y875D01*
X2714Y875D01*
X2714Y877D01*
X1356Y877D01*
G37*
D02*
G36*
X1356Y877D02*
X1356Y875D01*
X2714Y875D01*
X2714Y877D01*
X1356Y877D01*
G37*
D02*
G36*
X1356Y875D02*
X1356Y863D01*
X1360Y863D01*
X1360Y861D01*
X1362Y861D01*
X1362Y859D01*
X1364Y859D01*
X1364Y857D01*
X1366Y857D01*
X1366Y855D01*
X1368Y855D01*
X1368Y853D01*
X1370Y853D01*
X1370Y851D01*
X1372Y851D01*
X1372Y847D01*
X1374Y847D01*
X1374Y843D01*
X1376Y843D01*
X1376Y837D01*
X1378Y837D01*
X1378Y829D01*
X1380Y829D01*
X1380Y819D01*
X1378Y819D01*
X1378Y811D01*
X1376Y811D01*
X1376Y805D01*
X1374Y805D01*
X1374Y801D01*
X1372Y801D01*
X1372Y797D01*
X1370Y797D01*
X1370Y795D01*
X1368Y795D01*
X1368Y793D01*
X1366Y793D01*
X1366Y789D01*
X1362Y789D01*
X1362Y787D01*
X1360Y787D01*
X1360Y785D01*
X1358Y785D01*
X1358Y783D01*
X1356Y783D01*
X1356Y763D01*
X1360Y763D01*
X1360Y761D01*
X1362Y761D01*
X1362Y759D01*
X1364Y759D01*
X1364Y757D01*
X1366Y757D01*
X1366Y755D01*
X1368Y755D01*
X1368Y753D01*
X1370Y753D01*
X1370Y751D01*
X1372Y751D01*
X1372Y747D01*
X1374Y747D01*
X1374Y743D01*
X1376Y743D01*
X1376Y737D01*
X1378Y737D01*
X1378Y729D01*
X1380Y729D01*
X1380Y719D01*
X1378Y719D01*
X1378Y711D01*
X1376Y711D01*
X1376Y705D01*
X1374Y705D01*
X1374Y701D01*
X1372Y701D01*
X1372Y697D01*
X1370Y697D01*
X1370Y695D01*
X1368Y695D01*
X1368Y693D01*
X1366Y693D01*
X1366Y689D01*
X1362Y689D01*
X1362Y687D01*
X1360Y687D01*
X1360Y685D01*
X1358Y685D01*
X1358Y683D01*
X1356Y683D01*
X1356Y663D01*
X1360Y663D01*
X1360Y661D01*
X1362Y661D01*
X1362Y659D01*
X1364Y659D01*
X1364Y657D01*
X1366Y657D01*
X1366Y655D01*
X1368Y655D01*
X1368Y653D01*
X1370Y653D01*
X1370Y651D01*
X1372Y651D01*
X1372Y649D01*
X2542Y649D01*
X2542Y647D01*
X2548Y647D01*
X2548Y645D01*
X2552Y645D01*
X2552Y643D01*
X2556Y643D01*
X2556Y641D01*
X2560Y641D01*
X2560Y639D01*
X2562Y639D01*
X2562Y637D01*
X2564Y637D01*
X2564Y635D01*
X2566Y635D01*
X2566Y633D01*
X2568Y633D01*
X2568Y631D01*
X2570Y631D01*
X2570Y629D01*
X2572Y629D01*
X2572Y625D01*
X2574Y625D01*
X2574Y621D01*
X2576Y621D01*
X2576Y615D01*
X2578Y615D01*
X2578Y607D01*
X2580Y607D01*
X2580Y597D01*
X2578Y597D01*
X2578Y587D01*
X2576Y587D01*
X2576Y581D01*
X2574Y581D01*
X2574Y579D01*
X2572Y579D01*
X2572Y575D01*
X2570Y575D01*
X2570Y573D01*
X2568Y573D01*
X2568Y569D01*
X2566Y569D01*
X2566Y567D01*
X2562Y567D01*
X2562Y565D01*
X2560Y565D01*
X2560Y563D01*
X2558Y563D01*
X2558Y561D01*
X2554Y561D01*
X2554Y559D01*
X2550Y559D01*
X2550Y557D01*
X2544Y557D01*
X2544Y555D01*
X2714Y555D01*
X2714Y875D01*
X1356Y875D01*
G37*
D02*
G36*
X1372Y649D02*
X1372Y647D01*
X1374Y647D01*
X1374Y643D01*
X1376Y643D01*
X1376Y637D01*
X1378Y637D01*
X1378Y629D01*
X1380Y629D01*
X1380Y619D01*
X1378Y619D01*
X1378Y611D01*
X1376Y611D01*
X1376Y605D01*
X1374Y605D01*
X1374Y601D01*
X1372Y601D01*
X1372Y597D01*
X1370Y597D01*
X1370Y595D01*
X1368Y595D01*
X1368Y593D01*
X1366Y593D01*
X1366Y589D01*
X1362Y589D01*
X1362Y587D01*
X1360Y587D01*
X1360Y585D01*
X1358Y585D01*
X1358Y583D01*
X1356Y583D01*
X1356Y563D01*
X1360Y563D01*
X1360Y561D01*
X1362Y561D01*
X1362Y559D01*
X1364Y559D01*
X1364Y557D01*
X1366Y557D01*
X1366Y555D01*
X1368Y555D01*
X1368Y553D01*
X1370Y553D01*
X1370Y551D01*
X1372Y551D01*
X1372Y547D01*
X1374Y547D01*
X1374Y545D01*
X1646Y545D01*
X1646Y565D01*
X1644Y565D01*
X1644Y567D01*
X1642Y567D01*
X1642Y569D01*
X1640Y569D01*
X1640Y571D01*
X1638Y571D01*
X1638Y573D01*
X1636Y573D01*
X1636Y577D01*
X1634Y577D01*
X1634Y581D01*
X1632Y581D01*
X1632Y587D01*
X1630Y587D01*
X1630Y595D01*
X1628Y595D01*
X1628Y607D01*
X1630Y607D01*
X1630Y615D01*
X1632Y615D01*
X1632Y621D01*
X1634Y621D01*
X1634Y625D01*
X1636Y625D01*
X1636Y627D01*
X1638Y627D01*
X1638Y631D01*
X1640Y631D01*
X1640Y633D01*
X1642Y633D01*
X1642Y635D01*
X1644Y635D01*
X1644Y637D01*
X1646Y637D01*
X1646Y639D01*
X1650Y639D01*
X1650Y641D01*
X1652Y641D01*
X1652Y643D01*
X1656Y643D01*
X1656Y645D01*
X1662Y645D01*
X1662Y647D01*
X1670Y647D01*
X1670Y649D01*
X1372Y649D01*
G37*
D02*
G36*
X1682Y649D02*
X1682Y647D01*
X1690Y647D01*
X1690Y645D01*
X1696Y645D01*
X1696Y643D01*
X1700Y643D01*
X1700Y641D01*
X1702Y641D01*
X1702Y639D01*
X1706Y639D01*
X1706Y637D01*
X1708Y637D01*
X1708Y635D01*
X1710Y635D01*
X1710Y633D01*
X1712Y633D01*
X1712Y631D01*
X1714Y631D01*
X1714Y627D01*
X1716Y627D01*
X1716Y625D01*
X1718Y625D01*
X1718Y621D01*
X1720Y621D01*
X1720Y615D01*
X1722Y615D01*
X1722Y607D01*
X1724Y607D01*
X1724Y595D01*
X1722Y595D01*
X1722Y587D01*
X1720Y587D01*
X1720Y581D01*
X1718Y581D01*
X1718Y577D01*
X1716Y577D01*
X1716Y575D01*
X1714Y575D01*
X1714Y571D01*
X1712Y571D01*
X1712Y569D01*
X1710Y569D01*
X1710Y567D01*
X1708Y567D01*
X1708Y565D01*
X1706Y565D01*
X1706Y545D01*
X1902Y545D01*
X1902Y565D01*
X1900Y565D01*
X1900Y567D01*
X1898Y567D01*
X1898Y569D01*
X1896Y569D01*
X1896Y571D01*
X1894Y571D01*
X1894Y573D01*
X1892Y573D01*
X1892Y577D01*
X1890Y577D01*
X1890Y581D01*
X1888Y581D01*
X1888Y587D01*
X1886Y587D01*
X1886Y593D01*
X1884Y593D01*
X1884Y609D01*
X1886Y609D01*
X1886Y615D01*
X1888Y615D01*
X1888Y621D01*
X1890Y621D01*
X1890Y625D01*
X1892Y625D01*
X1892Y629D01*
X1894Y629D01*
X1894Y631D01*
X1896Y631D01*
X1896Y633D01*
X1898Y633D01*
X1898Y635D01*
X1900Y635D01*
X1900Y637D01*
X1902Y637D01*
X1902Y639D01*
X1906Y639D01*
X1906Y641D01*
X1908Y641D01*
X1908Y643D01*
X1912Y643D01*
X1912Y645D01*
X1918Y645D01*
X1918Y647D01*
X1926Y647D01*
X1926Y649D01*
X1682Y649D01*
G37*
D02*
G36*
X1938Y649D02*
X1938Y647D01*
X1946Y647D01*
X1946Y645D01*
X1952Y645D01*
X1952Y643D01*
X1956Y643D01*
X1956Y641D01*
X1958Y641D01*
X1958Y639D01*
X1962Y639D01*
X1962Y637D01*
X1964Y637D01*
X1964Y635D01*
X1966Y635D01*
X1966Y633D01*
X1968Y633D01*
X1968Y631D01*
X1970Y631D01*
X1970Y627D01*
X1972Y627D01*
X1972Y625D01*
X1974Y625D01*
X1974Y621D01*
X1976Y621D01*
X1976Y615D01*
X1978Y615D01*
X1978Y605D01*
X1980Y605D01*
X1980Y597D01*
X1978Y597D01*
X1978Y587D01*
X1976Y587D01*
X1976Y581D01*
X1974Y581D01*
X1974Y577D01*
X1972Y577D01*
X1972Y575D01*
X1970Y575D01*
X1970Y571D01*
X1968Y571D01*
X1968Y569D01*
X1966Y569D01*
X1966Y567D01*
X1964Y567D01*
X1964Y565D01*
X1962Y565D01*
X1962Y545D01*
X2248Y545D01*
X2248Y565D01*
X2244Y565D01*
X2244Y567D01*
X2242Y567D01*
X2242Y569D01*
X2240Y569D01*
X2240Y573D01*
X2238Y573D01*
X2238Y575D01*
X2236Y575D01*
X2236Y577D01*
X2234Y577D01*
X2234Y581D01*
X2232Y581D01*
X2232Y587D01*
X2230Y587D01*
X2230Y595D01*
X2228Y595D01*
X2228Y609D01*
X2230Y609D01*
X2230Y617D01*
X2232Y617D01*
X2232Y621D01*
X2234Y621D01*
X2234Y625D01*
X2236Y625D01*
X2236Y629D01*
X2238Y629D01*
X2238Y631D01*
X2240Y631D01*
X2240Y633D01*
X2242Y633D01*
X2242Y635D01*
X2244Y635D01*
X2244Y637D01*
X2246Y637D01*
X2246Y639D01*
X2248Y639D01*
X2248Y641D01*
X2252Y641D01*
X2252Y643D01*
X2254Y643D01*
X2254Y645D01*
X2260Y645D01*
X2260Y647D01*
X2266Y647D01*
X2266Y649D01*
X1938Y649D01*
G37*
D02*
G36*
X2286Y649D02*
X2286Y647D01*
X2292Y647D01*
X2292Y645D01*
X2296Y645D01*
X2296Y643D01*
X2300Y643D01*
X2300Y641D01*
X2304Y641D01*
X2304Y639D01*
X2306Y639D01*
X2306Y637D01*
X2308Y637D01*
X2308Y635D01*
X2310Y635D01*
X2310Y633D01*
X2312Y633D01*
X2312Y631D01*
X2314Y631D01*
X2314Y629D01*
X2316Y629D01*
X2316Y625D01*
X2318Y625D01*
X2318Y621D01*
X2320Y621D01*
X2320Y615D01*
X2322Y615D01*
X2322Y607D01*
X2324Y607D01*
X2324Y597D01*
X2322Y597D01*
X2322Y587D01*
X2320Y587D01*
X2320Y581D01*
X2318Y581D01*
X2318Y579D01*
X2316Y579D01*
X2316Y575D01*
X2314Y575D01*
X2314Y573D01*
X2312Y573D01*
X2312Y569D01*
X2310Y569D01*
X2310Y567D01*
X2308Y567D01*
X2308Y565D01*
X2304Y565D01*
X2304Y563D01*
X2302Y563D01*
X2302Y561D01*
X2298Y561D01*
X2298Y559D01*
X2294Y559D01*
X2294Y557D01*
X2292Y557D01*
X2292Y555D01*
X2520Y555D01*
X2520Y557D01*
X2514Y557D01*
X2514Y559D01*
X2510Y559D01*
X2510Y561D01*
X2506Y561D01*
X2506Y563D01*
X2504Y563D01*
X2504Y565D01*
X2500Y565D01*
X2500Y567D01*
X2498Y567D01*
X2498Y569D01*
X2496Y569D01*
X2496Y573D01*
X2494Y573D01*
X2494Y575D01*
X2492Y575D01*
X2492Y577D01*
X2490Y577D01*
X2490Y581D01*
X2488Y581D01*
X2488Y587D01*
X2486Y587D01*
X2486Y595D01*
X2484Y595D01*
X2484Y609D01*
X2486Y609D01*
X2486Y617D01*
X2488Y617D01*
X2488Y621D01*
X2490Y621D01*
X2490Y625D01*
X2492Y625D01*
X2492Y629D01*
X2494Y629D01*
X2494Y631D01*
X2496Y631D01*
X2496Y633D01*
X2498Y633D01*
X2498Y635D01*
X2500Y635D01*
X2500Y637D01*
X2502Y637D01*
X2502Y639D01*
X2504Y639D01*
X2504Y641D01*
X2508Y641D01*
X2508Y643D01*
X2510Y643D01*
X2510Y645D01*
X2516Y645D01*
X2516Y647D01*
X2522Y647D01*
X2522Y649D01*
X2286Y649D01*
G37*
D02*
G36*
X2292Y555D02*
X2292Y553D01*
X2714Y553D01*
X2714Y555D01*
X2292Y555D01*
G37*
D02*
G36*
X2292Y555D02*
X2292Y553D01*
X2714Y553D01*
X2714Y555D01*
X2292Y555D01*
G37*
D02*
G36*
X2292Y553D02*
X2292Y537D01*
X2294Y537D01*
X2294Y535D01*
X2296Y535D01*
X2296Y529D01*
X2298Y529D01*
X2298Y471D01*
X2544Y471D01*
X2544Y469D01*
X2550Y469D01*
X2550Y467D01*
X2554Y467D01*
X2554Y465D01*
X2558Y465D01*
X2558Y463D01*
X2560Y463D01*
X2560Y461D01*
X2562Y461D01*
X2562Y459D01*
X2566Y459D01*
X2566Y457D01*
X2568Y457D01*
X2568Y453D01*
X2570Y453D01*
X2570Y451D01*
X2572Y451D01*
X2572Y447D01*
X2574Y447D01*
X2574Y443D01*
X2576Y443D01*
X2576Y439D01*
X2578Y439D01*
X2578Y429D01*
X2580Y429D01*
X2580Y419D01*
X2578Y419D01*
X2578Y411D01*
X2576Y411D01*
X2576Y405D01*
X2574Y405D01*
X2574Y401D01*
X2572Y401D01*
X2572Y397D01*
X2570Y397D01*
X2570Y395D01*
X2568Y395D01*
X2568Y393D01*
X2566Y393D01*
X2566Y391D01*
X2564Y391D01*
X2564Y389D01*
X2562Y389D01*
X2562Y387D01*
X2560Y387D01*
X2560Y385D01*
X2556Y385D01*
X2556Y383D01*
X2552Y383D01*
X2552Y381D01*
X2548Y381D01*
X2548Y379D01*
X2542Y379D01*
X2542Y377D01*
X2714Y377D01*
X2714Y553D01*
X2292Y553D01*
G37*
D02*
G36*
X1372Y501D02*
X1372Y497D01*
X1370Y497D01*
X1370Y495D01*
X1368Y495D01*
X1368Y493D01*
X1366Y493D01*
X1366Y489D01*
X1362Y489D01*
X1362Y487D01*
X1360Y487D01*
X1360Y485D01*
X1358Y485D01*
X1358Y483D01*
X1356Y483D01*
X1356Y471D01*
X1942Y471D01*
X1942Y469D01*
X1948Y469D01*
X1948Y467D01*
X1954Y467D01*
X1954Y465D01*
X1956Y465D01*
X1956Y463D01*
X1960Y463D01*
X1960Y461D01*
X1962Y461D01*
X1962Y459D01*
X1964Y459D01*
X1964Y457D01*
X1966Y457D01*
X1966Y455D01*
X1968Y455D01*
X1968Y453D01*
X1970Y453D01*
X1970Y451D01*
X1972Y451D01*
X1972Y447D01*
X1974Y447D01*
X1974Y443D01*
X1976Y443D01*
X1976Y437D01*
X1978Y437D01*
X1978Y429D01*
X1980Y429D01*
X1980Y419D01*
X1978Y419D01*
X1978Y411D01*
X1976Y411D01*
X1976Y405D01*
X1974Y405D01*
X1974Y401D01*
X1972Y401D01*
X1972Y397D01*
X1970Y397D01*
X1970Y395D01*
X1968Y395D01*
X1968Y393D01*
X1966Y393D01*
X1966Y389D01*
X1962Y389D01*
X1962Y387D01*
X1960Y387D01*
X1960Y385D01*
X1958Y385D01*
X1958Y383D01*
X1954Y383D01*
X1954Y381D01*
X1950Y381D01*
X1950Y379D01*
X1944Y379D01*
X1944Y377D01*
X2266Y377D01*
X2266Y379D01*
X2260Y379D01*
X2260Y381D01*
X2254Y381D01*
X2254Y383D01*
X2252Y383D01*
X2252Y385D01*
X2248Y385D01*
X2248Y387D01*
X2246Y387D01*
X2246Y389D01*
X2244Y389D01*
X2244Y391D01*
X2242Y391D01*
X2242Y393D01*
X2240Y393D01*
X2240Y395D01*
X2238Y395D01*
X2238Y397D01*
X2236Y397D01*
X2236Y401D01*
X2234Y401D01*
X2234Y405D01*
X2232Y405D01*
X2232Y409D01*
X2230Y409D01*
X2230Y417D01*
X2228Y417D01*
X2228Y431D01*
X2230Y431D01*
X2230Y439D01*
X2232Y439D01*
X2232Y445D01*
X2234Y445D01*
X2234Y449D01*
X2236Y449D01*
X2236Y451D01*
X2238Y451D01*
X2238Y453D01*
X2240Y453D01*
X2240Y457D01*
X2242Y457D01*
X2242Y459D01*
X2244Y459D01*
X2244Y461D01*
X2248Y461D01*
X2248Y463D01*
X2250Y463D01*
X2250Y465D01*
X2254Y465D01*
X2254Y501D01*
X1372Y501D01*
G37*
D02*
G36*
X1356Y471D02*
X1356Y463D01*
X1360Y463D01*
X1360Y461D01*
X1362Y461D01*
X1362Y459D01*
X1364Y459D01*
X1364Y457D01*
X1366Y457D01*
X1366Y455D01*
X1368Y455D01*
X1368Y453D01*
X1370Y453D01*
X1370Y451D01*
X1372Y451D01*
X1372Y447D01*
X1374Y447D01*
X1374Y445D01*
X1634Y445D01*
X1634Y447D01*
X1636Y447D01*
X1636Y451D01*
X1638Y451D01*
X1638Y453D01*
X1640Y453D01*
X1640Y455D01*
X1642Y455D01*
X1642Y457D01*
X1644Y457D01*
X1644Y459D01*
X1646Y459D01*
X1646Y461D01*
X1648Y461D01*
X1648Y463D01*
X1652Y463D01*
X1652Y465D01*
X1654Y465D01*
X1654Y467D01*
X1658Y467D01*
X1658Y469D01*
X1666Y469D01*
X1666Y471D01*
X1356Y471D01*
G37*
D02*
G36*
X1686Y471D02*
X1686Y469D01*
X1692Y469D01*
X1692Y467D01*
X1698Y467D01*
X1698Y465D01*
X1700Y465D01*
X1700Y463D01*
X1704Y463D01*
X1704Y461D01*
X1706Y461D01*
X1706Y459D01*
X1708Y459D01*
X1708Y457D01*
X1710Y457D01*
X1710Y455D01*
X1712Y455D01*
X1712Y453D01*
X1714Y453D01*
X1714Y451D01*
X1716Y451D01*
X1716Y447D01*
X1718Y447D01*
X1718Y445D01*
X1890Y445D01*
X1890Y447D01*
X1892Y447D01*
X1892Y451D01*
X1894Y451D01*
X1894Y453D01*
X1896Y453D01*
X1896Y455D01*
X1898Y455D01*
X1898Y457D01*
X1900Y457D01*
X1900Y459D01*
X1902Y459D01*
X1902Y461D01*
X1904Y461D01*
X1904Y463D01*
X1906Y463D01*
X1906Y465D01*
X1910Y465D01*
X1910Y467D01*
X1914Y467D01*
X1914Y469D01*
X1922Y469D01*
X1922Y471D01*
X1686Y471D01*
G37*
D02*
G36*
X2298Y471D02*
X2298Y465D01*
X2302Y465D01*
X2302Y463D01*
X2304Y463D01*
X2304Y461D01*
X2308Y461D01*
X2308Y459D01*
X2310Y459D01*
X2310Y457D01*
X2312Y457D01*
X2312Y453D01*
X2314Y453D01*
X2314Y451D01*
X2316Y451D01*
X2316Y447D01*
X2490Y447D01*
X2490Y449D01*
X2492Y449D01*
X2492Y451D01*
X2494Y451D01*
X2494Y453D01*
X2496Y453D01*
X2496Y457D01*
X2498Y457D01*
X2498Y459D01*
X2500Y459D01*
X2500Y461D01*
X2504Y461D01*
X2504Y463D01*
X2506Y463D01*
X2506Y465D01*
X2510Y465D01*
X2510Y467D01*
X2514Y467D01*
X2514Y469D01*
X2520Y469D01*
X2520Y471D01*
X2298Y471D01*
G37*
D02*
G36*
X2318Y403D02*
X2318Y401D01*
X2316Y401D01*
X2316Y397D01*
X2314Y397D01*
X2314Y395D01*
X2312Y395D01*
X2312Y393D01*
X2310Y393D01*
X2310Y391D01*
X2308Y391D01*
X2308Y389D01*
X2306Y389D01*
X2306Y387D01*
X2304Y387D01*
X2304Y385D01*
X2300Y385D01*
X2300Y383D01*
X2296Y383D01*
X2296Y381D01*
X2292Y381D01*
X2292Y379D01*
X2286Y379D01*
X2286Y377D01*
X2522Y377D01*
X2522Y379D01*
X2516Y379D01*
X2516Y381D01*
X2510Y381D01*
X2510Y383D01*
X2508Y383D01*
X2508Y385D01*
X2504Y385D01*
X2504Y387D01*
X2502Y387D01*
X2502Y389D01*
X2500Y389D01*
X2500Y391D01*
X2498Y391D01*
X2498Y393D01*
X2496Y393D01*
X2496Y395D01*
X2494Y395D01*
X2494Y397D01*
X2492Y397D01*
X2492Y401D01*
X2490Y401D01*
X2490Y403D01*
X2318Y403D01*
G37*
D02*
G36*
X1372Y401D02*
X1372Y397D01*
X1370Y397D01*
X1370Y395D01*
X1368Y395D01*
X1368Y393D01*
X1366Y393D01*
X1366Y389D01*
X1362Y389D01*
X1362Y387D01*
X1360Y387D01*
X1360Y385D01*
X1358Y385D01*
X1358Y383D01*
X1354Y383D01*
X1354Y381D01*
X1350Y381D01*
X1350Y379D01*
X1344Y379D01*
X1344Y377D01*
X1664Y377D01*
X1664Y379D01*
X1658Y379D01*
X1658Y381D01*
X1654Y381D01*
X1654Y383D01*
X1650Y383D01*
X1650Y385D01*
X1648Y385D01*
X1648Y387D01*
X1646Y387D01*
X1646Y389D01*
X1642Y389D01*
X1642Y391D01*
X1640Y391D01*
X1640Y395D01*
X1638Y395D01*
X1638Y397D01*
X1636Y397D01*
X1636Y401D01*
X1372Y401D01*
G37*
D02*
G36*
X1716Y401D02*
X1716Y397D01*
X1714Y397D01*
X1714Y395D01*
X1712Y395D01*
X1712Y393D01*
X1710Y393D01*
X1710Y389D01*
X1706Y389D01*
X1706Y387D01*
X1704Y387D01*
X1704Y385D01*
X1702Y385D01*
X1702Y383D01*
X1698Y383D01*
X1698Y381D01*
X1694Y381D01*
X1694Y379D01*
X1688Y379D01*
X1688Y377D01*
X1920Y377D01*
X1920Y379D01*
X1914Y379D01*
X1914Y381D01*
X1910Y381D01*
X1910Y383D01*
X1906Y383D01*
X1906Y385D01*
X1904Y385D01*
X1904Y387D01*
X1900Y387D01*
X1900Y389D01*
X1898Y389D01*
X1898Y391D01*
X1896Y391D01*
X1896Y395D01*
X1894Y395D01*
X1894Y397D01*
X1892Y397D01*
X1892Y401D01*
X1716Y401D01*
G37*
D02*
G36*
X1154Y377D02*
X1154Y375D01*
X2714Y375D01*
X2714Y377D01*
X1154Y377D01*
G37*
D02*
G36*
X1154Y377D02*
X1154Y375D01*
X2714Y375D01*
X2714Y377D01*
X1154Y377D01*
G37*
D02*
G36*
X1154Y377D02*
X1154Y375D01*
X2714Y375D01*
X2714Y377D01*
X1154Y377D01*
G37*
D02*
G36*
X1154Y377D02*
X1154Y375D01*
X2714Y375D01*
X2714Y377D01*
X1154Y377D01*
G37*
D02*
G36*
X1154Y377D02*
X1154Y375D01*
X2714Y375D01*
X2714Y377D01*
X1154Y377D01*
G37*
D02*
G36*
X1154Y377D02*
X1154Y375D01*
X2714Y375D01*
X2714Y377D01*
X1154Y377D01*
G37*
D02*
G36*
X1154Y375D02*
X1154Y325D01*
X1152Y325D01*
X1152Y315D01*
X1150Y315D01*
X1150Y313D01*
X1148Y313D01*
X1148Y309D01*
X1144Y309D01*
X1144Y307D01*
X1142Y307D01*
X1142Y305D01*
X1138Y305D01*
X1138Y303D01*
X2714Y303D01*
X2714Y375D01*
X1154Y375D01*
G37*
D02*
G36*
X40Y303D02*
X40Y301D01*
X2714Y301D01*
X2714Y303D01*
X40Y303D01*
G37*
D02*
G36*
X40Y303D02*
X40Y301D01*
X2714Y301D01*
X2714Y303D01*
X40Y303D01*
G37*
D02*
G36*
X40Y301D02*
X40Y123D01*
X2690Y123D01*
X2690Y121D01*
X2714Y121D01*
X2714Y301D01*
X40Y301D01*
G37*
D02*
G36*
X40Y123D02*
X40Y121D01*
X68Y121D01*
X68Y123D01*
X40Y123D01*
G37*
D02*
G36*
X74Y123D02*
X74Y121D01*
X86Y121D01*
X86Y119D01*
X92Y119D01*
X92Y117D01*
X96Y117D01*
X96Y115D01*
X100Y115D01*
X100Y113D01*
X102Y113D01*
X102Y111D01*
X104Y111D01*
X104Y109D01*
X108Y109D01*
X108Y107D01*
X110Y107D01*
X110Y105D01*
X112Y105D01*
X112Y101D01*
X114Y101D01*
X114Y99D01*
X116Y99D01*
X116Y95D01*
X118Y95D01*
X118Y91D01*
X120Y91D01*
X120Y87D01*
X122Y87D01*
X122Y81D01*
X124Y81D01*
X124Y41D01*
X2634Y41D01*
X2634Y79D01*
X2636Y79D01*
X2636Y87D01*
X2638Y87D01*
X2638Y91D01*
X2640Y91D01*
X2640Y95D01*
X2642Y95D01*
X2642Y99D01*
X2644Y99D01*
X2644Y101D01*
X2646Y101D01*
X2646Y103D01*
X2648Y103D01*
X2648Y105D01*
X2650Y105D01*
X2650Y107D01*
X2652Y107D01*
X2652Y109D01*
X2654Y109D01*
X2654Y111D01*
X2656Y111D01*
X2656Y113D01*
X2660Y113D01*
X2660Y115D01*
X2664Y115D01*
X2664Y117D01*
X2668Y117D01*
X2668Y119D01*
X2672Y119D01*
X2672Y121D01*
X2684Y121D01*
X2684Y123D01*
X74Y123D01*
G37*
D02*
G36*
X60Y101D02*
X60Y99D01*
X56Y99D01*
X56Y97D01*
X52Y97D01*
X52Y95D01*
X50Y95D01*
X50Y93D01*
X48Y93D01*
X48Y91D01*
X46Y91D01*
X46Y89D01*
X44Y89D01*
X44Y87D01*
X42Y87D01*
X42Y83D01*
X40Y83D01*
X40Y55D01*
X42Y55D01*
X42Y51D01*
X44Y51D01*
X44Y49D01*
X46Y49D01*
X46Y47D01*
X48Y47D01*
X48Y45D01*
X50Y45D01*
X50Y43D01*
X52Y43D01*
X52Y41D01*
X90Y41D01*
X90Y43D01*
X94Y43D01*
X94Y45D01*
X96Y45D01*
X96Y47D01*
X98Y47D01*
X98Y51D01*
X100Y51D01*
X100Y53D01*
X102Y53D01*
X102Y59D01*
X104Y59D01*
X104Y79D01*
X102Y79D01*
X102Y83D01*
X100Y83D01*
X100Y87D01*
X98Y87D01*
X98Y89D01*
X96Y89D01*
X96Y93D01*
X92Y93D01*
X92Y95D01*
X90Y95D01*
X90Y97D01*
X88Y97D01*
X88Y99D01*
X84Y99D01*
X84Y101D01*
X60Y101D01*
G37*
D02*
G36*
X2676Y101D02*
X2676Y99D01*
X2672Y99D01*
X2672Y97D01*
X2668Y97D01*
X2668Y95D01*
X2666Y95D01*
X2666Y93D01*
X2664Y93D01*
X2664Y91D01*
X2662Y91D01*
X2662Y89D01*
X2660Y89D01*
X2660Y87D01*
X2658Y87D01*
X2658Y83D01*
X2656Y83D01*
X2656Y55D01*
X2658Y55D01*
X2658Y51D01*
X2660Y51D01*
X2660Y49D01*
X2662Y49D01*
X2662Y47D01*
X2664Y47D01*
X2664Y45D01*
X2666Y45D01*
X2666Y43D01*
X2668Y43D01*
X2668Y41D01*
X2706Y41D01*
X2706Y43D01*
X2710Y43D01*
X2710Y45D01*
X2712Y45D01*
X2712Y47D01*
X2714Y47D01*
X2714Y89D01*
X2712Y89D01*
X2712Y93D01*
X2708Y93D01*
X2708Y95D01*
X2706Y95D01*
X2706Y97D01*
X2704Y97D01*
X2704Y99D01*
X2700Y99D01*
X2700Y101D01*
X2676Y101D01*
G37*
D02*
G54D22*
X1797Y2054D02*
X1866Y2054D01*
X1793Y2053D02*
X1870Y2053D01*
X1790Y2052D02*
X1873Y2052D01*
X1788Y2051D02*
X1875Y2051D01*
X1787Y2050D02*
X1877Y2050D01*
X1785Y2049D02*
X1878Y2049D01*
X1784Y2048D02*
X1880Y2048D01*
X1783Y2047D02*
X1881Y2047D01*
X1781Y2046D02*
X1882Y2046D01*
X1780Y2045D02*
X1883Y2045D01*
X1780Y2044D02*
X1827Y2044D01*
X1836Y2044D02*
X1884Y2044D01*
X1779Y2043D02*
X1824Y2043D01*
X1839Y2043D02*
X1885Y2043D01*
X1778Y2042D02*
X1822Y2042D01*
X1842Y2042D02*
X1885Y2042D01*
X1777Y2041D02*
X1820Y2041D01*
X1843Y2041D02*
X1886Y2041D01*
X1777Y2040D02*
X1819Y2040D01*
X1845Y2040D02*
X1887Y2040D01*
X1776Y2039D02*
X1818Y2039D01*
X1846Y2039D02*
X1887Y2039D01*
X1776Y2038D02*
X1817Y2038D01*
X1847Y2038D02*
X1888Y2038D01*
X1775Y2037D02*
X1816Y2037D01*
X1848Y2037D02*
X1888Y2037D01*
X1775Y2036D02*
X1815Y2036D01*
X1848Y2036D02*
X1889Y2036D01*
X1774Y2035D02*
X1814Y2035D01*
X1849Y2035D02*
X1889Y2035D01*
X1774Y2034D02*
X1814Y2034D01*
X1850Y2034D02*
X1890Y2034D01*
X1774Y2033D02*
X1813Y2033D01*
X1850Y2033D02*
X1890Y2033D01*
X1773Y2032D02*
X1813Y2032D01*
X1851Y2032D02*
X1890Y2032D01*
X1773Y2031D02*
X1812Y2031D01*
X1851Y2031D02*
X1890Y2031D01*
X1773Y2030D02*
X1812Y2030D01*
X1851Y2030D02*
X1891Y2030D01*
X1773Y2029D02*
X1812Y2029D01*
X1852Y2029D02*
X1891Y2029D01*
X1772Y2028D02*
X1812Y2028D01*
X1852Y2028D02*
X1891Y2028D01*
X1772Y2027D02*
X1811Y2027D01*
X1852Y2027D02*
X1891Y2027D01*
X1772Y2026D02*
X1811Y2026D01*
X1852Y2026D02*
X1891Y2026D01*
X1772Y2025D02*
X1811Y2025D01*
X1852Y2025D02*
X1891Y2025D01*
X1772Y2024D02*
X1811Y2024D01*
X1852Y2024D02*
X1891Y2024D01*
X1772Y2023D02*
X1811Y2023D01*
X1852Y2023D02*
X1891Y2023D01*
X1772Y2022D02*
X1811Y2022D01*
X1852Y2022D02*
X1891Y2022D01*
X1772Y2021D02*
X1812Y2021D01*
X1852Y2021D02*
X1891Y2021D01*
X1773Y2020D02*
X1812Y2020D01*
X1852Y2020D02*
X1891Y2020D01*
X1773Y2019D02*
X1812Y2019D01*
X1851Y2019D02*
X1891Y2019D01*
X1773Y2018D02*
X1812Y2018D01*
X1851Y2018D02*
X1890Y2018D01*
X1773Y2017D02*
X1813Y2017D01*
X1851Y2017D02*
X1890Y2017D01*
X1773Y2016D02*
X1813Y2016D01*
X1850Y2016D02*
X1890Y2016D01*
X1774Y2015D02*
X1814Y2015D01*
X1850Y2015D02*
X1890Y2015D01*
X1774Y2014D02*
X1814Y2014D01*
X1849Y2014D02*
X1889Y2014D01*
X1775Y2013D02*
X1815Y2013D01*
X1849Y2013D02*
X1889Y2013D01*
X1775Y2012D02*
X1816Y2012D01*
X1848Y2012D02*
X1888Y2012D01*
X1775Y2011D02*
X1816Y2011D01*
X1847Y2011D02*
X1888Y2011D01*
X1776Y2010D02*
X1817Y2010D01*
X1846Y2010D02*
X1887Y2010D01*
X1777Y2009D02*
X1819Y2009D01*
X1845Y2009D02*
X1887Y2009D01*
X1777Y2008D02*
X1820Y2008D01*
X1844Y2008D02*
X1886Y2008D01*
X1778Y2007D02*
X1822Y2007D01*
X1842Y2007D02*
X1886Y2007D01*
X1779Y2006D02*
X1824Y2006D01*
X1840Y2006D02*
X1885Y2006D01*
X1779Y2005D02*
X1827Y2005D01*
X1837Y2005D02*
X1884Y2005D01*
X1780Y2004D02*
X1883Y2004D01*
X1781Y2003D02*
X1882Y2003D01*
X1782Y2002D02*
X1881Y2002D01*
X1784Y2001D02*
X1880Y2001D01*
X1785Y2000D02*
X1879Y2000D01*
X1786Y1999D02*
X1877Y1999D01*
X1788Y1998D02*
X1875Y1998D01*
X1790Y1997D02*
X1873Y1997D01*
X1793Y1996D02*
X1871Y1996D01*
X1796Y1995D02*
X1867Y1995D01*
X1797Y1954D02*
X1866Y1954D01*
X1793Y1953D02*
X1870Y1953D01*
X1790Y1952D02*
X1873Y1952D01*
X1788Y1951D02*
X1875Y1951D01*
X1787Y1950D02*
X1877Y1950D01*
X1785Y1949D02*
X1878Y1949D01*
X1784Y1948D02*
X1880Y1948D01*
X1783Y1947D02*
X1881Y1947D01*
X1781Y1946D02*
X1882Y1946D01*
X1780Y1945D02*
X1883Y1945D01*
X1780Y1944D02*
X1827Y1944D01*
X1836Y1944D02*
X1884Y1944D01*
X1779Y1943D02*
X1824Y1943D01*
X1840Y1943D02*
X1885Y1943D01*
X1778Y1942D02*
X1822Y1942D01*
X1842Y1942D02*
X1885Y1942D01*
X1777Y1941D02*
X1820Y1941D01*
X1843Y1941D02*
X1886Y1941D01*
X1777Y1940D02*
X1819Y1940D01*
X1845Y1940D02*
X1887Y1940D01*
X1776Y1939D02*
X1818Y1939D01*
X1846Y1939D02*
X1887Y1939D01*
X1776Y1938D02*
X1817Y1938D01*
X1847Y1938D02*
X1888Y1938D01*
X1775Y1937D02*
X1816Y1937D01*
X1848Y1937D02*
X1888Y1937D01*
X1775Y1936D02*
X1815Y1936D01*
X1848Y1936D02*
X1889Y1936D01*
X1774Y1935D02*
X1814Y1935D01*
X1849Y1935D02*
X1889Y1935D01*
X1774Y1934D02*
X1814Y1934D01*
X1850Y1934D02*
X1890Y1934D01*
X1773Y1933D02*
X1813Y1933D01*
X1850Y1933D02*
X1890Y1933D01*
X1773Y1932D02*
X1813Y1932D01*
X1851Y1932D02*
X1890Y1932D01*
X1773Y1931D02*
X1812Y1931D01*
X1851Y1931D02*
X1890Y1931D01*
X1773Y1930D02*
X1812Y1930D01*
X1851Y1930D02*
X1891Y1930D01*
X1773Y1929D02*
X1812Y1929D01*
X1852Y1929D02*
X1891Y1929D01*
X1772Y1928D02*
X1812Y1928D01*
X1852Y1928D02*
X1891Y1928D01*
X1772Y1927D02*
X1811Y1927D01*
X1852Y1927D02*
X1891Y1927D01*
X1772Y1926D02*
X1811Y1926D01*
X1852Y1926D02*
X1891Y1926D01*
X1772Y1925D02*
X1811Y1925D01*
X1852Y1925D02*
X1891Y1925D01*
X1772Y1924D02*
X1811Y1924D01*
X1852Y1924D02*
X1891Y1924D01*
X1772Y1923D02*
X1811Y1923D01*
X1852Y1923D02*
X1891Y1923D01*
X1772Y1922D02*
X1811Y1922D01*
X1852Y1922D02*
X1891Y1922D01*
X1772Y1921D02*
X1812Y1921D01*
X1852Y1921D02*
X1891Y1921D01*
X1773Y1920D02*
X1812Y1920D01*
X1852Y1920D02*
X1891Y1920D01*
X1773Y1919D02*
X1812Y1919D01*
X1851Y1919D02*
X1891Y1919D01*
X1773Y1918D02*
X1812Y1918D01*
X1851Y1918D02*
X1890Y1918D01*
X1773Y1917D02*
X1813Y1917D01*
X1851Y1917D02*
X1890Y1917D01*
X1773Y1916D02*
X1813Y1916D01*
X1850Y1916D02*
X1890Y1916D01*
X1774Y1915D02*
X1814Y1915D01*
X1850Y1915D02*
X1890Y1915D01*
X1774Y1914D02*
X1814Y1914D01*
X1849Y1914D02*
X1889Y1914D01*
X1775Y1913D02*
X1815Y1913D01*
X1849Y1913D02*
X1889Y1913D01*
X1775Y1912D02*
X1816Y1912D01*
X1848Y1912D02*
X1888Y1912D01*
X1775Y1911D02*
X1817Y1911D01*
X1847Y1911D02*
X1888Y1911D01*
X1776Y1910D02*
X1817Y1910D01*
X1846Y1910D02*
X1887Y1910D01*
X1777Y1909D02*
X1819Y1909D01*
X1845Y1909D02*
X1887Y1909D01*
X1777Y1908D02*
X1820Y1908D01*
X1844Y1908D02*
X1886Y1908D01*
X1778Y1907D02*
X1822Y1907D01*
X1842Y1907D02*
X1886Y1907D01*
X1779Y1906D02*
X1824Y1906D01*
X1840Y1906D02*
X1885Y1906D01*
X1779Y1905D02*
X1827Y1905D01*
X1837Y1905D02*
X1884Y1905D01*
X1780Y1904D02*
X1883Y1904D01*
X1781Y1903D02*
X1882Y1903D01*
X1782Y1902D02*
X1881Y1902D01*
X1784Y1901D02*
X1880Y1901D01*
X1785Y1900D02*
X1879Y1900D01*
X1786Y1899D02*
X1877Y1899D01*
X1788Y1898D02*
X1875Y1898D01*
X1790Y1897D02*
X1873Y1897D01*
X1793Y1896D02*
X1871Y1896D01*
X1796Y1895D02*
X1867Y1895D01*
X1797Y1854D02*
X1866Y1854D01*
X1793Y1853D02*
X1870Y1853D01*
X1790Y1852D02*
X1873Y1852D01*
X1788Y1851D02*
X1875Y1851D01*
X1787Y1850D02*
X1877Y1850D01*
X1785Y1849D02*
X1878Y1849D01*
X1784Y1848D02*
X1880Y1848D01*
X1782Y1847D02*
X1881Y1847D01*
X1781Y1846D02*
X1882Y1846D01*
X1780Y1845D02*
X1883Y1845D01*
X1780Y1844D02*
X1827Y1844D01*
X1836Y1844D02*
X1884Y1844D01*
X1779Y1843D02*
X1824Y1843D01*
X1840Y1843D02*
X1885Y1843D01*
X1778Y1842D02*
X1822Y1842D01*
X1842Y1842D02*
X1885Y1842D01*
X1777Y1841D02*
X1820Y1841D01*
X1843Y1841D02*
X1886Y1841D01*
X1777Y1840D02*
X1819Y1840D01*
X1845Y1840D02*
X1887Y1840D01*
X1776Y1839D02*
X1818Y1839D01*
X1846Y1839D02*
X1887Y1839D01*
X1776Y1838D02*
X1817Y1838D01*
X1847Y1838D02*
X1888Y1838D01*
X1775Y1837D02*
X1816Y1837D01*
X1848Y1837D02*
X1888Y1837D01*
X1775Y1836D02*
X1815Y1836D01*
X1848Y1836D02*
X1889Y1836D01*
X1774Y1835D02*
X1814Y1835D01*
X1849Y1835D02*
X1889Y1835D01*
X1774Y1834D02*
X1814Y1834D01*
X1850Y1834D02*
X1890Y1834D01*
X1773Y1833D02*
X1813Y1833D01*
X1850Y1833D02*
X1890Y1833D01*
X1773Y1832D02*
X1813Y1832D01*
X1851Y1832D02*
X1890Y1832D01*
X1773Y1831D02*
X1812Y1831D01*
X1851Y1831D02*
X1890Y1831D01*
X1773Y1830D02*
X1812Y1830D01*
X1851Y1830D02*
X1891Y1830D01*
X1773Y1829D02*
X1812Y1829D01*
X1852Y1829D02*
X1891Y1829D01*
X1772Y1828D02*
X1812Y1828D01*
X1852Y1828D02*
X1891Y1828D01*
X1772Y1827D02*
X1811Y1827D01*
X1852Y1827D02*
X1891Y1827D01*
X1772Y1826D02*
X1811Y1826D01*
X1852Y1826D02*
X1891Y1826D01*
X1772Y1825D02*
X1811Y1825D01*
X1852Y1825D02*
X1891Y1825D01*
X1772Y1824D02*
X1811Y1824D01*
X1852Y1824D02*
X1891Y1824D01*
X1772Y1823D02*
X1811Y1823D01*
X1852Y1823D02*
X1891Y1823D01*
X1772Y1822D02*
X1811Y1822D01*
X1852Y1822D02*
X1891Y1822D01*
X1772Y1821D02*
X1812Y1821D01*
X1852Y1821D02*
X1891Y1821D01*
X1773Y1820D02*
X1812Y1820D01*
X1852Y1820D02*
X1891Y1820D01*
X1773Y1819D02*
X1812Y1819D01*
X1851Y1819D02*
X1891Y1819D01*
X1773Y1818D02*
X1812Y1818D01*
X1851Y1818D02*
X1890Y1818D01*
X1773Y1817D02*
X1813Y1817D01*
X1851Y1817D02*
X1890Y1817D01*
X1773Y1816D02*
X1813Y1816D01*
X1850Y1816D02*
X1890Y1816D01*
X1774Y1815D02*
X1814Y1815D01*
X1850Y1815D02*
X1890Y1815D01*
X1774Y1814D02*
X1814Y1814D01*
X1849Y1814D02*
X1889Y1814D01*
X1775Y1813D02*
X1815Y1813D01*
X1849Y1813D02*
X1889Y1813D01*
X1775Y1812D02*
X1816Y1812D01*
X1848Y1812D02*
X1888Y1812D01*
X1775Y1811D02*
X1817Y1811D01*
X1847Y1811D02*
X1888Y1811D01*
X1776Y1810D02*
X1817Y1810D01*
X1846Y1810D02*
X1887Y1810D01*
X1777Y1809D02*
X1819Y1809D01*
X1845Y1809D02*
X1887Y1809D01*
X1777Y1808D02*
X1820Y1808D01*
X1844Y1808D02*
X1886Y1808D01*
X1778Y1807D02*
X1822Y1807D01*
X1842Y1807D02*
X1886Y1807D01*
X1779Y1806D02*
X1824Y1806D01*
X1840Y1806D02*
X1885Y1806D01*
X1779Y1805D02*
X1827Y1805D01*
X1837Y1805D02*
X1884Y1805D01*
X1780Y1804D02*
X1883Y1804D01*
X1781Y1803D02*
X1882Y1803D01*
X1782Y1802D02*
X1881Y1802D01*
X1784Y1801D02*
X1880Y1801D01*
X1785Y1800D02*
X1879Y1800D01*
X1786Y1799D02*
X1877Y1799D01*
X1788Y1798D02*
X1875Y1798D01*
X1790Y1797D02*
X1873Y1797D01*
X1793Y1796D02*
X1871Y1796D01*
X1796Y1795D02*
X1867Y1795D01*
D02*
G04 End of Copper0*
M02*