G04 MADE WITH FRITZING*
G04 WWW.FRITZING.ORG*
G04 DOUBLE SIDED*
G04 HOLES PLATED*
G04 CONTOUR ON CENTER OF CONTOUR VECTOR*
%ASAXBY*%
%FSLAX23Y23*%
%MOIN*%
%OFA0B0*%
%SFA1.0B1.0*%
%ADD10C,0.075000*%
%ADD11C,0.070000*%
%ADD12C,0.078000*%
%ADD13R,0.069972X0.070000*%
%ADD14R,0.078000X0.078000*%
%ADD15C,0.024000*%
%ADD16C,0.000100*%
%LNCOPPER0*%
G90*
G70*
G54D10*
X1427Y2991D03*
X1434Y2115D03*
X1935Y1532D03*
X524Y1106D03*
X123Y3336D03*
G54D11*
X732Y1824D03*
X732Y1724D03*
X732Y1624D03*
X732Y1524D03*
X732Y1424D03*
X732Y1324D03*
X732Y1224D03*
X732Y1124D03*
X732Y1024D03*
X732Y924D03*
X732Y824D03*
X732Y724D03*
X732Y624D03*
X732Y524D03*
X732Y424D03*
X1332Y1824D03*
X1332Y1724D03*
X1332Y1624D03*
X1332Y1524D03*
X1332Y1424D03*
X1332Y1324D03*
X1332Y1224D03*
X1332Y1124D03*
X1332Y1024D03*
X1332Y924D03*
X1332Y824D03*
X1332Y724D03*
X1332Y624D03*
X1332Y524D03*
X1332Y424D03*
G54D10*
X2543Y525D03*
X2287Y525D03*
X2543Y702D03*
X2287Y702D03*
X1988Y524D03*
X1732Y524D03*
X1988Y701D03*
X1732Y701D03*
X1032Y2124D03*
X1332Y2124D03*
X1032Y2024D03*
X1332Y2024D03*
X432Y1324D03*
X432Y1624D03*
X932Y1924D03*
X932Y2224D03*
X832Y1924D03*
X832Y2224D03*
X632Y1224D03*
X632Y1524D03*
X532Y1324D03*
X532Y1624D03*
X332Y1324D03*
X332Y1624D03*
G54D12*
X1632Y3124D03*
X1532Y3124D03*
X1432Y3124D03*
X1332Y3124D03*
X1232Y3124D03*
X1132Y3124D03*
X1132Y2224D03*
X1232Y2224D03*
X1332Y2224D03*
X1432Y2224D03*
X1532Y2224D03*
X1632Y2224D03*
X2032Y1724D03*
X2032Y1624D03*
X2032Y1524D03*
G54D11*
X1532Y1524D03*
X1532Y1724D03*
G54D13*
X732Y1824D03*
G54D14*
X2032Y1724D03*
G54D15*
X1970Y701D02*
X1749Y701D01*
D02*
X1970Y524D02*
X1749Y524D01*
D02*
X2526Y702D02*
X2305Y702D01*
D02*
X2526Y525D02*
X2305Y525D01*
D02*
X2633Y524D02*
X2633Y1725D01*
D02*
X2633Y1725D02*
X2051Y1724D01*
D02*
X2561Y525D02*
X2633Y524D01*
D02*
X2005Y524D02*
X2270Y525D01*
D02*
X2031Y1424D02*
X1350Y1424D01*
D02*
X2032Y1505D02*
X2031Y1424D01*
D02*
X2013Y1620D02*
X1547Y1527D01*
D02*
X2013Y1724D02*
X1547Y1724D01*
D02*
X1517Y1724D02*
X1350Y1724D01*
D02*
X1517Y1524D02*
X1350Y1524D01*
D02*
X1733Y726D02*
X1350Y724D01*
D02*
X1733Y719D02*
X1733Y726D01*
D02*
X2287Y824D02*
X1350Y824D01*
D02*
X2287Y719D02*
X2287Y824D01*
D02*
X1432Y3223D02*
X132Y3223D01*
D02*
X132Y3223D02*
X132Y524D01*
D02*
X1432Y3143D02*
X1432Y3223D01*
D02*
X132Y524D02*
X714Y524D01*
D02*
X1113Y3124D02*
X231Y3124D01*
D02*
X231Y3124D02*
X231Y623D01*
D02*
X231Y623D02*
X714Y624D01*
D02*
X1531Y2026D02*
X1349Y2024D01*
D02*
X1532Y2205D02*
X1531Y2026D01*
D02*
X750Y824D02*
X1032Y825D01*
D02*
X1032Y825D02*
X1032Y2007D01*
D02*
X1332Y2205D02*
X1332Y2142D01*
D02*
X1113Y2224D02*
X949Y2224D01*
D02*
X932Y1907D02*
X933Y1023D01*
D02*
X933Y1023D02*
X750Y1024D01*
D02*
X1230Y2323D02*
X833Y2323D01*
D02*
X833Y2323D02*
X832Y2242D01*
D02*
X1232Y2243D02*
X1230Y2323D01*
D02*
X833Y1123D02*
X832Y1907D01*
D02*
X750Y1124D02*
X833Y1123D01*
D02*
X649Y1224D02*
X714Y1224D01*
D02*
X1432Y2423D02*
X632Y2423D01*
D02*
X632Y2423D02*
X632Y1542D01*
D02*
X1432Y2243D02*
X1432Y2423D01*
D02*
X432Y1307D02*
X433Y924D01*
D02*
X433Y924D02*
X714Y924D01*
D02*
X532Y2823D02*
X532Y1642D01*
D02*
X1631Y2823D02*
X532Y2823D01*
D02*
X1632Y3105D02*
X1631Y2823D01*
D02*
X331Y3025D02*
X332Y1642D01*
D02*
X1230Y3025D02*
X331Y3025D01*
D02*
X1232Y3105D02*
X1230Y3025D01*
D02*
X549Y1324D02*
X714Y1324D01*
D02*
X714Y1424D02*
X331Y1424D01*
D02*
X331Y1424D02*
X332Y1342D01*
D02*
X1333Y2925D02*
X433Y2925D01*
D02*
X433Y2925D02*
X432Y1642D01*
D02*
X1332Y3105D02*
X1333Y2925D01*
D02*
X1131Y2125D02*
X1131Y726D01*
D02*
X1131Y726D02*
X750Y724D01*
D02*
X1049Y2124D02*
X1131Y2125D01*
G54D16*
G36*
X56Y3503D02*
X56Y3501D01*
X52Y3501D01*
X52Y3499D01*
X50Y3499D01*
X50Y3497D01*
X48Y3497D01*
X48Y3495D01*
X46Y3495D01*
X46Y3493D01*
X44Y3493D01*
X44Y3491D01*
X42Y3491D01*
X42Y3487D01*
X40Y3487D01*
X40Y3459D01*
X42Y3459D01*
X42Y3455D01*
X44Y3455D01*
X44Y3453D01*
X46Y3453D01*
X46Y3449D01*
X48Y3449D01*
X48Y3447D01*
X52Y3447D01*
X52Y3445D01*
X54Y3445D01*
X54Y3443D01*
X58Y3443D01*
X58Y3441D01*
X84Y3441D01*
X84Y3443D01*
X88Y3443D01*
X88Y3445D01*
X92Y3445D01*
X92Y3447D01*
X94Y3447D01*
X94Y3449D01*
X96Y3449D01*
X96Y3451D01*
X98Y3451D01*
X98Y3455D01*
X100Y3455D01*
X100Y3457D01*
X102Y3457D01*
X102Y3463D01*
X104Y3463D01*
X104Y3483D01*
X102Y3483D01*
X102Y3487D01*
X100Y3487D01*
X100Y3491D01*
X98Y3491D01*
X98Y3493D01*
X96Y3493D01*
X96Y3495D01*
X94Y3495D01*
X94Y3497D01*
X92Y3497D01*
X92Y3499D01*
X90Y3499D01*
X90Y3501D01*
X86Y3501D01*
X86Y3503D01*
X56Y3503D01*
G37*
D02*
G36*
X2670Y3501D02*
X2670Y3499D01*
X2666Y3499D01*
X2666Y3497D01*
X2664Y3497D01*
X2664Y3495D01*
X2660Y3495D01*
X2660Y3493D01*
X2658Y3493D01*
X2658Y3489D01*
X2656Y3489D01*
X2656Y3487D01*
X2654Y3487D01*
X2654Y3483D01*
X2652Y3483D01*
X2652Y3455D01*
X2654Y3455D01*
X2654Y3451D01*
X2656Y3451D01*
X2656Y3449D01*
X2658Y3449D01*
X2658Y3447D01*
X2660Y3447D01*
X2660Y3445D01*
X2662Y3445D01*
X2662Y3443D01*
X2664Y3443D01*
X2664Y3441D01*
X2668Y3441D01*
X2668Y3439D01*
X2672Y3439D01*
X2672Y3437D01*
X2694Y3437D01*
X2694Y3439D01*
X2698Y3439D01*
X2698Y3441D01*
X2702Y3441D01*
X2702Y3443D01*
X2704Y3443D01*
X2704Y3445D01*
X2706Y3445D01*
X2706Y3447D01*
X2708Y3447D01*
X2708Y3449D01*
X2710Y3449D01*
X2710Y3451D01*
X2712Y3451D01*
X2712Y3455D01*
X2714Y3455D01*
X2714Y3485D01*
X2712Y3485D01*
X2712Y3487D01*
X2710Y3487D01*
X2710Y3491D01*
X2708Y3491D01*
X2708Y3493D01*
X2706Y3493D01*
X2706Y3495D01*
X2702Y3495D01*
X2702Y3497D01*
X2700Y3497D01*
X2700Y3499D01*
X2696Y3499D01*
X2696Y3501D01*
X2670Y3501D01*
G37*
D02*
G36*
X154Y3201D02*
X154Y3173D01*
X1340Y3173D01*
X1340Y3171D01*
X1348Y3171D01*
X1348Y3169D01*
X1352Y3169D01*
X1352Y3167D01*
X1356Y3167D01*
X1356Y3165D01*
X1360Y3165D01*
X1360Y3163D01*
X1362Y3163D01*
X1362Y3161D01*
X1364Y3161D01*
X1364Y3159D01*
X1366Y3159D01*
X1366Y3157D01*
X1368Y3157D01*
X1368Y3155D01*
X1370Y3155D01*
X1370Y3153D01*
X1372Y3153D01*
X1372Y3151D01*
X1392Y3151D01*
X1392Y3153D01*
X1394Y3153D01*
X1394Y3155D01*
X1396Y3155D01*
X1396Y3159D01*
X1400Y3159D01*
X1400Y3161D01*
X1402Y3161D01*
X1402Y3163D01*
X1404Y3163D01*
X1404Y3165D01*
X1408Y3165D01*
X1408Y3167D01*
X1410Y3167D01*
X1410Y3201D01*
X154Y3201D01*
G37*
D02*
G36*
X154Y3173D02*
X154Y545D01*
X692Y545D01*
X692Y547D01*
X694Y547D01*
X694Y549D01*
X696Y549D01*
X696Y551D01*
X698Y551D01*
X698Y555D01*
X700Y555D01*
X700Y557D01*
X702Y557D01*
X702Y559D01*
X706Y559D01*
X706Y561D01*
X708Y561D01*
X708Y563D01*
X712Y563D01*
X712Y585D01*
X708Y585D01*
X708Y587D01*
X704Y587D01*
X704Y589D01*
X702Y589D01*
X702Y591D01*
X700Y591D01*
X700Y593D01*
X698Y593D01*
X698Y595D01*
X696Y595D01*
X696Y599D01*
X694Y599D01*
X694Y601D01*
X224Y601D01*
X224Y603D01*
X220Y603D01*
X220Y605D01*
X218Y605D01*
X218Y607D01*
X216Y607D01*
X216Y609D01*
X214Y609D01*
X214Y611D01*
X212Y611D01*
X212Y615D01*
X210Y615D01*
X210Y3131D01*
X212Y3131D01*
X212Y3135D01*
X214Y3135D01*
X214Y3139D01*
X216Y3139D01*
X216Y3141D01*
X220Y3141D01*
X220Y3143D01*
X224Y3143D01*
X224Y3145D01*
X1088Y3145D01*
X1088Y3147D01*
X1090Y3147D01*
X1090Y3151D01*
X1092Y3151D01*
X1092Y3153D01*
X1094Y3153D01*
X1094Y3155D01*
X1096Y3155D01*
X1096Y3159D01*
X1100Y3159D01*
X1100Y3161D01*
X1102Y3161D01*
X1102Y3163D01*
X1104Y3163D01*
X1104Y3165D01*
X1108Y3165D01*
X1108Y3167D01*
X1112Y3167D01*
X1112Y3169D01*
X1116Y3169D01*
X1116Y3171D01*
X1124Y3171D01*
X1124Y3173D01*
X154Y3173D01*
G37*
D02*
G36*
X1140Y3173D02*
X1140Y3171D01*
X1148Y3171D01*
X1148Y3169D01*
X1152Y3169D01*
X1152Y3167D01*
X1156Y3167D01*
X1156Y3165D01*
X1160Y3165D01*
X1160Y3163D01*
X1162Y3163D01*
X1162Y3161D01*
X1164Y3161D01*
X1164Y3159D01*
X1166Y3159D01*
X1166Y3157D01*
X1168Y3157D01*
X1168Y3155D01*
X1170Y3155D01*
X1170Y3153D01*
X1172Y3153D01*
X1172Y3151D01*
X1192Y3151D01*
X1192Y3153D01*
X1194Y3153D01*
X1194Y3155D01*
X1196Y3155D01*
X1196Y3159D01*
X1200Y3159D01*
X1200Y3161D01*
X1202Y3161D01*
X1202Y3163D01*
X1204Y3163D01*
X1204Y3165D01*
X1208Y3165D01*
X1208Y3167D01*
X1212Y3167D01*
X1212Y3169D01*
X1216Y3169D01*
X1216Y3171D01*
X1224Y3171D01*
X1224Y3173D01*
X1140Y3173D01*
G37*
D02*
G36*
X1240Y3173D02*
X1240Y3171D01*
X1248Y3171D01*
X1248Y3169D01*
X1252Y3169D01*
X1252Y3167D01*
X1256Y3167D01*
X1256Y3165D01*
X1260Y3165D01*
X1260Y3163D01*
X1262Y3163D01*
X1262Y3161D01*
X1264Y3161D01*
X1264Y3159D01*
X1266Y3159D01*
X1266Y3157D01*
X1268Y3157D01*
X1268Y3155D01*
X1270Y3155D01*
X1270Y3153D01*
X1272Y3153D01*
X1272Y3151D01*
X1292Y3151D01*
X1292Y3153D01*
X1294Y3153D01*
X1294Y3155D01*
X1296Y3155D01*
X1296Y3159D01*
X1300Y3159D01*
X1300Y3161D01*
X1302Y3161D01*
X1302Y3163D01*
X1304Y3163D01*
X1304Y3165D01*
X1308Y3165D01*
X1308Y3167D01*
X1312Y3167D01*
X1312Y3169D01*
X1316Y3169D01*
X1316Y3171D01*
X1324Y3171D01*
X1324Y3173D01*
X1240Y3173D01*
G37*
D02*
G36*
X1272Y3097D02*
X1272Y3095D01*
X1270Y3095D01*
X1270Y3093D01*
X1268Y3093D01*
X1268Y3089D01*
X1266Y3089D01*
X1266Y3087D01*
X1262Y3087D01*
X1262Y3085D01*
X1260Y3085D01*
X1260Y3083D01*
X1256Y3083D01*
X1256Y3081D01*
X1254Y3081D01*
X1254Y3069D01*
X1252Y3069D01*
X1252Y3017D01*
X1250Y3017D01*
X1250Y3013D01*
X1248Y3013D01*
X1248Y3011D01*
X1246Y3011D01*
X1246Y3007D01*
X1242Y3007D01*
X1242Y3005D01*
X1238Y3005D01*
X1238Y3003D01*
X352Y3003D01*
X352Y2565D01*
X354Y2565D01*
X354Y1665D01*
X356Y1665D01*
X356Y1663D01*
X360Y1663D01*
X360Y1661D01*
X362Y1661D01*
X362Y1659D01*
X364Y1659D01*
X364Y1657D01*
X366Y1657D01*
X366Y1655D01*
X368Y1655D01*
X368Y1653D01*
X370Y1653D01*
X370Y1651D01*
X372Y1651D01*
X372Y1647D01*
X392Y1647D01*
X392Y1651D01*
X394Y1651D01*
X394Y1653D01*
X396Y1653D01*
X396Y1655D01*
X398Y1655D01*
X398Y1657D01*
X400Y1657D01*
X400Y1659D01*
X402Y1659D01*
X402Y1661D01*
X404Y1661D01*
X404Y1663D01*
X406Y1663D01*
X406Y1665D01*
X410Y1665D01*
X410Y2869D01*
X412Y2869D01*
X412Y2933D01*
X414Y2933D01*
X414Y2937D01*
X416Y2937D01*
X416Y2939D01*
X418Y2939D01*
X418Y2941D01*
X420Y2941D01*
X420Y2943D01*
X422Y2943D01*
X422Y2945D01*
X426Y2945D01*
X426Y2947D01*
X1310Y2947D01*
X1310Y3081D01*
X1306Y3081D01*
X1306Y3083D01*
X1304Y3083D01*
X1304Y3085D01*
X1302Y3085D01*
X1302Y3087D01*
X1298Y3087D01*
X1298Y3089D01*
X1296Y3089D01*
X1296Y3091D01*
X1294Y3091D01*
X1294Y3095D01*
X1292Y3095D01*
X1292Y3097D01*
X1272Y3097D01*
G37*
D02*
G36*
X1372Y3097D02*
X1372Y3095D01*
X1370Y3095D01*
X1370Y3093D01*
X1368Y3093D01*
X1368Y3089D01*
X1366Y3089D01*
X1366Y3087D01*
X1362Y3087D01*
X1362Y3085D01*
X1360Y3085D01*
X1360Y3083D01*
X1356Y3083D01*
X1356Y3081D01*
X1354Y3081D01*
X1354Y3075D01*
X1422Y3075D01*
X1422Y3077D01*
X1414Y3077D01*
X1414Y3079D01*
X1410Y3079D01*
X1410Y3081D01*
X1406Y3081D01*
X1406Y3083D01*
X1404Y3083D01*
X1404Y3085D01*
X1402Y3085D01*
X1402Y3087D01*
X1398Y3087D01*
X1398Y3089D01*
X1396Y3089D01*
X1396Y3091D01*
X1394Y3091D01*
X1394Y3095D01*
X1392Y3095D01*
X1392Y3097D01*
X1372Y3097D01*
G37*
D02*
G36*
X1472Y3097D02*
X1472Y3095D01*
X1470Y3095D01*
X1470Y3093D01*
X1468Y3093D01*
X1468Y3089D01*
X1466Y3089D01*
X1466Y3087D01*
X1462Y3087D01*
X1462Y3085D01*
X1460Y3085D01*
X1460Y3083D01*
X1456Y3083D01*
X1456Y3081D01*
X1454Y3081D01*
X1454Y3079D01*
X1448Y3079D01*
X1448Y3077D01*
X1442Y3077D01*
X1442Y3075D01*
X1522Y3075D01*
X1522Y3077D01*
X1514Y3077D01*
X1514Y3079D01*
X1510Y3079D01*
X1510Y3081D01*
X1506Y3081D01*
X1506Y3083D01*
X1504Y3083D01*
X1504Y3085D01*
X1502Y3085D01*
X1502Y3087D01*
X1498Y3087D01*
X1498Y3089D01*
X1496Y3089D01*
X1496Y3091D01*
X1494Y3091D01*
X1494Y3095D01*
X1492Y3095D01*
X1492Y3097D01*
X1472Y3097D01*
G37*
D02*
G36*
X1572Y3097D02*
X1572Y3095D01*
X1570Y3095D01*
X1570Y3093D01*
X1568Y3093D01*
X1568Y3089D01*
X1566Y3089D01*
X1566Y3087D01*
X1562Y3087D01*
X1562Y3085D01*
X1560Y3085D01*
X1560Y3083D01*
X1556Y3083D01*
X1556Y3081D01*
X1554Y3081D01*
X1554Y3079D01*
X1548Y3079D01*
X1548Y3077D01*
X1542Y3077D01*
X1542Y3075D01*
X1610Y3075D01*
X1610Y3081D01*
X1606Y3081D01*
X1606Y3083D01*
X1604Y3083D01*
X1604Y3085D01*
X1602Y3085D01*
X1602Y3087D01*
X1598Y3087D01*
X1598Y3089D01*
X1596Y3089D01*
X1596Y3091D01*
X1594Y3091D01*
X1594Y3095D01*
X1592Y3095D01*
X1592Y3097D01*
X1572Y3097D01*
G37*
D02*
G36*
X1354Y3075D02*
X1354Y3073D01*
X1610Y3073D01*
X1610Y3075D01*
X1354Y3075D01*
G37*
D02*
G36*
X1354Y3075D02*
X1354Y3073D01*
X1610Y3073D01*
X1610Y3075D01*
X1354Y3075D01*
G37*
D02*
G36*
X1354Y3075D02*
X1354Y3073D01*
X1610Y3073D01*
X1610Y3075D01*
X1354Y3075D01*
G37*
D02*
G36*
X1354Y3073D02*
X1354Y2917D01*
X1352Y2917D01*
X1352Y2913D01*
X1350Y2913D01*
X1350Y2911D01*
X1348Y2911D01*
X1348Y2909D01*
X1346Y2909D01*
X1346Y2907D01*
X1344Y2907D01*
X1344Y2905D01*
X1338Y2905D01*
X1338Y2903D01*
X456Y2903D01*
X456Y2859D01*
X454Y2859D01*
X454Y1665D01*
X456Y1665D01*
X456Y1663D01*
X460Y1663D01*
X460Y1661D01*
X462Y1661D01*
X462Y1659D01*
X464Y1659D01*
X464Y1657D01*
X466Y1657D01*
X466Y1655D01*
X468Y1655D01*
X468Y1653D01*
X470Y1653D01*
X470Y1651D01*
X472Y1651D01*
X472Y1647D01*
X492Y1647D01*
X492Y1651D01*
X494Y1651D01*
X494Y1653D01*
X496Y1653D01*
X496Y1655D01*
X498Y1655D01*
X498Y1657D01*
X500Y1657D01*
X500Y1659D01*
X502Y1659D01*
X502Y1661D01*
X504Y1661D01*
X504Y1663D01*
X506Y1663D01*
X506Y1665D01*
X510Y1665D01*
X510Y2827D01*
X512Y2827D01*
X512Y2833D01*
X514Y2833D01*
X514Y2835D01*
X516Y2835D01*
X516Y2839D01*
X520Y2839D01*
X520Y2841D01*
X522Y2841D01*
X522Y2843D01*
X528Y2843D01*
X528Y2845D01*
X1608Y2845D01*
X1608Y2925D01*
X1610Y2925D01*
X1610Y3073D01*
X1354Y3073D01*
G37*
D02*
G36*
X854Y2301D02*
X854Y2273D01*
X1140Y2273D01*
X1140Y2271D01*
X1148Y2271D01*
X1148Y2269D01*
X1152Y2269D01*
X1152Y2267D01*
X1156Y2267D01*
X1156Y2265D01*
X1160Y2265D01*
X1160Y2263D01*
X1162Y2263D01*
X1162Y2261D01*
X1164Y2261D01*
X1164Y2259D01*
X1166Y2259D01*
X1166Y2257D01*
X1168Y2257D01*
X1168Y2255D01*
X1170Y2255D01*
X1170Y2253D01*
X1172Y2253D01*
X1172Y2251D01*
X1192Y2251D01*
X1192Y2253D01*
X1194Y2253D01*
X1194Y2255D01*
X1196Y2255D01*
X1196Y2259D01*
X1200Y2259D01*
X1200Y2261D01*
X1202Y2261D01*
X1202Y2263D01*
X1204Y2263D01*
X1204Y2265D01*
X1208Y2265D01*
X1208Y2301D01*
X854Y2301D01*
G37*
D02*
G36*
X854Y2273D02*
X854Y2271D01*
X942Y2271D01*
X942Y2269D01*
X948Y2269D01*
X948Y2267D01*
X954Y2267D01*
X954Y2265D01*
X956Y2265D01*
X956Y2263D01*
X960Y2263D01*
X960Y2261D01*
X962Y2261D01*
X962Y2259D01*
X964Y2259D01*
X964Y2257D01*
X966Y2257D01*
X966Y2255D01*
X968Y2255D01*
X968Y2253D01*
X970Y2253D01*
X970Y2251D01*
X972Y2251D01*
X972Y2247D01*
X974Y2247D01*
X974Y2245D01*
X1088Y2245D01*
X1088Y2247D01*
X1090Y2247D01*
X1090Y2251D01*
X1092Y2251D01*
X1092Y2253D01*
X1094Y2253D01*
X1094Y2255D01*
X1096Y2255D01*
X1096Y2259D01*
X1100Y2259D01*
X1100Y2261D01*
X1102Y2261D01*
X1102Y2263D01*
X1104Y2263D01*
X1104Y2265D01*
X1108Y2265D01*
X1108Y2267D01*
X1112Y2267D01*
X1112Y2269D01*
X1116Y2269D01*
X1116Y2271D01*
X1124Y2271D01*
X1124Y2273D01*
X854Y2273D01*
G37*
D02*
G36*
X854Y2271D02*
X854Y2265D01*
X856Y2265D01*
X856Y2263D01*
X860Y2263D01*
X860Y2261D01*
X862Y2261D01*
X862Y2259D01*
X864Y2259D01*
X864Y2257D01*
X866Y2257D01*
X866Y2255D01*
X868Y2255D01*
X868Y2253D01*
X870Y2253D01*
X870Y2251D01*
X872Y2251D01*
X872Y2247D01*
X892Y2247D01*
X892Y2251D01*
X894Y2251D01*
X894Y2253D01*
X896Y2253D01*
X896Y2255D01*
X898Y2255D01*
X898Y2257D01*
X900Y2257D01*
X900Y2259D01*
X902Y2259D01*
X902Y2261D01*
X904Y2261D01*
X904Y2263D01*
X906Y2263D01*
X906Y2265D01*
X910Y2265D01*
X910Y2267D01*
X914Y2267D01*
X914Y2269D01*
X922Y2269D01*
X922Y2271D01*
X854Y2271D01*
G37*
D02*
G36*
X1372Y2197D02*
X1372Y2195D01*
X1370Y2195D01*
X1370Y2193D01*
X1368Y2193D01*
X1368Y2189D01*
X1366Y2189D01*
X1366Y2187D01*
X1362Y2187D01*
X1362Y2185D01*
X1360Y2185D01*
X1360Y2183D01*
X1356Y2183D01*
X1356Y2175D01*
X1422Y2175D01*
X1422Y2177D01*
X1414Y2177D01*
X1414Y2179D01*
X1410Y2179D01*
X1410Y2181D01*
X1406Y2181D01*
X1406Y2183D01*
X1404Y2183D01*
X1404Y2185D01*
X1402Y2185D01*
X1402Y2187D01*
X1398Y2187D01*
X1398Y2189D01*
X1396Y2189D01*
X1396Y2191D01*
X1394Y2191D01*
X1394Y2195D01*
X1392Y2195D01*
X1392Y2197D01*
X1372Y2197D01*
G37*
D02*
G36*
X1472Y2197D02*
X1472Y2195D01*
X1470Y2195D01*
X1470Y2193D01*
X1468Y2193D01*
X1468Y2189D01*
X1466Y2189D01*
X1466Y2187D01*
X1462Y2187D01*
X1462Y2185D01*
X1460Y2185D01*
X1460Y2183D01*
X1456Y2183D01*
X1456Y2181D01*
X1454Y2181D01*
X1454Y2179D01*
X1448Y2179D01*
X1448Y2177D01*
X1442Y2177D01*
X1442Y2175D01*
X1510Y2175D01*
X1510Y2181D01*
X1506Y2181D01*
X1506Y2183D01*
X1504Y2183D01*
X1504Y2185D01*
X1502Y2185D01*
X1502Y2187D01*
X1498Y2187D01*
X1498Y2189D01*
X1496Y2189D01*
X1496Y2191D01*
X1494Y2191D01*
X1494Y2195D01*
X1492Y2195D01*
X1492Y2197D01*
X1472Y2197D01*
G37*
D02*
G36*
X1356Y2175D02*
X1356Y2173D01*
X1510Y2173D01*
X1510Y2175D01*
X1356Y2175D01*
G37*
D02*
G36*
X1356Y2175D02*
X1356Y2173D01*
X1510Y2173D01*
X1510Y2175D01*
X1356Y2175D01*
G37*
D02*
G36*
X1356Y2173D02*
X1356Y2163D01*
X1360Y2163D01*
X1360Y2161D01*
X1362Y2161D01*
X1362Y2159D01*
X1364Y2159D01*
X1364Y2157D01*
X1366Y2157D01*
X1366Y2155D01*
X1368Y2155D01*
X1368Y2153D01*
X1370Y2153D01*
X1370Y2151D01*
X1372Y2151D01*
X1372Y2147D01*
X1374Y2147D01*
X1374Y2143D01*
X1376Y2143D01*
X1376Y2137D01*
X1378Y2137D01*
X1378Y2129D01*
X1380Y2129D01*
X1380Y2119D01*
X1378Y2119D01*
X1378Y2111D01*
X1376Y2111D01*
X1376Y2105D01*
X1374Y2105D01*
X1374Y2101D01*
X1372Y2101D01*
X1372Y2097D01*
X1370Y2097D01*
X1370Y2095D01*
X1368Y2095D01*
X1368Y2093D01*
X1366Y2093D01*
X1366Y2089D01*
X1362Y2089D01*
X1362Y2087D01*
X1360Y2087D01*
X1360Y2085D01*
X1358Y2085D01*
X1358Y2083D01*
X1356Y2083D01*
X1356Y2063D01*
X1360Y2063D01*
X1360Y2061D01*
X1362Y2061D01*
X1362Y2059D01*
X1364Y2059D01*
X1364Y2057D01*
X1366Y2057D01*
X1366Y2055D01*
X1368Y2055D01*
X1368Y2053D01*
X1370Y2053D01*
X1370Y2051D01*
X1372Y2051D01*
X1372Y2047D01*
X1510Y2047D01*
X1510Y2173D01*
X1356Y2173D01*
G37*
D02*
G36*
X1074Y2103D02*
X1074Y2101D01*
X1072Y2101D01*
X1072Y2097D01*
X1070Y2097D01*
X1070Y2095D01*
X1068Y2095D01*
X1068Y2093D01*
X1066Y2093D01*
X1066Y2089D01*
X1062Y2089D01*
X1062Y2087D01*
X1060Y2087D01*
X1060Y2085D01*
X1058Y2085D01*
X1058Y2083D01*
X1056Y2083D01*
X1056Y2063D01*
X1060Y2063D01*
X1060Y2061D01*
X1062Y2061D01*
X1062Y2059D01*
X1064Y2059D01*
X1064Y2057D01*
X1066Y2057D01*
X1066Y2055D01*
X1068Y2055D01*
X1068Y2053D01*
X1070Y2053D01*
X1070Y2051D01*
X1072Y2051D01*
X1072Y2047D01*
X1074Y2047D01*
X1074Y2043D01*
X1076Y2043D01*
X1076Y2037D01*
X1078Y2037D01*
X1078Y2029D01*
X1080Y2029D01*
X1080Y2019D01*
X1078Y2019D01*
X1078Y2011D01*
X1076Y2011D01*
X1076Y2005D01*
X1074Y2005D01*
X1074Y2001D01*
X1072Y2001D01*
X1072Y1997D01*
X1070Y1997D01*
X1070Y1995D01*
X1068Y1995D01*
X1068Y1993D01*
X1066Y1993D01*
X1066Y1989D01*
X1062Y1989D01*
X1062Y1987D01*
X1060Y1987D01*
X1060Y1985D01*
X1058Y1985D01*
X1058Y1983D01*
X1054Y1983D01*
X1054Y819D01*
X1052Y819D01*
X1052Y813D01*
X1050Y813D01*
X1050Y811D01*
X1048Y811D01*
X1048Y809D01*
X1046Y809D01*
X1046Y807D01*
X1044Y807D01*
X1044Y805D01*
X1040Y805D01*
X1040Y803D01*
X814Y803D01*
X814Y801D01*
X770Y801D01*
X770Y799D01*
X768Y799D01*
X768Y797D01*
X766Y797D01*
X766Y793D01*
X764Y793D01*
X764Y791D01*
X762Y791D01*
X762Y789D01*
X758Y789D01*
X758Y787D01*
X756Y787D01*
X756Y785D01*
X752Y785D01*
X752Y763D01*
X756Y763D01*
X756Y761D01*
X758Y761D01*
X758Y759D01*
X760Y759D01*
X760Y757D01*
X764Y757D01*
X764Y753D01*
X766Y753D01*
X766Y751D01*
X768Y751D01*
X768Y749D01*
X770Y749D01*
X770Y747D01*
X1110Y747D01*
X1110Y2103D01*
X1074Y2103D01*
G37*
D02*
G36*
X872Y1901D02*
X872Y1897D01*
X870Y1897D01*
X870Y1895D01*
X868Y1895D01*
X868Y1893D01*
X866Y1893D01*
X866Y1889D01*
X862Y1889D01*
X862Y1887D01*
X860Y1887D01*
X860Y1885D01*
X858Y1885D01*
X858Y1883D01*
X854Y1883D01*
X854Y1293D01*
X856Y1293D01*
X856Y1119D01*
X854Y1119D01*
X854Y1113D01*
X852Y1113D01*
X852Y1109D01*
X850Y1109D01*
X850Y1107D01*
X848Y1107D01*
X848Y1105D01*
X846Y1105D01*
X846Y1103D01*
X842Y1103D01*
X842Y1101D01*
X770Y1101D01*
X770Y1099D01*
X768Y1099D01*
X768Y1097D01*
X766Y1097D01*
X766Y1093D01*
X764Y1093D01*
X764Y1091D01*
X762Y1091D01*
X762Y1089D01*
X758Y1089D01*
X758Y1087D01*
X756Y1087D01*
X756Y1085D01*
X752Y1085D01*
X752Y1063D01*
X756Y1063D01*
X756Y1061D01*
X758Y1061D01*
X758Y1059D01*
X760Y1059D01*
X760Y1057D01*
X764Y1057D01*
X764Y1053D01*
X766Y1053D01*
X766Y1051D01*
X768Y1051D01*
X768Y1049D01*
X770Y1049D01*
X770Y1045D01*
X910Y1045D01*
X910Y1883D01*
X906Y1883D01*
X906Y1885D01*
X904Y1885D01*
X904Y1887D01*
X900Y1887D01*
X900Y1889D01*
X898Y1889D01*
X898Y1891D01*
X896Y1891D01*
X896Y1895D01*
X894Y1895D01*
X894Y1897D01*
X892Y1897D01*
X892Y1901D01*
X872Y1901D01*
G37*
D02*
G36*
X1976Y1591D02*
X1976Y1589D01*
X1966Y1589D01*
X1966Y1587D01*
X1956Y1587D01*
X1956Y1585D01*
X1946Y1585D01*
X1946Y1583D01*
X1936Y1583D01*
X1936Y1581D01*
X1926Y1581D01*
X1926Y1579D01*
X1916Y1579D01*
X1916Y1577D01*
X1906Y1577D01*
X1906Y1575D01*
X1896Y1575D01*
X1896Y1573D01*
X1886Y1573D01*
X1886Y1571D01*
X1876Y1571D01*
X1876Y1569D01*
X1866Y1569D01*
X1866Y1567D01*
X1856Y1567D01*
X1856Y1565D01*
X1846Y1565D01*
X1846Y1563D01*
X1836Y1563D01*
X1836Y1561D01*
X1826Y1561D01*
X1826Y1559D01*
X1816Y1559D01*
X1816Y1557D01*
X1806Y1557D01*
X1806Y1555D01*
X1796Y1555D01*
X1796Y1553D01*
X1786Y1553D01*
X1786Y1551D01*
X1776Y1551D01*
X1776Y1549D01*
X1766Y1549D01*
X1766Y1547D01*
X1756Y1547D01*
X1756Y1545D01*
X1746Y1545D01*
X1746Y1543D01*
X1736Y1543D01*
X1736Y1541D01*
X1726Y1541D01*
X1726Y1539D01*
X1716Y1539D01*
X1716Y1537D01*
X1706Y1537D01*
X1706Y1535D01*
X1696Y1535D01*
X1696Y1533D01*
X1686Y1533D01*
X1686Y1531D01*
X1676Y1531D01*
X1676Y1529D01*
X1666Y1529D01*
X1666Y1527D01*
X1656Y1527D01*
X1656Y1525D01*
X1646Y1525D01*
X1646Y1523D01*
X1636Y1523D01*
X1636Y1521D01*
X1626Y1521D01*
X1626Y1519D01*
X1616Y1519D01*
X1616Y1517D01*
X1606Y1517D01*
X1606Y1515D01*
X1596Y1515D01*
X1596Y1513D01*
X1586Y1513D01*
X1586Y1511D01*
X1576Y1511D01*
X1576Y1509D01*
X1574Y1509D01*
X1574Y1505D01*
X1572Y1505D01*
X1572Y1503D01*
X1570Y1503D01*
X1570Y1499D01*
X1568Y1499D01*
X1568Y1497D01*
X1566Y1497D01*
X1566Y1493D01*
X1564Y1493D01*
X1564Y1491D01*
X1562Y1491D01*
X1562Y1489D01*
X1558Y1489D01*
X1558Y1487D01*
X1556Y1487D01*
X1556Y1485D01*
X1552Y1485D01*
X1552Y1483D01*
X1548Y1483D01*
X1548Y1481D01*
X1542Y1481D01*
X1542Y1479D01*
X2010Y1479D01*
X2010Y1481D01*
X2006Y1481D01*
X2006Y1483D01*
X2004Y1483D01*
X2004Y1485D01*
X2002Y1485D01*
X2002Y1487D01*
X1998Y1487D01*
X1998Y1489D01*
X1996Y1489D01*
X1996Y1491D01*
X1994Y1491D01*
X1994Y1495D01*
X1992Y1495D01*
X1992Y1497D01*
X1990Y1497D01*
X1990Y1501D01*
X1988Y1501D01*
X1988Y1505D01*
X1986Y1505D01*
X1986Y1511D01*
X1984Y1511D01*
X1984Y1521D01*
X1982Y1521D01*
X1982Y1527D01*
X1984Y1527D01*
X1984Y1537D01*
X1986Y1537D01*
X1986Y1543D01*
X1988Y1543D01*
X1988Y1547D01*
X1990Y1547D01*
X1990Y1551D01*
X1992Y1551D01*
X1992Y1553D01*
X1994Y1553D01*
X1994Y1555D01*
X1996Y1555D01*
X1996Y1559D01*
X2000Y1559D01*
X2000Y1561D01*
X2002Y1561D01*
X2002Y1563D01*
X2004Y1563D01*
X2004Y1585D01*
X2002Y1585D01*
X2002Y1587D01*
X1998Y1587D01*
X1998Y1589D01*
X1996Y1589D01*
X1996Y1591D01*
X1976Y1591D01*
G37*
D02*
G36*
X1370Y1501D02*
X1370Y1499D01*
X1368Y1499D01*
X1368Y1497D01*
X1366Y1497D01*
X1366Y1493D01*
X1364Y1493D01*
X1364Y1491D01*
X1362Y1491D01*
X1362Y1489D01*
X1358Y1489D01*
X1358Y1487D01*
X1356Y1487D01*
X1356Y1485D01*
X1352Y1485D01*
X1352Y1479D01*
X1522Y1479D01*
X1522Y1481D01*
X1516Y1481D01*
X1516Y1483D01*
X1512Y1483D01*
X1512Y1485D01*
X1508Y1485D01*
X1508Y1487D01*
X1504Y1487D01*
X1504Y1489D01*
X1502Y1489D01*
X1502Y1491D01*
X1500Y1491D01*
X1500Y1493D01*
X1498Y1493D01*
X1498Y1495D01*
X1496Y1495D01*
X1496Y1499D01*
X1494Y1499D01*
X1494Y1501D01*
X1370Y1501D01*
G37*
D02*
G36*
X1352Y1479D02*
X1352Y1477D01*
X2010Y1477D01*
X2010Y1479D01*
X1352Y1479D01*
G37*
D02*
G36*
X1352Y1479D02*
X1352Y1477D01*
X2010Y1477D01*
X2010Y1479D01*
X1352Y1479D01*
G37*
D02*
G36*
X1352Y1477D02*
X1352Y1463D01*
X1356Y1463D01*
X1356Y1461D01*
X1358Y1461D01*
X1358Y1459D01*
X1360Y1459D01*
X1360Y1457D01*
X1364Y1457D01*
X1364Y1453D01*
X1366Y1453D01*
X1366Y1451D01*
X1368Y1451D01*
X1368Y1449D01*
X1370Y1449D01*
X1370Y1445D01*
X2010Y1445D01*
X2010Y1477D01*
X1352Y1477D01*
G37*
D02*
G36*
X354Y1401D02*
X354Y1371D01*
X542Y1371D01*
X542Y1369D01*
X548Y1369D01*
X548Y1367D01*
X554Y1367D01*
X554Y1365D01*
X556Y1365D01*
X556Y1363D01*
X560Y1363D01*
X560Y1361D01*
X562Y1361D01*
X562Y1359D01*
X564Y1359D01*
X564Y1357D01*
X566Y1357D01*
X566Y1355D01*
X568Y1355D01*
X568Y1353D01*
X570Y1353D01*
X570Y1351D01*
X572Y1351D01*
X572Y1347D01*
X574Y1347D01*
X574Y1345D01*
X692Y1345D01*
X692Y1347D01*
X694Y1347D01*
X694Y1349D01*
X696Y1349D01*
X696Y1351D01*
X698Y1351D01*
X698Y1355D01*
X700Y1355D01*
X700Y1357D01*
X702Y1357D01*
X702Y1359D01*
X706Y1359D01*
X706Y1361D01*
X708Y1361D01*
X708Y1363D01*
X712Y1363D01*
X712Y1385D01*
X708Y1385D01*
X708Y1387D01*
X704Y1387D01*
X704Y1389D01*
X702Y1389D01*
X702Y1391D01*
X700Y1391D01*
X700Y1393D01*
X698Y1393D01*
X698Y1395D01*
X696Y1395D01*
X696Y1399D01*
X694Y1399D01*
X694Y1401D01*
X354Y1401D01*
G37*
D02*
G36*
X354Y1371D02*
X354Y1365D01*
X356Y1365D01*
X356Y1363D01*
X360Y1363D01*
X360Y1361D01*
X362Y1361D01*
X362Y1359D01*
X364Y1359D01*
X364Y1357D01*
X366Y1357D01*
X366Y1355D01*
X368Y1355D01*
X368Y1353D01*
X370Y1353D01*
X370Y1351D01*
X372Y1351D01*
X372Y1347D01*
X392Y1347D01*
X392Y1351D01*
X394Y1351D01*
X394Y1353D01*
X396Y1353D01*
X396Y1355D01*
X398Y1355D01*
X398Y1357D01*
X400Y1357D01*
X400Y1359D01*
X402Y1359D01*
X402Y1361D01*
X404Y1361D01*
X404Y1363D01*
X406Y1363D01*
X406Y1365D01*
X410Y1365D01*
X410Y1367D01*
X414Y1367D01*
X414Y1369D01*
X422Y1369D01*
X422Y1371D01*
X354Y1371D01*
G37*
D02*
G36*
X442Y1371D02*
X442Y1369D01*
X448Y1369D01*
X448Y1367D01*
X454Y1367D01*
X454Y1365D01*
X456Y1365D01*
X456Y1363D01*
X460Y1363D01*
X460Y1361D01*
X462Y1361D01*
X462Y1359D01*
X464Y1359D01*
X464Y1357D01*
X466Y1357D01*
X466Y1355D01*
X468Y1355D01*
X468Y1353D01*
X470Y1353D01*
X470Y1351D01*
X472Y1351D01*
X472Y1347D01*
X492Y1347D01*
X492Y1351D01*
X494Y1351D01*
X494Y1353D01*
X496Y1353D01*
X496Y1355D01*
X498Y1355D01*
X498Y1357D01*
X500Y1357D01*
X500Y1359D01*
X502Y1359D01*
X502Y1361D01*
X504Y1361D01*
X504Y1363D01*
X506Y1363D01*
X506Y1365D01*
X510Y1365D01*
X510Y1367D01*
X514Y1367D01*
X514Y1369D01*
X522Y1369D01*
X522Y1371D01*
X442Y1371D01*
G37*
D02*
G36*
X472Y1301D02*
X472Y1297D01*
X470Y1297D01*
X470Y1295D01*
X468Y1295D01*
X468Y1293D01*
X466Y1293D01*
X466Y1289D01*
X462Y1289D01*
X462Y1287D01*
X460Y1287D01*
X460Y1285D01*
X458Y1285D01*
X458Y1283D01*
X454Y1283D01*
X454Y1277D01*
X520Y1277D01*
X520Y1279D01*
X514Y1279D01*
X514Y1281D01*
X510Y1281D01*
X510Y1283D01*
X506Y1283D01*
X506Y1285D01*
X504Y1285D01*
X504Y1287D01*
X500Y1287D01*
X500Y1289D01*
X498Y1289D01*
X498Y1291D01*
X496Y1291D01*
X496Y1295D01*
X494Y1295D01*
X494Y1297D01*
X492Y1297D01*
X492Y1301D01*
X472Y1301D01*
G37*
D02*
G36*
X572Y1301D02*
X572Y1297D01*
X570Y1297D01*
X570Y1295D01*
X568Y1295D01*
X568Y1293D01*
X566Y1293D01*
X566Y1289D01*
X562Y1289D01*
X562Y1287D01*
X560Y1287D01*
X560Y1285D01*
X558Y1285D01*
X558Y1283D01*
X554Y1283D01*
X554Y1281D01*
X550Y1281D01*
X550Y1279D01*
X544Y1279D01*
X544Y1277D01*
X712Y1277D01*
X712Y1285D01*
X708Y1285D01*
X708Y1287D01*
X704Y1287D01*
X704Y1289D01*
X702Y1289D01*
X702Y1291D01*
X700Y1291D01*
X700Y1293D01*
X698Y1293D01*
X698Y1295D01*
X696Y1295D01*
X696Y1299D01*
X694Y1299D01*
X694Y1301D01*
X572Y1301D01*
G37*
D02*
G36*
X454Y1277D02*
X454Y1275D01*
X712Y1275D01*
X712Y1277D01*
X454Y1277D01*
G37*
D02*
G36*
X454Y1277D02*
X454Y1275D01*
X712Y1275D01*
X712Y1277D01*
X454Y1277D01*
G37*
D02*
G36*
X454Y1275D02*
X454Y1271D01*
X642Y1271D01*
X642Y1269D01*
X648Y1269D01*
X648Y1267D01*
X654Y1267D01*
X654Y1265D01*
X656Y1265D01*
X656Y1263D01*
X660Y1263D01*
X660Y1261D01*
X662Y1261D01*
X662Y1259D01*
X664Y1259D01*
X664Y1257D01*
X666Y1257D01*
X666Y1255D01*
X668Y1255D01*
X668Y1253D01*
X670Y1253D01*
X670Y1251D01*
X672Y1251D01*
X672Y1247D01*
X694Y1247D01*
X694Y1249D01*
X696Y1249D01*
X696Y1251D01*
X698Y1251D01*
X698Y1255D01*
X700Y1255D01*
X700Y1257D01*
X702Y1257D01*
X702Y1259D01*
X706Y1259D01*
X706Y1261D01*
X708Y1261D01*
X708Y1263D01*
X712Y1263D01*
X712Y1275D01*
X454Y1275D01*
G37*
D02*
G36*
X454Y1271D02*
X454Y1177D01*
X620Y1177D01*
X620Y1179D01*
X614Y1179D01*
X614Y1181D01*
X610Y1181D01*
X610Y1183D01*
X606Y1183D01*
X606Y1185D01*
X604Y1185D01*
X604Y1187D01*
X600Y1187D01*
X600Y1189D01*
X598Y1189D01*
X598Y1191D01*
X596Y1191D01*
X596Y1195D01*
X594Y1195D01*
X594Y1197D01*
X592Y1197D01*
X592Y1201D01*
X590Y1201D01*
X590Y1203D01*
X588Y1203D01*
X588Y1209D01*
X586Y1209D01*
X586Y1217D01*
X584Y1217D01*
X584Y1231D01*
X586Y1231D01*
X586Y1239D01*
X588Y1239D01*
X588Y1243D01*
X590Y1243D01*
X590Y1247D01*
X592Y1247D01*
X592Y1251D01*
X594Y1251D01*
X594Y1253D01*
X596Y1253D01*
X596Y1255D01*
X598Y1255D01*
X598Y1257D01*
X600Y1257D01*
X600Y1259D01*
X602Y1259D01*
X602Y1261D01*
X604Y1261D01*
X604Y1263D01*
X606Y1263D01*
X606Y1265D01*
X610Y1265D01*
X610Y1267D01*
X614Y1267D01*
X614Y1269D01*
X622Y1269D01*
X622Y1271D01*
X454Y1271D01*
G37*
D02*
G36*
X672Y1201D02*
X672Y1197D01*
X670Y1197D01*
X670Y1195D01*
X668Y1195D01*
X668Y1193D01*
X666Y1193D01*
X666Y1189D01*
X662Y1189D01*
X662Y1187D01*
X660Y1187D01*
X660Y1185D01*
X658Y1185D01*
X658Y1183D01*
X654Y1183D01*
X654Y1181D01*
X650Y1181D01*
X650Y1179D01*
X644Y1179D01*
X644Y1177D01*
X712Y1177D01*
X712Y1185D01*
X708Y1185D01*
X708Y1187D01*
X704Y1187D01*
X704Y1189D01*
X702Y1189D01*
X702Y1191D01*
X700Y1191D01*
X700Y1193D01*
X698Y1193D01*
X698Y1195D01*
X696Y1195D01*
X696Y1199D01*
X694Y1199D01*
X694Y1201D01*
X672Y1201D01*
G37*
D02*
G36*
X454Y1177D02*
X454Y1175D01*
X712Y1175D01*
X712Y1177D01*
X454Y1177D01*
G37*
D02*
G36*
X454Y1177D02*
X454Y1175D01*
X712Y1175D01*
X712Y1177D01*
X454Y1177D01*
G37*
D02*
G36*
X454Y1175D02*
X454Y945D01*
X692Y945D01*
X692Y947D01*
X694Y947D01*
X694Y949D01*
X696Y949D01*
X696Y951D01*
X698Y951D01*
X698Y955D01*
X700Y955D01*
X700Y957D01*
X702Y957D01*
X702Y959D01*
X706Y959D01*
X706Y961D01*
X708Y961D01*
X708Y963D01*
X712Y963D01*
X712Y985D01*
X708Y985D01*
X708Y987D01*
X704Y987D01*
X704Y989D01*
X702Y989D01*
X702Y991D01*
X700Y991D01*
X700Y993D01*
X698Y993D01*
X698Y995D01*
X696Y995D01*
X696Y999D01*
X694Y999D01*
X694Y1001D01*
X692Y1001D01*
X692Y1005D01*
X690Y1005D01*
X690Y1011D01*
X688Y1011D01*
X688Y1021D01*
X686Y1021D01*
X686Y1027D01*
X688Y1027D01*
X688Y1037D01*
X690Y1037D01*
X690Y1043D01*
X692Y1043D01*
X692Y1047D01*
X694Y1047D01*
X694Y1049D01*
X696Y1049D01*
X696Y1051D01*
X698Y1051D01*
X698Y1055D01*
X700Y1055D01*
X700Y1057D01*
X702Y1057D01*
X702Y1059D01*
X706Y1059D01*
X706Y1061D01*
X708Y1061D01*
X708Y1063D01*
X712Y1063D01*
X712Y1085D01*
X708Y1085D01*
X708Y1087D01*
X704Y1087D01*
X704Y1089D01*
X702Y1089D01*
X702Y1091D01*
X700Y1091D01*
X700Y1093D01*
X698Y1093D01*
X698Y1095D01*
X696Y1095D01*
X696Y1099D01*
X694Y1099D01*
X694Y1101D01*
X692Y1101D01*
X692Y1105D01*
X690Y1105D01*
X690Y1111D01*
X688Y1111D01*
X688Y1121D01*
X686Y1121D01*
X686Y1127D01*
X688Y1127D01*
X688Y1137D01*
X690Y1137D01*
X690Y1143D01*
X692Y1143D01*
X692Y1147D01*
X694Y1147D01*
X694Y1149D01*
X696Y1149D01*
X696Y1151D01*
X698Y1151D01*
X698Y1155D01*
X700Y1155D01*
X700Y1157D01*
X702Y1157D01*
X702Y1159D01*
X706Y1159D01*
X706Y1161D01*
X708Y1161D01*
X708Y1163D01*
X712Y1163D01*
X712Y1175D01*
X454Y1175D01*
G37*
D02*
G36*
X124Y3503D02*
X124Y3461D01*
X122Y3461D01*
X122Y3455D01*
X120Y3455D01*
X120Y3449D01*
X118Y3449D01*
X118Y3445D01*
X116Y3445D01*
X116Y3443D01*
X114Y3443D01*
X114Y3439D01*
X112Y3439D01*
X112Y3437D01*
X110Y3437D01*
X110Y3435D01*
X108Y3435D01*
X108Y3433D01*
X106Y3433D01*
X106Y3431D01*
X102Y3431D01*
X102Y3429D01*
X100Y3429D01*
X100Y3427D01*
X96Y3427D01*
X96Y3425D01*
X92Y3425D01*
X92Y3423D01*
X88Y3423D01*
X88Y3421D01*
X80Y3421D01*
X80Y3419D01*
X2664Y3419D01*
X2664Y3421D01*
X2660Y3421D01*
X2660Y3423D01*
X2656Y3423D01*
X2656Y3425D01*
X2652Y3425D01*
X2652Y3427D01*
X2650Y3427D01*
X2650Y3429D01*
X2648Y3429D01*
X2648Y3431D01*
X2646Y3431D01*
X2646Y3433D01*
X2644Y3433D01*
X2644Y3435D01*
X2642Y3435D01*
X2642Y3437D01*
X2640Y3437D01*
X2640Y3439D01*
X2638Y3439D01*
X2638Y3443D01*
X2636Y3443D01*
X2636Y3447D01*
X2634Y3447D01*
X2634Y3451D01*
X2632Y3451D01*
X2632Y3459D01*
X2630Y3459D01*
X2630Y3481D01*
X2632Y3481D01*
X2632Y3503D01*
X124Y3503D01*
G37*
D02*
G36*
X40Y3421D02*
X40Y3419D01*
X64Y3419D01*
X64Y3421D01*
X40Y3421D01*
G37*
D02*
G36*
X40Y3419D02*
X40Y3417D01*
X2670Y3417D01*
X2670Y3419D01*
X40Y3419D01*
G37*
D02*
G36*
X40Y3419D02*
X40Y3417D01*
X2670Y3417D01*
X2670Y3419D01*
X40Y3419D01*
G37*
D02*
G36*
X40Y3417D02*
X40Y3245D01*
X1438Y3245D01*
X1438Y3243D01*
X1442Y3243D01*
X1442Y3241D01*
X1446Y3241D01*
X1446Y3239D01*
X1448Y3239D01*
X1448Y3237D01*
X1450Y3237D01*
X1450Y3233D01*
X1452Y3233D01*
X1452Y3229D01*
X1454Y3229D01*
X1454Y3173D01*
X1640Y3173D01*
X1640Y3171D01*
X1648Y3171D01*
X1648Y3169D01*
X1652Y3169D01*
X1652Y3167D01*
X1656Y3167D01*
X1656Y3165D01*
X1660Y3165D01*
X1660Y3163D01*
X1662Y3163D01*
X1662Y3161D01*
X1664Y3161D01*
X1664Y3159D01*
X1666Y3159D01*
X1666Y3157D01*
X1668Y3157D01*
X1668Y3155D01*
X1670Y3155D01*
X1670Y3153D01*
X1672Y3153D01*
X1672Y3151D01*
X1674Y3151D01*
X1674Y3147D01*
X1676Y3147D01*
X1676Y3143D01*
X1678Y3143D01*
X1678Y3137D01*
X1680Y3137D01*
X1680Y3111D01*
X1678Y3111D01*
X1678Y3105D01*
X1676Y3105D01*
X1676Y3101D01*
X1674Y3101D01*
X1674Y3097D01*
X1672Y3097D01*
X1672Y3095D01*
X1670Y3095D01*
X1670Y3093D01*
X1668Y3093D01*
X1668Y3089D01*
X1666Y3089D01*
X1666Y3087D01*
X1662Y3087D01*
X1662Y3085D01*
X1660Y3085D01*
X1660Y3083D01*
X1656Y3083D01*
X1656Y3081D01*
X1654Y3081D01*
X1654Y2921D01*
X1652Y2921D01*
X1652Y2815D01*
X1650Y2815D01*
X1650Y2811D01*
X1648Y2811D01*
X1648Y2809D01*
X1646Y2809D01*
X1646Y2807D01*
X1644Y2807D01*
X1644Y2805D01*
X1642Y2805D01*
X1642Y2803D01*
X1638Y2803D01*
X1638Y2801D01*
X554Y2801D01*
X554Y2445D01*
X1436Y2445D01*
X1436Y2443D01*
X1442Y2443D01*
X1442Y2441D01*
X1446Y2441D01*
X1446Y2439D01*
X1448Y2439D01*
X1448Y2437D01*
X1450Y2437D01*
X1450Y2433D01*
X1452Y2433D01*
X1452Y2429D01*
X1454Y2429D01*
X1454Y2273D01*
X1640Y2273D01*
X1640Y2271D01*
X1648Y2271D01*
X1648Y2269D01*
X1652Y2269D01*
X1652Y2267D01*
X1656Y2267D01*
X1656Y2265D01*
X1660Y2265D01*
X1660Y2263D01*
X1662Y2263D01*
X1662Y2261D01*
X1664Y2261D01*
X1664Y2259D01*
X1666Y2259D01*
X1666Y2257D01*
X1668Y2257D01*
X1668Y2255D01*
X1670Y2255D01*
X1670Y2253D01*
X1672Y2253D01*
X1672Y2251D01*
X1674Y2251D01*
X1674Y2247D01*
X1676Y2247D01*
X1676Y2243D01*
X1678Y2243D01*
X1678Y2237D01*
X1680Y2237D01*
X1680Y2211D01*
X1678Y2211D01*
X1678Y2205D01*
X1676Y2205D01*
X1676Y2201D01*
X1674Y2201D01*
X1674Y2197D01*
X1672Y2197D01*
X1672Y2195D01*
X1670Y2195D01*
X1670Y2193D01*
X1668Y2193D01*
X1668Y2189D01*
X1666Y2189D01*
X1666Y2187D01*
X1662Y2187D01*
X1662Y2185D01*
X1660Y2185D01*
X1660Y2183D01*
X1656Y2183D01*
X1656Y2181D01*
X1654Y2181D01*
X1654Y2179D01*
X1648Y2179D01*
X1648Y2177D01*
X1642Y2177D01*
X1642Y2175D01*
X2714Y2175D01*
X2714Y3417D01*
X40Y3417D01*
G37*
D02*
G36*
X40Y3245D02*
X40Y379D01*
X722Y379D01*
X722Y381D01*
X716Y381D01*
X716Y383D01*
X712Y383D01*
X712Y385D01*
X708Y385D01*
X708Y387D01*
X704Y387D01*
X704Y389D01*
X702Y389D01*
X702Y391D01*
X700Y391D01*
X700Y393D01*
X698Y393D01*
X698Y395D01*
X696Y395D01*
X696Y399D01*
X694Y399D01*
X694Y401D01*
X692Y401D01*
X692Y405D01*
X690Y405D01*
X690Y411D01*
X688Y411D01*
X688Y421D01*
X686Y421D01*
X686Y427D01*
X688Y427D01*
X688Y437D01*
X690Y437D01*
X690Y443D01*
X692Y443D01*
X692Y447D01*
X694Y447D01*
X694Y449D01*
X696Y449D01*
X696Y451D01*
X698Y451D01*
X698Y455D01*
X700Y455D01*
X700Y457D01*
X702Y457D01*
X702Y459D01*
X706Y459D01*
X706Y461D01*
X708Y461D01*
X708Y463D01*
X712Y463D01*
X712Y485D01*
X708Y485D01*
X708Y487D01*
X704Y487D01*
X704Y489D01*
X702Y489D01*
X702Y491D01*
X700Y491D01*
X700Y493D01*
X698Y493D01*
X698Y495D01*
X696Y495D01*
X696Y499D01*
X694Y499D01*
X694Y501D01*
X128Y501D01*
X128Y503D01*
X122Y503D01*
X122Y505D01*
X118Y505D01*
X118Y507D01*
X116Y507D01*
X116Y509D01*
X114Y509D01*
X114Y513D01*
X112Y513D01*
X112Y517D01*
X110Y517D01*
X110Y3229D01*
X112Y3229D01*
X112Y3233D01*
X114Y3233D01*
X114Y3237D01*
X116Y3237D01*
X116Y3239D01*
X118Y3239D01*
X118Y3241D01*
X122Y3241D01*
X122Y3243D01*
X126Y3243D01*
X126Y3245D01*
X40Y3245D01*
G37*
D02*
G36*
X1454Y3173D02*
X1454Y3167D01*
X1456Y3167D01*
X1456Y3165D01*
X1460Y3165D01*
X1460Y3163D01*
X1462Y3163D01*
X1462Y3161D01*
X1464Y3161D01*
X1464Y3159D01*
X1466Y3159D01*
X1466Y3157D01*
X1468Y3157D01*
X1468Y3155D01*
X1470Y3155D01*
X1470Y3153D01*
X1472Y3153D01*
X1472Y3151D01*
X1492Y3151D01*
X1492Y3153D01*
X1494Y3153D01*
X1494Y3155D01*
X1496Y3155D01*
X1496Y3159D01*
X1500Y3159D01*
X1500Y3161D01*
X1502Y3161D01*
X1502Y3163D01*
X1504Y3163D01*
X1504Y3165D01*
X1508Y3165D01*
X1508Y3167D01*
X1512Y3167D01*
X1512Y3169D01*
X1516Y3169D01*
X1516Y3171D01*
X1524Y3171D01*
X1524Y3173D01*
X1454Y3173D01*
G37*
D02*
G36*
X1540Y3173D02*
X1540Y3171D01*
X1548Y3171D01*
X1548Y3169D01*
X1552Y3169D01*
X1552Y3167D01*
X1556Y3167D01*
X1556Y3165D01*
X1560Y3165D01*
X1560Y3163D01*
X1562Y3163D01*
X1562Y3161D01*
X1564Y3161D01*
X1564Y3159D01*
X1566Y3159D01*
X1566Y3157D01*
X1568Y3157D01*
X1568Y3155D01*
X1570Y3155D01*
X1570Y3153D01*
X1572Y3153D01*
X1572Y3151D01*
X1592Y3151D01*
X1592Y3153D01*
X1594Y3153D01*
X1594Y3155D01*
X1596Y3155D01*
X1596Y3159D01*
X1600Y3159D01*
X1600Y3161D01*
X1602Y3161D01*
X1602Y3163D01*
X1604Y3163D01*
X1604Y3165D01*
X1608Y3165D01*
X1608Y3167D01*
X1612Y3167D01*
X1612Y3169D01*
X1616Y3169D01*
X1616Y3171D01*
X1624Y3171D01*
X1624Y3173D01*
X1540Y3173D01*
G37*
D02*
G36*
X254Y3101D02*
X254Y3075D01*
X1122Y3075D01*
X1122Y3077D01*
X1114Y3077D01*
X1114Y3079D01*
X1110Y3079D01*
X1110Y3081D01*
X1106Y3081D01*
X1106Y3083D01*
X1104Y3083D01*
X1104Y3085D01*
X1102Y3085D01*
X1102Y3087D01*
X1098Y3087D01*
X1098Y3089D01*
X1096Y3089D01*
X1096Y3091D01*
X1094Y3091D01*
X1094Y3095D01*
X1092Y3095D01*
X1092Y3097D01*
X1090Y3097D01*
X1090Y3101D01*
X254Y3101D01*
G37*
D02*
G36*
X1172Y3097D02*
X1172Y3095D01*
X1170Y3095D01*
X1170Y3093D01*
X1168Y3093D01*
X1168Y3089D01*
X1166Y3089D01*
X1166Y3087D01*
X1162Y3087D01*
X1162Y3085D01*
X1160Y3085D01*
X1160Y3083D01*
X1156Y3083D01*
X1156Y3081D01*
X1154Y3081D01*
X1154Y3079D01*
X1148Y3079D01*
X1148Y3077D01*
X1142Y3077D01*
X1142Y3075D01*
X1208Y3075D01*
X1208Y3081D01*
X1206Y3081D01*
X1206Y3083D01*
X1204Y3083D01*
X1204Y3085D01*
X1202Y3085D01*
X1202Y3087D01*
X1198Y3087D01*
X1198Y3089D01*
X1196Y3089D01*
X1196Y3091D01*
X1194Y3091D01*
X1194Y3095D01*
X1192Y3095D01*
X1192Y3097D01*
X1172Y3097D01*
G37*
D02*
G36*
X254Y3075D02*
X254Y3073D01*
X1208Y3073D01*
X1208Y3075D01*
X254Y3075D01*
G37*
D02*
G36*
X254Y3075D02*
X254Y3073D01*
X1208Y3073D01*
X1208Y3075D01*
X254Y3075D01*
G37*
D02*
G36*
X254Y3073D02*
X254Y1577D01*
X320Y1577D01*
X320Y1579D01*
X314Y1579D01*
X314Y1581D01*
X310Y1581D01*
X310Y1583D01*
X306Y1583D01*
X306Y1585D01*
X304Y1585D01*
X304Y1587D01*
X300Y1587D01*
X300Y1589D01*
X298Y1589D01*
X298Y1591D01*
X296Y1591D01*
X296Y1595D01*
X294Y1595D01*
X294Y1597D01*
X292Y1597D01*
X292Y1601D01*
X290Y1601D01*
X290Y1603D01*
X288Y1603D01*
X288Y1609D01*
X286Y1609D01*
X286Y1617D01*
X284Y1617D01*
X284Y1631D01*
X286Y1631D01*
X286Y1639D01*
X288Y1639D01*
X288Y1643D01*
X290Y1643D01*
X290Y1647D01*
X292Y1647D01*
X292Y1651D01*
X294Y1651D01*
X294Y1653D01*
X296Y1653D01*
X296Y1655D01*
X298Y1655D01*
X298Y1657D01*
X300Y1657D01*
X300Y1659D01*
X302Y1659D01*
X302Y1661D01*
X304Y1661D01*
X304Y1663D01*
X306Y1663D01*
X306Y1665D01*
X310Y1665D01*
X310Y2553D01*
X308Y2553D01*
X308Y3029D01*
X310Y3029D01*
X310Y3035D01*
X312Y3035D01*
X312Y3037D01*
X314Y3037D01*
X314Y3039D01*
X316Y3039D01*
X316Y3041D01*
X318Y3041D01*
X318Y3043D01*
X320Y3043D01*
X320Y3045D01*
X328Y3045D01*
X328Y3047D01*
X1208Y3047D01*
X1208Y3073D01*
X254Y3073D01*
G37*
D02*
G36*
X554Y2445D02*
X554Y1665D01*
X556Y1665D01*
X556Y1663D01*
X560Y1663D01*
X560Y1661D01*
X562Y1661D01*
X562Y1659D01*
X564Y1659D01*
X564Y1657D01*
X566Y1657D01*
X566Y1655D01*
X568Y1655D01*
X568Y1653D01*
X570Y1653D01*
X570Y1651D01*
X572Y1651D01*
X572Y1647D01*
X574Y1647D01*
X574Y1643D01*
X576Y1643D01*
X576Y1637D01*
X578Y1637D01*
X578Y1629D01*
X580Y1629D01*
X580Y1619D01*
X578Y1619D01*
X578Y1611D01*
X576Y1611D01*
X576Y1605D01*
X574Y1605D01*
X574Y1601D01*
X572Y1601D01*
X572Y1597D01*
X570Y1597D01*
X570Y1595D01*
X568Y1595D01*
X568Y1593D01*
X566Y1593D01*
X566Y1589D01*
X562Y1589D01*
X562Y1587D01*
X560Y1587D01*
X560Y1585D01*
X558Y1585D01*
X558Y1583D01*
X554Y1583D01*
X554Y1581D01*
X550Y1581D01*
X550Y1579D01*
X544Y1579D01*
X544Y1577D01*
X610Y1577D01*
X610Y2429D01*
X612Y2429D01*
X612Y2433D01*
X614Y2433D01*
X614Y2437D01*
X616Y2437D01*
X616Y2439D01*
X618Y2439D01*
X618Y2441D01*
X622Y2441D01*
X622Y2443D01*
X628Y2443D01*
X628Y2445D01*
X554Y2445D01*
G37*
D02*
G36*
X654Y2401D02*
X654Y2345D01*
X1236Y2345D01*
X1236Y2343D01*
X1242Y2343D01*
X1242Y2341D01*
X1244Y2341D01*
X1244Y2339D01*
X1246Y2339D01*
X1246Y2337D01*
X1248Y2337D01*
X1248Y2335D01*
X1250Y2335D01*
X1250Y2331D01*
X1252Y2331D01*
X1252Y2279D01*
X1254Y2279D01*
X1254Y2273D01*
X1340Y2273D01*
X1340Y2271D01*
X1348Y2271D01*
X1348Y2269D01*
X1352Y2269D01*
X1352Y2267D01*
X1356Y2267D01*
X1356Y2265D01*
X1360Y2265D01*
X1360Y2263D01*
X1362Y2263D01*
X1362Y2261D01*
X1364Y2261D01*
X1364Y2259D01*
X1366Y2259D01*
X1366Y2257D01*
X1368Y2257D01*
X1368Y2255D01*
X1370Y2255D01*
X1370Y2253D01*
X1372Y2253D01*
X1372Y2251D01*
X1392Y2251D01*
X1392Y2253D01*
X1394Y2253D01*
X1394Y2255D01*
X1396Y2255D01*
X1396Y2259D01*
X1400Y2259D01*
X1400Y2261D01*
X1402Y2261D01*
X1402Y2263D01*
X1404Y2263D01*
X1404Y2265D01*
X1408Y2265D01*
X1408Y2267D01*
X1410Y2267D01*
X1410Y2401D01*
X654Y2401D01*
G37*
D02*
G36*
X654Y2345D02*
X654Y2177D01*
X820Y2177D01*
X820Y2179D01*
X814Y2179D01*
X814Y2181D01*
X810Y2181D01*
X810Y2183D01*
X806Y2183D01*
X806Y2185D01*
X804Y2185D01*
X804Y2187D01*
X800Y2187D01*
X800Y2189D01*
X798Y2189D01*
X798Y2191D01*
X796Y2191D01*
X796Y2195D01*
X794Y2195D01*
X794Y2197D01*
X792Y2197D01*
X792Y2201D01*
X790Y2201D01*
X790Y2203D01*
X788Y2203D01*
X788Y2209D01*
X786Y2209D01*
X786Y2217D01*
X784Y2217D01*
X784Y2231D01*
X786Y2231D01*
X786Y2239D01*
X788Y2239D01*
X788Y2243D01*
X790Y2243D01*
X790Y2247D01*
X792Y2247D01*
X792Y2251D01*
X794Y2251D01*
X794Y2253D01*
X796Y2253D01*
X796Y2255D01*
X798Y2255D01*
X798Y2257D01*
X800Y2257D01*
X800Y2259D01*
X802Y2259D01*
X802Y2261D01*
X804Y2261D01*
X804Y2263D01*
X806Y2263D01*
X806Y2265D01*
X810Y2265D01*
X810Y2303D01*
X812Y2303D01*
X812Y2331D01*
X814Y2331D01*
X814Y2335D01*
X816Y2335D01*
X816Y2337D01*
X818Y2337D01*
X818Y2339D01*
X820Y2339D01*
X820Y2341D01*
X822Y2341D01*
X822Y2343D01*
X826Y2343D01*
X826Y2345D01*
X654Y2345D01*
G37*
D02*
G36*
X1254Y2273D02*
X1254Y2267D01*
X1256Y2267D01*
X1256Y2265D01*
X1260Y2265D01*
X1260Y2263D01*
X1262Y2263D01*
X1262Y2261D01*
X1264Y2261D01*
X1264Y2259D01*
X1266Y2259D01*
X1266Y2257D01*
X1268Y2257D01*
X1268Y2255D01*
X1270Y2255D01*
X1270Y2253D01*
X1272Y2253D01*
X1272Y2251D01*
X1292Y2251D01*
X1292Y2253D01*
X1294Y2253D01*
X1294Y2255D01*
X1296Y2255D01*
X1296Y2259D01*
X1300Y2259D01*
X1300Y2261D01*
X1302Y2261D01*
X1302Y2263D01*
X1304Y2263D01*
X1304Y2265D01*
X1308Y2265D01*
X1308Y2267D01*
X1312Y2267D01*
X1312Y2269D01*
X1316Y2269D01*
X1316Y2271D01*
X1324Y2271D01*
X1324Y2273D01*
X1254Y2273D01*
G37*
D02*
G36*
X1454Y2273D02*
X1454Y2267D01*
X1456Y2267D01*
X1456Y2265D01*
X1460Y2265D01*
X1460Y2263D01*
X1462Y2263D01*
X1462Y2261D01*
X1464Y2261D01*
X1464Y2259D01*
X1466Y2259D01*
X1466Y2257D01*
X1468Y2257D01*
X1468Y2255D01*
X1470Y2255D01*
X1470Y2253D01*
X1472Y2253D01*
X1472Y2251D01*
X1492Y2251D01*
X1492Y2253D01*
X1494Y2253D01*
X1494Y2255D01*
X1496Y2255D01*
X1496Y2259D01*
X1500Y2259D01*
X1500Y2261D01*
X1502Y2261D01*
X1502Y2263D01*
X1504Y2263D01*
X1504Y2265D01*
X1508Y2265D01*
X1508Y2267D01*
X1512Y2267D01*
X1512Y2269D01*
X1516Y2269D01*
X1516Y2271D01*
X1524Y2271D01*
X1524Y2273D01*
X1454Y2273D01*
G37*
D02*
G36*
X1540Y2273D02*
X1540Y2271D01*
X1548Y2271D01*
X1548Y2269D01*
X1552Y2269D01*
X1552Y2267D01*
X1556Y2267D01*
X1556Y2265D01*
X1560Y2265D01*
X1560Y2263D01*
X1562Y2263D01*
X1562Y2261D01*
X1564Y2261D01*
X1564Y2259D01*
X1566Y2259D01*
X1566Y2257D01*
X1568Y2257D01*
X1568Y2255D01*
X1570Y2255D01*
X1570Y2253D01*
X1572Y2253D01*
X1572Y2251D01*
X1592Y2251D01*
X1592Y2253D01*
X1594Y2253D01*
X1594Y2255D01*
X1596Y2255D01*
X1596Y2259D01*
X1600Y2259D01*
X1600Y2261D01*
X1602Y2261D01*
X1602Y2263D01*
X1604Y2263D01*
X1604Y2265D01*
X1608Y2265D01*
X1608Y2267D01*
X1612Y2267D01*
X1612Y2269D01*
X1616Y2269D01*
X1616Y2271D01*
X1624Y2271D01*
X1624Y2273D01*
X1540Y2273D01*
G37*
D02*
G36*
X872Y2201D02*
X872Y2197D01*
X870Y2197D01*
X870Y2195D01*
X868Y2195D01*
X868Y2193D01*
X866Y2193D01*
X866Y2189D01*
X862Y2189D01*
X862Y2187D01*
X860Y2187D01*
X860Y2185D01*
X858Y2185D01*
X858Y2183D01*
X854Y2183D01*
X854Y2181D01*
X850Y2181D01*
X850Y2179D01*
X844Y2179D01*
X844Y2177D01*
X920Y2177D01*
X920Y2179D01*
X914Y2179D01*
X914Y2181D01*
X910Y2181D01*
X910Y2183D01*
X906Y2183D01*
X906Y2185D01*
X904Y2185D01*
X904Y2187D01*
X900Y2187D01*
X900Y2189D01*
X898Y2189D01*
X898Y2191D01*
X896Y2191D01*
X896Y2195D01*
X894Y2195D01*
X894Y2197D01*
X892Y2197D01*
X892Y2201D01*
X872Y2201D01*
G37*
D02*
G36*
X972Y2201D02*
X972Y2197D01*
X970Y2197D01*
X970Y2195D01*
X968Y2195D01*
X968Y2193D01*
X966Y2193D01*
X966Y2189D01*
X962Y2189D01*
X962Y2187D01*
X960Y2187D01*
X960Y2185D01*
X958Y2185D01*
X958Y2183D01*
X954Y2183D01*
X954Y2181D01*
X950Y2181D01*
X950Y2179D01*
X944Y2179D01*
X944Y2177D01*
X1114Y2177D01*
X1114Y2179D01*
X1110Y2179D01*
X1110Y2181D01*
X1106Y2181D01*
X1106Y2183D01*
X1104Y2183D01*
X1104Y2185D01*
X1102Y2185D01*
X1102Y2187D01*
X1098Y2187D01*
X1098Y2189D01*
X1096Y2189D01*
X1096Y2191D01*
X1094Y2191D01*
X1094Y2195D01*
X1092Y2195D01*
X1092Y2197D01*
X1090Y2197D01*
X1090Y2201D01*
X972Y2201D01*
G37*
D02*
G36*
X1172Y2197D02*
X1172Y2195D01*
X1170Y2195D01*
X1170Y2193D01*
X1168Y2193D01*
X1168Y2189D01*
X1166Y2189D01*
X1166Y2187D01*
X1162Y2187D01*
X1162Y2185D01*
X1160Y2185D01*
X1160Y2183D01*
X1156Y2183D01*
X1156Y2181D01*
X1154Y2181D01*
X1154Y2179D01*
X1148Y2179D01*
X1148Y2177D01*
X1142Y2177D01*
X1142Y2175D01*
X1222Y2175D01*
X1222Y2177D01*
X1214Y2177D01*
X1214Y2179D01*
X1210Y2179D01*
X1210Y2181D01*
X1206Y2181D01*
X1206Y2183D01*
X1204Y2183D01*
X1204Y2185D01*
X1202Y2185D01*
X1202Y2187D01*
X1198Y2187D01*
X1198Y2189D01*
X1196Y2189D01*
X1196Y2191D01*
X1194Y2191D01*
X1194Y2195D01*
X1192Y2195D01*
X1192Y2197D01*
X1172Y2197D01*
G37*
D02*
G36*
X1272Y2197D02*
X1272Y2195D01*
X1270Y2195D01*
X1270Y2193D01*
X1268Y2193D01*
X1268Y2189D01*
X1266Y2189D01*
X1266Y2187D01*
X1262Y2187D01*
X1262Y2185D01*
X1260Y2185D01*
X1260Y2183D01*
X1256Y2183D01*
X1256Y2181D01*
X1254Y2181D01*
X1254Y2179D01*
X1248Y2179D01*
X1248Y2177D01*
X1242Y2177D01*
X1242Y2175D01*
X1306Y2175D01*
X1306Y2183D01*
X1304Y2183D01*
X1304Y2185D01*
X1302Y2185D01*
X1302Y2187D01*
X1298Y2187D01*
X1298Y2189D01*
X1296Y2189D01*
X1296Y2191D01*
X1294Y2191D01*
X1294Y2195D01*
X1292Y2195D01*
X1292Y2197D01*
X1272Y2197D01*
G37*
D02*
G36*
X1572Y2197D02*
X1572Y2195D01*
X1570Y2195D01*
X1570Y2193D01*
X1568Y2193D01*
X1568Y2189D01*
X1566Y2189D01*
X1566Y2187D01*
X1562Y2187D01*
X1562Y2185D01*
X1560Y2185D01*
X1560Y2183D01*
X1556Y2183D01*
X1556Y2181D01*
X1554Y2181D01*
X1554Y2175D01*
X1622Y2175D01*
X1622Y2177D01*
X1614Y2177D01*
X1614Y2179D01*
X1610Y2179D01*
X1610Y2181D01*
X1606Y2181D01*
X1606Y2183D01*
X1604Y2183D01*
X1604Y2185D01*
X1602Y2185D01*
X1602Y2187D01*
X1598Y2187D01*
X1598Y2189D01*
X1596Y2189D01*
X1596Y2191D01*
X1594Y2191D01*
X1594Y2195D01*
X1592Y2195D01*
X1592Y2197D01*
X1572Y2197D01*
G37*
D02*
G36*
X654Y2177D02*
X654Y2175D01*
X1122Y2175D01*
X1122Y2177D01*
X654Y2177D01*
G37*
D02*
G36*
X654Y2177D02*
X654Y2175D01*
X1122Y2175D01*
X1122Y2177D01*
X654Y2177D01*
G37*
D02*
G36*
X654Y2177D02*
X654Y2175D01*
X1122Y2175D01*
X1122Y2177D01*
X654Y2177D01*
G37*
D02*
G36*
X654Y2175D02*
X654Y2173D01*
X1306Y2173D01*
X1306Y2175D01*
X654Y2175D01*
G37*
D02*
G36*
X654Y2175D02*
X654Y2173D01*
X1306Y2173D01*
X1306Y2175D01*
X654Y2175D01*
G37*
D02*
G36*
X654Y2175D02*
X654Y2173D01*
X1306Y2173D01*
X1306Y2175D01*
X654Y2175D01*
G37*
D02*
G36*
X1554Y2175D02*
X1554Y2173D01*
X2714Y2173D01*
X2714Y2175D01*
X1554Y2175D01*
G37*
D02*
G36*
X1554Y2175D02*
X1554Y2173D01*
X2714Y2173D01*
X2714Y2175D01*
X1554Y2175D01*
G37*
D02*
G36*
X654Y2173D02*
X654Y2171D01*
X1042Y2171D01*
X1042Y2169D01*
X1048Y2169D01*
X1048Y2167D01*
X1054Y2167D01*
X1054Y2165D01*
X1056Y2165D01*
X1056Y2163D01*
X1060Y2163D01*
X1060Y2161D01*
X1062Y2161D01*
X1062Y2159D01*
X1064Y2159D01*
X1064Y2157D01*
X1066Y2157D01*
X1066Y2155D01*
X1068Y2155D01*
X1068Y2153D01*
X1070Y2153D01*
X1070Y2151D01*
X1072Y2151D01*
X1072Y2147D01*
X1136Y2147D01*
X1136Y2145D01*
X1142Y2145D01*
X1142Y2143D01*
X1144Y2143D01*
X1144Y2141D01*
X1146Y2141D01*
X1146Y2139D01*
X1148Y2139D01*
X1148Y2137D01*
X1150Y2137D01*
X1150Y2133D01*
X1152Y2133D01*
X1152Y2125D01*
X1154Y2125D01*
X1154Y1977D01*
X1320Y1977D01*
X1320Y1979D01*
X1314Y1979D01*
X1314Y1981D01*
X1310Y1981D01*
X1310Y1983D01*
X1306Y1983D01*
X1306Y1985D01*
X1304Y1985D01*
X1304Y1987D01*
X1300Y1987D01*
X1300Y1989D01*
X1298Y1989D01*
X1298Y1991D01*
X1296Y1991D01*
X1296Y1995D01*
X1294Y1995D01*
X1294Y1997D01*
X1292Y1997D01*
X1292Y2001D01*
X1290Y2001D01*
X1290Y2003D01*
X1288Y2003D01*
X1288Y2009D01*
X1286Y2009D01*
X1286Y2017D01*
X1284Y2017D01*
X1284Y2031D01*
X1286Y2031D01*
X1286Y2039D01*
X1288Y2039D01*
X1288Y2043D01*
X1290Y2043D01*
X1290Y2047D01*
X1292Y2047D01*
X1292Y2051D01*
X1294Y2051D01*
X1294Y2053D01*
X1296Y2053D01*
X1296Y2055D01*
X1298Y2055D01*
X1298Y2057D01*
X1300Y2057D01*
X1300Y2059D01*
X1302Y2059D01*
X1302Y2061D01*
X1304Y2061D01*
X1304Y2063D01*
X1306Y2063D01*
X1306Y2085D01*
X1304Y2085D01*
X1304Y2087D01*
X1300Y2087D01*
X1300Y2089D01*
X1298Y2089D01*
X1298Y2091D01*
X1296Y2091D01*
X1296Y2095D01*
X1294Y2095D01*
X1294Y2097D01*
X1292Y2097D01*
X1292Y2101D01*
X1290Y2101D01*
X1290Y2103D01*
X1288Y2103D01*
X1288Y2109D01*
X1286Y2109D01*
X1286Y2117D01*
X1284Y2117D01*
X1284Y2131D01*
X1286Y2131D01*
X1286Y2139D01*
X1288Y2139D01*
X1288Y2143D01*
X1290Y2143D01*
X1290Y2147D01*
X1292Y2147D01*
X1292Y2151D01*
X1294Y2151D01*
X1294Y2153D01*
X1296Y2153D01*
X1296Y2155D01*
X1298Y2155D01*
X1298Y2157D01*
X1300Y2157D01*
X1300Y2159D01*
X1302Y2159D01*
X1302Y2161D01*
X1304Y2161D01*
X1304Y2163D01*
X1306Y2163D01*
X1306Y2173D01*
X654Y2173D01*
G37*
D02*
G36*
X1554Y2173D02*
X1554Y2021D01*
X1552Y2021D01*
X1552Y2015D01*
X1550Y2015D01*
X1550Y2013D01*
X1548Y2013D01*
X1548Y2009D01*
X1544Y2009D01*
X1544Y2007D01*
X1542Y2007D01*
X1542Y2005D01*
X1536Y2005D01*
X1536Y2003D01*
X1374Y2003D01*
X1374Y2001D01*
X1372Y2001D01*
X1372Y1997D01*
X1370Y1997D01*
X1370Y1995D01*
X1368Y1995D01*
X1368Y1993D01*
X1366Y1993D01*
X1366Y1989D01*
X1362Y1989D01*
X1362Y1987D01*
X1360Y1987D01*
X1360Y1985D01*
X1358Y1985D01*
X1358Y1983D01*
X1354Y1983D01*
X1354Y1981D01*
X1350Y1981D01*
X1350Y1979D01*
X1344Y1979D01*
X1344Y1977D01*
X2714Y1977D01*
X2714Y2173D01*
X1554Y2173D01*
G37*
D02*
G36*
X654Y2171D02*
X654Y1971D01*
X942Y1971D01*
X942Y1969D01*
X948Y1969D01*
X948Y1967D01*
X954Y1967D01*
X954Y1965D01*
X956Y1965D01*
X956Y1963D01*
X960Y1963D01*
X960Y1961D01*
X962Y1961D01*
X962Y1959D01*
X964Y1959D01*
X964Y1957D01*
X966Y1957D01*
X966Y1955D01*
X968Y1955D01*
X968Y1953D01*
X970Y1953D01*
X970Y1951D01*
X972Y1951D01*
X972Y1947D01*
X974Y1947D01*
X974Y1943D01*
X976Y1943D01*
X976Y1937D01*
X978Y1937D01*
X978Y1929D01*
X980Y1929D01*
X980Y1919D01*
X978Y1919D01*
X978Y1911D01*
X976Y1911D01*
X976Y1905D01*
X974Y1905D01*
X974Y1901D01*
X972Y1901D01*
X972Y1897D01*
X970Y1897D01*
X970Y1895D01*
X968Y1895D01*
X968Y1893D01*
X966Y1893D01*
X966Y1889D01*
X962Y1889D01*
X962Y1887D01*
X960Y1887D01*
X960Y1885D01*
X958Y1885D01*
X958Y1883D01*
X954Y1883D01*
X954Y1015D01*
X952Y1015D01*
X952Y1011D01*
X950Y1011D01*
X950Y1009D01*
X948Y1009D01*
X948Y1007D01*
X946Y1007D01*
X946Y1005D01*
X944Y1005D01*
X944Y1003D01*
X938Y1003D01*
X938Y1001D01*
X770Y1001D01*
X770Y999D01*
X768Y999D01*
X768Y997D01*
X766Y997D01*
X766Y993D01*
X764Y993D01*
X764Y991D01*
X762Y991D01*
X762Y989D01*
X758Y989D01*
X758Y987D01*
X756Y987D01*
X756Y985D01*
X752Y985D01*
X752Y963D01*
X756Y963D01*
X756Y961D01*
X758Y961D01*
X758Y959D01*
X760Y959D01*
X760Y957D01*
X764Y957D01*
X764Y953D01*
X766Y953D01*
X766Y951D01*
X768Y951D01*
X768Y949D01*
X770Y949D01*
X770Y945D01*
X772Y945D01*
X772Y941D01*
X774Y941D01*
X774Y935D01*
X776Y935D01*
X776Y911D01*
X774Y911D01*
X774Y905D01*
X772Y905D01*
X772Y903D01*
X770Y903D01*
X770Y899D01*
X768Y899D01*
X768Y897D01*
X766Y897D01*
X766Y893D01*
X764Y893D01*
X764Y891D01*
X762Y891D01*
X762Y889D01*
X758Y889D01*
X758Y887D01*
X756Y887D01*
X756Y885D01*
X752Y885D01*
X752Y863D01*
X756Y863D01*
X756Y861D01*
X758Y861D01*
X758Y859D01*
X760Y859D01*
X760Y857D01*
X764Y857D01*
X764Y853D01*
X766Y853D01*
X766Y851D01*
X768Y851D01*
X768Y849D01*
X770Y849D01*
X770Y845D01*
X810Y845D01*
X810Y847D01*
X1010Y847D01*
X1010Y1983D01*
X1006Y1983D01*
X1006Y1985D01*
X1004Y1985D01*
X1004Y1987D01*
X1000Y1987D01*
X1000Y1989D01*
X998Y1989D01*
X998Y1991D01*
X996Y1991D01*
X996Y1995D01*
X994Y1995D01*
X994Y1997D01*
X992Y1997D01*
X992Y2001D01*
X990Y2001D01*
X990Y2003D01*
X988Y2003D01*
X988Y2009D01*
X986Y2009D01*
X986Y2017D01*
X984Y2017D01*
X984Y2031D01*
X986Y2031D01*
X986Y2039D01*
X988Y2039D01*
X988Y2043D01*
X990Y2043D01*
X990Y2047D01*
X992Y2047D01*
X992Y2051D01*
X994Y2051D01*
X994Y2053D01*
X996Y2053D01*
X996Y2055D01*
X998Y2055D01*
X998Y2057D01*
X1000Y2057D01*
X1000Y2059D01*
X1002Y2059D01*
X1002Y2061D01*
X1004Y2061D01*
X1004Y2063D01*
X1006Y2063D01*
X1006Y2085D01*
X1004Y2085D01*
X1004Y2087D01*
X1000Y2087D01*
X1000Y2089D01*
X998Y2089D01*
X998Y2091D01*
X996Y2091D01*
X996Y2095D01*
X994Y2095D01*
X994Y2097D01*
X992Y2097D01*
X992Y2101D01*
X990Y2101D01*
X990Y2103D01*
X988Y2103D01*
X988Y2109D01*
X986Y2109D01*
X986Y2117D01*
X984Y2117D01*
X984Y2131D01*
X986Y2131D01*
X986Y2139D01*
X988Y2139D01*
X988Y2143D01*
X990Y2143D01*
X990Y2147D01*
X992Y2147D01*
X992Y2151D01*
X994Y2151D01*
X994Y2153D01*
X996Y2153D01*
X996Y2155D01*
X998Y2155D01*
X998Y2157D01*
X1000Y2157D01*
X1000Y2159D01*
X1002Y2159D01*
X1002Y2161D01*
X1004Y2161D01*
X1004Y2163D01*
X1006Y2163D01*
X1006Y2165D01*
X1010Y2165D01*
X1010Y2167D01*
X1014Y2167D01*
X1014Y2169D01*
X1022Y2169D01*
X1022Y2171D01*
X654Y2171D01*
G37*
D02*
G36*
X1154Y1977D02*
X1154Y1975D01*
X2714Y1975D01*
X2714Y1977D01*
X1154Y1977D01*
G37*
D02*
G36*
X1154Y1977D02*
X1154Y1975D01*
X2714Y1975D01*
X2714Y1977D01*
X1154Y1977D01*
G37*
D02*
G36*
X1154Y1975D02*
X1154Y1869D01*
X1340Y1869D01*
X1340Y1867D01*
X1346Y1867D01*
X1346Y1865D01*
X1352Y1865D01*
X1352Y1863D01*
X1356Y1863D01*
X1356Y1861D01*
X1358Y1861D01*
X1358Y1859D01*
X1360Y1859D01*
X1360Y1857D01*
X1364Y1857D01*
X1364Y1853D01*
X1366Y1853D01*
X1366Y1851D01*
X1368Y1851D01*
X1368Y1849D01*
X1370Y1849D01*
X1370Y1845D01*
X1372Y1845D01*
X1372Y1841D01*
X1374Y1841D01*
X1374Y1835D01*
X1376Y1835D01*
X1376Y1811D01*
X1374Y1811D01*
X1374Y1805D01*
X1372Y1805D01*
X1372Y1803D01*
X1370Y1803D01*
X1370Y1799D01*
X1368Y1799D01*
X1368Y1797D01*
X1366Y1797D01*
X1366Y1793D01*
X1364Y1793D01*
X1364Y1791D01*
X1362Y1791D01*
X1362Y1789D01*
X1358Y1789D01*
X1358Y1787D01*
X1356Y1787D01*
X1356Y1785D01*
X1352Y1785D01*
X1352Y1773D01*
X2080Y1773D01*
X2080Y1675D01*
X2068Y1675D01*
X2068Y1655D01*
X2070Y1655D01*
X2070Y1653D01*
X2072Y1653D01*
X2072Y1651D01*
X2074Y1651D01*
X2074Y1647D01*
X2076Y1647D01*
X2076Y1643D01*
X2078Y1643D01*
X2078Y1637D01*
X2080Y1637D01*
X2080Y1611D01*
X2078Y1611D01*
X2078Y1605D01*
X2076Y1605D01*
X2076Y1601D01*
X2074Y1601D01*
X2074Y1597D01*
X2072Y1597D01*
X2072Y1595D01*
X2070Y1595D01*
X2070Y1593D01*
X2068Y1593D01*
X2068Y1589D01*
X2066Y1589D01*
X2066Y1587D01*
X2062Y1587D01*
X2062Y1585D01*
X2060Y1585D01*
X2060Y1563D01*
X2062Y1563D01*
X2062Y1561D01*
X2064Y1561D01*
X2064Y1559D01*
X2066Y1559D01*
X2066Y1557D01*
X2068Y1557D01*
X2068Y1555D01*
X2070Y1555D01*
X2070Y1553D01*
X2072Y1553D01*
X2072Y1551D01*
X2074Y1551D01*
X2074Y1547D01*
X2076Y1547D01*
X2076Y1543D01*
X2078Y1543D01*
X2078Y1537D01*
X2080Y1537D01*
X2080Y1511D01*
X2078Y1511D01*
X2078Y1505D01*
X2076Y1505D01*
X2076Y1501D01*
X2074Y1501D01*
X2074Y1497D01*
X2072Y1497D01*
X2072Y1495D01*
X2070Y1495D01*
X2070Y1493D01*
X2068Y1493D01*
X2068Y1489D01*
X2066Y1489D01*
X2066Y1487D01*
X2062Y1487D01*
X2062Y1485D01*
X2060Y1485D01*
X2060Y1483D01*
X2056Y1483D01*
X2056Y1481D01*
X2054Y1481D01*
X2054Y1439D01*
X2052Y1439D01*
X2052Y1415D01*
X2050Y1415D01*
X2050Y1411D01*
X2048Y1411D01*
X2048Y1409D01*
X2046Y1409D01*
X2046Y1407D01*
X2044Y1407D01*
X2044Y1405D01*
X2042Y1405D01*
X2042Y1403D01*
X2036Y1403D01*
X2036Y1401D01*
X1370Y1401D01*
X1370Y1399D01*
X1368Y1399D01*
X1368Y1397D01*
X1366Y1397D01*
X1366Y1393D01*
X1364Y1393D01*
X1364Y1391D01*
X1362Y1391D01*
X1362Y1389D01*
X1358Y1389D01*
X1358Y1387D01*
X1356Y1387D01*
X1356Y1385D01*
X1352Y1385D01*
X1352Y1363D01*
X1356Y1363D01*
X1356Y1361D01*
X1358Y1361D01*
X1358Y1359D01*
X1360Y1359D01*
X1360Y1357D01*
X1364Y1357D01*
X1364Y1353D01*
X1366Y1353D01*
X1366Y1351D01*
X1368Y1351D01*
X1368Y1349D01*
X1370Y1349D01*
X1370Y1345D01*
X1372Y1345D01*
X1372Y1341D01*
X1374Y1341D01*
X1374Y1335D01*
X1376Y1335D01*
X1376Y1311D01*
X1374Y1311D01*
X1374Y1305D01*
X1372Y1305D01*
X1372Y1303D01*
X1370Y1303D01*
X1370Y1299D01*
X1368Y1299D01*
X1368Y1297D01*
X1366Y1297D01*
X1366Y1293D01*
X1364Y1293D01*
X1364Y1291D01*
X1362Y1291D01*
X1362Y1289D01*
X1358Y1289D01*
X1358Y1287D01*
X1356Y1287D01*
X1356Y1285D01*
X1352Y1285D01*
X1352Y1263D01*
X1356Y1263D01*
X1356Y1261D01*
X1358Y1261D01*
X1358Y1259D01*
X1360Y1259D01*
X1360Y1257D01*
X1364Y1257D01*
X1364Y1253D01*
X1366Y1253D01*
X1366Y1251D01*
X1368Y1251D01*
X1368Y1249D01*
X1370Y1249D01*
X1370Y1245D01*
X1372Y1245D01*
X1372Y1241D01*
X1374Y1241D01*
X1374Y1235D01*
X1376Y1235D01*
X1376Y1211D01*
X1374Y1211D01*
X1374Y1205D01*
X1372Y1205D01*
X1372Y1203D01*
X1370Y1203D01*
X1370Y1199D01*
X1368Y1199D01*
X1368Y1197D01*
X1366Y1197D01*
X1366Y1193D01*
X1364Y1193D01*
X1364Y1191D01*
X1362Y1191D01*
X1362Y1189D01*
X1358Y1189D01*
X1358Y1187D01*
X1356Y1187D01*
X1356Y1185D01*
X1352Y1185D01*
X1352Y1163D01*
X1356Y1163D01*
X1356Y1161D01*
X1358Y1161D01*
X1358Y1159D01*
X1360Y1159D01*
X1360Y1157D01*
X1364Y1157D01*
X1364Y1153D01*
X1366Y1153D01*
X1366Y1151D01*
X1368Y1151D01*
X1368Y1149D01*
X1370Y1149D01*
X1370Y1145D01*
X1372Y1145D01*
X1372Y1141D01*
X1374Y1141D01*
X1374Y1135D01*
X1376Y1135D01*
X1376Y1111D01*
X1374Y1111D01*
X1374Y1105D01*
X1372Y1105D01*
X1372Y1103D01*
X1370Y1103D01*
X1370Y1099D01*
X1368Y1099D01*
X1368Y1097D01*
X1366Y1097D01*
X1366Y1093D01*
X1364Y1093D01*
X1364Y1091D01*
X1362Y1091D01*
X1362Y1089D01*
X1358Y1089D01*
X1358Y1087D01*
X1356Y1087D01*
X1356Y1085D01*
X1352Y1085D01*
X1352Y1063D01*
X1356Y1063D01*
X1356Y1061D01*
X1358Y1061D01*
X1358Y1059D01*
X1360Y1059D01*
X1360Y1057D01*
X1364Y1057D01*
X1364Y1053D01*
X1366Y1053D01*
X1366Y1051D01*
X1368Y1051D01*
X1368Y1049D01*
X1370Y1049D01*
X1370Y1045D01*
X1372Y1045D01*
X1372Y1041D01*
X1374Y1041D01*
X1374Y1035D01*
X1376Y1035D01*
X1376Y1011D01*
X1374Y1011D01*
X1374Y1005D01*
X1372Y1005D01*
X1372Y1003D01*
X1370Y1003D01*
X1370Y999D01*
X1368Y999D01*
X1368Y997D01*
X1366Y997D01*
X1366Y993D01*
X1364Y993D01*
X1364Y991D01*
X1362Y991D01*
X1362Y989D01*
X1358Y989D01*
X1358Y987D01*
X1356Y987D01*
X1356Y985D01*
X1352Y985D01*
X1352Y963D01*
X1356Y963D01*
X1356Y961D01*
X1358Y961D01*
X1358Y959D01*
X1360Y959D01*
X1360Y957D01*
X1364Y957D01*
X1364Y953D01*
X1366Y953D01*
X1366Y951D01*
X1368Y951D01*
X1368Y949D01*
X1370Y949D01*
X1370Y945D01*
X1372Y945D01*
X1372Y941D01*
X1374Y941D01*
X1374Y935D01*
X1376Y935D01*
X1376Y911D01*
X1374Y911D01*
X1374Y905D01*
X1372Y905D01*
X1372Y903D01*
X1370Y903D01*
X1370Y899D01*
X1368Y899D01*
X1368Y897D01*
X1366Y897D01*
X1366Y893D01*
X1364Y893D01*
X1364Y891D01*
X1362Y891D01*
X1362Y889D01*
X1358Y889D01*
X1358Y887D01*
X1356Y887D01*
X1356Y885D01*
X1352Y885D01*
X1352Y863D01*
X1356Y863D01*
X1356Y861D01*
X1358Y861D01*
X1358Y859D01*
X1360Y859D01*
X1360Y857D01*
X1364Y857D01*
X1364Y853D01*
X1366Y853D01*
X1366Y851D01*
X1368Y851D01*
X1368Y849D01*
X1370Y849D01*
X1370Y845D01*
X2296Y845D01*
X2296Y843D01*
X2300Y843D01*
X2300Y841D01*
X2302Y841D01*
X2302Y839D01*
X2304Y839D01*
X2304Y837D01*
X2306Y837D01*
X2306Y833D01*
X2308Y833D01*
X2308Y827D01*
X2310Y827D01*
X2310Y749D01*
X2552Y749D01*
X2552Y747D01*
X2560Y747D01*
X2560Y745D01*
X2564Y745D01*
X2564Y743D01*
X2568Y743D01*
X2568Y741D01*
X2570Y741D01*
X2570Y739D01*
X2574Y739D01*
X2574Y737D01*
X2576Y737D01*
X2576Y735D01*
X2578Y735D01*
X2578Y733D01*
X2580Y733D01*
X2580Y731D01*
X2582Y731D01*
X2582Y727D01*
X2584Y727D01*
X2584Y723D01*
X2586Y723D01*
X2586Y721D01*
X2588Y721D01*
X2588Y713D01*
X2590Y713D01*
X2590Y689D01*
X2588Y689D01*
X2588Y683D01*
X2586Y683D01*
X2586Y679D01*
X2584Y679D01*
X2584Y675D01*
X2582Y675D01*
X2582Y673D01*
X2580Y673D01*
X2580Y671D01*
X2578Y671D01*
X2578Y669D01*
X2576Y669D01*
X2576Y667D01*
X2574Y667D01*
X2574Y665D01*
X2572Y665D01*
X2572Y663D01*
X2570Y663D01*
X2570Y661D01*
X2566Y661D01*
X2566Y659D01*
X2562Y659D01*
X2562Y657D01*
X2556Y657D01*
X2556Y655D01*
X2714Y655D01*
X2714Y1975D01*
X1154Y1975D01*
G37*
D02*
G36*
X654Y1971D02*
X654Y1869D01*
X776Y1869D01*
X776Y1779D01*
X758Y1779D01*
X758Y1759D01*
X760Y1759D01*
X760Y1757D01*
X764Y1757D01*
X764Y1753D01*
X766Y1753D01*
X766Y1751D01*
X768Y1751D01*
X768Y1749D01*
X770Y1749D01*
X770Y1745D01*
X772Y1745D01*
X772Y1741D01*
X774Y1741D01*
X774Y1735D01*
X776Y1735D01*
X776Y1711D01*
X774Y1711D01*
X774Y1705D01*
X772Y1705D01*
X772Y1703D01*
X770Y1703D01*
X770Y1699D01*
X768Y1699D01*
X768Y1697D01*
X766Y1697D01*
X766Y1693D01*
X764Y1693D01*
X764Y1691D01*
X762Y1691D01*
X762Y1689D01*
X758Y1689D01*
X758Y1687D01*
X756Y1687D01*
X756Y1685D01*
X752Y1685D01*
X752Y1663D01*
X756Y1663D01*
X756Y1661D01*
X758Y1661D01*
X758Y1659D01*
X760Y1659D01*
X760Y1657D01*
X764Y1657D01*
X764Y1653D01*
X766Y1653D01*
X766Y1651D01*
X768Y1651D01*
X768Y1649D01*
X770Y1649D01*
X770Y1645D01*
X772Y1645D01*
X772Y1641D01*
X774Y1641D01*
X774Y1635D01*
X776Y1635D01*
X776Y1611D01*
X774Y1611D01*
X774Y1605D01*
X772Y1605D01*
X772Y1603D01*
X770Y1603D01*
X770Y1599D01*
X768Y1599D01*
X768Y1597D01*
X766Y1597D01*
X766Y1593D01*
X764Y1593D01*
X764Y1591D01*
X762Y1591D01*
X762Y1589D01*
X758Y1589D01*
X758Y1587D01*
X756Y1587D01*
X756Y1585D01*
X752Y1585D01*
X752Y1563D01*
X756Y1563D01*
X756Y1561D01*
X758Y1561D01*
X758Y1559D01*
X760Y1559D01*
X760Y1557D01*
X764Y1557D01*
X764Y1553D01*
X766Y1553D01*
X766Y1551D01*
X768Y1551D01*
X768Y1549D01*
X770Y1549D01*
X770Y1545D01*
X772Y1545D01*
X772Y1541D01*
X774Y1541D01*
X774Y1535D01*
X776Y1535D01*
X776Y1511D01*
X774Y1511D01*
X774Y1505D01*
X772Y1505D01*
X772Y1503D01*
X770Y1503D01*
X770Y1499D01*
X768Y1499D01*
X768Y1497D01*
X766Y1497D01*
X766Y1493D01*
X764Y1493D01*
X764Y1491D01*
X762Y1491D01*
X762Y1489D01*
X758Y1489D01*
X758Y1487D01*
X756Y1487D01*
X756Y1485D01*
X752Y1485D01*
X752Y1463D01*
X756Y1463D01*
X756Y1461D01*
X758Y1461D01*
X758Y1459D01*
X760Y1459D01*
X760Y1457D01*
X764Y1457D01*
X764Y1453D01*
X766Y1453D01*
X766Y1451D01*
X768Y1451D01*
X768Y1449D01*
X770Y1449D01*
X770Y1445D01*
X772Y1445D01*
X772Y1441D01*
X774Y1441D01*
X774Y1435D01*
X776Y1435D01*
X776Y1411D01*
X774Y1411D01*
X774Y1405D01*
X772Y1405D01*
X772Y1403D01*
X770Y1403D01*
X770Y1399D01*
X768Y1399D01*
X768Y1397D01*
X766Y1397D01*
X766Y1393D01*
X764Y1393D01*
X764Y1391D01*
X762Y1391D01*
X762Y1389D01*
X758Y1389D01*
X758Y1387D01*
X756Y1387D01*
X756Y1385D01*
X752Y1385D01*
X752Y1363D01*
X756Y1363D01*
X756Y1361D01*
X758Y1361D01*
X758Y1359D01*
X760Y1359D01*
X760Y1357D01*
X764Y1357D01*
X764Y1353D01*
X766Y1353D01*
X766Y1351D01*
X768Y1351D01*
X768Y1349D01*
X770Y1349D01*
X770Y1345D01*
X772Y1345D01*
X772Y1341D01*
X774Y1341D01*
X774Y1335D01*
X776Y1335D01*
X776Y1311D01*
X774Y1311D01*
X774Y1305D01*
X772Y1305D01*
X772Y1303D01*
X770Y1303D01*
X770Y1299D01*
X768Y1299D01*
X768Y1297D01*
X766Y1297D01*
X766Y1293D01*
X764Y1293D01*
X764Y1291D01*
X762Y1291D01*
X762Y1289D01*
X758Y1289D01*
X758Y1287D01*
X756Y1287D01*
X756Y1285D01*
X752Y1285D01*
X752Y1263D01*
X756Y1263D01*
X756Y1261D01*
X758Y1261D01*
X758Y1259D01*
X760Y1259D01*
X760Y1257D01*
X764Y1257D01*
X764Y1253D01*
X766Y1253D01*
X766Y1251D01*
X768Y1251D01*
X768Y1249D01*
X770Y1249D01*
X770Y1245D01*
X772Y1245D01*
X772Y1241D01*
X774Y1241D01*
X774Y1235D01*
X776Y1235D01*
X776Y1211D01*
X774Y1211D01*
X774Y1205D01*
X772Y1205D01*
X772Y1203D01*
X770Y1203D01*
X770Y1199D01*
X768Y1199D01*
X768Y1197D01*
X766Y1197D01*
X766Y1193D01*
X764Y1193D01*
X764Y1191D01*
X762Y1191D01*
X762Y1189D01*
X758Y1189D01*
X758Y1187D01*
X756Y1187D01*
X756Y1185D01*
X752Y1185D01*
X752Y1163D01*
X756Y1163D01*
X756Y1161D01*
X758Y1161D01*
X758Y1159D01*
X760Y1159D01*
X760Y1157D01*
X764Y1157D01*
X764Y1153D01*
X766Y1153D01*
X766Y1151D01*
X768Y1151D01*
X768Y1149D01*
X770Y1149D01*
X770Y1145D01*
X812Y1145D01*
X812Y1287D01*
X810Y1287D01*
X810Y1883D01*
X806Y1883D01*
X806Y1885D01*
X804Y1885D01*
X804Y1887D01*
X800Y1887D01*
X800Y1889D01*
X798Y1889D01*
X798Y1891D01*
X796Y1891D01*
X796Y1895D01*
X794Y1895D01*
X794Y1897D01*
X792Y1897D01*
X792Y1901D01*
X790Y1901D01*
X790Y1903D01*
X788Y1903D01*
X788Y1909D01*
X786Y1909D01*
X786Y1917D01*
X784Y1917D01*
X784Y1931D01*
X786Y1931D01*
X786Y1939D01*
X788Y1939D01*
X788Y1943D01*
X790Y1943D01*
X790Y1947D01*
X792Y1947D01*
X792Y1951D01*
X794Y1951D01*
X794Y1953D01*
X796Y1953D01*
X796Y1955D01*
X798Y1955D01*
X798Y1957D01*
X800Y1957D01*
X800Y1959D01*
X802Y1959D01*
X802Y1961D01*
X804Y1961D01*
X804Y1963D01*
X806Y1963D01*
X806Y1965D01*
X810Y1965D01*
X810Y1967D01*
X814Y1967D01*
X814Y1969D01*
X822Y1969D01*
X822Y1971D01*
X654Y1971D01*
G37*
D02*
G36*
X842Y1971D02*
X842Y1969D01*
X848Y1969D01*
X848Y1967D01*
X854Y1967D01*
X854Y1965D01*
X856Y1965D01*
X856Y1963D01*
X860Y1963D01*
X860Y1961D01*
X862Y1961D01*
X862Y1959D01*
X864Y1959D01*
X864Y1957D01*
X866Y1957D01*
X866Y1955D01*
X868Y1955D01*
X868Y1953D01*
X870Y1953D01*
X870Y1951D01*
X872Y1951D01*
X872Y1947D01*
X892Y1947D01*
X892Y1951D01*
X894Y1951D01*
X894Y1953D01*
X896Y1953D01*
X896Y1955D01*
X898Y1955D01*
X898Y1957D01*
X900Y1957D01*
X900Y1959D01*
X902Y1959D01*
X902Y1961D01*
X904Y1961D01*
X904Y1963D01*
X906Y1963D01*
X906Y1965D01*
X910Y1965D01*
X910Y1967D01*
X914Y1967D01*
X914Y1969D01*
X922Y1969D01*
X922Y1971D01*
X842Y1971D01*
G37*
D02*
G36*
X654Y1869D02*
X654Y1565D01*
X656Y1565D01*
X656Y1563D01*
X660Y1563D01*
X660Y1561D01*
X662Y1561D01*
X662Y1559D01*
X664Y1559D01*
X664Y1557D01*
X666Y1557D01*
X666Y1555D01*
X668Y1555D01*
X668Y1553D01*
X670Y1553D01*
X670Y1551D01*
X672Y1551D01*
X672Y1547D01*
X694Y1547D01*
X694Y1549D01*
X696Y1549D01*
X696Y1551D01*
X698Y1551D01*
X698Y1555D01*
X700Y1555D01*
X700Y1557D01*
X702Y1557D01*
X702Y1559D01*
X706Y1559D01*
X706Y1561D01*
X708Y1561D01*
X708Y1563D01*
X712Y1563D01*
X712Y1585D01*
X708Y1585D01*
X708Y1587D01*
X704Y1587D01*
X704Y1589D01*
X702Y1589D01*
X702Y1591D01*
X700Y1591D01*
X700Y1593D01*
X698Y1593D01*
X698Y1595D01*
X696Y1595D01*
X696Y1599D01*
X694Y1599D01*
X694Y1601D01*
X692Y1601D01*
X692Y1605D01*
X690Y1605D01*
X690Y1611D01*
X688Y1611D01*
X688Y1621D01*
X686Y1621D01*
X686Y1627D01*
X688Y1627D01*
X688Y1637D01*
X690Y1637D01*
X690Y1643D01*
X692Y1643D01*
X692Y1647D01*
X694Y1647D01*
X694Y1649D01*
X696Y1649D01*
X696Y1651D01*
X698Y1651D01*
X698Y1655D01*
X700Y1655D01*
X700Y1657D01*
X702Y1657D01*
X702Y1659D01*
X706Y1659D01*
X706Y1661D01*
X708Y1661D01*
X708Y1663D01*
X712Y1663D01*
X712Y1685D01*
X708Y1685D01*
X708Y1687D01*
X704Y1687D01*
X704Y1689D01*
X702Y1689D01*
X702Y1691D01*
X700Y1691D01*
X700Y1693D01*
X698Y1693D01*
X698Y1695D01*
X696Y1695D01*
X696Y1699D01*
X694Y1699D01*
X694Y1701D01*
X692Y1701D01*
X692Y1705D01*
X690Y1705D01*
X690Y1711D01*
X688Y1711D01*
X688Y1721D01*
X686Y1721D01*
X686Y1727D01*
X688Y1727D01*
X688Y1737D01*
X690Y1737D01*
X690Y1743D01*
X692Y1743D01*
X692Y1747D01*
X694Y1747D01*
X694Y1749D01*
X696Y1749D01*
X696Y1751D01*
X698Y1751D01*
X698Y1755D01*
X700Y1755D01*
X700Y1757D01*
X702Y1757D01*
X702Y1759D01*
X706Y1759D01*
X706Y1779D01*
X686Y1779D01*
X686Y1869D01*
X654Y1869D01*
G37*
D02*
G36*
X1154Y1869D02*
X1154Y725D01*
X1152Y725D01*
X1152Y717D01*
X1150Y717D01*
X1150Y713D01*
X1148Y713D01*
X1148Y711D01*
X1146Y711D01*
X1146Y709D01*
X1144Y709D01*
X1144Y707D01*
X1142Y707D01*
X1142Y705D01*
X1136Y705D01*
X1136Y703D01*
X792Y703D01*
X792Y701D01*
X770Y701D01*
X770Y699D01*
X768Y699D01*
X768Y697D01*
X766Y697D01*
X766Y693D01*
X764Y693D01*
X764Y691D01*
X762Y691D01*
X762Y689D01*
X758Y689D01*
X758Y687D01*
X756Y687D01*
X756Y685D01*
X752Y685D01*
X752Y663D01*
X756Y663D01*
X756Y661D01*
X758Y661D01*
X758Y659D01*
X760Y659D01*
X760Y657D01*
X764Y657D01*
X764Y653D01*
X766Y653D01*
X766Y651D01*
X768Y651D01*
X768Y649D01*
X770Y649D01*
X770Y645D01*
X772Y645D01*
X772Y641D01*
X774Y641D01*
X774Y635D01*
X776Y635D01*
X776Y611D01*
X774Y611D01*
X774Y605D01*
X772Y605D01*
X772Y603D01*
X770Y603D01*
X770Y599D01*
X768Y599D01*
X768Y597D01*
X766Y597D01*
X766Y593D01*
X764Y593D01*
X764Y591D01*
X762Y591D01*
X762Y589D01*
X758Y589D01*
X758Y587D01*
X756Y587D01*
X756Y585D01*
X752Y585D01*
X752Y563D01*
X756Y563D01*
X756Y561D01*
X758Y561D01*
X758Y559D01*
X760Y559D01*
X760Y557D01*
X764Y557D01*
X764Y553D01*
X766Y553D01*
X766Y551D01*
X768Y551D01*
X768Y549D01*
X770Y549D01*
X770Y545D01*
X772Y545D01*
X772Y541D01*
X774Y541D01*
X774Y535D01*
X776Y535D01*
X776Y511D01*
X774Y511D01*
X774Y505D01*
X772Y505D01*
X772Y503D01*
X770Y503D01*
X770Y499D01*
X768Y499D01*
X768Y497D01*
X766Y497D01*
X766Y493D01*
X764Y493D01*
X764Y491D01*
X762Y491D01*
X762Y489D01*
X758Y489D01*
X758Y487D01*
X756Y487D01*
X756Y485D01*
X752Y485D01*
X752Y463D01*
X756Y463D01*
X756Y461D01*
X758Y461D01*
X758Y459D01*
X760Y459D01*
X760Y457D01*
X764Y457D01*
X764Y453D01*
X766Y453D01*
X766Y451D01*
X768Y451D01*
X768Y449D01*
X770Y449D01*
X770Y445D01*
X772Y445D01*
X772Y441D01*
X774Y441D01*
X774Y435D01*
X776Y435D01*
X776Y411D01*
X774Y411D01*
X774Y405D01*
X772Y405D01*
X772Y403D01*
X770Y403D01*
X770Y399D01*
X768Y399D01*
X768Y397D01*
X766Y397D01*
X766Y393D01*
X764Y393D01*
X764Y391D01*
X762Y391D01*
X762Y389D01*
X758Y389D01*
X758Y387D01*
X756Y387D01*
X756Y385D01*
X752Y385D01*
X752Y383D01*
X748Y383D01*
X748Y381D01*
X742Y381D01*
X742Y379D01*
X1322Y379D01*
X1322Y381D01*
X1316Y381D01*
X1316Y383D01*
X1312Y383D01*
X1312Y385D01*
X1308Y385D01*
X1308Y387D01*
X1304Y387D01*
X1304Y389D01*
X1302Y389D01*
X1302Y391D01*
X1300Y391D01*
X1300Y393D01*
X1298Y393D01*
X1298Y395D01*
X1296Y395D01*
X1296Y399D01*
X1294Y399D01*
X1294Y401D01*
X1292Y401D01*
X1292Y405D01*
X1290Y405D01*
X1290Y411D01*
X1288Y411D01*
X1288Y421D01*
X1286Y421D01*
X1286Y427D01*
X1288Y427D01*
X1288Y437D01*
X1290Y437D01*
X1290Y443D01*
X1292Y443D01*
X1292Y447D01*
X1294Y447D01*
X1294Y449D01*
X1296Y449D01*
X1296Y451D01*
X1298Y451D01*
X1298Y455D01*
X1300Y455D01*
X1300Y457D01*
X1302Y457D01*
X1302Y459D01*
X1306Y459D01*
X1306Y461D01*
X1308Y461D01*
X1308Y463D01*
X1312Y463D01*
X1312Y485D01*
X1308Y485D01*
X1308Y487D01*
X1304Y487D01*
X1304Y489D01*
X1302Y489D01*
X1302Y491D01*
X1300Y491D01*
X1300Y493D01*
X1298Y493D01*
X1298Y495D01*
X1296Y495D01*
X1296Y499D01*
X1294Y499D01*
X1294Y501D01*
X1292Y501D01*
X1292Y505D01*
X1290Y505D01*
X1290Y511D01*
X1288Y511D01*
X1288Y521D01*
X1286Y521D01*
X1286Y527D01*
X1288Y527D01*
X1288Y537D01*
X1290Y537D01*
X1290Y543D01*
X1292Y543D01*
X1292Y547D01*
X1294Y547D01*
X1294Y549D01*
X1296Y549D01*
X1296Y551D01*
X1298Y551D01*
X1298Y555D01*
X1300Y555D01*
X1300Y557D01*
X1302Y557D01*
X1302Y559D01*
X1306Y559D01*
X1306Y561D01*
X1308Y561D01*
X1308Y563D01*
X1312Y563D01*
X1312Y585D01*
X1308Y585D01*
X1308Y587D01*
X1304Y587D01*
X1304Y589D01*
X1302Y589D01*
X1302Y591D01*
X1300Y591D01*
X1300Y593D01*
X1298Y593D01*
X1298Y595D01*
X1296Y595D01*
X1296Y599D01*
X1294Y599D01*
X1294Y601D01*
X1292Y601D01*
X1292Y605D01*
X1290Y605D01*
X1290Y611D01*
X1288Y611D01*
X1288Y621D01*
X1286Y621D01*
X1286Y627D01*
X1288Y627D01*
X1288Y637D01*
X1290Y637D01*
X1290Y643D01*
X1292Y643D01*
X1292Y647D01*
X1294Y647D01*
X1294Y649D01*
X1296Y649D01*
X1296Y651D01*
X1298Y651D01*
X1298Y655D01*
X1300Y655D01*
X1300Y657D01*
X1302Y657D01*
X1302Y659D01*
X1306Y659D01*
X1306Y661D01*
X1308Y661D01*
X1308Y663D01*
X1312Y663D01*
X1312Y685D01*
X1308Y685D01*
X1308Y687D01*
X1304Y687D01*
X1304Y689D01*
X1302Y689D01*
X1302Y691D01*
X1300Y691D01*
X1300Y693D01*
X1298Y693D01*
X1298Y695D01*
X1296Y695D01*
X1296Y699D01*
X1294Y699D01*
X1294Y701D01*
X1292Y701D01*
X1292Y705D01*
X1290Y705D01*
X1290Y711D01*
X1288Y711D01*
X1288Y721D01*
X1286Y721D01*
X1286Y727D01*
X1288Y727D01*
X1288Y737D01*
X1290Y737D01*
X1290Y743D01*
X1292Y743D01*
X1292Y747D01*
X1294Y747D01*
X1294Y749D01*
X1296Y749D01*
X1296Y751D01*
X1298Y751D01*
X1298Y755D01*
X1300Y755D01*
X1300Y757D01*
X1302Y757D01*
X1302Y759D01*
X1306Y759D01*
X1306Y761D01*
X1308Y761D01*
X1308Y763D01*
X1312Y763D01*
X1312Y785D01*
X1308Y785D01*
X1308Y787D01*
X1304Y787D01*
X1304Y789D01*
X1302Y789D01*
X1302Y791D01*
X1300Y791D01*
X1300Y793D01*
X1298Y793D01*
X1298Y795D01*
X1296Y795D01*
X1296Y799D01*
X1294Y799D01*
X1294Y801D01*
X1292Y801D01*
X1292Y805D01*
X1290Y805D01*
X1290Y811D01*
X1288Y811D01*
X1288Y821D01*
X1286Y821D01*
X1286Y827D01*
X1288Y827D01*
X1288Y837D01*
X1290Y837D01*
X1290Y843D01*
X1292Y843D01*
X1292Y847D01*
X1294Y847D01*
X1294Y849D01*
X1296Y849D01*
X1296Y851D01*
X1298Y851D01*
X1298Y855D01*
X1300Y855D01*
X1300Y857D01*
X1302Y857D01*
X1302Y859D01*
X1306Y859D01*
X1306Y861D01*
X1308Y861D01*
X1308Y863D01*
X1312Y863D01*
X1312Y885D01*
X1308Y885D01*
X1308Y887D01*
X1304Y887D01*
X1304Y889D01*
X1302Y889D01*
X1302Y891D01*
X1300Y891D01*
X1300Y893D01*
X1298Y893D01*
X1298Y895D01*
X1296Y895D01*
X1296Y899D01*
X1294Y899D01*
X1294Y901D01*
X1292Y901D01*
X1292Y905D01*
X1290Y905D01*
X1290Y911D01*
X1288Y911D01*
X1288Y921D01*
X1286Y921D01*
X1286Y927D01*
X1288Y927D01*
X1288Y937D01*
X1290Y937D01*
X1290Y943D01*
X1292Y943D01*
X1292Y947D01*
X1294Y947D01*
X1294Y949D01*
X1296Y949D01*
X1296Y951D01*
X1298Y951D01*
X1298Y955D01*
X1300Y955D01*
X1300Y957D01*
X1302Y957D01*
X1302Y959D01*
X1306Y959D01*
X1306Y961D01*
X1308Y961D01*
X1308Y963D01*
X1312Y963D01*
X1312Y985D01*
X1308Y985D01*
X1308Y987D01*
X1304Y987D01*
X1304Y989D01*
X1302Y989D01*
X1302Y991D01*
X1300Y991D01*
X1300Y993D01*
X1298Y993D01*
X1298Y995D01*
X1296Y995D01*
X1296Y999D01*
X1294Y999D01*
X1294Y1001D01*
X1292Y1001D01*
X1292Y1005D01*
X1290Y1005D01*
X1290Y1011D01*
X1288Y1011D01*
X1288Y1021D01*
X1286Y1021D01*
X1286Y1027D01*
X1288Y1027D01*
X1288Y1037D01*
X1290Y1037D01*
X1290Y1043D01*
X1292Y1043D01*
X1292Y1047D01*
X1294Y1047D01*
X1294Y1049D01*
X1296Y1049D01*
X1296Y1051D01*
X1298Y1051D01*
X1298Y1055D01*
X1300Y1055D01*
X1300Y1057D01*
X1302Y1057D01*
X1302Y1059D01*
X1306Y1059D01*
X1306Y1061D01*
X1308Y1061D01*
X1308Y1063D01*
X1312Y1063D01*
X1312Y1085D01*
X1308Y1085D01*
X1308Y1087D01*
X1304Y1087D01*
X1304Y1089D01*
X1302Y1089D01*
X1302Y1091D01*
X1300Y1091D01*
X1300Y1093D01*
X1298Y1093D01*
X1298Y1095D01*
X1296Y1095D01*
X1296Y1099D01*
X1294Y1099D01*
X1294Y1101D01*
X1292Y1101D01*
X1292Y1105D01*
X1290Y1105D01*
X1290Y1111D01*
X1288Y1111D01*
X1288Y1121D01*
X1286Y1121D01*
X1286Y1127D01*
X1288Y1127D01*
X1288Y1137D01*
X1290Y1137D01*
X1290Y1143D01*
X1292Y1143D01*
X1292Y1147D01*
X1294Y1147D01*
X1294Y1149D01*
X1296Y1149D01*
X1296Y1151D01*
X1298Y1151D01*
X1298Y1155D01*
X1300Y1155D01*
X1300Y1157D01*
X1302Y1157D01*
X1302Y1159D01*
X1306Y1159D01*
X1306Y1161D01*
X1308Y1161D01*
X1308Y1163D01*
X1312Y1163D01*
X1312Y1185D01*
X1308Y1185D01*
X1308Y1187D01*
X1304Y1187D01*
X1304Y1189D01*
X1302Y1189D01*
X1302Y1191D01*
X1300Y1191D01*
X1300Y1193D01*
X1298Y1193D01*
X1298Y1195D01*
X1296Y1195D01*
X1296Y1199D01*
X1294Y1199D01*
X1294Y1201D01*
X1292Y1201D01*
X1292Y1205D01*
X1290Y1205D01*
X1290Y1211D01*
X1288Y1211D01*
X1288Y1221D01*
X1286Y1221D01*
X1286Y1227D01*
X1288Y1227D01*
X1288Y1237D01*
X1290Y1237D01*
X1290Y1243D01*
X1292Y1243D01*
X1292Y1247D01*
X1294Y1247D01*
X1294Y1249D01*
X1296Y1249D01*
X1296Y1251D01*
X1298Y1251D01*
X1298Y1255D01*
X1300Y1255D01*
X1300Y1257D01*
X1302Y1257D01*
X1302Y1259D01*
X1306Y1259D01*
X1306Y1261D01*
X1308Y1261D01*
X1308Y1263D01*
X1312Y1263D01*
X1312Y1285D01*
X1308Y1285D01*
X1308Y1287D01*
X1304Y1287D01*
X1304Y1289D01*
X1302Y1289D01*
X1302Y1291D01*
X1300Y1291D01*
X1300Y1293D01*
X1298Y1293D01*
X1298Y1295D01*
X1296Y1295D01*
X1296Y1299D01*
X1294Y1299D01*
X1294Y1301D01*
X1292Y1301D01*
X1292Y1305D01*
X1290Y1305D01*
X1290Y1311D01*
X1288Y1311D01*
X1288Y1321D01*
X1286Y1321D01*
X1286Y1327D01*
X1288Y1327D01*
X1288Y1337D01*
X1290Y1337D01*
X1290Y1343D01*
X1292Y1343D01*
X1292Y1347D01*
X1294Y1347D01*
X1294Y1349D01*
X1296Y1349D01*
X1296Y1351D01*
X1298Y1351D01*
X1298Y1355D01*
X1300Y1355D01*
X1300Y1357D01*
X1302Y1357D01*
X1302Y1359D01*
X1306Y1359D01*
X1306Y1361D01*
X1308Y1361D01*
X1308Y1363D01*
X1312Y1363D01*
X1312Y1385D01*
X1308Y1385D01*
X1308Y1387D01*
X1304Y1387D01*
X1304Y1389D01*
X1302Y1389D01*
X1302Y1391D01*
X1300Y1391D01*
X1300Y1393D01*
X1298Y1393D01*
X1298Y1395D01*
X1296Y1395D01*
X1296Y1399D01*
X1294Y1399D01*
X1294Y1401D01*
X1292Y1401D01*
X1292Y1405D01*
X1290Y1405D01*
X1290Y1411D01*
X1288Y1411D01*
X1288Y1421D01*
X1286Y1421D01*
X1286Y1427D01*
X1288Y1427D01*
X1288Y1437D01*
X1290Y1437D01*
X1290Y1443D01*
X1292Y1443D01*
X1292Y1447D01*
X1294Y1447D01*
X1294Y1449D01*
X1296Y1449D01*
X1296Y1451D01*
X1298Y1451D01*
X1298Y1455D01*
X1300Y1455D01*
X1300Y1457D01*
X1302Y1457D01*
X1302Y1459D01*
X1306Y1459D01*
X1306Y1461D01*
X1308Y1461D01*
X1308Y1463D01*
X1312Y1463D01*
X1312Y1485D01*
X1308Y1485D01*
X1308Y1487D01*
X1304Y1487D01*
X1304Y1489D01*
X1302Y1489D01*
X1302Y1491D01*
X1300Y1491D01*
X1300Y1493D01*
X1298Y1493D01*
X1298Y1495D01*
X1296Y1495D01*
X1296Y1499D01*
X1294Y1499D01*
X1294Y1501D01*
X1292Y1501D01*
X1292Y1505D01*
X1290Y1505D01*
X1290Y1511D01*
X1288Y1511D01*
X1288Y1521D01*
X1286Y1521D01*
X1286Y1527D01*
X1288Y1527D01*
X1288Y1537D01*
X1290Y1537D01*
X1290Y1543D01*
X1292Y1543D01*
X1292Y1547D01*
X1294Y1547D01*
X1294Y1549D01*
X1296Y1549D01*
X1296Y1551D01*
X1298Y1551D01*
X1298Y1555D01*
X1300Y1555D01*
X1300Y1557D01*
X1302Y1557D01*
X1302Y1559D01*
X1306Y1559D01*
X1306Y1561D01*
X1308Y1561D01*
X1308Y1563D01*
X1312Y1563D01*
X1312Y1585D01*
X1308Y1585D01*
X1308Y1587D01*
X1304Y1587D01*
X1304Y1589D01*
X1302Y1589D01*
X1302Y1591D01*
X1300Y1591D01*
X1300Y1593D01*
X1298Y1593D01*
X1298Y1595D01*
X1296Y1595D01*
X1296Y1599D01*
X1294Y1599D01*
X1294Y1601D01*
X1292Y1601D01*
X1292Y1605D01*
X1290Y1605D01*
X1290Y1611D01*
X1288Y1611D01*
X1288Y1621D01*
X1286Y1621D01*
X1286Y1627D01*
X1288Y1627D01*
X1288Y1637D01*
X1290Y1637D01*
X1290Y1643D01*
X1292Y1643D01*
X1292Y1647D01*
X1294Y1647D01*
X1294Y1649D01*
X1296Y1649D01*
X1296Y1651D01*
X1298Y1651D01*
X1298Y1655D01*
X1300Y1655D01*
X1300Y1657D01*
X1302Y1657D01*
X1302Y1659D01*
X1306Y1659D01*
X1306Y1661D01*
X1308Y1661D01*
X1308Y1663D01*
X1312Y1663D01*
X1312Y1685D01*
X1308Y1685D01*
X1308Y1687D01*
X1304Y1687D01*
X1304Y1689D01*
X1302Y1689D01*
X1302Y1691D01*
X1300Y1691D01*
X1300Y1693D01*
X1298Y1693D01*
X1298Y1695D01*
X1296Y1695D01*
X1296Y1699D01*
X1294Y1699D01*
X1294Y1701D01*
X1292Y1701D01*
X1292Y1705D01*
X1290Y1705D01*
X1290Y1711D01*
X1288Y1711D01*
X1288Y1721D01*
X1286Y1721D01*
X1286Y1727D01*
X1288Y1727D01*
X1288Y1737D01*
X1290Y1737D01*
X1290Y1743D01*
X1292Y1743D01*
X1292Y1747D01*
X1294Y1747D01*
X1294Y1749D01*
X1296Y1749D01*
X1296Y1751D01*
X1298Y1751D01*
X1298Y1755D01*
X1300Y1755D01*
X1300Y1757D01*
X1302Y1757D01*
X1302Y1759D01*
X1306Y1759D01*
X1306Y1761D01*
X1308Y1761D01*
X1308Y1763D01*
X1312Y1763D01*
X1312Y1785D01*
X1308Y1785D01*
X1308Y1787D01*
X1304Y1787D01*
X1304Y1789D01*
X1302Y1789D01*
X1302Y1791D01*
X1300Y1791D01*
X1300Y1793D01*
X1298Y1793D01*
X1298Y1795D01*
X1296Y1795D01*
X1296Y1799D01*
X1294Y1799D01*
X1294Y1801D01*
X1292Y1801D01*
X1292Y1805D01*
X1290Y1805D01*
X1290Y1811D01*
X1288Y1811D01*
X1288Y1821D01*
X1286Y1821D01*
X1286Y1827D01*
X1288Y1827D01*
X1288Y1837D01*
X1290Y1837D01*
X1290Y1843D01*
X1292Y1843D01*
X1292Y1847D01*
X1294Y1847D01*
X1294Y1849D01*
X1296Y1849D01*
X1296Y1851D01*
X1298Y1851D01*
X1298Y1855D01*
X1300Y1855D01*
X1300Y1857D01*
X1302Y1857D01*
X1302Y1859D01*
X1306Y1859D01*
X1306Y1861D01*
X1308Y1861D01*
X1308Y1863D01*
X1312Y1863D01*
X1312Y1865D01*
X1316Y1865D01*
X1316Y1867D01*
X1324Y1867D01*
X1324Y1869D01*
X1154Y1869D01*
G37*
D02*
G36*
X1352Y1773D02*
X1352Y1769D01*
X1540Y1769D01*
X1540Y1767D01*
X1546Y1767D01*
X1546Y1765D01*
X1552Y1765D01*
X1552Y1763D01*
X1556Y1763D01*
X1556Y1761D01*
X1558Y1761D01*
X1558Y1759D01*
X1560Y1759D01*
X1560Y1757D01*
X1564Y1757D01*
X1564Y1753D01*
X1566Y1753D01*
X1566Y1751D01*
X1568Y1751D01*
X1568Y1749D01*
X1570Y1749D01*
X1570Y1745D01*
X1572Y1745D01*
X1572Y1741D01*
X1574Y1741D01*
X1574Y1735D01*
X1576Y1735D01*
X1576Y1711D01*
X1574Y1711D01*
X1574Y1705D01*
X1572Y1705D01*
X1572Y1703D01*
X1570Y1703D01*
X1570Y1699D01*
X1568Y1699D01*
X1568Y1697D01*
X1566Y1697D01*
X1566Y1693D01*
X1564Y1693D01*
X1564Y1691D01*
X1562Y1691D01*
X1562Y1689D01*
X1558Y1689D01*
X1558Y1687D01*
X1556Y1687D01*
X1556Y1685D01*
X1552Y1685D01*
X1552Y1683D01*
X1548Y1683D01*
X1548Y1681D01*
X1542Y1681D01*
X1542Y1679D01*
X1982Y1679D01*
X1982Y1773D01*
X1352Y1773D01*
G37*
D02*
G36*
X1352Y1769D02*
X1352Y1763D01*
X1356Y1763D01*
X1356Y1761D01*
X1358Y1761D01*
X1358Y1759D01*
X1360Y1759D01*
X1360Y1757D01*
X1364Y1757D01*
X1364Y1753D01*
X1366Y1753D01*
X1366Y1751D01*
X1368Y1751D01*
X1368Y1749D01*
X1370Y1749D01*
X1370Y1745D01*
X1372Y1745D01*
X1372Y1741D01*
X1374Y1741D01*
X1374Y1735D01*
X1376Y1735D01*
X1376Y1711D01*
X1374Y1711D01*
X1374Y1705D01*
X1372Y1705D01*
X1372Y1703D01*
X1370Y1703D01*
X1370Y1699D01*
X1368Y1699D01*
X1368Y1697D01*
X1366Y1697D01*
X1366Y1693D01*
X1364Y1693D01*
X1364Y1691D01*
X1362Y1691D01*
X1362Y1689D01*
X1358Y1689D01*
X1358Y1687D01*
X1356Y1687D01*
X1356Y1685D01*
X1352Y1685D01*
X1352Y1679D01*
X1522Y1679D01*
X1522Y1681D01*
X1516Y1681D01*
X1516Y1683D01*
X1512Y1683D01*
X1512Y1685D01*
X1508Y1685D01*
X1508Y1687D01*
X1504Y1687D01*
X1504Y1689D01*
X1502Y1689D01*
X1502Y1691D01*
X1500Y1691D01*
X1500Y1693D01*
X1498Y1693D01*
X1498Y1695D01*
X1496Y1695D01*
X1496Y1699D01*
X1494Y1699D01*
X1494Y1701D01*
X1492Y1701D01*
X1492Y1705D01*
X1490Y1705D01*
X1490Y1711D01*
X1488Y1711D01*
X1488Y1721D01*
X1486Y1721D01*
X1486Y1727D01*
X1488Y1727D01*
X1488Y1737D01*
X1490Y1737D01*
X1490Y1743D01*
X1492Y1743D01*
X1492Y1747D01*
X1494Y1747D01*
X1494Y1749D01*
X1496Y1749D01*
X1496Y1751D01*
X1498Y1751D01*
X1498Y1755D01*
X1500Y1755D01*
X1500Y1757D01*
X1502Y1757D01*
X1502Y1759D01*
X1506Y1759D01*
X1506Y1761D01*
X1508Y1761D01*
X1508Y1763D01*
X1512Y1763D01*
X1512Y1765D01*
X1516Y1765D01*
X1516Y1767D01*
X1524Y1767D01*
X1524Y1769D01*
X1352Y1769D01*
G37*
D02*
G36*
X1352Y1679D02*
X1352Y1677D01*
X1982Y1677D01*
X1982Y1679D01*
X1352Y1679D01*
G37*
D02*
G36*
X1352Y1679D02*
X1352Y1677D01*
X1982Y1677D01*
X1982Y1679D01*
X1352Y1679D01*
G37*
D02*
G36*
X1352Y1677D02*
X1352Y1663D01*
X1356Y1663D01*
X1356Y1661D01*
X1358Y1661D01*
X1358Y1659D01*
X1360Y1659D01*
X1360Y1657D01*
X1364Y1657D01*
X1364Y1653D01*
X1366Y1653D01*
X1366Y1651D01*
X1368Y1651D01*
X1368Y1649D01*
X1370Y1649D01*
X1370Y1645D01*
X1372Y1645D01*
X1372Y1641D01*
X1374Y1641D01*
X1374Y1635D01*
X1376Y1635D01*
X1376Y1611D01*
X1374Y1611D01*
X1374Y1605D01*
X1372Y1605D01*
X1372Y1603D01*
X1370Y1603D01*
X1370Y1599D01*
X1368Y1599D01*
X1368Y1597D01*
X1366Y1597D01*
X1366Y1593D01*
X1364Y1593D01*
X1364Y1591D01*
X1362Y1591D01*
X1362Y1589D01*
X1358Y1589D01*
X1358Y1587D01*
X1356Y1587D01*
X1356Y1585D01*
X1352Y1585D01*
X1352Y1569D01*
X1540Y1569D01*
X1540Y1567D01*
X1546Y1567D01*
X1546Y1565D01*
X1552Y1565D01*
X1552Y1563D01*
X1556Y1563D01*
X1556Y1561D01*
X1558Y1561D01*
X1558Y1559D01*
X1560Y1559D01*
X1560Y1557D01*
X1590Y1557D01*
X1590Y1559D01*
X1600Y1559D01*
X1600Y1561D01*
X1610Y1561D01*
X1610Y1563D01*
X1620Y1563D01*
X1620Y1565D01*
X1630Y1565D01*
X1630Y1567D01*
X1640Y1567D01*
X1640Y1569D01*
X1650Y1569D01*
X1650Y1571D01*
X1660Y1571D01*
X1660Y1573D01*
X1670Y1573D01*
X1670Y1575D01*
X1680Y1575D01*
X1680Y1577D01*
X1690Y1577D01*
X1690Y1579D01*
X1700Y1579D01*
X1700Y1581D01*
X1710Y1581D01*
X1710Y1583D01*
X1720Y1583D01*
X1720Y1585D01*
X1730Y1585D01*
X1730Y1587D01*
X1740Y1587D01*
X1740Y1589D01*
X1750Y1589D01*
X1750Y1591D01*
X1760Y1591D01*
X1760Y1593D01*
X1770Y1593D01*
X1770Y1595D01*
X1780Y1595D01*
X1780Y1597D01*
X1790Y1597D01*
X1790Y1599D01*
X1800Y1599D01*
X1800Y1601D01*
X1810Y1601D01*
X1810Y1603D01*
X1820Y1603D01*
X1820Y1605D01*
X1830Y1605D01*
X1830Y1607D01*
X1840Y1607D01*
X1840Y1609D01*
X1850Y1609D01*
X1850Y1611D01*
X1860Y1611D01*
X1860Y1613D01*
X1870Y1613D01*
X1870Y1615D01*
X1880Y1615D01*
X1880Y1617D01*
X1890Y1617D01*
X1890Y1619D01*
X1900Y1619D01*
X1900Y1621D01*
X1910Y1621D01*
X1910Y1623D01*
X1920Y1623D01*
X1920Y1625D01*
X1930Y1625D01*
X1930Y1627D01*
X1940Y1627D01*
X1940Y1629D01*
X1950Y1629D01*
X1950Y1631D01*
X1960Y1631D01*
X1960Y1633D01*
X1970Y1633D01*
X1970Y1635D01*
X1980Y1635D01*
X1980Y1637D01*
X1986Y1637D01*
X1986Y1643D01*
X1988Y1643D01*
X1988Y1647D01*
X1990Y1647D01*
X1990Y1651D01*
X1992Y1651D01*
X1992Y1653D01*
X1994Y1653D01*
X1994Y1655D01*
X1996Y1655D01*
X1996Y1675D01*
X1982Y1675D01*
X1982Y1677D01*
X1352Y1677D01*
G37*
D02*
G36*
X372Y1601D02*
X372Y1597D01*
X370Y1597D01*
X370Y1595D01*
X368Y1595D01*
X368Y1593D01*
X366Y1593D01*
X366Y1589D01*
X362Y1589D01*
X362Y1587D01*
X360Y1587D01*
X360Y1585D01*
X358Y1585D01*
X358Y1583D01*
X354Y1583D01*
X354Y1581D01*
X350Y1581D01*
X350Y1579D01*
X344Y1579D01*
X344Y1577D01*
X420Y1577D01*
X420Y1579D01*
X414Y1579D01*
X414Y1581D01*
X410Y1581D01*
X410Y1583D01*
X406Y1583D01*
X406Y1585D01*
X404Y1585D01*
X404Y1587D01*
X400Y1587D01*
X400Y1589D01*
X398Y1589D01*
X398Y1591D01*
X396Y1591D01*
X396Y1595D01*
X394Y1595D01*
X394Y1597D01*
X392Y1597D01*
X392Y1601D01*
X372Y1601D01*
G37*
D02*
G36*
X472Y1601D02*
X472Y1597D01*
X470Y1597D01*
X470Y1595D01*
X468Y1595D01*
X468Y1593D01*
X466Y1593D01*
X466Y1589D01*
X462Y1589D01*
X462Y1587D01*
X460Y1587D01*
X460Y1585D01*
X458Y1585D01*
X458Y1583D01*
X454Y1583D01*
X454Y1581D01*
X450Y1581D01*
X450Y1579D01*
X444Y1579D01*
X444Y1577D01*
X520Y1577D01*
X520Y1579D01*
X514Y1579D01*
X514Y1581D01*
X510Y1581D01*
X510Y1583D01*
X506Y1583D01*
X506Y1585D01*
X504Y1585D01*
X504Y1587D01*
X500Y1587D01*
X500Y1589D01*
X498Y1589D01*
X498Y1591D01*
X496Y1591D01*
X496Y1595D01*
X494Y1595D01*
X494Y1597D01*
X492Y1597D01*
X492Y1601D01*
X472Y1601D01*
G37*
D02*
G36*
X254Y1577D02*
X254Y1575D01*
X610Y1575D01*
X610Y1577D01*
X254Y1577D01*
G37*
D02*
G36*
X254Y1577D02*
X254Y1575D01*
X610Y1575D01*
X610Y1577D01*
X254Y1577D01*
G37*
D02*
G36*
X254Y1577D02*
X254Y1575D01*
X610Y1575D01*
X610Y1577D01*
X254Y1577D01*
G37*
D02*
G36*
X254Y1577D02*
X254Y1575D01*
X610Y1575D01*
X610Y1577D01*
X254Y1577D01*
G37*
D02*
G36*
X254Y1575D02*
X254Y1477D01*
X620Y1477D01*
X620Y1479D01*
X614Y1479D01*
X614Y1481D01*
X610Y1481D01*
X610Y1483D01*
X606Y1483D01*
X606Y1485D01*
X604Y1485D01*
X604Y1487D01*
X600Y1487D01*
X600Y1489D01*
X598Y1489D01*
X598Y1491D01*
X596Y1491D01*
X596Y1495D01*
X594Y1495D01*
X594Y1497D01*
X592Y1497D01*
X592Y1501D01*
X590Y1501D01*
X590Y1503D01*
X588Y1503D01*
X588Y1509D01*
X586Y1509D01*
X586Y1517D01*
X584Y1517D01*
X584Y1531D01*
X586Y1531D01*
X586Y1539D01*
X588Y1539D01*
X588Y1543D01*
X590Y1543D01*
X590Y1547D01*
X592Y1547D01*
X592Y1551D01*
X594Y1551D01*
X594Y1553D01*
X596Y1553D01*
X596Y1555D01*
X598Y1555D01*
X598Y1557D01*
X600Y1557D01*
X600Y1559D01*
X602Y1559D01*
X602Y1561D01*
X604Y1561D01*
X604Y1563D01*
X606Y1563D01*
X606Y1565D01*
X610Y1565D01*
X610Y1575D01*
X254Y1575D01*
G37*
D02*
G36*
X1352Y1569D02*
X1352Y1563D01*
X1356Y1563D01*
X1356Y1561D01*
X1358Y1561D01*
X1358Y1559D01*
X1360Y1559D01*
X1360Y1557D01*
X1364Y1557D01*
X1364Y1553D01*
X1366Y1553D01*
X1366Y1551D01*
X1368Y1551D01*
X1368Y1549D01*
X1370Y1549D01*
X1370Y1545D01*
X1492Y1545D01*
X1492Y1547D01*
X1494Y1547D01*
X1494Y1549D01*
X1496Y1549D01*
X1496Y1551D01*
X1498Y1551D01*
X1498Y1555D01*
X1500Y1555D01*
X1500Y1557D01*
X1502Y1557D01*
X1502Y1559D01*
X1506Y1559D01*
X1506Y1561D01*
X1508Y1561D01*
X1508Y1563D01*
X1512Y1563D01*
X1512Y1565D01*
X1516Y1565D01*
X1516Y1567D01*
X1524Y1567D01*
X1524Y1569D01*
X1352Y1569D01*
G37*
D02*
G36*
X672Y1501D02*
X672Y1497D01*
X670Y1497D01*
X670Y1495D01*
X668Y1495D01*
X668Y1493D01*
X666Y1493D01*
X666Y1489D01*
X662Y1489D01*
X662Y1487D01*
X660Y1487D01*
X660Y1485D01*
X658Y1485D01*
X658Y1483D01*
X654Y1483D01*
X654Y1481D01*
X650Y1481D01*
X650Y1479D01*
X644Y1479D01*
X644Y1477D01*
X712Y1477D01*
X712Y1485D01*
X708Y1485D01*
X708Y1487D01*
X704Y1487D01*
X704Y1489D01*
X702Y1489D01*
X702Y1491D01*
X700Y1491D01*
X700Y1493D01*
X698Y1493D01*
X698Y1495D01*
X696Y1495D01*
X696Y1499D01*
X694Y1499D01*
X694Y1501D01*
X672Y1501D01*
G37*
D02*
G36*
X254Y1477D02*
X254Y1475D01*
X712Y1475D01*
X712Y1477D01*
X254Y1477D01*
G37*
D02*
G36*
X254Y1477D02*
X254Y1475D01*
X712Y1475D01*
X712Y1477D01*
X254Y1477D01*
G37*
D02*
G36*
X254Y1475D02*
X254Y1277D01*
X320Y1277D01*
X320Y1279D01*
X314Y1279D01*
X314Y1281D01*
X310Y1281D01*
X310Y1283D01*
X306Y1283D01*
X306Y1285D01*
X304Y1285D01*
X304Y1287D01*
X300Y1287D01*
X300Y1289D01*
X298Y1289D01*
X298Y1291D01*
X296Y1291D01*
X296Y1295D01*
X294Y1295D01*
X294Y1297D01*
X292Y1297D01*
X292Y1301D01*
X290Y1301D01*
X290Y1303D01*
X288Y1303D01*
X288Y1309D01*
X286Y1309D01*
X286Y1317D01*
X284Y1317D01*
X284Y1331D01*
X286Y1331D01*
X286Y1339D01*
X288Y1339D01*
X288Y1343D01*
X290Y1343D01*
X290Y1347D01*
X292Y1347D01*
X292Y1351D01*
X294Y1351D01*
X294Y1353D01*
X296Y1353D01*
X296Y1355D01*
X298Y1355D01*
X298Y1357D01*
X300Y1357D01*
X300Y1359D01*
X302Y1359D01*
X302Y1361D01*
X304Y1361D01*
X304Y1363D01*
X306Y1363D01*
X306Y1365D01*
X310Y1365D01*
X310Y1389D01*
X308Y1389D01*
X308Y1427D01*
X310Y1427D01*
X310Y1433D01*
X312Y1433D01*
X312Y1437D01*
X314Y1437D01*
X314Y1439D01*
X316Y1439D01*
X316Y1441D01*
X320Y1441D01*
X320Y1443D01*
X324Y1443D01*
X324Y1445D01*
X692Y1445D01*
X692Y1447D01*
X694Y1447D01*
X694Y1449D01*
X696Y1449D01*
X696Y1451D01*
X698Y1451D01*
X698Y1455D01*
X700Y1455D01*
X700Y1457D01*
X702Y1457D01*
X702Y1459D01*
X706Y1459D01*
X706Y1461D01*
X708Y1461D01*
X708Y1463D01*
X712Y1463D01*
X712Y1475D01*
X254Y1475D01*
G37*
D02*
G36*
X372Y1301D02*
X372Y1297D01*
X370Y1297D01*
X370Y1295D01*
X368Y1295D01*
X368Y1293D01*
X366Y1293D01*
X366Y1289D01*
X362Y1289D01*
X362Y1287D01*
X360Y1287D01*
X360Y1285D01*
X358Y1285D01*
X358Y1283D01*
X354Y1283D01*
X354Y1281D01*
X350Y1281D01*
X350Y1279D01*
X344Y1279D01*
X344Y1277D01*
X410Y1277D01*
X410Y1283D01*
X406Y1283D01*
X406Y1285D01*
X404Y1285D01*
X404Y1287D01*
X400Y1287D01*
X400Y1289D01*
X398Y1289D01*
X398Y1291D01*
X396Y1291D01*
X396Y1295D01*
X394Y1295D01*
X394Y1297D01*
X392Y1297D01*
X392Y1301D01*
X372Y1301D01*
G37*
D02*
G36*
X254Y1277D02*
X254Y1275D01*
X410Y1275D01*
X410Y1277D01*
X254Y1277D01*
G37*
D02*
G36*
X254Y1277D02*
X254Y1275D01*
X410Y1275D01*
X410Y1277D01*
X254Y1277D01*
G37*
D02*
G36*
X254Y1275D02*
X254Y645D01*
X692Y645D01*
X692Y647D01*
X694Y647D01*
X694Y649D01*
X696Y649D01*
X696Y651D01*
X698Y651D01*
X698Y655D01*
X700Y655D01*
X700Y657D01*
X702Y657D01*
X702Y659D01*
X706Y659D01*
X706Y661D01*
X708Y661D01*
X708Y663D01*
X712Y663D01*
X712Y685D01*
X708Y685D01*
X708Y687D01*
X704Y687D01*
X704Y689D01*
X702Y689D01*
X702Y691D01*
X700Y691D01*
X700Y693D01*
X698Y693D01*
X698Y695D01*
X696Y695D01*
X696Y699D01*
X694Y699D01*
X694Y701D01*
X692Y701D01*
X692Y705D01*
X690Y705D01*
X690Y711D01*
X688Y711D01*
X688Y721D01*
X686Y721D01*
X686Y727D01*
X688Y727D01*
X688Y737D01*
X690Y737D01*
X690Y743D01*
X692Y743D01*
X692Y747D01*
X694Y747D01*
X694Y749D01*
X696Y749D01*
X696Y751D01*
X698Y751D01*
X698Y755D01*
X700Y755D01*
X700Y757D01*
X702Y757D01*
X702Y759D01*
X706Y759D01*
X706Y761D01*
X708Y761D01*
X708Y763D01*
X712Y763D01*
X712Y785D01*
X708Y785D01*
X708Y787D01*
X704Y787D01*
X704Y789D01*
X702Y789D01*
X702Y791D01*
X700Y791D01*
X700Y793D01*
X698Y793D01*
X698Y795D01*
X696Y795D01*
X696Y799D01*
X694Y799D01*
X694Y801D01*
X692Y801D01*
X692Y805D01*
X690Y805D01*
X690Y811D01*
X688Y811D01*
X688Y821D01*
X686Y821D01*
X686Y827D01*
X688Y827D01*
X688Y837D01*
X690Y837D01*
X690Y843D01*
X692Y843D01*
X692Y847D01*
X694Y847D01*
X694Y849D01*
X696Y849D01*
X696Y851D01*
X698Y851D01*
X698Y855D01*
X700Y855D01*
X700Y857D01*
X702Y857D01*
X702Y859D01*
X706Y859D01*
X706Y861D01*
X708Y861D01*
X708Y863D01*
X712Y863D01*
X712Y885D01*
X708Y885D01*
X708Y887D01*
X704Y887D01*
X704Y889D01*
X702Y889D01*
X702Y891D01*
X700Y891D01*
X700Y893D01*
X698Y893D01*
X698Y895D01*
X696Y895D01*
X696Y899D01*
X694Y899D01*
X694Y901D01*
X430Y901D01*
X430Y903D01*
X424Y903D01*
X424Y905D01*
X420Y905D01*
X420Y907D01*
X418Y907D01*
X418Y909D01*
X416Y909D01*
X416Y911D01*
X414Y911D01*
X414Y915D01*
X412Y915D01*
X412Y941D01*
X410Y941D01*
X410Y1275D01*
X254Y1275D01*
G37*
D02*
G36*
X1370Y801D02*
X1370Y799D01*
X1368Y799D01*
X1368Y797D01*
X1366Y797D01*
X1366Y793D01*
X1364Y793D01*
X1364Y791D01*
X1362Y791D01*
X1362Y789D01*
X1358Y789D01*
X1358Y787D01*
X1356Y787D01*
X1356Y785D01*
X1352Y785D01*
X1352Y763D01*
X1356Y763D01*
X1356Y761D01*
X1358Y761D01*
X1358Y759D01*
X1360Y759D01*
X1360Y757D01*
X1364Y757D01*
X1364Y753D01*
X1366Y753D01*
X1366Y751D01*
X1368Y751D01*
X1368Y749D01*
X1994Y749D01*
X1994Y747D01*
X2002Y747D01*
X2002Y745D01*
X2008Y745D01*
X2008Y743D01*
X2012Y743D01*
X2012Y741D01*
X2014Y741D01*
X2014Y739D01*
X2018Y739D01*
X2018Y737D01*
X2020Y737D01*
X2020Y735D01*
X2022Y735D01*
X2022Y733D01*
X2024Y733D01*
X2024Y731D01*
X2026Y731D01*
X2026Y727D01*
X2028Y727D01*
X2028Y723D01*
X2030Y723D01*
X2030Y721D01*
X2032Y721D01*
X2032Y715D01*
X2034Y715D01*
X2034Y705D01*
X2036Y705D01*
X2036Y697D01*
X2034Y697D01*
X2034Y687D01*
X2032Y687D01*
X2032Y681D01*
X2030Y681D01*
X2030Y677D01*
X2028Y677D01*
X2028Y675D01*
X2026Y675D01*
X2026Y671D01*
X2024Y671D01*
X2024Y669D01*
X2022Y669D01*
X2022Y667D01*
X2020Y667D01*
X2020Y665D01*
X2018Y665D01*
X2018Y663D01*
X2014Y663D01*
X2014Y661D01*
X2012Y661D01*
X2012Y659D01*
X2008Y659D01*
X2008Y657D01*
X2002Y657D01*
X2002Y655D01*
X2274Y655D01*
X2274Y657D01*
X2268Y657D01*
X2268Y659D01*
X2264Y659D01*
X2264Y661D01*
X2262Y661D01*
X2262Y663D01*
X2258Y663D01*
X2258Y665D01*
X2256Y665D01*
X2256Y667D01*
X2254Y667D01*
X2254Y669D01*
X2252Y669D01*
X2252Y671D01*
X2250Y671D01*
X2250Y673D01*
X2248Y673D01*
X2248Y677D01*
X2246Y677D01*
X2246Y681D01*
X2244Y681D01*
X2244Y685D01*
X2242Y685D01*
X2242Y691D01*
X2240Y691D01*
X2240Y711D01*
X2242Y711D01*
X2242Y717D01*
X2244Y717D01*
X2244Y723D01*
X2246Y723D01*
X2246Y727D01*
X2248Y727D01*
X2248Y729D01*
X2250Y729D01*
X2250Y731D01*
X2252Y731D01*
X2252Y735D01*
X2254Y735D01*
X2254Y737D01*
X2258Y737D01*
X2258Y739D01*
X2260Y739D01*
X2260Y741D01*
X2262Y741D01*
X2262Y743D01*
X2266Y743D01*
X2266Y801D01*
X1370Y801D01*
G37*
D02*
G36*
X1370Y749D02*
X1370Y747D01*
X1726Y747D01*
X1726Y749D01*
X1370Y749D01*
G37*
D02*
G36*
X1738Y749D02*
X1738Y747D01*
X1746Y747D01*
X1746Y745D01*
X1752Y745D01*
X1752Y743D01*
X1756Y743D01*
X1756Y741D01*
X1758Y741D01*
X1758Y739D01*
X1762Y739D01*
X1762Y737D01*
X1764Y737D01*
X1764Y735D01*
X1766Y735D01*
X1766Y733D01*
X1768Y733D01*
X1768Y731D01*
X1770Y731D01*
X1770Y727D01*
X1772Y727D01*
X1772Y725D01*
X1774Y725D01*
X1774Y723D01*
X1946Y723D01*
X1946Y725D01*
X1948Y725D01*
X1948Y729D01*
X1950Y729D01*
X1950Y731D01*
X1952Y731D01*
X1952Y733D01*
X1954Y733D01*
X1954Y735D01*
X1956Y735D01*
X1956Y737D01*
X1958Y737D01*
X1958Y739D01*
X1960Y739D01*
X1960Y741D01*
X1964Y741D01*
X1964Y743D01*
X1968Y743D01*
X1968Y745D01*
X1974Y745D01*
X1974Y747D01*
X1982Y747D01*
X1982Y749D01*
X1738Y749D01*
G37*
D02*
G36*
X2310Y749D02*
X2310Y743D01*
X2312Y743D01*
X2312Y741D01*
X2314Y741D01*
X2314Y739D01*
X2318Y739D01*
X2318Y737D01*
X2320Y737D01*
X2320Y735D01*
X2322Y735D01*
X2322Y733D01*
X2324Y733D01*
X2324Y731D01*
X2326Y731D01*
X2326Y727D01*
X2328Y727D01*
X2328Y723D01*
X2502Y723D01*
X2502Y727D01*
X2504Y727D01*
X2504Y729D01*
X2506Y729D01*
X2506Y731D01*
X2508Y731D01*
X2508Y735D01*
X2510Y735D01*
X2510Y737D01*
X2514Y737D01*
X2514Y739D01*
X2516Y739D01*
X2516Y741D01*
X2518Y741D01*
X2518Y743D01*
X2522Y743D01*
X2522Y745D01*
X2526Y745D01*
X2526Y747D01*
X2534Y747D01*
X2534Y749D01*
X2310Y749D01*
G37*
D02*
G36*
X1392Y703D02*
X1392Y701D01*
X1370Y701D01*
X1370Y699D01*
X1368Y699D01*
X1368Y697D01*
X1366Y697D01*
X1366Y693D01*
X1364Y693D01*
X1364Y691D01*
X1362Y691D01*
X1362Y689D01*
X1358Y689D01*
X1358Y687D01*
X1356Y687D01*
X1356Y685D01*
X1352Y685D01*
X1352Y663D01*
X1356Y663D01*
X1356Y661D01*
X1358Y661D01*
X1358Y659D01*
X1360Y659D01*
X1360Y657D01*
X1364Y657D01*
X1364Y653D01*
X1726Y653D01*
X1726Y655D01*
X1718Y655D01*
X1718Y657D01*
X1712Y657D01*
X1712Y659D01*
X1708Y659D01*
X1708Y661D01*
X1704Y661D01*
X1704Y663D01*
X1702Y663D01*
X1702Y665D01*
X1700Y665D01*
X1700Y667D01*
X1698Y667D01*
X1698Y669D01*
X1696Y669D01*
X1696Y671D01*
X1694Y671D01*
X1694Y673D01*
X1692Y673D01*
X1692Y677D01*
X1690Y677D01*
X1690Y681D01*
X1688Y681D01*
X1688Y687D01*
X1686Y687D01*
X1686Y693D01*
X1684Y693D01*
X1684Y703D01*
X1392Y703D01*
G37*
D02*
G36*
X1774Y679D02*
X1774Y677D01*
X1772Y677D01*
X1772Y675D01*
X1770Y675D01*
X1770Y671D01*
X1768Y671D01*
X1768Y669D01*
X1766Y669D01*
X1766Y667D01*
X1764Y667D01*
X1764Y665D01*
X1762Y665D01*
X1762Y663D01*
X1758Y663D01*
X1758Y661D01*
X1756Y661D01*
X1756Y659D01*
X1752Y659D01*
X1752Y657D01*
X1746Y657D01*
X1746Y655D01*
X1738Y655D01*
X1738Y653D01*
X1982Y653D01*
X1982Y655D01*
X1974Y655D01*
X1974Y657D01*
X1968Y657D01*
X1968Y659D01*
X1964Y659D01*
X1964Y661D01*
X1960Y661D01*
X1960Y663D01*
X1958Y663D01*
X1958Y665D01*
X1956Y665D01*
X1956Y667D01*
X1954Y667D01*
X1954Y669D01*
X1952Y669D01*
X1952Y671D01*
X1950Y671D01*
X1950Y673D01*
X1948Y673D01*
X1948Y677D01*
X1946Y677D01*
X1946Y679D01*
X1774Y679D01*
G37*
D02*
G36*
X2328Y679D02*
X2328Y675D01*
X2326Y675D01*
X2326Y673D01*
X2324Y673D01*
X2324Y671D01*
X2322Y671D01*
X2322Y669D01*
X2320Y669D01*
X2320Y667D01*
X2318Y667D01*
X2318Y665D01*
X2316Y665D01*
X2316Y663D01*
X2314Y663D01*
X2314Y661D01*
X2310Y661D01*
X2310Y659D01*
X2306Y659D01*
X2306Y657D01*
X2300Y657D01*
X2300Y655D01*
X2530Y655D01*
X2530Y657D01*
X2524Y657D01*
X2524Y659D01*
X2520Y659D01*
X2520Y661D01*
X2518Y661D01*
X2518Y663D01*
X2514Y663D01*
X2514Y665D01*
X2512Y665D01*
X2512Y667D01*
X2510Y667D01*
X2510Y669D01*
X2508Y669D01*
X2508Y671D01*
X2506Y671D01*
X2506Y673D01*
X2504Y673D01*
X2504Y677D01*
X2502Y677D01*
X2502Y679D01*
X2328Y679D01*
G37*
D02*
G36*
X1994Y655D02*
X1994Y653D01*
X2714Y653D01*
X2714Y655D01*
X1994Y655D01*
G37*
D02*
G36*
X1994Y655D02*
X1994Y653D01*
X2714Y653D01*
X2714Y655D01*
X1994Y655D01*
G37*
D02*
G36*
X1994Y655D02*
X1994Y653D01*
X2714Y653D01*
X2714Y655D01*
X1994Y655D01*
G37*
D02*
G36*
X1366Y653D02*
X1366Y651D01*
X2714Y651D01*
X2714Y653D01*
X1366Y653D01*
G37*
D02*
G36*
X1366Y653D02*
X1366Y651D01*
X2714Y651D01*
X2714Y653D01*
X1366Y653D01*
G37*
D02*
G36*
X1366Y653D02*
X1366Y651D01*
X2714Y651D01*
X2714Y653D01*
X1366Y653D01*
G37*
D02*
G36*
X1368Y651D02*
X1368Y649D01*
X1370Y649D01*
X1370Y645D01*
X1372Y645D01*
X1372Y641D01*
X1374Y641D01*
X1374Y635D01*
X1376Y635D01*
X1376Y611D01*
X1374Y611D01*
X1374Y605D01*
X1372Y605D01*
X1372Y603D01*
X1370Y603D01*
X1370Y599D01*
X1368Y599D01*
X1368Y597D01*
X1366Y597D01*
X1366Y593D01*
X1364Y593D01*
X1364Y591D01*
X1362Y591D01*
X1362Y589D01*
X1358Y589D01*
X1358Y587D01*
X1356Y587D01*
X1356Y585D01*
X1352Y585D01*
X1352Y571D01*
X2556Y571D01*
X2556Y569D01*
X2562Y569D01*
X2562Y567D01*
X2566Y567D01*
X2566Y565D01*
X2570Y565D01*
X2570Y563D01*
X2572Y563D01*
X2572Y561D01*
X2574Y561D01*
X2574Y559D01*
X2576Y559D01*
X2576Y557D01*
X2578Y557D01*
X2578Y555D01*
X2580Y555D01*
X2580Y553D01*
X2582Y553D01*
X2582Y551D01*
X2584Y551D01*
X2584Y547D01*
X2586Y547D01*
X2586Y543D01*
X2588Y543D01*
X2588Y537D01*
X2590Y537D01*
X2590Y513D01*
X2588Y513D01*
X2588Y505D01*
X2586Y505D01*
X2586Y503D01*
X2584Y503D01*
X2584Y499D01*
X2582Y499D01*
X2582Y495D01*
X2580Y495D01*
X2580Y493D01*
X2578Y493D01*
X2578Y491D01*
X2576Y491D01*
X2576Y489D01*
X2574Y489D01*
X2574Y487D01*
X2570Y487D01*
X2570Y485D01*
X2568Y485D01*
X2568Y483D01*
X2564Y483D01*
X2564Y481D01*
X2560Y481D01*
X2560Y479D01*
X2552Y479D01*
X2552Y477D01*
X2714Y477D01*
X2714Y651D01*
X1368Y651D01*
G37*
D02*
G36*
X1352Y571D02*
X1352Y563D01*
X1356Y563D01*
X1356Y561D01*
X1358Y561D01*
X1358Y559D01*
X1360Y559D01*
X1360Y557D01*
X1364Y557D01*
X1364Y553D01*
X1366Y553D01*
X1366Y551D01*
X1368Y551D01*
X1368Y549D01*
X1370Y549D01*
X1370Y545D01*
X1372Y545D01*
X1372Y541D01*
X1374Y541D01*
X1374Y535D01*
X1376Y535D01*
X1376Y511D01*
X1374Y511D01*
X1374Y505D01*
X1372Y505D01*
X1372Y503D01*
X1370Y503D01*
X1370Y499D01*
X1368Y499D01*
X1368Y497D01*
X1366Y497D01*
X1366Y493D01*
X1364Y493D01*
X1364Y491D01*
X1362Y491D01*
X1362Y489D01*
X1358Y489D01*
X1358Y487D01*
X1356Y487D01*
X1356Y485D01*
X1352Y485D01*
X1352Y477D01*
X1720Y477D01*
X1720Y479D01*
X1714Y479D01*
X1714Y481D01*
X1710Y481D01*
X1710Y483D01*
X1706Y483D01*
X1706Y485D01*
X1704Y485D01*
X1704Y487D01*
X1700Y487D01*
X1700Y489D01*
X1698Y489D01*
X1698Y491D01*
X1696Y491D01*
X1696Y495D01*
X1694Y495D01*
X1694Y497D01*
X1692Y497D01*
X1692Y501D01*
X1690Y501D01*
X1690Y503D01*
X1688Y503D01*
X1688Y509D01*
X1686Y509D01*
X1686Y517D01*
X1684Y517D01*
X1684Y531D01*
X1686Y531D01*
X1686Y539D01*
X1688Y539D01*
X1688Y543D01*
X1690Y543D01*
X1690Y547D01*
X1692Y547D01*
X1692Y551D01*
X1694Y551D01*
X1694Y553D01*
X1696Y553D01*
X1696Y555D01*
X1698Y555D01*
X1698Y557D01*
X1700Y557D01*
X1700Y559D01*
X1702Y559D01*
X1702Y561D01*
X1704Y561D01*
X1704Y563D01*
X1706Y563D01*
X1706Y565D01*
X1710Y565D01*
X1710Y567D01*
X1714Y567D01*
X1714Y569D01*
X1722Y569D01*
X1722Y571D01*
X1352Y571D01*
G37*
D02*
G36*
X1742Y571D02*
X1742Y569D01*
X1748Y569D01*
X1748Y567D01*
X1754Y567D01*
X1754Y565D01*
X1756Y565D01*
X1756Y563D01*
X1760Y563D01*
X1760Y561D01*
X1762Y561D01*
X1762Y559D01*
X1764Y559D01*
X1764Y557D01*
X1766Y557D01*
X1766Y555D01*
X1768Y555D01*
X1768Y553D01*
X1770Y553D01*
X1770Y551D01*
X1772Y551D01*
X1772Y547D01*
X1774Y547D01*
X1774Y543D01*
X1776Y543D01*
X1776Y537D01*
X1778Y537D01*
X1778Y529D01*
X1780Y529D01*
X1780Y519D01*
X1778Y519D01*
X1778Y511D01*
X1776Y511D01*
X1776Y505D01*
X1774Y505D01*
X1774Y501D01*
X1772Y501D01*
X1772Y497D01*
X1770Y497D01*
X1770Y495D01*
X1768Y495D01*
X1768Y493D01*
X1766Y493D01*
X1766Y489D01*
X1762Y489D01*
X1762Y487D01*
X1760Y487D01*
X1760Y485D01*
X1758Y485D01*
X1758Y483D01*
X1754Y483D01*
X1754Y481D01*
X1750Y481D01*
X1750Y479D01*
X1744Y479D01*
X1744Y477D01*
X1976Y477D01*
X1976Y479D01*
X1970Y479D01*
X1970Y481D01*
X1966Y481D01*
X1966Y483D01*
X1962Y483D01*
X1962Y485D01*
X1960Y485D01*
X1960Y487D01*
X1956Y487D01*
X1956Y489D01*
X1954Y489D01*
X1954Y491D01*
X1952Y491D01*
X1952Y495D01*
X1950Y495D01*
X1950Y497D01*
X1948Y497D01*
X1948Y499D01*
X1946Y499D01*
X1946Y503D01*
X1944Y503D01*
X1944Y509D01*
X1942Y509D01*
X1942Y517D01*
X1940Y517D01*
X1940Y531D01*
X1942Y531D01*
X1942Y539D01*
X1944Y539D01*
X1944Y545D01*
X1946Y545D01*
X1946Y547D01*
X1948Y547D01*
X1948Y551D01*
X1950Y551D01*
X1950Y553D01*
X1952Y553D01*
X1952Y555D01*
X1954Y555D01*
X1954Y559D01*
X1958Y559D01*
X1958Y561D01*
X1960Y561D01*
X1960Y563D01*
X1962Y563D01*
X1962Y565D01*
X1966Y565D01*
X1966Y567D01*
X1970Y567D01*
X1970Y569D01*
X1978Y569D01*
X1978Y571D01*
X1742Y571D01*
G37*
D02*
G36*
X1998Y571D02*
X1998Y569D01*
X2004Y569D01*
X2004Y567D01*
X2010Y567D01*
X2010Y565D01*
X2012Y565D01*
X2012Y563D01*
X2016Y563D01*
X2016Y561D01*
X2018Y561D01*
X2018Y559D01*
X2020Y559D01*
X2020Y557D01*
X2022Y557D01*
X2022Y555D01*
X2024Y555D01*
X2024Y553D01*
X2026Y553D01*
X2026Y551D01*
X2028Y551D01*
X2028Y547D01*
X2030Y547D01*
X2030Y543D01*
X2032Y543D01*
X2032Y537D01*
X2034Y537D01*
X2034Y527D01*
X2036Y527D01*
X2036Y519D01*
X2034Y519D01*
X2034Y511D01*
X2032Y511D01*
X2032Y505D01*
X2030Y505D01*
X2030Y501D01*
X2028Y501D01*
X2028Y497D01*
X2026Y497D01*
X2026Y495D01*
X2024Y495D01*
X2024Y493D01*
X2022Y493D01*
X2022Y491D01*
X2020Y491D01*
X2020Y489D01*
X2018Y489D01*
X2018Y487D01*
X2016Y487D01*
X2016Y485D01*
X2014Y485D01*
X2014Y483D01*
X2010Y483D01*
X2010Y481D01*
X2006Y481D01*
X2006Y479D01*
X2000Y479D01*
X2000Y477D01*
X2278Y477D01*
X2278Y479D01*
X2272Y479D01*
X2272Y481D01*
X2266Y481D01*
X2266Y483D01*
X2262Y483D01*
X2262Y485D01*
X2260Y485D01*
X2260Y487D01*
X2258Y487D01*
X2258Y489D01*
X2254Y489D01*
X2254Y491D01*
X2252Y491D01*
X2252Y495D01*
X2250Y495D01*
X2250Y497D01*
X2248Y497D01*
X2248Y499D01*
X2246Y499D01*
X2246Y503D01*
X2244Y503D01*
X2244Y507D01*
X2242Y507D01*
X2242Y515D01*
X2240Y515D01*
X2240Y535D01*
X2242Y535D01*
X2242Y541D01*
X2244Y541D01*
X2244Y545D01*
X2246Y545D01*
X2246Y549D01*
X2248Y549D01*
X2248Y553D01*
X2250Y553D01*
X2250Y555D01*
X2252Y555D01*
X2252Y557D01*
X2254Y557D01*
X2254Y559D01*
X2256Y559D01*
X2256Y561D01*
X2258Y561D01*
X2258Y563D01*
X2262Y563D01*
X2262Y565D01*
X2266Y565D01*
X2266Y567D01*
X2268Y567D01*
X2268Y569D01*
X2274Y569D01*
X2274Y571D01*
X1998Y571D01*
G37*
D02*
G36*
X2300Y571D02*
X2300Y569D01*
X2306Y569D01*
X2306Y567D01*
X2310Y567D01*
X2310Y565D01*
X2314Y565D01*
X2314Y563D01*
X2316Y563D01*
X2316Y561D01*
X2318Y561D01*
X2318Y559D01*
X2320Y559D01*
X2320Y557D01*
X2322Y557D01*
X2322Y555D01*
X2324Y555D01*
X2324Y553D01*
X2326Y553D01*
X2326Y551D01*
X2328Y551D01*
X2328Y547D01*
X2330Y547D01*
X2330Y543D01*
X2332Y543D01*
X2332Y537D01*
X2334Y537D01*
X2334Y513D01*
X2332Y513D01*
X2332Y505D01*
X2330Y505D01*
X2330Y503D01*
X2328Y503D01*
X2328Y499D01*
X2326Y499D01*
X2326Y495D01*
X2324Y495D01*
X2324Y493D01*
X2322Y493D01*
X2322Y491D01*
X2320Y491D01*
X2320Y489D01*
X2318Y489D01*
X2318Y487D01*
X2316Y487D01*
X2316Y485D01*
X2312Y485D01*
X2312Y483D01*
X2308Y483D01*
X2308Y481D01*
X2304Y481D01*
X2304Y479D01*
X2296Y479D01*
X2296Y477D01*
X2534Y477D01*
X2534Y479D01*
X2526Y479D01*
X2526Y481D01*
X2522Y481D01*
X2522Y483D01*
X2518Y483D01*
X2518Y485D01*
X2516Y485D01*
X2516Y487D01*
X2514Y487D01*
X2514Y489D01*
X2510Y489D01*
X2510Y491D01*
X2508Y491D01*
X2508Y495D01*
X2506Y495D01*
X2506Y497D01*
X2504Y497D01*
X2504Y499D01*
X2502Y499D01*
X2502Y503D01*
X2500Y503D01*
X2500Y507D01*
X2498Y507D01*
X2498Y515D01*
X2496Y515D01*
X2496Y535D01*
X2498Y535D01*
X2498Y541D01*
X2500Y541D01*
X2500Y545D01*
X2502Y545D01*
X2502Y549D01*
X2504Y549D01*
X2504Y553D01*
X2506Y553D01*
X2506Y555D01*
X2508Y555D01*
X2508Y557D01*
X2510Y557D01*
X2510Y559D01*
X2512Y559D01*
X2512Y561D01*
X2514Y561D01*
X2514Y563D01*
X2518Y563D01*
X2518Y565D01*
X2520Y565D01*
X2520Y567D01*
X2524Y567D01*
X2524Y569D01*
X2530Y569D01*
X2530Y571D01*
X2300Y571D01*
G37*
D02*
G36*
X1352Y477D02*
X1352Y475D01*
X2714Y475D01*
X2714Y477D01*
X1352Y477D01*
G37*
D02*
G36*
X1352Y477D02*
X1352Y475D01*
X2714Y475D01*
X2714Y477D01*
X1352Y477D01*
G37*
D02*
G36*
X1352Y477D02*
X1352Y475D01*
X2714Y475D01*
X2714Y477D01*
X1352Y477D01*
G37*
D02*
G36*
X1352Y477D02*
X1352Y475D01*
X2714Y475D01*
X2714Y477D01*
X1352Y477D01*
G37*
D02*
G36*
X1352Y477D02*
X1352Y475D01*
X2714Y475D01*
X2714Y477D01*
X1352Y477D01*
G37*
D02*
G36*
X1352Y475D02*
X1352Y463D01*
X1356Y463D01*
X1356Y461D01*
X1358Y461D01*
X1358Y459D01*
X1360Y459D01*
X1360Y457D01*
X1364Y457D01*
X1364Y453D01*
X1366Y453D01*
X1366Y451D01*
X1368Y451D01*
X1368Y449D01*
X1370Y449D01*
X1370Y445D01*
X1372Y445D01*
X1372Y441D01*
X1374Y441D01*
X1374Y435D01*
X1376Y435D01*
X1376Y411D01*
X1374Y411D01*
X1374Y405D01*
X1372Y405D01*
X1372Y403D01*
X1370Y403D01*
X1370Y399D01*
X1368Y399D01*
X1368Y397D01*
X1366Y397D01*
X1366Y393D01*
X1364Y393D01*
X1364Y391D01*
X1362Y391D01*
X1362Y389D01*
X1358Y389D01*
X1358Y387D01*
X1356Y387D01*
X1356Y385D01*
X1352Y385D01*
X1352Y383D01*
X1348Y383D01*
X1348Y381D01*
X1342Y381D01*
X1342Y379D01*
X2714Y379D01*
X2714Y475D01*
X1352Y475D01*
G37*
D02*
G36*
X40Y379D02*
X40Y377D01*
X2714Y377D01*
X2714Y379D01*
X40Y379D01*
G37*
D02*
G36*
X40Y379D02*
X40Y377D01*
X2714Y377D01*
X2714Y379D01*
X40Y379D01*
G37*
D02*
G36*
X40Y379D02*
X40Y377D01*
X2714Y377D01*
X2714Y379D01*
X40Y379D01*
G37*
D02*
G36*
X40Y377D02*
X40Y123D01*
X2690Y123D01*
X2690Y121D01*
X2714Y121D01*
X2714Y377D01*
X40Y377D01*
G37*
D02*
G36*
X40Y123D02*
X40Y121D01*
X68Y121D01*
X68Y123D01*
X40Y123D01*
G37*
D02*
G36*
X74Y123D02*
X74Y121D01*
X86Y121D01*
X86Y119D01*
X92Y119D01*
X92Y117D01*
X96Y117D01*
X96Y115D01*
X100Y115D01*
X100Y113D01*
X102Y113D01*
X102Y111D01*
X104Y111D01*
X104Y109D01*
X108Y109D01*
X108Y107D01*
X110Y107D01*
X110Y105D01*
X112Y105D01*
X112Y101D01*
X114Y101D01*
X114Y99D01*
X116Y99D01*
X116Y95D01*
X118Y95D01*
X118Y91D01*
X120Y91D01*
X120Y87D01*
X122Y87D01*
X122Y81D01*
X124Y81D01*
X124Y41D01*
X2634Y41D01*
X2634Y79D01*
X2636Y79D01*
X2636Y87D01*
X2638Y87D01*
X2638Y91D01*
X2640Y91D01*
X2640Y95D01*
X2642Y95D01*
X2642Y99D01*
X2644Y99D01*
X2644Y101D01*
X2646Y101D01*
X2646Y103D01*
X2648Y103D01*
X2648Y105D01*
X2650Y105D01*
X2650Y107D01*
X2652Y107D01*
X2652Y109D01*
X2654Y109D01*
X2654Y111D01*
X2656Y111D01*
X2656Y113D01*
X2660Y113D01*
X2660Y115D01*
X2664Y115D01*
X2664Y117D01*
X2668Y117D01*
X2668Y119D01*
X2672Y119D01*
X2672Y121D01*
X2684Y121D01*
X2684Y123D01*
X74Y123D01*
G37*
D02*
G36*
X60Y101D02*
X60Y99D01*
X56Y99D01*
X56Y97D01*
X52Y97D01*
X52Y95D01*
X50Y95D01*
X50Y93D01*
X48Y93D01*
X48Y91D01*
X46Y91D01*
X46Y89D01*
X44Y89D01*
X44Y87D01*
X42Y87D01*
X42Y83D01*
X40Y83D01*
X40Y55D01*
X42Y55D01*
X42Y51D01*
X44Y51D01*
X44Y49D01*
X46Y49D01*
X46Y47D01*
X48Y47D01*
X48Y45D01*
X50Y45D01*
X50Y43D01*
X52Y43D01*
X52Y41D01*
X90Y41D01*
X90Y43D01*
X94Y43D01*
X94Y45D01*
X96Y45D01*
X96Y47D01*
X98Y47D01*
X98Y51D01*
X100Y51D01*
X100Y53D01*
X102Y53D01*
X102Y59D01*
X104Y59D01*
X104Y79D01*
X102Y79D01*
X102Y83D01*
X100Y83D01*
X100Y87D01*
X98Y87D01*
X98Y89D01*
X96Y89D01*
X96Y93D01*
X92Y93D01*
X92Y95D01*
X90Y95D01*
X90Y97D01*
X88Y97D01*
X88Y99D01*
X84Y99D01*
X84Y101D01*
X60Y101D01*
G37*
D02*
G36*
X2676Y101D02*
X2676Y99D01*
X2672Y99D01*
X2672Y97D01*
X2668Y97D01*
X2668Y95D01*
X2666Y95D01*
X2666Y93D01*
X2664Y93D01*
X2664Y91D01*
X2662Y91D01*
X2662Y89D01*
X2660Y89D01*
X2660Y87D01*
X2658Y87D01*
X2658Y83D01*
X2656Y83D01*
X2656Y55D01*
X2658Y55D01*
X2658Y51D01*
X2660Y51D01*
X2660Y49D01*
X2662Y49D01*
X2662Y47D01*
X2664Y47D01*
X2664Y45D01*
X2666Y45D01*
X2666Y43D01*
X2668Y43D01*
X2668Y41D01*
X2706Y41D01*
X2706Y43D01*
X2710Y43D01*
X2710Y45D01*
X2712Y45D01*
X2712Y47D01*
X2714Y47D01*
X2714Y89D01*
X2712Y89D01*
X2712Y93D01*
X2708Y93D01*
X2708Y95D01*
X2706Y95D01*
X2706Y97D01*
X2704Y97D01*
X2704Y99D01*
X2700Y99D01*
X2700Y101D01*
X2676Y101D01*
G37*
D02*
G36*
X747Y1545D02*
X776Y1545D01*
X776Y1505D01*
X747Y1505D01*
X747Y1545D01*
G37*
D02*
G04 End of Copper0*
M02*