; NON-PLATED HOLES START AT T1
; THROUGH (PLATED) HOLES START AT T100
M48
INCH
T1C0.086614
T100C0.036000
T101C0.038000
T102C0.030000
T103C0.035000
%
T1
X000712Y000691
X026872Y000691
X026830Y034696
X000712Y034728
T100
X013318Y015241
X007318Y009241
X013318Y014241
X013318Y004240
X007318Y011241
X013318Y016241
X007318Y005240
X013318Y010241
X013318Y008241
X013318Y013241
X013318Y007240
X007318Y010241
X013318Y017241
X007318Y007240
X007318Y013241
X013318Y018241
X007318Y012241
X013318Y009241
X007318Y015241
X013318Y005240
X007318Y017241
X007318Y004240
X007318Y006240
X013318Y011241
X007318Y014241
X013318Y006240
X013318Y012241
X007318Y018241
X007318Y008241
X007318Y016241
T101
X012318Y031240
X013318Y031240
X020318Y016241
X016318Y022241
X014318Y031240
X012318Y022241
X015318Y031240
X020318Y017241
X015318Y022241
X020318Y015241
X014318Y022241
X013318Y022241
X011318Y031240
X016318Y031240
X011318Y022241
T102
X015318Y015241
X015318Y017241
T103
X022873Y005247
X017318Y007012
X005318Y013241
X017318Y005240
X009318Y019241
X004318Y013241
X008318Y022241
X006318Y012241
X022873Y007018
X025433Y007018
X005318Y016241
X019877Y005240
X013318Y021241
X013318Y020241
X010318Y021241
X003318Y013241
X003318Y016241
X009318Y022241
X025433Y005247
X004318Y016241
X019877Y007012
X008318Y019241
X006318Y015241
X010318Y020241
T00
M30
