G04 MADE WITH FRITZING*
G04 WWW.FRITZING.ORG*
G04 DOUBLE SIDED*
G04 HOLES PLATED*
G04 CONTOUR ON CENTER OF CONTOUR VECTOR*
%ASAXBY*%
%FSLAX23Y23*%
%MOIN*%
%OFA0B0*%
%SFA1.0B1.0*%
%ADD10C,0.080000*%
%ADD11C,0.085000*%
%ADD12C,0.088000*%
%ADD13C,0.096614*%
%ADD14R,0.079972X0.080000*%
%ADD15R,0.088000X0.088000*%
%LNMASK1*%
G90*
G70*
G54D10*
X732Y1824D03*
X732Y1724D03*
X732Y1624D03*
X732Y1524D03*
X732Y1424D03*
X732Y1324D03*
X732Y1224D03*
X732Y1124D03*
X732Y1024D03*
X732Y924D03*
X732Y824D03*
X732Y724D03*
X732Y624D03*
X732Y524D03*
X732Y424D03*
X1332Y1824D03*
X1332Y1724D03*
X1332Y1624D03*
X1332Y1524D03*
X1332Y1424D03*
X1332Y1324D03*
X1332Y1224D03*
X1332Y1124D03*
X1332Y1024D03*
X1332Y924D03*
X1332Y824D03*
X1332Y724D03*
X1332Y624D03*
X1332Y524D03*
X1332Y424D03*
G54D11*
X2543Y525D03*
X2287Y525D03*
X2543Y702D03*
X2287Y702D03*
X1988Y524D03*
X1732Y524D03*
X1988Y701D03*
X1732Y701D03*
X1032Y2124D03*
X1332Y2124D03*
X1032Y2024D03*
X1332Y2024D03*
X432Y1324D03*
X432Y1624D03*
X932Y1924D03*
X932Y2224D03*
X832Y1924D03*
X832Y2224D03*
X632Y1224D03*
X632Y1524D03*
X532Y1324D03*
X532Y1624D03*
X332Y1324D03*
X332Y1624D03*
G54D12*
X1632Y3124D03*
X1532Y3124D03*
X1432Y3124D03*
X1332Y3124D03*
X1232Y3124D03*
X1132Y3124D03*
X1132Y2224D03*
X1232Y2224D03*
X1332Y2224D03*
X1432Y2224D03*
X1532Y2224D03*
X1632Y2224D03*
X2032Y1724D03*
X2032Y1624D03*
X2032Y1524D03*
G54D10*
X1532Y1524D03*
X1532Y1724D03*
G54D13*
X2683Y3470D03*
X71Y3473D03*
X2687Y69D03*
X71Y69D03*
G54D14*
X732Y1824D03*
G54D15*
X2032Y1724D03*
G04 End of Mask1*
M02*