; NON-PLATED HOLES START AT T1
; THROUGH (PLATED) HOLES START AT T100
M48
INCH
T1C0.086614
T100C0.038000
T101C0.030000
T102C0.035000
T103C0.043307
%
T1
X001267Y018321
X026267Y001321
X001267Y001321
X026267Y018321
T100
X015267Y018321
X004267Y011321
X013267Y018321
X012267Y009321
X014267Y018321
X004267Y013321
X009267Y004321
X011267Y018321
X016267Y018321
X008267Y004321
X015267Y009321
X013267Y009321
X007267Y004321
X012267Y018321
X014267Y009321
X016267Y009321
X004267Y012321
X011267Y009321
T101
X007267Y010321
X009267Y010321
T102
X019267Y013321
X022267Y013321
X022267Y016321
X019267Y016321
X020826Y004093
X018267Y002321
X013267Y002321
X015826Y002321
X018267Y004093
X019267Y006321
X022267Y006321
X015826Y004093
X019267Y010321
X019267Y012321
X022267Y010321
X022267Y012321
X022267Y005321
X019267Y005321
X019267Y007321
X022267Y007321
X019267Y008321
X022267Y008321
X020826Y002321
X013267Y004093
T103
X023267Y006321
X023267Y016988
X023267Y007321
X023267Y011988
X023267Y010321
X023267Y014988
X023267Y005321
X023267Y008321
X023267Y009321
X004267Y004321
X023267Y015988
X023267Y012988
X023267Y013988
X004267Y003321
X004267Y005321
T00
M30
